<svg width="142" height="133" viewBox="0 0 142 133" fill="none" xmlns="http://www.w3.org/2000/svg">
<path d="M34.4724 9.68708L35.3991 9.92199C39.9318 11.1839 42.1928 14.2792 43.9353 17.4895C44.3761 18.3015 44.7708 19.0958 45.1732 19.8869C45.5679 20.6626 45.9714 21.437 46.3999 22.1353C47.2298 23.4877 48.335 24.8663 50.0528 25.3486L50.6947 25.5284L51.2582 25.1727C52.0612 24.6661 52.8882 24.2002 53.7361 23.7769L53.7408 23.7746C59.7875 20.7291 68.177 20.771 75.4777 21.2701L76.9219 21.3755C76.8641 21.3711 76.9257 21.3722 77.1963 21.4599C77.4268 21.5346 77.7212 21.6424 78.072 21.7774C78.813 22.0624 79.5782 22.3793 80.4776 22.7302C81.3142 23.0566 82.1964 23.3835 82.9148 23.5786C83.2625 23.673 83.6617 23.7618 84.0355 23.778C84.2198 23.786 84.4889 23.7819 84.7766 23.6979C85.0736 23.6112 85.5175 23.3979 85.7998 22.904C87.4664 19.9865 88.5051 16.5592 89.6504 13.7094C90.8384 10.753 92.2151 8.15481 94.6183 6.18622L94.6193 6.18614C95.2501 5.66927 96.1225 5.39134 96.8208 5.4684L96.9577 5.48858C99.3432 5.96285 101.485 7.62429 103.454 10.2597C105.423 12.8958 107.102 16.3527 108.587 20.103C110.07 23.8452 111.326 27.7885 112.49 31.3853C113.638 34.933 114.717 38.2201 115.825 40.4877L115.88 40.6008L115.953 40.7036C117.766 43.2331 119.925 45.4033 121.962 47.4869C124.026 49.5992 125.98 51.6359 127.574 54.0077L127.576 54.0115C134.896 64.8211 136.716 76.1827 137.719 89.1363C138.253 96.0247 138.437 101.484 137.054 106.23C135.704 110.86 132.814 114.943 126.874 118.933C123.652 120.714 119.507 121.402 115.529 122.007L115.528 122.007C106.538 123.388 97.2298 123.707 87.9913 124.483L87.9904 124.483C73.8469 125.658 59.75 127.04 45.6363 127.942L45.6373 127.942C35.672 128.573 25.5465 128.313 18.2017 121.735C13.4514 117.481 10.8921 110.483 9.48432 102.67C8.08296 94.8916 7.87273 86.6284 7.57801 80.0446C6.82821 63.2825 12.5208 48.2666 23.8974 35.9702L24.2528 35.5855L24.292 35.062C24.6268 30.5156 24.8152 24.7226 26.1666 19.6463C27.4807 14.7102 29.7681 10.9293 33.9131 9.55933C34.0998 9.60112 34.2865 9.64243 34.4724 9.68708Z" fill="#F7CB46" stroke="black" stroke-width="3"/>
<path d="M99.1001 60.7102C100.725 58.2751 104.386 55.0233 107.537 56.523C108.382 57.9982 108.191 57.3485 108.031 59.1723C109.153 60.54 112.03 61.5597 112.514 62.4004C118.738 73.1943 103.096 79.942 96.4545 71.4107C93.462 67.5664 96.5554 63.5805 99.1001 60.7102Z" fill="#EB97BB"/>
<path d="M99.1421 61.2527C100.767 58.8176 104.429 55.5658 107.579 57.0655C108.424 58.5407 108.233 57.891 108.073 59.7148C102.791 59.5047 103.73 63.5357 99.1421 61.2527Z" fill="#040304"/>
<path d="M99.6196 68.0404C102.246 66.735 107.047 65.732 109.029 68.5958C109.025 70.2942 109.184 69.6361 108.133 71.138C103.658 68.3353 102.456 72.2963 99.6196 68.0404Z" fill="#040304"/>
<path d="M30.3771 65.6139L29.296 64.4971L29.3246 63.4049C31.887 60.9991 37.5736 62.8953 38.9588 66.2428C39.4522 66.7131 42.1159 68.7301 42.2316 68.9201C49.9113 81.542 25.7599 85.8415 26.2705 72.5505C26.3788 69.7307 27.9534 67.3736 30.3771 65.6139Z" fill="#EB97BB"/>
<path d="M30.4194 66.1575L29.3383 65.0408L29.3669 63.9486C31.9294 61.5428 37.616 63.4389 39.0011 66.7865C35.5875 68.5701 35.6924 65.4603 30.4194 66.1575Z" fill="#040304"/>
<path d="M38.4833 73.0336C35.6786 72.1718 30.7777 71.9613 29.2901 75.1085C29.5725 76.7835 29.3078 76.16 30.5903 77.4713C34.547 73.9799 36.3804 77.693 38.4833 73.0336Z" fill="#040304"/>
<path d="M67.8025 58.9778C69.9381 58.8624 72.0351 58.8986 73.851 60.0686C75.7066 63.3424 72.3263 64.7273 72.0512 68.9863C72.7435 71.4172 76.2711 73.6824 78.6542 72.1246C80.1207 71.1667 80.4238 69.7456 82.2566 69.1693C83.5802 69.9903 83.1494 69.6613 83.93 71.2305C83.6275 74.2548 81.2139 74.7876 78.5488 75.3016C75.3476 75.9191 73.8305 74.6494 71.3757 72.9043L70.2333 72.8613C68.4808 74.3391 65.5023 76.7688 63.2189 76.9912C60.7275 77.2334 57.3998 74.1462 57.0946 71.7121L57.9526 71.0202C61.2743 70.5678 59.8615 73.0134 63.4728 73.5824C66.6579 73.1011 68.0527 70.6278 70.0755 68.1074C67.314 66.5738 64.4499 65.3965 64.5204 61.9117C65.2582 60.2971 66.257 59.9267 67.8025 58.9778Z" fill="#040304"/>
<path d="M85.9853 52.7538C88.6819 52.1511 91.3586 53.8381 91.967 56.5234C92.5746 59.2081 90.884 61.8765 88.1886 62.4852C85.4893 63.0956 82.8043 61.4079 82.1956 58.7186C81.5862 56.0292 83.2833 53.357 85.9853 52.7538Z" fill="#040304"/>
<path d="M47.9407 56.4016C49.5646 55.7596 51.4096 56.0504 52.7548 57.1592C54.1001 58.2686 54.7316 60.0196 54.4018 61.7277C54.072 63.4358 52.8333 64.8289 51.1712 65.3621C48.7159 66.1499 46.0756 64.8566 45.204 62.4383C44.3323 60.02 45.5435 57.3495 47.9407 56.4016Z" fill="#040304"/>
</svg>
