<svg width="530" height="489" viewBox="0 0 530 489" fill="none" xmlns="http://www.w3.org/2000/svg">
<path d="M136.279 2.06445C138.612 2.77373 140.929 3.53696 143.225 4.35742H143.226C162.413 11.412 170.99 25.7089 177.021 39.4316C178.534 42.8744 179.872 46.2469 181.193 49.4843C182.505 52.7006 183.8 55.7849 185.195 58.5497C187.953 64.0172 191.306 68.6664 196.496 70.5937L197.329 70.9033L198.118 70.4911C201.6 68.6739 205.166 67.0297 208.808 65.5693L208.815 65.5673C235.885 54.602 271.735 58.2751 301.212 62.8652L304.045 63.3115C304.335 63.3579 304.972 63.5595 306.016 63.9951C307.008 64.4091 308.221 64.9708 309.594 65.6327C312.391 66.9808 315.571 68.6052 318.873 70.2167C322.095 71.7888 325.327 73.2932 327.9 74.2236C329.172 74.6834 330.399 75.0465 331.436 75.1767C331.951 75.2413 332.539 75.2653 333.114 75.1474C333.664 75.0344 334.356 74.7543 334.862 74.1064L334.961 73.9716C342.366 63.188 347.335 50.5156 353.077 39.0732C358.888 27.4937 365.607 16.8618 376.669 9.2246C380.303 6.71487 385.363 5.51257 389.519 6.63574C400.219 9.66679 408.906 17.9083 416.145 29.4931C423.381 41.0741 429.033 55.7782 433.737 71.3261C438.438 86.8633 442.158 103.118 445.584 117.785C448.994 132.385 452.134 145.515 455.665 154.586L455.726 154.742L455.812 154.886C461.999 165.238 469.658 174.34 477.125 183.365C484.625 192.431 491.947 201.436 497.706 211.762L497.71 211.767C523.784 258.15 527.223 304.878 526.903 356.955C526.734 384.509 525.678 407.012 518.293 426.234C510.965 445.307 497.325 461.325 471.57 475.675C457.357 482.118 439.832 483.516 423.878 484.626H423.875C387.442 487.213 349.904 485.458 313.13 485.54C256.504 485.621 199.805 486.54 143.258 485.541H143.259C103.419 484.811 61.5717 480.557 33.2648 450.643C14.8239 431.154 6.85966 401.32 3.83517 369.504C0.815207 337.735 2.75078 304.427 3.76604 278.231C6.40806 210.122 34.5665 151.167 84.7242 105.191L85.2405 104.719L85.3498 104.028C88.1566 86.2861 90.9003 62.7485 98.1347 42.5146C105.31 22.4475 116.672 6.27819 136.279 2.06445Z" fill="#FAA640" stroke="black" stroke-width="4"/>
<path d="M254.564 214.082C263.106 214.317 271.443 215.144 278.284 220.395C284.582 234.038 270.661 238.455 268.147 255.329C270.093 265.237 283.384 275.407 293.392 269.978C299.55 266.639 301.23 261.077 308.72 259.378C313.717 263.079 312.111 261.629 314.696 268.133C312.484 280.081 302.696 281.418 291.914 282.598C278.962 284.016 273.344 278.465 264.151 270.715L259.617 270.173C252.147 275.488 239.478 284.197 230.312 284.34C220.311 284.494 208.09 271.115 207.686 261.321L211.333 258.844C224.709 258.122 218.269 267.404 232.458 270.845C245.301 269.964 251.679 260.567 260.573 251.186C250.088 244.179 239.076 238.558 240.518 224.7C243.994 218.509 248.094 217.359 254.564 214.082Z" fill="#040304"/>
<path d="M329.034 195.179C339.972 193.655 350.067 201.246 351.595 212.14C353.12 223.031 345.5 233.109 334.564 234.657C323.613 236.21 313.485 228.615 311.957 217.704C310.427 206.794 318.074 196.702 329.034 195.179Z" fill="#040304"/>
<path d="M176.349 197.327C183.029 195.298 190.278 197.057 195.265 201.911C200.251 206.767 202.183 213.947 200.3 220.644C198.418 227.34 193.022 232.486 186.226 234.069C176.187 236.408 166.106 230.398 163.441 220.481C160.776 210.565 166.488 200.322 176.349 197.327Z" fill="#040304"/>
<path d="M103.333 228.304L99.4005 223.504L99.8781 219.164C110.883 210.414 132.893 219.817 137.293 233.601C139.101 235.635 149.035 244.536 149.432 245.33C175.805 298.104 78.2094 307.371 84.6707 254.598C86.0414 243.401 93.0962 234.525 103.333 228.304Z" fill="#E18E29"/>
<path d="M378.615 231.146C385.896 221.975 401.559 210.214 413.605 217.213C416.478 223.364 415.934 220.714 414.688 227.926C418.7 233.739 429.814 238.736 431.462 242.243C452.649 287.261 388.117 309.049 364.516 272.907C353.882 256.621 367.527 241.751 378.615 231.146Z" fill="#E18E29"/>
<path d="M378.619 244.058C385.899 234.888 401.563 223.126 413.608 230.125C416.482 236.276 415.938 233.626 414.692 240.838C393.732 238.283 396.125 254.644 378.619 244.058Z" fill="#040304"/>
<path d="M378.213 260.505C389.105 256.159 408.555 253.726 415.494 265.778C414.909 272.542 415.762 269.972 411.078 275.613C394.194 262.993 388.089 278.379 378.213 260.505Z" fill="#040304"/>
<path d="M103.328 241.232L99.3959 236.432L99.8736 232.091C110.878 223.342 132.888 232.745 137.288 246.529C123.102 252.523 124.556 240.171 103.328 241.232Z" fill="#040304"/>
<path d="M133.156 260.513C122.276 256.167 102.832 253.734 95.8605 265.786C96.4269 272.55 95.5808 269.98 100.25 275.62C117.168 263.001 123.231 278.387 133.156 260.513Z" fill="#040304"/>
</svg>
