<svg width="153" height="144" viewBox="0 0 153 144" fill="none" xmlns="http://www.w3.org/2000/svg">
<path d="M55.7437 7.90407L56.577 8.37152C60.6227 10.7669 61.9963 14.3418 62.8384 17.8936C63.0515 18.7923 63.2244 19.6629 63.4059 20.5314C63.5839 21.3827 63.77 22.2349 64.0009 23.0202C64.4482 24.5413 65.1547 26.159 66.6869 27.0708L67.2596 27.4111L67.8968 27.2141C68.8044 26.9336 69.7244 26.6986 70.6535 26.5101L70.6586 26.5091C77.2932 25.1393 85.3819 27.3589 92.2995 29.7368L93.6663 30.2137C93.6116 30.1944 93.6708 30.2114 93.9092 30.3664C94.1121 30.4984 94.3682 30.6789 94.6716 30.9003C95.3124 31.368 95.9683 31.8725 96.7449 32.4449C97.4671 32.9773 98.2335 33.522 98.876 33.8968C99.1868 34.0782 99.5484 34.2676 99.9049 34.3803C100.081 34.4358 100.342 34.5017 100.641 34.4954C100.951 34.4889 101.436 34.3978 101.838 33.994C104.211 31.6103 106.11 28.572 107.961 26.1182C109.762 23.7318 111.64 21.6923 114.204 20.3951L114.727 20.1454C115.516 19.79 116.497 19.7652 117.155 20.0742C119.34 21.1497 120.978 23.3119 122.191 26.3732C123.402 29.4295 124.117 33.2028 124.57 37.2092C125.022 41.2069 125.203 45.3401 125.385 49.1147C125.565 52.838 125.747 56.2917 126.223 58.7686L126.247 58.8921L126.29 59.0103C127.378 61.923 128.894 64.5793 130.315 67.1198C131.755 69.6951 133.108 72.168 134.027 74.8719L134.029 74.8763C138.266 87.2132 137.049 98.6547 134.628 111.421C133.341 118.21 132.089 123.529 129.512 127.751C126.996 131.872 123.135 135.063 116.353 137.372C112.777 138.253 108.599 137.84 104.602 137.391L104.6 137.391C96.1252 136.452 87.6234 134.54 79.0773 132.944L77.3687 132.63C63.4063 130.092 49.4348 127.764 35.5727 124.97L35.5737 124.97C25.7881 122.991 16.081 120.11 10.7116 111.852C7.23906 106.511 6.59996 99.0905 7.28571 91.1819C7.9684 83.3087 9.92813 75.2763 11.3667 68.8436C15.0297 52.4663 24.4554 39.4476 38.6567 30.5312L39.1005 30.2522L39.2752 29.758C40.7882 25.4559 42.4857 19.9115 45.1188 15.3618C47.6793 10.9377 50.8774 7.88178 55.2372 7.6355C55.4065 7.72432 55.5759 7.81268 55.7437 7.90407Z" fill="#FAA640" stroke="black" stroke-width="3"/>
<path d="M104.786 73.9469C106.992 72.018 111.378 69.8297 114.028 72.0959C114.457 73.7395 114.443 73.0627 113.811 74.7818C114.536 76.3936 117.046 78.1251 117.294 79.0626C120.478 91.0997 103.61 93.5514 99.4317 83.5902C97.5488 79.1018 101.578 76.0571 104.786 73.9469Z" fill="#E18E29"/>
<path d="M104.684 74.483C106.89 72.5541 111.276 70.3657 113.925 72.6319C114.355 74.2756 114.341 73.5987 113.709 75.3178C108.665 73.7432 108.516 77.8785 104.684 74.483Z" fill="#040304"/>
<path d="M103.36 81.1564C106.237 80.5782 111.135 80.8568 112.299 84.1364C111.85 85.7749 112.176 85.1809 110.768 86.3579C107.182 82.4899 104.985 86.0018 103.36 81.1564Z" fill="#040304"/>
<path d="M37.1521 60.8298L36.4007 59.4708L36.7142 58.4239C39.8176 56.7667 44.8113 60.0742 45.2725 63.6658C45.6258 64.248 47.6695 66.8871 47.7315 67.1005C51.8423 81.2805 27.4009 79.1587 31.3722 66.46C32.2147 63.7658 34.3517 61.8992 37.1521 60.8298Z" fill="#E18E29"/>
<path d="M37.0486 61.3664L36.2972 60.0075L36.6106 58.9605C39.714 57.3034 44.7077 60.6109 45.1689 64.2024C41.4066 65.0378 42.3216 62.0628 37.0486 61.3664Z" fill="#040304"/>
<path d="M43.0382 70.1013C40.556 68.5409 35.8797 67.0648 33.6199 69.7168C33.4542 71.4072 33.3618 70.7365 34.2567 72.3356C38.9904 69.9925 39.7886 74.0534 43.0382 70.1013Z" fill="#040304"/>
<path d="M75.0155 64.1511C77.1074 64.5943 79.1224 65.1739 80.5693 66.7751C81.504 70.4176 77.8781 70.8767 76.4979 74.9169C76.53 77.4436 79.3428 80.5466 82.0512 79.6616C83.7177 79.1177 84.3822 77.8244 86.3024 77.7441C87.3654 78.8804 87.0356 78.451 87.3786 80.1687C86.295 83.0098 83.8254 82.8973 81.118 82.7014C77.8659 82.4661 76.7336 80.8463 74.8204 78.524L73.7287 78.1858C71.65 79.1573 68.1387 80.7293 65.8761 80.3511C63.4075 79.9378 61.0028 76.0931 61.3452 73.664L62.3546 73.2188C65.6797 73.6447 63.6758 75.6388 67.0133 77.126C70.2142 77.4887 72.2081 75.4632 74.8205 73.5552C72.5559 71.3575 70.0989 69.477 71.0791 66.1311C72.2139 64.764 73.2751 64.6657 75.0155 64.1511Z" fill="#040304"/>
<path d="M94.2047 62.8591C96.9658 62.9775 99.1084 65.3014 98.993 68.0519C98.877 70.8016 96.5465 72.9385 93.785 72.8262C91.0193 72.7144 88.8689 70.3878 88.985 67.6333C89.1006 64.8787 91.4383 62.7396 94.2047 62.8591Z" fill="#040304"/>
<path d="M56.5211 56.4983C58.2568 56.3003 59.9619 57.0602 60.9704 58.48C61.9788 59.9005 62.1303 61.7549 61.3649 63.3183C60.5994 64.8817 59.039 65.9049 57.2948 65.9879C54.7182 66.1108 52.5077 64.1765 52.2991 61.6155C52.0905 59.0544 53.9587 56.7908 56.5211 56.4983Z" fill="#040304"/>
</svg>
