<svg width="488" height="419" viewBox="0 0 488 419" fill="none" xmlns="http://www.w3.org/2000/svg">
<path d="M343.796 90.2935C312.06 75.9573 257.143 77.369 215.976 93.4219C174.809 109.475 215.976 123.366 215.976 123.366L248.602 125.153L289.271 130.963L343.796 118.45C343.796 118.45 375.532 104.63 343.796 90.2935Z" fill="#040605" stroke="black" stroke-width="1.3125"/>
<path d="M394.275 418.768H92.1562C132.998 321.802 154.957 283.485 192.267 236.871H362.544C374.791 305.275 381.688 341.712 394.275 418.768Z" fill="black" stroke="black" stroke-width="1.3125"/>
<mask id="path-3-inside-1_3808_3112" fill="white">
<path d="M373.559 43.7852C388.447 73.2595 398.661 127.342 399.042 159.979C396.05 181.785 393.71 192.106 387.232 204.255C381.009 216.485 372.506 229.423 361.771 238.173C362.637 242.223 364.233 248.789 364.695 252.704C353.447 255.537 336.419 260.57 328.479 269.979C326.108 272.788 328.655 277.082 331.688 278.065C343.6 282.746 357.916 277.373 369.863 275.691C373.111 294.749 378.091 315.864 380.674 334.689C370.808 337.51 362.202 338.702 353.339 344.594C347.462 348.505 344.895 355.369 352.369 358.792C359.624 362.119 377.217 359.507 384.85 357.51C388.232 377.319 391.738 400.347 394.087 420.335H1.42969V420.334H92.6016C96.1555 411.759 99.5605 403.125 102.814 394.431C107.654 396.231 117.639 399.219 122.928 400.543C140.638 404.842 159.921 412.033 178.216 407.722C186.65 406.279 193.899 395.558 190.051 387.323C179.204 364.104 148.42 352.076 127.16 341.51C131.65 331.17 137.951 319.536 143.223 309.5C146.344 303.561 150.323 295.779 153.789 290.174C157.331 292.881 162.214 297.724 165.691 300.818C170.461 304.98 175.468 308.863 180.687 312.452C191.323 319.787 203.847 326.352 217.103 324.193C227.458 322.172 234.192 313.066 231.516 302.56C228.136 289.292 218.337 279.244 208.971 269.847C201.012 261.862 193.088 255.75 183.714 249.583C186.1 245.305 189.122 241.254 192.005 237.286C182.631 228.924 170.659 216.511 169.214 203.559L168.733 198.693C168.289 193.885 168.159 189.7 168.041 184.86L168.124 179.973L168.07 169.477L168.399 164.412C168.432 156.019 169.051 145.575 169.618 137.163C171.298 112.263 173.833 83.7796 179.655 59.2422L180.229 56.8809C180.742 55.2242 181.341 53.6018 181.924 51.9678C182.878 52.7531 183.841 53.6357 184.772 54.458C195.454 66.6117 206.862 78.2666 215.297 92.2891C218.473 91.5413 221.835 90.789 224.978 89.959C227.882 98.235 232.812 115.889 241.162 119.604C243.224 120.512 245.57 120.532 247.648 119.661C257.075 115.608 254.482 92.1415 252.961 83.7188C258.34 82.1952 261.529 81.6586 267.017 81.0986C267.099 85.9441 267.277 91.1109 267.976 95.418C269.112 102.414 273.742 120.028 283.28 119.563C295.822 118.953 297.516 88.7772 299.185 80.4219C300.689 80.4404 304.411 80.605 305.657 80.249C307.764 80.1203 309.199 80.0842 311.306 80.1504C308.678 88.8766 304.91 110.996 315.966 114.054C327.104 117.134 333.658 94.2877 335.637 87.3604C338.324 87.8487 341.185 88.3167 343.842 88.8838C353.79 71.2503 361.588 60.0215 373.559 43.7852Z"/>
</mask>
<path d="M373.559 43.7852C388.447 73.2595 398.661 127.342 399.042 159.979C396.05 181.785 393.71 192.106 387.232 204.255C381.009 216.485 372.506 229.423 361.771 238.173C362.637 242.223 364.233 248.789 364.695 252.704C353.447 255.537 336.419 260.57 328.479 269.979C326.108 272.788 328.655 277.082 331.688 278.065C343.6 282.746 357.916 277.373 369.863 275.691C373.111 294.749 378.091 315.864 380.674 334.689C370.808 337.51 362.202 338.702 353.339 344.594C347.462 348.505 344.895 355.369 352.369 358.792C359.624 362.119 377.217 359.507 384.85 357.51C388.232 377.319 391.738 400.347 394.087 420.335H1.42969V420.334H92.6016C96.1555 411.759 99.5605 403.125 102.814 394.431C107.654 396.231 117.639 399.219 122.928 400.543C140.638 404.842 159.921 412.033 178.216 407.722C186.65 406.279 193.899 395.558 190.051 387.323C179.204 364.104 148.42 352.076 127.16 341.51C131.65 331.17 137.951 319.536 143.223 309.5C146.344 303.561 150.323 295.779 153.789 290.174C157.331 292.881 162.214 297.724 165.691 300.818C170.461 304.98 175.468 308.863 180.687 312.452C191.323 319.787 203.847 326.352 217.103 324.193C227.458 322.172 234.192 313.066 231.516 302.56C228.136 289.292 218.337 279.244 208.971 269.847C201.012 261.862 193.088 255.75 183.714 249.583C186.1 245.305 189.122 241.254 192.005 237.286C182.631 228.924 170.659 216.511 169.214 203.559L168.733 198.693C168.289 193.885 168.159 189.7 168.041 184.86L168.124 179.973L168.07 169.477L168.399 164.412C168.432 156.019 169.051 145.575 169.618 137.163C171.298 112.263 173.833 83.7796 179.655 59.2422L180.229 56.8809C180.742 55.2242 181.341 53.6018 181.924 51.9678C182.878 52.7531 183.841 53.6357 184.772 54.458C195.454 66.6117 206.862 78.2666 215.297 92.2891C218.473 91.5413 221.835 90.789 224.978 89.959C227.882 98.235 232.812 115.889 241.162 119.604C243.224 120.512 245.57 120.532 247.648 119.661C257.075 115.608 254.482 92.1415 252.961 83.7188C258.34 82.1952 261.529 81.6586 267.017 81.0986C267.099 85.9441 267.277 91.1109 267.976 95.418C269.112 102.414 273.742 120.028 283.28 119.563C295.822 118.953 297.516 88.7772 299.185 80.4219C300.689 80.4404 304.411 80.605 305.657 80.249C307.764 80.1203 309.199 80.0842 311.306 80.1504C308.678 88.8766 304.91 110.996 315.966 114.054C327.104 117.134 333.658 94.2877 335.637 87.3604C338.324 87.8487 341.185 88.3167 343.842 88.8838C353.79 71.2503 361.588 60.0215 373.559 43.7852Z" fill="#FAA640"/>
<path d="M373.559 43.7852L376.683 42.2071L374.118 37.1292L370.742 41.7081L373.559 43.7852ZM399.042 159.979L402.51 160.454L402.545 160.197L402.542 159.938L399.042 159.979ZM387.232 204.255L384.144 202.608L384.128 202.638L384.113 202.668L387.232 204.255ZM361.771 238.173L359.56 235.46L357.902 236.812L358.349 238.904L361.771 238.173ZM364.695 252.704L365.55 256.098L368.532 255.347L368.171 252.294L364.695 252.704ZM328.479 269.979L331.153 272.237L331.153 272.237L328.479 269.979ZM331.688 278.065L332.969 274.808L332.869 274.769L332.768 274.736L331.688 278.065ZM369.863 275.691L373.314 275.103L372.742 271.752L369.375 272.226L369.863 275.691ZM380.674 334.689L381.636 338.055L384.554 337.22L384.141 334.214L380.674 334.689ZM353.339 344.594L351.401 341.679L351.4 341.68L353.339 344.594ZM352.369 358.792L353.828 355.611L353.826 355.61L352.369 358.792ZM384.85 357.51L388.3 356.921L387.657 353.157L383.963 354.124L384.85 357.51ZM394.087 420.335V423.835H398.022L397.563 419.926L394.087 420.335ZM1.42969 420.335H-2.07031V423.835H1.42969V420.335ZM1.42969 420.334V416.834H-2.07031V420.334H1.42969ZM92.6016 420.334V423.834H94.9396L95.8349 421.674L92.6016 420.334ZM102.814 394.431L104.035 391.15L100.761 389.932L99.5365 393.204L102.814 394.431ZM122.928 400.543L122.078 403.938L122.09 403.941L122.102 403.944L122.928 400.543ZM178.216 407.722L177.626 404.272L177.519 404.29L177.413 404.315L178.216 407.722ZM190.051 387.323L186.88 388.805L186.88 388.805L190.051 387.323ZM127.16 341.51L123.95 340.116L122.626 343.165L125.602 344.644L127.16 341.51ZM143.223 309.5L140.124 307.872L140.124 307.872L143.223 309.5ZM153.789 290.174L155.914 287.393L152.845 285.047L150.812 288.333L153.789 290.174ZM165.691 300.818L163.365 303.433L163.377 303.444L163.39 303.456L165.691 300.818ZM180.687 312.452L182.673 309.571L182.67 309.568L180.687 312.452ZM217.103 324.193L217.665 327.648L217.719 327.639L217.773 327.629L217.103 324.193ZM231.516 302.56L228.124 303.423L228.124 303.424L231.516 302.56ZM208.971 269.847L211.45 267.376L211.45 267.376L208.971 269.847ZM183.714 249.583L180.657 247.878L179.072 250.719L181.79 252.507L183.714 249.583ZM192.005 237.286L194.837 239.343L196.697 236.782L194.335 234.674L192.005 237.286ZM169.214 203.559L165.731 203.903L165.733 203.925L165.735 203.947L169.214 203.559ZM168.733 198.693L165.248 199.016L165.249 199.027L165.25 199.037L168.733 198.693ZM168.041 184.86L164.542 184.801L164.54 184.873L164.542 184.946L168.041 184.86ZM168.124 179.973L171.624 180.032L171.624 179.993L171.624 179.955L168.124 179.973ZM168.07 169.477L164.578 169.25L164.57 169.372L164.57 169.494L168.07 169.477ZM168.399 164.412L171.892 164.639L171.899 164.532L171.899 164.426L168.399 164.412ZM169.618 137.163L166.126 136.927L166.126 136.928L169.618 137.163ZM179.655 59.2422L176.254 58.4165L176.252 58.4253L176.25 58.4342L179.655 59.2422ZM180.229 56.8809L176.886 55.8439L176.853 55.9486L176.827 56.0552L180.229 56.8809ZM181.924 51.9678L184.147 49.2648L180.301 46.1008L178.627 50.7916L181.924 51.9678ZM184.772 54.458L187.401 52.1474L187.255 51.9809L187.089 51.8342L184.772 54.458ZM215.297 92.2891L212.298 94.0931L213.614 96.281L216.099 95.6959L215.297 92.2891ZM224.978 89.959L228.28 88.7999L227.209 85.7494L224.084 86.575L224.978 89.959ZM241.162 119.604L239.74 122.801L239.751 122.807L241.162 119.604ZM247.648 119.661L249.001 122.889L249.016 122.883L249.031 122.877L247.648 119.661ZM252.961 83.7188L252.007 80.3512L248.952 81.2164L249.517 84.3408L252.961 83.7188ZM267.017 81.0986L270.516 81.0388L270.451 77.23L266.661 77.6167L267.017 81.0986ZM267.976 95.418L264.521 95.9785L264.521 95.979L267.976 95.418ZM283.28 119.563L283.11 116.068H283.11L283.28 119.563ZM299.185 80.4219L299.228 76.9221L296.322 76.8864L295.752 79.7363L299.185 80.4219ZM305.657 80.249L305.444 76.7555L305.063 76.7788L304.696 76.8836L305.657 80.249ZM311.306 80.1504L314.657 81.1596L315.971 76.7952L311.416 76.6521L311.306 80.1504ZM315.966 114.054L315.033 117.427L315.033 117.427L315.966 114.054ZM335.637 87.3604L336.263 83.9168L333.142 83.3496L332.271 86.3991L335.637 87.3604ZM343.842 88.8838L343.111 92.3067L345.626 92.8435L346.89 90.6036L343.842 88.8838ZM373.559 43.7852L370.435 45.3632C377.681 59.7082 383.88 80.2594 388.315 101.414C392.744 122.54 395.355 143.986 395.542 160.019L399.042 159.979L402.542 159.938C402.348 143.334 399.662 121.421 395.166 99.978C390.677 78.5638 384.325 57.3365 376.683 42.2071L373.559 43.7852ZM399.042 159.979L395.574 159.503C392.594 181.226 390.317 191.032 384.144 202.608L387.232 204.255L390.321 205.902C397.104 193.181 399.506 182.345 402.51 160.454L399.042 159.979ZM387.232 204.255L384.113 202.668C377.985 214.71 369.749 227.154 359.56 235.46L361.771 238.173L363.983 240.886C375.262 231.691 384.032 218.261 390.352 205.842L387.232 204.255ZM361.771 238.173L358.349 238.904C359.26 243.173 360.783 249.415 361.219 253.114L364.695 252.704L368.171 252.294C367.684 248.163 366.013 241.274 365.194 237.442L361.771 238.173ZM364.695 252.704L363.841 249.31C358.166 250.739 350.895 252.756 343.994 255.648C337.161 258.51 330.309 262.384 325.804 267.722L328.479 269.979L331.153 272.237C334.589 268.166 340.221 264.818 346.699 262.104C353.109 259.418 359.976 257.502 365.55 256.098L364.695 252.704ZM328.479 269.979L325.804 267.722C323.489 270.465 323.774 273.797 324.883 276.182C325.958 278.494 328.049 280.565 330.609 281.395L331.688 278.065L332.768 274.736C332.569 274.671 332.274 274.513 331.958 274.22C331.646 273.93 331.392 273.578 331.231 273.231C331.068 272.882 331.04 272.627 331.048 272.492C331.053 272.396 331.073 272.332 331.153 272.237L328.479 269.979ZM331.688 278.065L330.408 281.323C337.219 283.999 344.509 283.725 351.274 282.727C354.673 282.225 358.055 281.52 361.246 280.857C364.478 280.185 367.498 279.559 370.351 279.157L369.863 275.691L369.375 272.226C366.255 272.665 363.006 273.341 359.821 274.003C356.595 274.674 353.414 275.335 350.251 275.802C343.893 276.74 338.069 276.812 332.969 274.808L331.688 278.065ZM369.863 275.691L366.413 276.279C369.73 295.744 374.621 316.32 377.206 335.165L380.674 334.689L384.141 334.214C381.562 315.409 376.492 293.754 373.314 275.103L369.863 275.691ZM380.674 334.689L379.712 331.324C370.361 333.998 360.863 335.39 351.401 341.679L353.339 344.594L355.276 347.509C363.542 342.015 371.256 341.022 381.636 338.055L380.674 334.689ZM353.339 344.594L351.4 341.68C348.007 343.938 345.056 347.362 344.395 351.297C344.05 353.357 344.353 355.521 345.548 357.493C346.719 359.427 348.584 360.908 350.912 361.974L352.369 358.792L353.826 355.61C352.417 354.964 351.8 354.304 351.534 353.866C351.292 353.466 351.203 353.029 351.299 352.456C351.522 351.125 352.794 349.161 355.278 347.507L353.339 344.594ZM352.369 358.792L350.91 361.973C353.288 363.064 356.237 363.565 359.192 363.768C362.204 363.975 365.502 363.889 368.739 363.637C375.2 363.135 381.712 361.949 385.736 360.896L384.85 357.51L383.963 354.124C380.354 355.068 374.254 356.187 368.197 356.658C365.174 356.893 362.237 356.961 359.672 356.784C357.049 356.604 355.078 356.184 353.828 355.611L352.369 358.792ZM384.85 357.51L381.4 358.099C384.776 377.869 388.271 400.834 390.611 420.744L394.087 420.335L397.563 419.926C395.204 399.86 391.689 376.768 388.3 356.921L384.85 357.51ZM394.087 420.335V416.835H1.42969V420.335V423.835H394.087V420.335ZM1.42969 420.335H4.92969V420.334H1.42969H-2.07031V420.335H1.42969ZM1.42969 420.334V423.834H92.6016V420.334V416.834H1.42969V420.334ZM92.6016 420.334L95.8349 421.674C99.4042 413.062 102.824 404.39 106.092 395.658L102.814 394.431L99.5365 393.204C96.2969 401.86 92.9067 410.457 89.3683 418.994L92.6016 420.334ZM102.814 394.431L101.594 397.711C106.584 399.568 116.698 402.592 122.078 403.938L122.928 400.543L123.778 397.148C118.58 395.847 108.724 392.895 104.035 391.15L102.814 394.431ZM122.928 400.543L122.102 403.944C130.627 406.014 140.299 408.988 149.69 410.798C159.238 412.638 169.187 413.445 179.019 411.128L178.216 407.722L177.413 404.315C168.95 406.309 160.11 405.677 151.015 403.924C141.764 402.142 132.939 399.372 123.753 397.142L122.928 400.543ZM178.216 407.722L178.806 411.172C184.22 410.245 188.929 406.456 191.723 401.899C194.527 397.326 195.783 391.324 193.222 385.842L190.051 387.323L186.88 388.805C188.166 391.558 187.722 395.033 185.756 398.24C183.779 401.463 180.646 403.755 177.626 404.272L178.216 407.722ZM190.051 387.323L193.222 385.842C187.37 373.315 176.274 364.057 164.349 356.693C152.458 349.351 139.124 343.547 128.718 338.376L127.16 341.51L125.602 344.644C136.456 350.039 149.144 355.532 160.672 362.65C172.166 369.747 181.885 378.112 186.88 388.805L190.051 387.323ZM127.16 341.51L130.371 342.904C134.794 332.717 141.01 321.238 146.321 311.128L143.223 309.5L140.124 307.872C134.892 317.833 128.506 329.623 123.95 340.116L127.16 341.51ZM143.223 309.5L146.321 311.128C149.483 305.111 153.383 297.485 156.766 292.015L153.789 290.174L150.812 288.333C147.263 294.073 143.205 302.01 140.124 307.872L143.223 309.5ZM153.789 290.174L151.664 292.955C155.083 295.568 159.616 300.097 163.365 303.433L165.691 300.818L168.018 298.204C164.811 295.35 159.579 290.194 155.914 287.393L153.789 290.174ZM165.691 300.818L163.39 303.456C168.262 307.706 173.375 311.671 178.703 315.336L180.687 312.452L182.67 309.568C177.561 306.054 172.66 302.254 167.993 298.181L165.691 300.818ZM180.687 312.452L178.7 315.333C189.419 322.725 202.956 330.043 217.665 327.648L217.103 324.193L216.54 320.739C204.738 322.661 193.226 316.848 182.673 309.571L180.687 312.452ZM217.103 324.193L217.773 327.629C229.842 325.273 238.143 314.399 234.907 301.696L231.516 302.56L228.124 303.424C230.241 311.734 225.074 319.071 216.432 320.758L217.103 324.193ZM231.516 302.56L234.907 301.696C231.255 287.355 220.705 276.663 211.45 267.376L208.971 269.847L206.492 272.317C215.968 281.826 225.018 291.229 228.124 303.423L231.516 302.56ZM208.971 269.847L211.45 267.376C203.282 259.182 195.158 252.922 185.638 246.659L183.714 249.583L181.79 252.507C191.017 258.577 198.742 264.543 206.492 272.318L208.971 269.847ZM183.714 249.583L186.77 251.288C189.031 247.236 191.904 243.38 194.837 239.343L192.005 237.286L189.173 235.229C186.341 239.128 183.169 243.375 180.657 247.878L183.714 249.583ZM192.005 237.286L194.335 234.674C189.718 230.556 184.576 225.538 180.432 220.037C176.26 214.5 173.316 208.755 172.692 203.17L169.214 203.559L165.735 203.947C166.558 211.314 170.322 218.252 174.841 224.25C179.387 230.284 184.918 235.654 189.675 239.898L192.005 237.286ZM169.214 203.559L172.697 203.215L172.216 198.349L168.733 198.693L165.25 199.037L165.731 203.903L169.214 203.559ZM168.733 198.693L172.219 198.371C171.785 193.69 171.658 189.606 171.54 184.775L168.041 184.86L164.542 184.946C164.66 189.794 164.792 194.08 165.248 199.016L168.733 198.693ZM168.041 184.86L171.541 184.92L171.624 180.032L168.124 179.973L164.625 179.913L164.542 184.801L168.041 184.86ZM168.124 179.973L171.624 179.955L171.57 169.459L168.07 169.477L164.57 169.494L164.624 179.991L168.124 179.973ZM168.07 169.477L171.563 169.704L171.892 164.639L168.399 164.412L164.907 164.185L164.578 169.25L168.07 169.477ZM168.399 164.412L171.899 164.426C171.931 156.155 172.543 145.81 173.11 137.398L169.618 137.163L166.126 136.928C165.559 145.339 164.932 155.883 164.899 164.399L168.399 164.412ZM169.618 137.163L173.11 137.399C174.789 112.51 177.312 84.2803 183.061 60.0502L179.655 59.2422L176.25 58.4342C170.355 83.2789 167.807 112.016 166.126 136.927L169.618 137.163ZM179.655 59.2422L183.056 60.0679L183.63 57.7065L180.229 56.8809L176.827 56.0552L176.254 58.4165L179.655 59.2422ZM180.229 56.8809L183.571 57.9178C184.057 56.3517 184.62 54.8273 185.22 53.144L181.924 51.9678L178.627 50.7916C178.062 52.3763 177.428 54.0966 176.886 55.8439L180.229 56.8809ZM181.924 51.9678L179.7 54.6708C180.592 55.4045 181.455 56.198 182.456 57.0818L184.772 54.458L187.089 51.8342C186.227 51.0734 185.165 50.1017 184.147 49.2648L181.924 51.9678ZM184.772 54.458L182.144 56.7686C192.997 69.1173 204.075 80.4232 212.298 94.0931L215.297 92.2891L218.296 90.485C209.649 76.1099 197.912 64.1061 187.401 52.1474L184.772 54.458ZM215.297 92.2891L216.099 95.6959C219.222 94.9608 222.668 94.189 225.871 93.3429L224.978 89.959L224.084 86.575C221.002 87.389 217.725 88.1218 214.495 88.8822L215.297 92.2891ZM224.978 89.959L221.675 91.118C223.055 95.0509 225.114 101.831 227.832 107.919C229.203 110.991 230.809 114.049 232.691 116.63C234.55 119.18 236.863 121.522 239.74 122.801L241.162 119.604L242.585 116.406C241.286 115.828 239.852 114.57 238.347 112.506C236.866 110.475 235.492 107.905 234.224 105.065C231.663 99.328 229.804 93.1431 228.28 88.7999L224.978 89.959ZM241.162 119.604L239.751 122.807C242.693 124.102 246.038 124.131 249.001 122.889L247.648 119.661L246.296 116.433C245.102 116.933 243.755 116.921 242.573 116.4L241.162 119.604ZM247.648 119.661L249.031 122.877C252.64 121.325 254.736 118.067 255.957 114.72C257.189 111.344 257.729 107.37 257.906 103.489C258.263 95.7034 257.191 87.4482 256.405 83.0967L252.961 83.7188L249.517 84.3408C250.252 88.412 251.237 96.1016 250.914 103.169C250.751 106.714 250.267 109.892 249.381 112.32C248.485 114.776 247.37 115.971 246.266 116.446L247.648 119.661ZM252.961 83.7188L253.915 87.0863C259.065 85.6277 262.049 85.1237 267.372 84.5806L267.017 81.0986L266.661 77.6167C261.01 78.1934 257.616 78.7627 252.007 80.3512L252.961 83.7188ZM267.017 81.0986L263.517 81.1585C263.6 85.9973 263.777 91.3942 264.521 95.9785L267.976 95.418L271.43 94.8574C270.777 90.8276 270.599 85.891 270.516 81.0388L267.017 81.0986ZM267.976 95.418L264.521 95.979C265.119 99.6637 266.633 106.17 269.319 111.796C270.659 114.604 272.391 117.406 274.62 119.514C276.894 121.664 279.857 123.234 283.451 123.059L283.28 119.563L283.11 116.068C281.934 116.125 280.742 115.668 279.429 114.427C278.072 113.144 276.787 111.192 275.636 108.781C273.338 103.967 271.968 98.168 271.43 94.857L267.976 95.418ZM283.28 119.563L283.451 123.059C288.186 122.829 291.517 119.773 293.77 116.251C296.019 112.736 297.569 108.22 298.702 103.758C299.847 99.2491 300.627 94.5334 301.222 90.4854C301.836 86.3052 302.223 83.081 302.617 81.1075L299.185 80.4219L295.752 79.7363C295.312 81.9404 294.861 85.6214 294.296 89.4682C293.712 93.4471 292.972 97.8801 291.917 102.036C290.85 106.239 289.521 109.903 287.873 112.479C286.229 115.048 284.645 115.993 283.11 116.068L283.28 119.563ZM299.185 80.4219L299.142 83.9216C299.747 83.9291 301.246 83.9769 302.521 83.9759C303.191 83.9753 303.9 83.9627 304.551 83.922C305.132 83.8855 305.92 83.8141 306.619 83.6144L305.657 80.249L304.696 76.8836C304.772 76.862 304.627 76.9034 304.113 76.9357C303.667 76.9636 303.119 76.9754 302.515 76.9759C301.241 76.9769 300.127 76.9332 299.228 76.9221L299.185 80.4219ZM305.657 80.249L305.871 83.7425C307.89 83.6191 309.216 83.5865 311.196 83.6487L311.306 80.1504L311.416 76.6521C309.183 76.582 307.637 76.6214 305.444 76.7555L305.657 80.249ZM311.306 80.1504L307.954 79.1412C306.572 83.73 304.886 91.8136 305.005 99.2836C305.064 103.007 305.574 106.858 307 110.102C308.467 113.44 311.005 116.313 315.033 117.427L315.966 114.054L316.899 110.68C315.399 110.265 314.262 109.228 313.408 107.285C312.513 105.249 312.056 102.451 312.004 99.1721C311.9 92.6363 313.411 85.2971 314.657 81.1596L311.306 80.1504ZM315.966 114.054L315.033 117.427C319.199 118.579 322.845 117.191 325.682 114.861C328.416 112.614 330.602 109.36 332.329 106.097C335.803 99.5364 338.022 91.7541 339.002 88.3216L335.637 87.3604L332.271 86.3991C331.273 89.894 329.226 96.9983 326.143 102.822C324.592 105.751 322.927 108.064 321.238 109.452C319.652 110.755 318.302 111.068 316.899 110.68L315.966 114.054ZM335.637 87.3604L335.011 90.8039C337.784 91.308 340.523 91.7544 343.111 92.3067L343.842 88.8838L344.572 85.4609C341.846 84.8791 338.863 84.3894 336.263 83.9168L335.637 87.3604ZM343.842 88.8838L346.89 90.6036C356.742 73.1412 364.449 62.0386 376.376 45.8622L373.559 43.7852L370.742 41.7081C358.726 58.0044 350.839 69.3594 340.793 87.164L343.842 88.8838Z" fill="black" mask="url(#path-3-inside-1_3808_3112)"/>
<path d="M230.176 420.331C238.177 398.358 256.01 347.166 277.915 337.023C284.854 333.814 292.053 333.606 299.206 336.247C311.612 340.833 318.794 351.477 324.017 363.051C329.438 375.06 333.887 388.477 337.242 401.214C338.91 407.546 340.198 413.974 341.764 420.331H292.911H284.579H230.176Z" fill="#F7CB46"/>
<path d="M160.345 183.488C164.585 183.439 185.588 182.842 186.611 187.453C186.281 188.203 185.26 189.847 184.381 189.837C176.425 189.749 168.249 188.554 160.262 188.375C135.484 188.091 108.657 189.245 84.0611 193.069C81.2144 193.512 75.4488 195.575 74.8203 191.448C74.9783 190.984 75.1292 190.598 75.4858 190.245C80.7409 185.04 148.884 183.39 160.345 183.488Z" fill="#F3F6F5"/>
<path d="M160.949 202.209C165.881 200.524 189.657 194.452 193.719 196.258C194.709 197.357 194.439 196.735 194.597 198.172C194.145 199.203 193.596 200.079 192.451 200.411C188.502 201.557 183.732 202.033 179.667 202.797C173.54 204.01 167.457 205.437 161.429 207.074C140.117 214.039 118.775 220.695 98.4839 230.207C96.958 230.923 96.0134 231.213 94.4517 230.541C93.5483 229.277 93.6604 229.798 93.6211 228.402C96.9812 221.808 151.037 205.432 160.949 202.209Z" fill="#F3F6F5"/>
<path d="M160.285 172.991C156.778 171.322 149.524 169.689 145.564 168.636C132.222 165.091 118.855 161.519 105.313 158.82C102.429 158.245 92.2496 157.116 93.0135 152.951C93.3426 152.671 93.3522 152.63 93.8089 152.426C98.1935 150.474 152.143 165.321 160.614 167.927C166.697 169.67 173.032 171.485 179.043 173.495C180.781 174.076 182.851 174.925 182.625 176.953C181.844 177.919 181.077 178.375 179.825 178.544C178.354 178.741 162.364 173.966 160.285 172.991Z" fill="#F3F6F5"/>
<path d="M293.035 189.806C312.715 187.348 334.146 192.691 330.504 217.714C326.585 244.638 292.777 249.241 270.598 245.283C251.996 241.963 233.452 227.805 237.689 206.489C242.555 184.092 267.315 186.22 284.704 189.909L285.434 190.242L286.094 190.552C287.72 190.827 288.045 190.848 289.688 190.715C290.924 189.701 291.346 189.843 293.035 189.806Z" fill="#F7CB46"/>
<path d="M289.702 190.721C290.938 189.708 291.36 189.85 293.049 189.812C296.038 194.34 292.738 198.427 289.177 201.235C289.85 207.359 289.689 221.99 299.28 222.05C303.582 222.077 301.936 211.081 307.802 214.574C308.675 215.895 308.88 216.951 308.494 218.529C305.382 231.266 293.961 230.614 287.429 220.53C283.445 228.25 279.807 231.713 270.48 227.492C264.559 224.813 259.786 209.406 264.978 206.536C266.006 206.419 266.384 206.27 267.286 206.766C270.728 211.317 266.873 222.788 275.609 223.851C279.574 224.334 282.634 221.676 282.591 217.695C282.533 212.285 281.533 207.341 282.153 201.922C279.706 199.458 276.897 194.789 280.002 191.773C281.451 191.364 282.073 191.578 283.116 192.707L285.448 190.249L286.108 190.558C287.735 190.833 288.06 190.855 289.702 190.721Z" fill="#040605"/>
<path d="M285.438 190.246L286.098 190.556C287.724 190.83 288.049 190.852 289.692 190.718C288.948 192.918 288.544 195.058 286.615 196.284C284.409 196.2 284.069 194.547 283.105 192.704L285.438 190.246Z" fill="#8D5612"/>
<path d="M309.051 197.648C312.542 199.884 311.733 201.46 308.92 203.728C304.639 202.54 306.649 199.561 309.051 197.648Z" fill="#040605"/>
<path d="M313.978 206.582C317.687 207.051 318.705 209.437 316.131 212.287C313.074 211.141 311.841 209.4 313.978 206.582Z" fill="#040605"/>
<path d="M247.45 214.536C248.794 214.499 248.89 214.457 250.104 214.954C251.043 216.001 250.802 215.407 250.885 216.784C250.319 218.004 250.027 218.044 248.796 218.764C247.638 218.958 247.631 218.936 246.448 218.806C245.408 217.897 245.697 218.451 245.535 217.094C246.026 215.632 246.219 215.579 247.45 214.536Z" fill="#040605"/>
<path d="M251.323 204.398C253.157 204.542 254.11 205.117 254.456 206.951C253.847 208.441 254.096 207.951 252.582 209.012C250.529 209.094 249.542 208.784 249.336 206.632C250.019 205.071 249.805 205.555 251.323 204.398Z" fill="#040605"/>
<path d="M322.871 206.331C324.063 205.97 325.327 206.611 325.738 207.786C326.15 208.96 325.563 210.25 324.407 210.711C323.614 211.027 322.712 210.884 322.056 210.336C321.402 209.789 321.099 208.926 321.269 208.09C321.44 207.254 322.055 206.579 322.871 206.331Z" fill="#040605"/>
<path d="M260.436 195.824C261.424 195.955 261.454 196.082 262.231 196.682C263.165 199.095 261.736 199.838 259.675 200.565C258.411 199.887 257.798 199.598 257.73 198.091C258.402 196.811 259.17 196.552 260.436 195.824Z" fill="#040605"/>
<path d="M231.301 129.779C232.425 129.601 236.612 129.533 237.885 129.525C248.433 129.452 257.251 129.642 266.57 135.329C278.692 142.727 278.964 160.275 271.777 171.171C265.843 180.166 250.907 185.345 240.388 187.304L239.852 187.391C228.364 189.213 214.992 188.41 205.147 181.385C192.862 172.618 191.499 156.091 200.657 144.503C208.967 133.988 218.679 131.429 231.301 129.779Z" fill="#040605"/>
<path d="M241.966 135.496C244.205 134.911 247.959 135.393 250.257 135.653C233.854 146.093 237.131 166.311 251.2 176.962C248.497 178.313 246.592 179.026 243.783 180.068C232.396 183.106 216.462 182.979 207.354 174.553C198.843 166.678 199.61 154.646 207.512 146.642C216.296 137.746 229.983 135.735 241.966 135.496Z" fill="#F3F6F5"/>
<path d="M335.841 124.934C350.163 123.394 375.643 127.746 377.13 146.192C378.955 168.836 354.536 180.087 335.059 181.78C325.461 183.411 308.927 181.26 301.158 175.415C290.234 167.197 290.913 153.632 298.935 143.598C308.122 132.105 321.632 126.647 335.841 124.934Z" fill="#040605"/>
<path d="M335.908 131.37C337.539 130.478 342.692 131.219 344.437 132.052C344.604 133.711 342.009 138.125 341.403 140.015C337.107 153.43 340.51 163.585 352.045 171.011C349.384 172.391 347.312 173.442 344.348 174.054C332.882 176.68 314.435 178.019 304.528 170.513C296.436 163.701 299.222 152.406 305.453 145.592C313.62 136.659 323.977 132.261 335.908 131.37Z" fill="#F3F6F5"/>
<path d="M188.737 74.3516C193.548 75.24 204.094 90.9137 204.579 96.1128C204.742 97.8593 197.891 101.137 196.243 101.983C193.757 103.299 189.319 106.033 186.685 105.981C183.003 104.185 183.608 93.5881 183.749 89.8666C183.957 84.3657 183.331 77.2895 188.737 74.3516Z" fill="#F7CB46"/>
<path d="M368.438 69.1367C373.524 71.0383 373.952 81.2541 374.541 85.8109C375.76 95.2461 373.599 97.2509 364.4 95.1668C362.029 94.502 359.021 93.8913 357.276 92.1686C354.39 86.3554 363.078 72.5505 368.438 69.1367Z" fill="#F7CB46"/>
<path d="M403.876 181.09C413.873 180.878 424.032 180.799 434.026 181.105C440.077 181.289 484.333 183.907 486.971 186.52C487.419 186.963 487.401 187.206 487.559 187.789C487.112 189.165 487.426 188.813 486.439 189.681C483.141 190.012 468.503 188.068 463.952 187.667C448.44 186.346 432.887 185.562 417.321 185.317C413.201 185.292 406.936 185.048 403.035 185.377C392.953 185.837 383.408 186.494 373.405 187.993C371.585 188.265 371.23 185.859 371.6 184.498C375.204 181.384 398.794 180.759 403.876 181.09Z" fill="#F3F6F5"/>
<path d="M394.26 205.975C388.117 205.262 378.27 201.594 371.89 200.464C370.353 200.192 368.498 198.702 368.863 196.809C372.245 192.764 392.231 199.935 397.121 201.291C405.571 203.796 454.98 222.429 457.344 226.84C457.726 227.553 457.879 228.095 457.783 228.912C455.059 231.235 446.674 226.369 443.679 225.104C428.063 218.511 410.735 210.001 394.26 205.975Z" fill="#F3F6F5"/>
<path d="M406.071 161.699C423.847 154.413 442.696 149.542 461.039 144.053C463.632 143.277 466.735 141.966 468.336 144.784C468.26 145.499 468.093 146.597 467.419 146.906C460.95 149.874 449.254 152.714 442.651 154.65C432.999 157.449 423.438 160.552 413.982 163.954C412.325 164.535 407.137 166.257 405.992 166.92C401.369 168.543 387.409 175.049 384.617 175.432C383.33 175.085 383.303 174.993 382.372 173.97C381.617 169.561 401.919 163.026 406.071 161.699Z" fill="#F3F6F5"/>
<path d="M305.664 80.2402C307.894 73.7645 327.371 27.5497 330.087 25.9952C331.827 25.997 331.274 25.7794 332.696 26.5629C334.893 30.2599 326.943 43.7499 325.002 47.9645C320.118 58.5506 315.553 69.2815 311.313 80.1418C309.207 80.0756 307.771 80.1114 305.664 80.2402Z" fill="#F3F6F5"/>
<path d="M265.109 10.3253C264.825 7.89122 263.135 -0.441994 267.841 0.0183465C270.631 1.94975 269.734 6.84116 270.495 9.49885C271.08 24.9071 274.536 40.7656 275.533 56.1733C275.602 57.2514 273.378 57.8954 272.412 57.8465C269.284 56.3462 269.277 46.716 268.869 43.2241L265.109 10.3253Z" fill="#F3F6F5"/>
<path d="M229.534 30.1675C228.324 27.6202 224.373 21.9243 226.888 19.4336C230.114 19.6495 232.83 25.7138 234.139 28.2916C239.093 38.2712 243.938 48.3045 248.673 58.3896C250.054 61.2882 254.295 67.9655 253.746 70.7204C252.865 71.7401 250.51 72.5379 249.842 71.3525C242.374 58.1171 236.833 43.5275 229.534 30.1675Z" fill="#F3F6F5"/>
<path d="M298.997 4.70399C302.086 4.48574 303.058 5.51197 302.579 8.55487C299.882 25.6912 297.467 42.8264 295.302 60.0379C295.182 60.9955 294.59 61.8935 294.037 62.6598C291.018 62.7587 289.861 61.6723 290.409 58.6693C291.936 50.2979 295.323 9.51788 298.997 4.70399Z" fill="#F3F6F5"/>
<path d="M94.7188 419.215H391.921" stroke="black" stroke-width="3.9375"/>
<path d="M40.0312 398.235C41.8206 441.586 2.32922 398.682 2.32922 398.682L2.32934 402.704C0.840991 362.361 1.11291 340.288 2.32934 301.253C1.67049 281.559 1.60916 271.544 2.32934 256.561L9.03316 225.723L24.2285 206.059L38.7188 230.999C39.2108 233.149 44.0983 242.045 42.6562 260.53C42.6562 260.53 44.088 290.974 43.1925 317.789C42.297 344.604 38.2419 354.883 40.0312 398.235Z" fill="black" stroke="black" stroke-width="1.3125"/>
<path d="M25.5003 269.457L25.7186 269.91C27.7147 274.132 31.2936 292.868 34.3128 294.108C34.9526 294.376 35.6654 294.388 36.2881 294.102C37.5539 293.512 38.1441 292.027 38.5447 290.781C39.6531 287.34 39.2422 283.136 39.2444 279.547C39.2486 272.928 40.8886 263.016 42.6634 256.594C46.407 278.949 44.0392 301.043 42.0493 323.565C40.8645 336.97 42.763 340.888 37.3629 353.756C35.4679 358.276 33.7849 371.937 32.1632 377.661C30.2697 365.956 30.2761 354.078 28.6655 342.354C28.4251 340.607 27.2309 339.57 25.4654 339.385C21.3579 340.643 19.8924 349.689 18.9798 353.511C17.4534 359.909 16.1969 366.397 14.6379 372.801C13.1703 361.49 13.346 348.872 12.2159 337.411C11.8997 334.203 12.8026 329.689 8.53017 329.379C4.29626 330.625 3.15204 340.029 1.44141 343.869V292.588C3.78505 292.039 4.6286 291.264 5.22013 288.771C6.74742 282.343 7.39749 275.033 8.06363 268.503C9.61972 273.721 13.8697 294.651 17.4436 296.785C18.2699 297.28 18.5906 297.161 19.5068 297.048C20.9969 296.153 21.3028 295.587 21.6899 293.876C23.4452 286.106 23.9535 277.149 25.5003 269.457Z" fill="#FAA640"/>
<path d="M1.44141 178.719C15.7497 184.87 23.4962 194.518 29.0938 208.817C31.8502 215.859 36.8991 224.438 36.8991 234.327C34.0343 238.909 33.5141 249.976 33.0257 255.67C31.1524 249.678 27.1322 228.156 22.301 225.756C21.5404 225.378 20.7435 225.409 19.9706 225.735C19.1362 226.088 18.4558 226.728 18.0527 227.539C17.3332 228.984 17.8939 271.943 17.875 277.369L17.7113 276.976C15.7005 272.05 12.1791 247.523 8.45838 245.809C7.58725 245.407 7.4179 245.535 6.60039 245.891C2.73059 250.068 3.36493 263.022 1.44141 269.278V178.719Z" fill="#FAA640"/>
<path d="M1.44141 390.147C3.2563 383.319 4.51594 374.798 6.42208 368.531C6.92294 374.083 7.49947 402.365 10.5924 405.09C11.4392 405.836 12.2159 405.841 13.281 405.716C15.356 404.559 15.9797 402.89 16.6047 400.791C17.744 396.963 20.9917 375.198 22.7193 372.956L23.1795 373.2C24.8638 380.022 24.4201 390.064 25.4712 397.273C25.9747 400.725 25.37 407.446 31.2626 407.022C32.3337 406.533 33.5107 405.531 33.6893 404.363C35.0411 395.514 35.7194 388.626 38.6095 379.921C39.746 392.532 39.0278 406.158 39.2632 419.02H1.44141V390.147Z" fill="#FAA640"/>
<path d="M39.375 419.344H1.96875V178.5C1.96875 178.5 46.5925 195.562 43.9688 278.906C41.345 362.25 39.375 419.344 39.375 419.344Z" stroke="black" stroke-width="3.9375"/>
</svg>
