<svg width="366" height="457" viewBox="0 0 366 457" fill="none" xmlns="http://www.w3.org/2000/svg">
<path d="M303.066 410.509C304.322 410.247 305.279 410.535 305.924 411.668C305.804 412.043 305.81 412.113 305.51 412.427C302.518 415.561 269.77 420.514 263.459 421.211C261.045 421.477 258.627 421.53 256.201 421.538C254.76 421.264 252.961 420.671 253.372 418.844C253.801 418.5 254.294 418.16 254.859 418.155C264.846 418.059 274.808 416.202 284.603 414.371C290.747 413.22 296.876 411.463 303.066 410.509Z" fill="#FCFCFD"/>
<path d="M98.1947 409.995C101.069 410.98 104.257 411.207 106.264 411.926C107.899 412.55 112.126 413.13 114.094 413.5C117.903 414.137 121.804 415.453 125.769 416.172C128.012 416.526 130.255 416.914 132.517 417.11C141.315 418.082 148.578 419.769 157.769 419.49C159.6 419.922 163.923 419.468 165.792 419.255C168.223 418.505 174.564 417.289 177.418 416.665C176.387 419.377 176.504 423.767 176.129 426.823C175.079 435.346 174.591 444.126 173.631 452.644L62.9924 453.788C62.4461 440.692 71.4632 442.853 78.6782 436.819L78.9872 437.194C79.7933 436.911 81.8044 435.607 82.5176 435.067L82.8589 435.115C84.4126 435.019 86.8535 432.991 88.0027 431.932C87.698 431.535 87.2123 430.742 86.9211 430.293C87.9521 429.12 88.6553 427.568 89.3363 426.156C90.1898 427.137 91.0312 428.196 92.0261 429.02C92.5771 428.41 93.7036 426.474 94.1971 425.667L94.0624 425.484C92.574 423.457 92.4908 422.991 93.7402 420.672L93.5933 420.449C93.5414 418.779 93.4948 417.136 94.1448 415.601C96.6441 414.437 96.9135 412.319 98.077 410.204L98.1947 409.995Z" fill="#FD459D"/>
<path d="M89.337 426.152C90.1906 427.133 91.032 428.193 92.0268 429.017C93.1995 431.955 101.108 438.642 99.9323 440.992C97.1301 446.598 90.3899 433.101 88.0035 431.929C87.6987 431.532 87.2131 430.739 86.9219 430.289C87.9529 429.117 88.6561 427.565 89.337 426.152Z" fill="#FE9BEE"/>
<path d="M93.7384 420.669C95.7865 421.885 108.142 429.632 108.654 430.822C108.632 431.838 108.612 431.96 108.156 432.862C105.126 434.829 96.5036 427.714 94.1953 425.665L94.0606 425.482C92.5722 423.455 92.489 422.988 93.7384 420.669Z" fill="url(#paint0_linear_3592_661)"/>
<path d="M82.5147 435.065L82.856 435.113L82.9642 435.445C83.8884 438.191 89.5832 446.771 88.7012 448.746C88.5644 449.055 88.3425 449.238 88.0901 449.443C84.0536 450.555 80.5311 440.249 78.9844 437.193C79.7904 436.909 81.8015 435.606 82.5147 435.065Z" fill="#FEDEFE"/>
<path d="M112.916 419.569C115.514 420.759 119.397 421.379 122.145 422.12C130.601 424.404 138.706 425.507 147.356 426.636C150.212 427.007 156.359 426.157 158.115 427.164C158.842 428.694 158.428 429.544 157.24 430.59C148.506 432.718 129.513 427.656 120.522 425.703C118.222 425.202 112.715 424.273 111.953 421.976C111.983 420.877 112.338 420.502 112.916 419.569Z" fill="#FEDEFE"/>
<path d="M122.21 437.837C123.952 437.985 130.602 440.052 133.024 440.549C138.022 441.573 142.834 442.641 148.04 442.589C150.965 442.554 153.702 442.297 156.641 442.083C157.98 441.987 159.574 442.628 159.242 444.35C159.073 445.226 158.472 445.505 157.777 445.989C155.904 446.229 152.931 446.604 151.134 446.695C146.5 446.922 121.868 444.455 120.859 439.86C120.986 439.001 121.607 438.491 122.21 437.837Z" fill="url(#paint1_linear_3592_661)"/>
<path d="M269.709 241.744C272.525 249.139 274.852 256.89 277.346 264.434C280.881 275.344 284.629 286.185 288.587 296.95L304.212 340.854L310.343 358.371C311.51 361.641 312.977 364.854 313.901 368.158L314.302 368.995C318.015 379.956 320.868 396.363 321.945 406.92L314.302 411.008L291.022 452.641H251.822C248.382 442.807 245.2 432.881 242.282 422.881C241.156 419.005 240.339 415.108 239.155 411.202C238.868 410.143 235.797 404.551 234.986 402.632L218.855 365.023H218.857C216.672 355.651 209.821 344.329 206.329 335.165C205.14 332.043 198.515 314.996 196.036 314.264C194.863 315.134 194.975 318.194 194.696 319.973L194.457 320.012C193.674 321.785 193.308 320.884 193.281 323.276C193.347 324.124 193.333 323.949 193.151 324.613C192.855 325.699 193 330.939 193.451 331.673C193.761 334.419 192.64 338.671 192.442 341.613C192.419 341.91 192.399 342.21 192.38 342.511C191.882 347.493 191.291 352.468 190.607 357.429C190.291 359.765 189.551 364.263 189.482 366.47H189.48C188.96 367.025 188.125 372.15 187.879 373.396C187.446 375.249 187.283 377.643 186.983 379.601C186.065 385.617 185.425 391.659 183.568 397.487C183.375 398.093 183.429 398.338 183.492 398.97C182.024 404.829 180.387 410.67 177.604 416.059C177.426 416.403 177.48 416.268 177.417 416.665C176.386 419.377 176.504 423.766 176.128 426.822C175.079 435.344 174.59 444.123 173.631 452.641H64.9531C80.8397 444.848 71.4621 442.85 78.6768 436.816L78.9854 437.191C79.7914 436.908 81.8022 435.604 82.5156 435.063L82.8574 435.111C84.4112 435.015 86.8519 432.988 88.001 431.929C87.6963 431.532 87.2111 430.739 86.9199 430.29C87.9509 429.117 88.654 427.565 89.335 426.152C90.1884 427.133 91.0298 428.193 92.0244 429.017C92.5755 428.406 93.7019 426.47 94.1953 425.664L94.0605 425.481C92.5724 423.455 92.4892 422.988 93.7383 420.669L93.5918 420.446C93.5399 418.777 101.336 419.167 101.987 417.633C104.486 416.469 96.9117 412.316 98.0752 410.201L98.1934 409.992C97.335 408.554 96.2815 403.445 95.6445 401.461C94.7857 398.784 94.4843 395.959 94.1953 392.97C93.2894 383.597 95.317 374.876 95.7285 372.565C97.1744 370.909 101.019 339.538 102.929 335.179C103.008 334.996 102.795 334.634 102.674 334.46C103.682 330.929 104.493 325.018 105.225 321.109C106.284 315.5 107.274 309.878 108.193 304.245C108.525 302.25 109.393 297.597 109.358 295.767C110.167 293.843 111.856 284.239 112.303 281.752C112.809 281.973 113.634 282.36 114.126 282.533C115.121 281.786 120.115 280.265 121.662 279.748L121.932 279.164L122.095 279.125C125.221 279.125 129.481 279.27 130.834 275.816L130.985 275.905C131.779 275.368 132.113 274.407 132.563 273.508C133.916 273.992 134.598 273.938 136.005 273.965C139.718 273.979 141.476 271.483 139.122 268.317C140.153 267.789 140.389 267.553 141.295 266.796C142.849 266.544 143.649 266.61 144.485 265.151C145.118 264.426 145.701 263.692 146.304 262.942C147.24 260.127 147.945 258.827 147.658 255.91C152.834 255.947 158.184 256.402 163.529 256.48L170.953 256.521C185.906 256.527 202.68 254.863 217.505 253.254C221.589 252.715 224.998 252.334 229.151 251.666C238.511 249.465 245.265 249.153 255.497 246.093C258.274 245.549 261.838 244.269 264.48 243.246C266.1 242.791 268.133 241.929 269.709 241.744Z" fill="#F7CB46"/>
<path d="M193.277 323.273C193.304 320.881 193.67 321.783 194.453 320.009L194.692 319.97C194.527 323.134 194.057 328.668 193.447 331.671C192.995 330.938 192.851 325.695 193.147 324.61C193.328 323.946 193.344 324.122 193.277 323.273Z" fill="#0C2000"/>
<path d="M314.565 382.175C310.442 379.908 303.206 367.636 300.332 363.377C298.704 360.966 300.515 355.238 303.01 355.657C308.515 356.572 310.581 364.689 313.903 368.16L314.304 368.997C314.483 369.773 317.399 378.692 317.691 379.093C316.054 380.942 317.268 380.597 314.565 382.175Z" fill="#FF80AB"/>
<path d="M192.382 342.508C190.647 343.175 186.808 344.862 185.795 342.386C183.892 337.73 184.112 318.956 188.478 316.346C193.376 315.625 192.581 320.152 193.284 323.273C193.35 324.121 193.335 323.945 193.153 324.61C192.857 325.695 193.002 330.938 193.453 331.67C193.763 334.417 192.641 338.667 192.444 341.61C192.421 341.906 192.4 342.207 192.382 342.508Z" fill="#FF80AB"/>
<path d="M125.766 416.17C126.017 412.922 127.004 409.884 127.593 406.697C128.375 402.547 128.88 398.248 129.995 394.172C130.599 391.962 134.781 390.955 135.974 392.973C137.868 396.308 136.792 401.008 135.995 404.522C135.728 405.703 136.172 407.203 135.907 408.005C134.94 410.947 133.873 414.391 132.514 417.107C130.252 416.911 128.009 416.523 125.766 416.17Z" fill="#FF80AB"/>
<path d="M287.592 405.926C284.503 402.739 280.629 394.783 279.357 390.406C278.111 386.112 282.506 382.275 285.766 385.702C289.128 389.233 292.325 395.262 293.587 399.927C293.945 401.248 293.102 403.541 293.26 404.613C291.168 405.193 289.753 405.586 287.592 405.926Z" fill="#FF80AB"/>
<path d="M163.53 256.482L170.954 256.523C171.488 261.533 169.774 273.728 167.598 278.564C166.75 280.448 165.59 280.716 163.802 281.308C163.162 280.723 161.75 279.521 161.61 278.819C160.844 274.987 162.075 259.198 163.53 256.482Z" fill="#FF80AB"/>
<path d="M249.905 410.835C245.786 405.917 239.177 402.151 239.826 394.883C240.405 394.26 240.239 394.46 241.403 394.399L242.282 393.807C243.253 393.148 244.231 392.499 245.266 393.488C249.094 397.15 257.612 404.832 258.737 409.745C256.006 410.107 252.597 410.647 249.905 410.835Z" fill="#FF80AB"/>
<path d="M183.49 398.967C182.301 397.895 179.782 397.407 179.411 396.103C177.855 389.982 178.606 382.009 180.939 376.132C182.396 372.462 184.624 371.638 187.877 373.395C187.445 375.247 187.281 377.641 186.982 379.598C186.064 385.614 185.423 391.656 183.567 397.485C183.373 398.091 183.427 398.335 183.49 398.967Z" fill="#FF80AB"/>
<path d="M157.765 419.489C155.887 416.834 157.166 406.323 158.202 403.067C159.192 399.954 161.154 399.514 163.792 400.769C166.886 406.973 164.47 413.137 165.788 419.254C163.919 419.467 159.596 419.921 157.765 419.489Z" fill="#FF80AB"/>
<path d="M229.146 251.667C230.65 254.082 230.007 256.321 230.842 258.156C231.829 260.326 231.875 261.726 231.801 264.245C231.6 267.241 231.045 268.023 228.56 269.026C221.948 263.308 221.718 258.523 217.5 253.255C221.584 252.716 224.992 252.335 229.146 251.667Z" fill="#FF80AB"/>
<path d="M255.5 246.093C258.277 245.549 261.84 244.269 264.483 243.246C267.612 246.534 270.438 252.742 271.928 257.059C272.291 258.108 270.252 260.681 268.36 260.734C265.559 259.591 257.609 248.993 255.5 246.093Z" fill="#FF80AB"/>
<path d="M310.098 400.621C307.515 396.506 299.897 388.571 304.242 384.334C305.808 382.804 307.863 382.573 309.22 384.491C311.941 388.34 316.156 393.471 315.927 398.332C313.663 399.361 312.468 399.841 310.098 400.621Z" fill="#FF80AB"/>
<path d="M106.258 411.925L106.331 411.659C107.386 407.692 107.885 395.133 115.026 400.922C115.932 403.52 115.261 411.158 114.087 413.499C112.12 413.128 107.892 412.549 106.258 411.925Z" fill="#FF80AB"/>
<path d="M121.932 279.166L122.095 279.126C123.026 279.33 123.457 279.227 123.893 279.803C123.788 282.434 122.258 287.988 120.739 290.24C113.69 293.834 113.875 287.379 114.127 282.535C115.122 281.787 120.115 280.266 121.662 279.749L121.932 279.166Z" fill="#FF80AB"/>
<path d="M144.487 265.154C145.119 264.428 145.703 263.695 146.305 262.945C145.807 266.472 143.345 278.755 138.606 278.077C136.457 277.77 135.938 275.842 136.006 273.967C139.72 273.982 141.478 271.486 139.123 268.32C140.154 267.791 140.39 267.556 141.296 266.799C142.851 266.547 143.65 266.613 144.487 265.154Z" fill="#FF80AB"/>
<path d="M228.167 355.505C229.242 355.16 230.71 356.102 231.83 356.625C234.263 361.983 246.56 381.518 242.593 386.605C241.634 387.255 241.355 387.229 240.183 387.325L239.884 387.281C237.443 385.315 234.941 381.413 233.499 378.122C231.126 372.712 222.029 363.23 225.656 357.048C226.265 356.01 227.169 356.39 228.167 355.505Z" fill="#FF80AB"/>
<path d="M226.969 316.609L227.188 316.447C230.914 316.215 236.108 336.026 238.157 338.851C238.681 339.575 239.419 345.364 239.469 346.559C238.562 347.697 238.122 348.416 236.726 348.743L236.317 348.477C234.954 347.984 233.789 347.178 233.04 345.778C230.019 340.146 227.088 333.86 224.373 328.139C222.599 324.401 221.282 321.44 223.324 317.649C223.774 316.814 226.131 316.898 226.969 316.609Z" fill="#FF80AB"/>
<path d="M225.964 285.396C232.106 286.651 238.475 302.431 240.225 308.113C241.192 311.257 239.997 312.693 236.978 313.38C232.033 311.362 224.079 296.117 222.017 290.819C220.593 287.161 223.917 286.465 225.782 285.494L225.964 285.396Z" fill="#FF80AB"/>
<path d="M280.529 349.277C280.748 349.369 281.801 349.63 281.836 349.652C284.605 351.544 286.274 355.895 287.271 358.968C288.513 362.8 293.096 377.287 287.736 379.04C285.802 379.053 284.475 377.767 283.566 375.587C280.772 368.891 274.743 358.131 277.517 350.816C277.784 350.11 279.63 349.923 280.529 349.277Z" fill="#FF80AB"/>
<path d="M201.203 297.062C202.444 297.382 205.087 297.709 205.571 299.17C206.888 303.144 207.699 307.316 208.684 311.421C209.764 315.921 211.969 320.919 211.844 325.542C211.724 327.454 209.992 327.709 208.345 327.751C200.884 322.705 198.299 309.694 198.565 301.19C198.642 298.746 200.209 298.865 201.203 297.062Z" fill="#FF80AB"/>
<path d="M252.074 326.979C254.017 327.687 255.871 328.211 256.792 330.476C259.135 336.235 260.54 342.412 262.734 348.276C263.332 349.875 263.006 352.918 263.902 354.614C264.503 355.752 263.983 358.468 262.73 359.048L261.313 359.575C260.342 359.466 259.753 359.004 259.161 358.233C256.892 355.268 247.811 332.69 248.848 329.842C249.145 329.026 250.008 328.355 250.709 327.888L252.074 326.979Z" fill="#FF80AB"/>
<path d="M142.823 328.612C143.009 328.603 143.196 328.596 143.382 328.591C147.651 328.479 147.813 332.848 147.916 336.122C147.95 337.198 148.008 337.098 147.25 337.822C148.203 339.871 147.794 341.593 147.502 343.838C147.065 347.208 146.843 357.405 142.988 358.49C141.375 358.42 140.243 359.148 138.662 357.335C137.706 356.241 137.66 355.085 137.767 353.725C138.355 346.284 138.868 338.685 140.433 331.383C140.603 330.594 142.204 329.181 142.823 328.612Z" fill="#FF80AB"/>
<path d="M201.32 257.593C201.66 257.58 202 257.583 202.34 257.602C209.94 257.963 216.248 281.746 211.424 285.987C210.316 286.301 210.759 286.263 209.548 285.868L208.983 286.03C206.254 285.018 198.536 262.763 199.187 259.65C199.968 258.464 200.425 258.597 201.32 257.593Z" fill="#FF80AB"/>
<path d="M270.79 276.755C276.261 276.409 284.157 295.32 285.567 300.014L285.368 300.465C284.403 302.62 284.475 302.996 282.486 303.76C279.234 302.647 274.039 295.39 272.3 292.36C269.957 288.28 263.417 279.247 270.79 276.755Z" fill="#FF80AB"/>
<path d="M171.635 340.756C174.944 340.407 175.727 345.743 175.301 348.093C174.018 355.164 173.963 363.176 169.619 369.227C168.931 370.187 168.11 370.13 167.077 370.23L166.947 370.466L166.574 370.513C165.64 369.676 165.166 369.219 164.477 368.164L164.248 367.806C162.859 365.552 166.545 348.965 167.235 345.407C167.8 342.491 169.361 341.994 171.635 340.756Z" fill="#FF80AB"/>
<path d="M145.402 284.469C146.641 284.587 149.237 285.274 149.65 286.336C151.548 291.221 149.87 310.696 146.521 313.4C145.731 313.533 145.529 313.628 144.825 314.02L144.356 314.276C143.764 314.161 142.645 313.859 142.322 313.254C139.255 307.513 141.877 295.153 142.255 288.642C142.344 287.119 143.227 286.027 144.176 285.35L145.402 284.469Z" fill="#FF80AB"/>
<path d="M105.457 365.729C106.655 365.807 108.609 366.217 109.136 367.389C110.937 371.405 105.649 392.936 102.766 394.645C99.411 395.953 98.2531 394.122 96.7578 391.615C97.1877 390.172 97.1292 388.258 97.5913 386.558C98.3765 383.642 98.9811 380.533 99.8483 377.652C101.029 373.733 101.783 368.03 105.457 365.729Z" fill="#FF80AB"/>
<path d="M126.819 299.333C127.844 299.563 129.3 299.043 130.509 300.145C131.064 300.65 131.976 301.904 131.954 302.621C131.737 309.815 131.022 317.015 129.869 324.111C129.718 325.039 128.015 327.249 127.514 327.904C126.458 328.296 124.504 328.527 123.309 328.71C122.921 327.895 121.711 325.489 121.793 324.486C122.407 317.001 123.058 308.406 124.729 301.099C124.97 300.044 125.898 299.778 126.819 299.333Z" fill="#FF80AB"/>
<path d="M246.837 260.344C252.396 260.506 252.681 268.895 254.193 272.876C254.947 274.862 253.606 275.911 255.006 277.197C255.268 277.871 254.682 279.087 254.648 280.279L255.219 280.8C255.305 281.394 254.632 284.955 254.502 285.883L254.676 285.673C253.968 286.575 253.363 287.592 252.347 287.978C250.901 287.462 249.688 286.995 248.764 285.685C246.589 282.605 242.506 266.958 242.787 263.894C244.392 261.239 244.333 261.871 246.837 260.344Z" fill="#FF80AB"/>
<path d="M153.334 367.677C154.464 368.148 155.07 367.402 157.117 368.671C159.465 371.735 154.166 395.041 149.314 395.229L148.461 395.591C147.012 395.098 146.487 395.434 145.281 394.54C144.718 393.699 144.586 393.337 144.603 392.251C144.644 389.579 145.589 387.386 146.362 384.879C147.456 381.335 148.016 377.329 149.428 373.876C149.649 373.854 149.871 373.832 150.093 373.815C150.313 372.651 150.364 371.347 150.807 370.245C151.487 369.399 152.617 368.361 153.334 367.677Z" fill="#FF80AB"/>
<path d="M185.196 268.848C185.594 268.895 186.281 268.892 186.706 268.904C189.362 270.104 188.883 275.394 189.034 277.83C189.424 284.111 189.161 290.436 187.493 296.537C187.395 296.898 185.835 298.083 185.46 298.379C178.814 299.623 180.691 283.787 180.841 279.903C180.98 276.303 180.571 269.029 185.196 268.848Z" fill="#FF80AB"/>
<path d="M165.623 299.387C172.727 298.437 170.179 317.655 170.006 321.538C169.908 323.741 169.098 326.098 167.524 327.692C160.239 332.552 161.112 304.206 162.459 301.479C163.147 300.088 164.456 299.822 165.623 299.387Z" fill="#FF80AB"/>
<path d="M254.423 296.525C255.402 296.749 257.732 296.735 258.38 297.478C262.284 301.951 263.515 308.676 264.695 314.371C265.206 316.834 265.808 320.8 264.363 323.046C263.901 323.679 261.793 323.733 260.975 323.772C260.608 322.752 259.649 321.805 258.888 321.014C257.638 320.239 258.054 318.207 257.548 317.397C255.681 314.475 254.716 311.385 253.61 308.133C252.443 304.701 250.198 298.785 254.423 296.525Z" fill="#FF80AB"/>
<path d="M126.809 353.304C131.288 354.69 130.823 361.443 130.139 365.114C129.631 365.702 129.52 365.789 129.192 366.526L129.732 367.35C129.941 368.575 129.114 369.325 128.933 370.476C128.354 374.133 128.105 382.477 123.403 383.144L123.091 383.293C117.948 381.375 120.888 370.375 121.412 366.299C121.871 362.72 122.546 358.165 123.989 354.864C124.454 353.801 125.794 353.539 126.809 353.304Z" fill="#FF80AB"/>
<path d="M257.681 369.169C262.405 368.218 268.811 386.001 269.161 389.745C268.73 390.19 268.64 390.186 268.507 390.765L269.125 391.267L269.164 391.707C268.478 392.714 267.126 393.447 266.064 394.144C262.706 394.257 259.297 387.095 258.014 384.366C256.32 380.769 249.861 369.792 257.681 369.169Z" fill="#FF80AB"/>
<path d="M278.488 319.229C278.862 319.438 280.732 320.362 281.064 320.652C285.622 324.641 289.419 332.909 291.15 338.694C291.265 339.078 291.431 340.111 291.641 340.795L290.361 343.555C288.926 343.834 288.348 343.926 286.885 343.978C283.93 341.715 272.841 326.668 275.905 321.57C276.395 320.756 277.504 321.627 278.488 319.229Z" fill="#FF80AB"/>
<path d="M109.116 324.099C109.909 324.375 110.921 324.799 111.191 325.725C112.49 330.186 114.103 350.08 109.333 352.256C107.987 352.216 107.641 352.042 106.422 351.589L105.971 351.528C103.401 345.852 105.678 337.695 105.077 331.409C104.896 329.507 103.764 327.813 105.115 326.318C106.44 324.852 107.055 324.349 109.116 324.099Z" fill="#FF80AB"/>
<path d="M247.537 1.36621C247.937 1.22148 248.44 1.26938 248.955 1.54883C249.664 1.93392 250.501 2.73527 251.431 4.00977C252.346 5.26469 253.285 6.88553 254.23 8.79102C256.121 12.6014 257.978 17.4321 259.688 22.4746C263.106 32.5527 265.886 43.3318 267.123 48.1738C269.909 59.0733 272.439 69.9727 274.137 81.0527C274.614 84.1679 275.126 87.2328 275.43 90.2988C276.239 110.581 275.886 121.843 270.35 141.721C268.276 146.365 264.623 152.214 260.399 157.617C256.163 163.036 251.44 167.894 247.275 170.634C244.274 172.128 241.103 173.252 237.829 173.98C235.127 174.565 232.39 174.888 229.559 175.264C217.45 176.871 205.493 177.618 193.271 178.177H193.264C184.287 178.636 175.299 178.855 166.311 178.832H166.303C164.657 178.838 162.683 178.927 160.585 179.024C158.476 179.122 156.23 179.23 154 179.28C149.489 179.381 145.25 179.234 142.489 178.382C141.475 178.069 140.618 177.983 139.857 178.045C139.102 178.106 138.505 178.308 138.048 178.478C137.546 178.664 137.336 178.752 137.101 178.786C136.945 178.808 136.757 178.807 136.438 178.66C135.665 178.304 134.36 177.216 131.91 174.239C129.506 171.317 126.124 166.737 121.187 159.646C111.381 145.563 106.676 134.619 104.266 123.434C101.846 112.207 101.723 100.701 101.178 85.3418C101.702 77.6051 102.813 69.9753 103.543 62.1338C104.762 49.028 105.703 35.3184 108.703 22.625L109 21.3994C109.498 19.3956 110.162 16.8834 111.167 14.6143C112.187 12.3127 113.466 10.4765 115.065 9.58496C116.001 9.06327 117.054 8.96252 118.081 9.29199C120.376 10.029 123.228 12.2874 126.382 15.6689C129.493 19.0054 132.751 23.2718 135.871 27.7803C142.109 36.7938 147.72 46.6592 150.413 51.7002L150.813 52.4492L151.658 52.376C154.335 52.1441 156.716 51.7186 158.972 51.3047C161.24 50.8884 163.362 50.4882 165.609 50.2734L165.919 50.2432L166.157 50.0908C166.141 50.1005 166.168 50.0834 166.271 50.0479C166.384 50.0091 166.538 49.9644 166.731 49.915C167.118 49.8163 167.604 49.7154 168.116 49.6201C169.138 49.43 170.197 49.2751 170.64 49.2158C185.004 47.2938 201.763 44.4695 215.743 46.583L215.762 46.5859L215.779 46.5879L219.722 47.0713L220.615 47.1807L221.023 46.3789C223.953 40.6301 227.134 35.2173 230.206 29.46C231.007 27.959 231.713 26.4234 232.398 24.9258C233.089 23.4172 233.757 21.9482 234.502 20.5215C235.633 18.3556 236.95 16.4147 238.258 14.1748C239.351 12.303 240.76 9.47618 242.495 6.75684C243.346 5.42407 244.23 4.19439 245.117 3.22461C246.021 2.23663 246.839 1.61901 247.537 1.36621Z" fill="#FAA640" stroke="black" stroke-width="2.57246"/>
<path d="M170.651 49.668C184.814 47.773 201.305 45.001 215.165 46.9492C215.972 48.4145 216.557 50.7916 216.859 53.4287C217.19 56.3136 217.156 59.2345 216.854 61.0752C216.501 63.2289 215.883 64.1607 215.409 64.5166C215.031 64.8008 214.516 64.8786 213.711 64.5264C212.881 64.1631 211.938 63.4066 211.049 62.3867C210.17 61.379 209.415 60.195 208.926 59.0801L208.92 59.0684L208.789 58.7871C208.484 58.1537 208.174 57.664 207.778 57.2197C207.35 56.7387 206.853 56.3492 206.312 55.9209L204.026 54.1113L204.23 57.0195C204.336 58.5208 204.867 64.9611 204.28 70.3896C203.982 73.1533 203.415 75.394 202.549 76.627C202.142 77.2055 201.742 77.4599 201.354 77.5381C200.953 77.6189 200.324 77.5596 199.372 77.0244C199.361 77.0163 199.319 76.9827 199.248 76.9014C199.157 76.7958 199.045 76.6407 198.916 76.4258C198.657 75.993 198.378 75.401 198.085 74.6699C197.5 73.21 196.917 71.3483 196.347 69.4307C195.784 67.5401 195.23 65.5801 194.722 64.0215C194.467 63.2399 194.212 62.5235 193.961 61.9414C193.735 61.4184 193.433 60.8058 193.02 60.4141L192.309 59.7412L191.471 60.248C191.011 60.5253 190.792 60.9795 190.692 61.209C190.568 61.4962 190.473 61.8276 190.395 62.1602C190.237 62.8313 190.108 63.697 189.99 64.6523C189.758 66.5396 189.542 69.0742 189.28 71.4512C189.011 73.8904 188.686 76.2472 188.226 78.0234C187.994 78.9168 187.747 79.5891 187.496 80.0322C187.313 80.3553 187.192 80.4466 187.164 80.4658C186.602 80.5796 186.175 80.4991 185.812 80.3076C185.418 80.099 185.009 79.7108 184.609 79.0859C183.794 77.8123 183.195 75.8474 182.771 73.5449C181.926 68.9632 181.884 63.7975 181.702 61.5273C181.686 59.9715 181.639 58.5634 181.562 57.4521C181.524 56.8912 181.477 56.3928 181.422 55.9834C181.371 55.6074 181.302 55.2028 181.185 54.8926L180.854 54.0176L179.92 54.0615L179.526 54.0801L178.843 54.1133L178.488 54.6982C177.622 56.127 177.128 58.0231 176.623 59.5811C176.083 61.2467 175.486 62.7248 174.451 63.8574C173.68 64.7008 172.602 65.8298 171.458 66.5635C170.274 67.3225 169.455 67.3994 168.851 67.0156H168.85C168.141 66.5655 167.589 65.6181 167.258 64.0635C166.933 62.539 166.872 60.6736 166.928 58.7334C166.983 56.7878 167.149 54.8984 167.248 53.2412C167.296 52.431 167.329 51.6694 167.315 51.0244C167.31 50.7725 167.297 50.5079 167.269 50.2461C167.536 50.1878 167.828 50.1283 168.129 50.0723C169.15 49.8822 170.208 49.7273 170.651 49.668Z" fill="#FF80AB" stroke="black" stroke-width="2.57246"/>
<path d="M236.483 68.5618C236.54 68.5513 236.596 68.5409 236.654 68.5308C249.045 68.1625 269 75.4655 265.27 91.1758C262.876 101.26 249.33 106.53 240.215 107.643C232.469 108.394 223.718 106.383 217.396 101.648C210.566 96.5319 207.976 86.8124 213.975 79.9191C220.332 72.6157 226.952 69.7009 236.483 68.5618Z" fill="#FCFCFD"/>
<path d="M227.045 74.5182C232.665 72.2539 236.736 72.3131 242.539 72.6275L244.194 72.9592C250.978 74.7348 256.835 76.2968 260.709 82.7031C264.903 89.6373 258.309 96.9735 252.525 100.085C244.642 104.327 235.957 105.379 227.39 102.693C222.834 101.289 217.305 98.6414 215 94.2575C213.717 91.7765 213.484 88.884 214.354 86.2295C215.286 83.391 217.321 81.1071 219.642 79.3132C221.588 77.8083 224.664 74.9646 227.045 74.5182Z" fill="#46CEF5"/>
<path d="M242.54 72.627L244.194 72.9587C247.328 76.4441 245.671 85.0463 245.748 89.6076C245.771 91.0074 245.239 94.7143 244.589 95.9515C234.423 115.301 227.689 85.2577 228.269 77.735C228.349 76.8038 228.594 75.894 228.992 75.0486C229.95 74.7788 230.023 74.7766 231.027 74.7897C231.542 75.016 232.393 75.5644 232.51 76.1376C234.139 84.15 234.073 89.9498 238.159 97.4076C241.894 91.1426 240.498 82.6067 240.97 75.5683C241.055 74.3019 241.544 73.4034 242.54 72.627Z" fill="#010101"/>
<path d="M144.25 74.8825C148.06 74.5787 150.55 75.2535 154.074 76.1333C173.445 80.9693 177.399 102.043 157.995 110.502C152.42 112.933 149.149 113.594 142.929 113.209C118.715 112.135 102.725 93.1253 129.164 78.3715C134.151 75.5888 138.649 75.1995 144.25 74.8825Z" fill="#FCFCFD"/>
<path d="M135.923 80.0255C137.374 79.188 143.362 78.7978 145.245 78.8876C146.514 78.916 147.595 78.9835 148.859 79.0851C156.633 80.1432 169.329 86.0359 167.698 94.7667C165.29 107.658 145.31 111.207 134.65 108.493C127.533 106.68 118.1 101.907 119.365 93.3829C120.603 87.4392 126.275 84.5868 131.062 81.795C132.65 80.6772 134.062 80.4274 135.923 80.0255Z" fill="#46CEF5"/>
<path d="M135.923 80.0255C137.375 79.188 143.363 78.7978 145.245 78.8876C146.514 78.916 147.595 78.9835 148.86 79.0851C151.545 84.9757 150.263 103.18 143.987 107.482C143.443 107.855 141.032 107.755 140.23 107.706C131.594 102.096 132.427 90.5506 131.062 81.795C132.651 80.6772 134.063 80.4274 135.923 80.0255Z" fill="#010101"/>
<path d="M135.922 80.0255C137.373 79.188 143.361 78.7978 145.244 78.8876L144.592 79.5416C144.82 85.443 145.876 97.5219 141.593 102.115C141.189 102.103 140.857 102.11 140.641 101.664C139.659 99.6397 137.908 95.1302 137.514 93.0468C136.687 88.6751 136.787 84.3688 135.922 80.0255Z" fill="#46CEF5"/>
<path d="M121.136 28.3467C123.211 28.3885 125.05 29.7895 126.766 32.0557C128.55 34.413 129.936 37.3471 131.146 39.6934C132.548 42.4096 134.099 45.8374 135.264 49.3438C136.377 52.696 137.105 56.0318 137.066 58.8545C136.991 58.9015 136.897 58.9584 136.779 59.0215C136.276 59.2917 135.562 59.6005 134.767 59.9141C133.981 60.224 133.154 60.5235 132.441 60.7764C131.822 60.9962 131.257 61.1935 130.916 61.3203C129.898 61.5296 127.552 62.0572 125.122 62.4502C123.871 62.6525 122.633 62.8133 121.578 62.874C120.466 62.9381 119.749 62.8767 119.422 62.7617H119.421C118.905 62.58 118.625 62.1848 118.242 60.8672C117.078 56.8635 115.922 49.6396 116.102 42.8594C116.191 39.471 116.614 36.2631 117.495 33.6504C118.334 31.1633 119.541 29.3521 121.136 28.3467Z" fill="#E48716" stroke="black" stroke-width="2.57246"/>
<path d="M130.553 114.548C133.771 114.413 136.037 114.62 138.91 116.162C146.79 120.393 149.625 133.46 142.671 139.694C140.836 141.339 138.366 142.136 136.029 142.708C123.044 143.909 115.95 131.632 122.183 120.379C124.077 116.959 126.801 115.511 130.553 114.548Z" fill="#FF80AB"/>
<path d="M191.504 94.6911C195.761 94.1265 197.67 95.1214 200.375 98.2462C199.832 102.033 199.378 102.682 196.619 105.359C195.902 105.498 193.62 105.753 193.453 106.715C191.941 115.474 203.268 138.416 206.742 116.707C207.25 113.538 205.085 105.847 208.184 104.563C213.971 105.738 212.07 124.777 205.654 128.91C204.06 129.928 202.124 130.26 200.281 129.833C196.411 128.964 194.799 125.721 192.919 122.653C192.422 121.679 192.19 121.069 191.412 120.29C190.196 122.535 187.453 128.117 185.553 129.101C177.683 133.174 173.61 125.181 172.577 118.881C171.96 115.118 170.659 111.296 171.856 107.95C176.743 103.947 176.208 115.03 176.838 117.437C177.874 121.397 177.973 123.522 181.535 125.978C181.786 125.81 182.133 125.555 182.396 125.406C186.586 123.037 188.499 115.222 189.083 110.825C189.246 109.604 188.971 107.971 189.444 106.987C189.685 106.485 189.758 106.711 189.651 106.119C187.971 105.385 186.714 104.713 185.1 103.832L183.864 100.154C185.307 95.5848 187.083 95.4291 191.504 94.6911Z" fill="#010101"/>
<path d="M252.623 105.906C255.772 106.099 258.047 106.395 260.716 108.324C266.563 112.549 267.033 122.516 262.926 128.055C260.568 131.234 257.651 131.997 253.87 132.504C241.418 132.866 236.818 119.138 243.745 110.008C246.032 106.993 249.004 106.278 252.623 105.906Z" fill="#FF80AB"/>
<path d="M337.794 117.852C339.436 116.886 341.104 115.059 343.073 115.76C343.882 116.865 343.635 116.39 343.844 117.945C345.089 117.989 346.034 118.037 347.28 118.178C348.604 117.587 348.698 117.283 350.123 117.241C351.122 118.116 350.877 119.455 350.884 120.744C351.876 121.254 352.711 121.22 353.834 121.312C354.784 120.663 354.932 120.438 356.006 120.501C357.325 121.307 357.312 122.161 357.51 123.624C362.744 128.41 364.707 133.89 364.952 141.041C365.439 155.248 359.124 168.627 350.95 179.9C344.605 186.442 339.472 189.274 337.035 193.214C329.908 188.493 328.206 182.024 321.722 176.436C318.756 173.879 315.43 171.38 312.536 168.754C309.338 165.851 305.767 167.713 302.375 164.928C305.033 161.016 308.334 152.579 310.699 148.284C316.054 138.561 320.504 124.378 331.067 119.158C332.401 118.499 336.309 117.29 337.794 117.852Z" fill="#FAA640"/>
<path d="M246.298 24.2207C247.05 24.2279 247.608 24.379 248.041 24.5996C248.533 24.8505 248.94 25.2309 249.303 25.749C250.076 26.8553 250.515 28.3645 251.103 30.1572C252.823 35.4094 253.631 40.5865 254.259 46.1445C253.762 46.9487 253.227 47.7371 252.671 48.5576C251.345 48.9891 250.321 49.1537 249.303 49.1719C248.166 49.1922 247 49.0355 245.33 48.7988C244.14 48.4497 242.752 48.2614 241.505 48.0791C240.157 47.8821 238.945 47.6867 237.958 47.3398C236.976 46.9944 236.427 46.5697 236.163 46.0547C235.902 45.5445 235.766 44.6417 236.311 42.9873C237.25 40.1315 238.621 36.0332 240.399 32.2881C241.288 30.4169 242.264 28.6653 243.318 27.2168C244.294 25.8766 245.294 24.8556 246.298 24.2207Z" fill="#E48716" stroke="black" stroke-width="2.57246"/>
<path d="M303.526 161.65C304.773 162.755 305.932 163.925 307.099 165.134C308.552 166.639 310.036 168.218 311.675 169.705C313.15 171.044 314.729 172.345 316.294 173.618C317.868 174.898 319.421 176.146 320.887 177.409C327.037 182.71 332.854 187.232 339.521 191.72C325.885 207.528 305.018 220.779 284.795 225.755L283.811 225.99C278.706 227.179 272.544 227.762 267.172 228.296L265.674 228.445L266.055 229.902C266.368 231.097 267.122 233.63 267.74 236.188C268.046 237.452 268.303 238.666 268.441 239.647C268.496 240.038 268.53 240.373 268.542 240.648C267.925 240.79 267.299 240.981 266.714 241.172C265.748 241.486 264.911 241.79 264.133 242.009L264.074 242.025L264.017 242.048C261.374 243.071 257.905 244.312 255.251 244.832L255.189 244.844L255.129 244.861C250.081 246.371 245.888 247.204 241.772 247.936C237.678 248.663 233.61 249.299 228.905 250.403C224.805 251.062 221.452 251.437 217.367 251.976C202.54 253.585 185.832 255.24 170.958 255.235L163.548 255.195H163.549C160.902 255.156 158.251 255.024 155.593 254.896C152.943 254.767 150.286 254.644 147.668 254.625L146.239 254.614L146.379 256.037C146.626 258.549 146.09 259.557 145.162 262.312C144.606 263.004 144.081 263.66 143.517 264.308L143.434 264.402L143.37 264.513C143.06 265.053 142.853 265.166 142.687 265.231C142.561 265.281 142.392 265.324 142.117 265.371C141.761 265.431 141.593 265.446 141.09 265.527L140.742 265.584L140.472 265.81C139.566 266.566 139.427 266.716 138.536 267.173L137.184 267.866L138.091 269.085C139.101 270.443 138.973 271.278 138.736 271.674C138.457 272.141 137.639 272.685 136.01 272.679C134.575 272.652 134.112 272.696 132.999 272.298L131.926 271.913L131.415 272.933C131.132 273.496 131.009 273.815 130.786 274.206C130.773 274.229 130.758 274.251 130.745 274.272L130.187 273.944L129.637 275.348C129.166 276.549 128.208 277.18 126.826 277.517C125.386 277.867 123.719 277.839 122.096 277.839H121.941L121.791 277.876L121.628 277.915L121.025 278.062L120.765 278.626L120.73 278.698C119.876 278.975 118.523 279.408 117.271 279.839C116.479 280.111 115.688 280.396 115.024 280.664C114.687 280.8 114.339 280.95 114.025 281.107C113.699 280.967 113.328 280.799 112.99 280.649C112.728 280.442 112.439 280.274 112.191 280.143C111.878 279.976 111.516 279.806 111.229 279.667C110.919 279.516 110.665 279.385 110.465 279.258C110.253 279.123 110.193 279.049 110.193 279.049C104.836 271.424 96.9706 260.223 93.6143 252.084L93.5371 251.898L93.4082 251.745L91.96 250.028L91.9102 249.969L91.8535 249.916L91.6855 249.748C91.2879 249.323 90.8473 248.661 90.3867 247.743C89.8687 246.711 89.3627 245.43 88.8779 243.959C87.9085 241.018 87.0554 237.407 86.3682 233.692C85.0055 226.326 84.3397 218.794 84.6377 215.449C87.4735 207.424 90.1041 202.659 93.4658 198.563C96.8922 194.389 101.087 190.887 107.232 185.322C108.11 184.527 109.73 183.553 111.865 182.464C113.968 181.391 116.457 180.262 118.99 179.141C121.51 178.025 124.084 176.912 126.305 175.89C128.102 175.062 129.732 174.264 130.953 173.544C133.313 175.212 134.704 175.925 136.308 176.417C137.138 176.672 138.028 176.868 139.062 177.117C140.117 177.371 141.404 177.697 143.124 178.229C146.302 179.21 150.554 179.494 154.713 179.547C158.848 179.599 163.193 179.418 166.319 179.405L166.318 179.404C175.348 179.427 184.377 179.208 193.395 178.746L193.396 178.747C205.639 178.188 217.684 177.436 229.904 175.813C232.679 175.445 235.55 175.108 238.381 174.495L238.388 174.494C241.397 173.825 244.325 172.841 247.126 171.56C247.179 171.836 247.228 172.143 247.273 172.483C247.391 173.359 247.509 174.629 247.674 175.718C248.019 177.995 248.706 180.681 250.922 182.483C252.617 183.862 255.247 184.396 257.648 184.578C260.118 184.765 262.652 184.599 264.413 184.35C280.797 182.029 293.33 173.996 303.526 161.65Z" fill="#46CEF5" stroke="black" stroke-width="2.57246"/>
<path d="M128.525 227.277C135.213 232.363 146.284 244.072 147.175 252.665C147.285 253.727 147.401 254.864 147.659 255.911C147.946 258.828 147.242 260.128 146.305 262.944C145.703 263.693 145.119 264.427 144.487 265.153C143.65 266.611 142.851 266.545 141.296 266.797C140.39 267.554 140.154 267.79 139.123 268.318C141.478 271.484 139.72 273.981 136.006 273.966C134.599 273.939 133.917 273.993 132.565 273.509C132.114 274.408 131.78 275.369 130.986 275.906L130.835 275.817C129.482 279.271 125.222 279.126 122.096 279.126L121.933 279.165L121.663 279.749C120.116 280.266 115.123 281.787 114.128 282.534C113.635 282.361 112.811 281.974 112.304 281.753C111.586 281.084 109.711 280.598 109.142 279.789C103.817 272.211 96.1346 256.607 92.7111 248.304L94.0189 246.996C98.3784 244.429 94.4057 246.742 95.2126 246.278C105.315 240.475 113.244 236.227 123.314 230.382C124.976 229.417 126.871 228.121 128.525 227.277Z" fill="#FAA640"/>
<path d="M132.569 273.508C129.055 271.728 120.421 266.697 120.469 262.035L120.824 261.771C122.078 261.839 124.079 263.825 125.128 264.711C128.255 267.351 130.646 268.943 134.579 270.061L139.127 268.317C141.482 271.483 139.724 273.98 136.01 273.965C134.603 273.938 133.921 273.992 132.569 273.508Z" fill="#010101"/>
<path d="M141.29 266.799C136.953 265.786 134.021 261.883 131.062 258.694C130.227 257.794 128.281 255.507 128.379 254.248C128.447 254.237 128.513 254.216 128.582 254.213C130.219 254.144 142.475 263.351 144.481 265.154C143.644 266.613 142.845 266.547 141.29 266.799Z" fill="#010101"/>
<path d="M121.937 279.164C120.449 278.565 115.533 276.104 115.903 274.247C117.49 273.327 122.688 275.209 124.755 275.161C126.406 275.123 128.07 274.611 129.706 274.748C130.357 274.802 130.455 275.232 130.839 275.816C129.486 279.27 125.226 279.124 122.1 279.124L121.937 279.164Z" fill="#010101"/>
<path d="M5.62326 232.544C4.98198 228.205 3.63071 223.739 2.96925 219.378C-0.134144 198.919 -2.69818 173.601 10.3476 155.879C15.4006 148.901 22.6237 143.892 31.2431 142.688C38.0491 141.738 45.1961 142.961 50.6611 147.382C62.151 156.676 62.0168 172.981 61.923 186.38C61.8385 198.435 61.1932 210.088 62.0935 222.078C62.3232 224.96 62.6454 229.753 63.3599 232.481L63.3882 232.593C66.8353 246.596 69.7082 254.253 76.3294 266.982C74.2146 267.839 74.4465 269.85 71.7681 268.607C68.7626 267.214 68.355 265.755 65.9486 269.088C65.6234 271.473 65.7502 277.088 64.3735 278.386C62.1323 278.107 58.7585 274.291 55.8485 275.263C52.4756 278.078 58.4045 289.168 60.1457 292.355C57.8495 291.926 52.6665 290.464 50.7723 291.595C50.322 291.864 49.767 292.978 49.4972 293.489C50.0107 297.773 50.5744 299.541 52.7759 303.295C50.9101 303.561 45.4812 303.992 44.4114 304.225C38.0029 299.348 32.479 289.897 27.4144 283.832C26.7831 283.076 17.9602 287.08 20.1634 281.879C21.6177 280.578 23.3199 280.65 25.28 280.45C24.1212 278.044 23.1737 276.453 21.79 274.181C19.9284 274.554 15.8615 275.521 15.238 272.792C15.9167 270.827 18.4721 271.037 20.1052 271.026C19.1342 268.327 17.7984 265.446 16.6324 262.794C16.6725 261.482 16.2557 260.891 15.3045 260.021C14.0473 257.796 11.83 250.753 10.6908 247.805C11.508 246.797 12.0599 246.367 11.7797 245.054C11.0899 244.34 10.4778 244.4 9.46058 244.278C8.55934 241.074 7.35172 237.989 6.45876 234.793L6.69753 234.411C6.68323 233.444 6.38757 233.429 5.62326 232.544Z" fill="#FAA640"/>
<path d="M53.1768 228.746C53.351 229.058 53.5302 229.565 53.6943 230.298C54.0547 231.907 54.2365 234.041 54.4883 236.258C54.7271 238.36 55.0354 240.622 55.7188 242.14C56.0607 242.899 56.6061 243.726 57.5244 244.107C58.5115 244.518 59.5263 244.259 60.4229 243.718C62.841 242.259 63.0754 239.626 63.2031 237.745C63.2158 237.559 63.2291 237.378 63.2402 237.203C66.1819 248.345 69.047 255.644 74.6338 266.493C74.4896 266.604 74.3583 266.716 74.2383 266.825C74.0505 266.997 73.882 267.169 73.7539 267.298C73.615 267.438 73.5223 267.529 73.4375 267.601C73.2954 267.72 73.2564 267.717 73.2275 267.719C73.1472 267.724 72.8892 267.711 72.3135 267.444C71.6212 267.123 71.0927 266.806 70.5645 266.509C70.0918 266.243 69.4903 265.91 68.8379 265.808C68.0624 265.686 67.352 265.894 66.6943 266.376C66.1013 266.81 65.5289 267.481 64.9102 268.338L64.7217 268.599L64.6787 268.918C64.5898 269.57 64.534 270.419 64.4795 271.287C64.4236 272.177 64.3672 273.118 64.2793 274.023C64.1909 274.934 64.0748 275.758 63.9111 276.412C63.8679 276.585 63.8229 276.731 63.7812 276.855C63.5955 276.769 63.3825 276.662 63.1416 276.526C62.8268 276.349 62.4953 276.148 62.1357 275.927C61.7826 275.71 61.4013 275.474 61.0137 275.248C59.5679 274.405 57.5129 273.356 55.4453 274.047L55.2148 274.123L55.0283 274.279C53.6933 275.394 53.4559 277.167 53.5732 278.771C53.6947 280.429 54.2196 282.308 54.874 284.111C55.7128 286.423 56.8155 288.743 57.7295 290.534C57.0044 290.384 56.2349 290.233 55.5068 290.122C54.5642 289.978 53.5852 289.876 52.6924 289.894C51.8878 289.909 51.0004 290.022 50.2627 290.412L50.1172 290.494C49.804 290.681 49.5689 290.946 49.4189 291.135C49.2529 291.343 49.1015 291.574 48.9727 291.786C48.7179 292.205 48.4856 292.661 48.3643 292.891L48.1768 293.246L48.2246 293.646C48.4847 295.815 48.766 297.429 49.2871 298.999C49.6428 300.07 50.1028 301.094 50.7129 302.241C49.9347 302.322 49.0493 302.409 48.1729 302.495C46.9028 302.621 45.5947 302.751 44.7646 302.867C41.8695 300.553 39.1145 297.247 36.4395 293.702C33.8551 290.277 31.3012 286.566 28.8867 283.595L28.4062 283.011L28.2676 282.867C27.9367 282.566 27.5518 282.495 27.3828 282.472C27.1441 282.439 26.9069 282.45 26.7188 282.467C26.336 282.502 25.8796 282.591 25.4414 282.685C24.5037 282.884 23.5017 283.131 22.5674 283.25C22.1081 283.309 21.7245 283.327 21.4268 283.304C21.27 283.292 21.1669 283.27 21.1035 283.252C21.1091 283.145 21.139 282.955 21.2441 282.66C22.2424 281.902 23.3532 281.944 25.415 281.732L27.2383 281.546L26.4434 279.895C25.2563 277.431 24.2816 275.796 22.8926 273.516L22.4707 272.822C23.0161 272.942 23.5637 273.065 24.1211 273.189C25.544 273.508 27.0232 273.831 28.6484 274.091L30.8301 274.439L30.0557 272.37C29.6932 271.401 29.3881 270.405 29.0781 269.378C28.7719 268.363 28.4587 267.308 28.0938 266.282C27.4049 264.346 27.3911 263.335 27.5322 262.868C27.5894 262.679 27.6668 262.594 27.7441 262.537C27.8402 262.467 28.0178 262.384 28.3369 262.338C29.0102 262.24 29.9748 262.348 31.1934 262.603C32.4193 262.859 33.6278 263.198 34.9365 263.506L37.3271 264.068L36.4287 261.783C36.0651 260.858 35.5489 259.707 35.0225 258.506C34.4883 257.287 33.9295 255.984 33.4492 254.69C32.9672 253.392 32.5779 252.138 32.3701 251.021C32.1584 249.882 32.1592 249.007 32.3398 248.401C32.4313 248.095 32.5561 247.959 32.6592 247.884C32.776 247.799 32.9742 247.715 33.3145 247.688C34.0391 247.633 35.077 247.861 36.3252 248.325C37.5396 248.777 38.8071 249.394 39.9443 249.979C41.0278 250.536 42.0901 251.117 42.7324 251.396L45.6191 252.646L44.4355 249.731C43.9125 248.443 43.2301 246.476 42.7041 244.482C42.1677 242.449 41.8372 240.544 41.9189 239.31C42.0646 237.111 42.5198 236.114 42.8848 235.723C43.0373 235.559 43.1731 235.501 43.3086 235.479C43.4669 235.453 43.7074 235.465 44.0518 235.583C44.7658 235.828 45.6521 236.429 46.6025 237.296C47.5317 238.144 48.4338 239.164 49.1836 240.13L51.5156 243.132L51.4863 239.331C51.4742 237.76 51.435 235.263 51.7529 232.948C51.9118 231.792 52.1524 230.742 52.498 229.908C52.7088 229.4 52.9393 229.02 53.1768 228.746ZM19.9883 272.314C20.7639 272.456 21.5163 272.613 22.2695 272.777L21.542 272.924C20.548 273.123 19.2431 273.413 18.1055 273.368C17.546 273.346 17.1552 273.243 16.9102 273.102C16.8103 273.044 16.7238 272.976 16.6533 272.879C16.8301 272.682 17.1138 272.537 17.582 272.438C18.309 272.286 19.1134 272.317 19.9883 272.314Z" fill="#E48716" stroke="black" stroke-width="2.57246"/>
<path d="M347.284 118.177C348.608 117.586 348.702 117.282 350.127 117.24C351.127 118.115 350.881 119.454 350.889 120.743C350.29 121.152 350.223 121.878 349.73 122.266C346.415 124.879 341.872 138.498 336.872 136.417C335.051 133.748 344.199 123.532 345.439 120.777C345.805 119.962 346.589 118.756 347.284 118.177Z" fill="#010101"/>
<path d="M337.798 117.852C339.44 116.886 341.108 115.059 343.077 115.76C343.886 116.865 343.64 116.39 343.848 117.945C343.424 118.482 342.146 120.027 341.662 120.323C339.027 121.938 329.894 133.717 327.152 131.308C326.925 130.667 326.53 129.982 326.904 129.345C328.974 125.821 332.473 122.985 335.345 120.109C336.275 119.176 337.067 118.839 337.798 117.852Z" fill="#010101"/>
<path d="M353.835 121.311C354.784 120.662 354.933 120.437 356.006 120.5C357.325 121.306 357.312 122.161 357.511 123.624C357.247 128.132 356.381 135.342 354.573 139.379C353.514 139.834 353.374 139.931 352.254 140.054C350.206 138.52 352.826 123.281 353.835 121.311Z" fill="#010101"/>
<path d="M65.9513 269.09C68.3577 265.758 68.7653 267.216 71.7708 268.61C74.4492 269.852 74.2173 267.842 76.3321 266.984C83.146 278.268 90.6526 287.092 102.715 292.923C104.409 293.742 107.565 295.514 109.36 295.768C109.394 297.598 108.526 302.252 108.194 304.247C107.274 309.88 106.285 315.502 105.226 321.111C104.494 325.019 103.683 330.93 102.675 334.461C99.8978 334.3 96.7947 333.463 94.0617 332.826L90.1299 331.475C88.6381 330.847 86.8816 330.264 85.3366 329.714C84.2145 329.217 83.0714 328.875 81.9044 328.495L57.8295 315.18C56.9781 314.322 56.6551 313.981 55.55 313.913C55.0041 313.469 54.5869 312.852 53.9688 312.343C52.7259 311.32 51.2868 310.466 49.9175 309.618C49.6965 308.695 48.8407 308.148 48.0237 307.79C47.028 306.953 45.3875 305.204 44.4141 304.228C45.4839 303.994 50.9128 303.563 52.7786 303.297C50.5771 299.544 50.0134 297.775 49.4998 293.491C49.7697 292.981 50.3247 291.867 50.775 291.598C52.6692 290.466 57.8522 291.928 60.1483 292.358C58.4072 289.171 52.4783 278.081 55.8512 275.266C58.7612 274.293 62.135 278.11 64.3762 278.388C65.7529 277.091 65.6261 271.476 65.9513 269.09Z" fill="#FAA640"/>
<path d="M270.362 100.402C274.088 98.5589 279.338 97.5584 283.376 96.3356C285.861 95.5835 292.328 93.2974 293.898 96.0465C293.3 100.975 274.897 101.868 270.917 105.846C267.822 104.254 268.049 102.57 270.362 100.402Z" fill="#FCFCFD"/>
<path d="M270.773 116.025C268.555 114.961 269.679 112.278 271.268 111.143C276.467 112.254 281.381 112.494 286.701 112.541C288.675 112.559 291.981 112.321 293.342 113.887C293.67 114.765 293.647 114.719 293.428 115.645C290.797 119.034 275.242 115.941 270.773 116.025Z" fill="#FCFCFD"/>
<path d="M269.399 128.352C267.594 127.673 265.154 126.224 267.341 123.7C267.85 123.112 269.043 123.475 269.822 123.608C273.104 124.826 287.127 129.843 286.71 133.891C284.332 136.533 272.328 129.916 269.399 128.352Z" fill="#FCFCFD"/>
<path d="M104.967 113.276C100.573 113.54 93.1299 111.181 88.5698 110.308C86.7197 109.954 84.4274 109.342 83.3929 107.669C83.3925 106.63 83.2303 107.077 83.8899 106.28C86.4476 105.132 100.704 108.87 104.965 109.491C105.968 109.974 106.558 110.116 107.087 111.07C107.24 112.171 107.344 111.677 106.796 112.613C105.928 113.148 105.977 113.13 104.967 113.276Z" fill="#FCFCFD"/>
<path d="M109.518 138.344C111.072 137.607 113.837 135.995 115.482 137.11C116.245 139.525 112.482 141.286 110.752 142.257C107.805 144.214 99.3126 152.228 96.4405 151.698C94.4591 149.067 99.6953 145.448 101.573 143.983C104.045 142.053 106.829 139.94 109.518 138.344Z" fill="#FCFCFD"/>
<path d="M106.433 123.391C108.199 123.057 109.809 122.434 110.537 124.562C110.174 126.68 108.344 127.275 106.41 127.374C103.863 127.956 88.8406 134.5 88.8672 129.456C89.0861 129.098 89.3829 128.582 89.7727 128.444C94.8615 126.651 101.339 124.844 106.433 123.391Z" fill="#FCFCFD"/>
<path d="M9.45755 244.279C10.4747 244.4 11.0869 244.341 11.7766 245.055C12.0569 246.368 11.505 246.798 10.6878 247.806C9.00673 248.592 5.79832 249.34 4.53132 247.547C4.51484 245.054 7.48793 244.781 9.45755 244.279Z" fill="#E48716"/>
<path d="M5.62841 232.544C6.39272 233.429 6.68838 233.444 6.70268 234.41L6.46391 234.793C4.64879 235.586 1.23339 237.42 0 234.871C0.672321 232.339 3.49047 232.595 5.62841 232.544Z" fill="#E48716"/>
<path d="M81.9011 328.495C83.0681 328.876 84.2112 329.217 85.3333 329.715C84.0045 330.895 80.3177 334.684 78.6955 332.827C78.6733 330.712 80.3412 329.585 81.9011 328.495Z" fill="#E48716"/>
<path d="M15.309 260.026C16.2602 260.896 16.677 261.487 16.6369 262.799C14.6662 263.174 11.4128 264.101 10.3906 261.729L10.6733 261.129C12.3035 259.765 13.1789 259.99 15.309 260.026Z" fill="#E48716"/>
<path d="M55.551 313.914C56.6561 313.983 56.9792 314.323 57.8306 315.181C56.9696 316.811 56.3039 320.114 54.1263 319.822C51.8045 318.017 54.2248 316.425 55.4333 314.141L55.551 313.914Z" fill="#E48716"/>
<path d="M48.022 307.79C48.839 308.149 49.6947 308.696 49.9157 309.618C48.8193 311.105 47.4029 312.449 45.4926 311.588C44.9058 310.246 45.4207 309.344 46.6357 308.625L48.022 307.79Z" fill="#E48716"/>
<path d="M90.1337 331.476L94.0655 332.827C93.3802 334.139 93.29 334.353 91.8884 334.684C90.1485 334.248 89.9925 333.071 90.1337 331.476Z" fill="#E48716"/>
<path d="M96.9412 408.511C97.1443 409.641 97.3179 410.939 97.2819 412.193C97.2296 414.017 96.7208 416.046 94.9788 417.336C95.0021 418.781 94.4464 420.08 93.6157 421.115L92.7613 422.18L91.7489 421.264C91.4157 420.963 91.1641 420.738 90.9342 420.565C90.7081 420.395 90.5646 420.323 90.4708 420.292C90.4218 420.276 90.2887 420.218 89.923 420.414C89.8578 420.62 89.843 420.752 89.8451 420.83C89.8475 420.92 89.8686 420.989 89.9355 421.087C90.0208 421.211 90.1717 421.368 90.4527 421.598C90.7959 421.879 91.0018 422.017 91.4739 422.393L92.3515 423.092L91.777 424.057C91.4895 424.539 91.1891 425.104 90.8412 425.743C90.5019 426.366 90.1262 427.043 89.7181 427.683C88.9522 428.884 87.8784 430.284 86.3994 430.774L85.9031 430.939L85.4323 430.711C84.8049 430.405 84.2582 429.864 83.8332 429.406C83.6063 429.162 83.3776 428.899 83.1601 428.65C82.9381 428.396 82.7245 428.153 82.5088 427.919C82.0682 427.442 81.6801 427.08 81.3226 426.853C81.2064 426.78 81.1046 426.728 81.0156 426.692C81.0061 426.736 80.9951 426.784 80.9832 426.837C81.1713 427.368 81.5976 428.029 82.2289 428.791C82.9552 429.667 83.7444 430.446 84.4538 431.22L85.5065 432.368L84.1809 433.185C81.549 434.806 79.5461 436.152 77.0385 437.968L76.4114 438.423L75.7172 438.081C75.0726 437.764 74.5989 437.293 74.2393 436.851C73.8933 436.426 73.5784 435.93 73.3419 435.581C73.1142 435.244 72.9346 435.01 72.783 434.849C72.7735 434.881 72.7616 434.914 72.7509 434.949C72.82 435.278 72.9819 435.72 73.2344 436.245C73.5337 436.868 73.8973 437.488 74.2085 438.013L75.1928 439.672L73.2828 439.942C72.0581 440.116 70.1335 441.041 68.0345 442.606C65.9751 444.141 63.9052 446.175 62.3744 448.366C60.8288 450.578 59.9241 452.816 59.9675 454.79C60.0071 456.583 60.8335 458.344 63.1469 459.84L172.021 459.839C172.986 454.981 173.598 448.816 174.156 442.558C174.75 435.902 175.285 429.135 176.135 423.935C176.454 421.971 176.696 420.008 176.95 418.009C177.137 416.53 177.331 415.032 177.563 413.522C177.455 413.531 177.343 413.541 177.225 413.552C176.395 413.629 175.413 413.741 174.371 413.861C172.337 414.095 170.046 414.358 168.44 414.398L168.439 414.399C165.692 414.543 162.159 414.419 159.461 414.392L159.448 414.392C158.938 414.382 158.161 414.455 157.214 414.545C156.319 414.631 155.297 414.728 154.44 414.727L154.439 414.727C146.995 414.713 137.874 415.419 130.233 414.102C128.036 414.022 126.539 413.801 124.447 413.488C118.469 412.891 113.275 412.525 107.186 411.563L107.161 411.559L107.136 411.554C104.638 411.058 103.348 410.714 100.937 409.956L100.882 409.938L100.828 409.916C99.4967 409.361 98.222 408.854 96.9412 408.511Z" fill="#FD459D" stroke="black" stroke-width="2.57246"/>
<path d="M146.101 457.962C144.423 457.276 131.571 456.008 128.365 455.553C121.631 454.617 114.944 453.358 108.328 451.784C104.847 450.958 101.351 449.99 97.9854 448.759C96.6105 448.256 93.2104 446.529 92.0682 446.519C91.3762 446.837 91.6635 446.587 91.3072 447.421C91.365 448.696 91.8241 449.558 92.7705 450.421C97.4182 454.675 124.925 458.601 132.648 459.61L146.101 457.962Z" fill="#FCFCFD"/>
<path d="M85.9958 429.554C84.4303 428.792 82.6411 425.028 80.4282 425.356C79.7089 426.028 79.9351 425.777 79.6542 426.865C80.049 428.644 82.204 430.668 83.5073 432.09C85.2145 434.077 90.8148 441.525 93.504 440.466C94.5749 438.007 89.3884 433.662 87.9966 431.966C87.3692 431.204 86.702 430.192 85.9958 429.554Z" fill="#FCFCFD"/>
<path d="M76.2827 436.928C74.6289 436.116 74.2341 433.459 72.3811 433.233C71.5791 433.828 71.8204 433.697 71.4338 434.847C71.536 436.011 72.4821 437.626 73.1015 438.67C73.2616 438.962 73.4246 439.25 73.5912 439.541C74.7316 441.523 78.6422 448.48 80.8663 449.222C81.3927 449.399 81.5837 449.13 81.992 448.856C83.3321 445.995 76.4093 439.091 76.2827 436.928Z" fill="#FCFCFD"/>
<path d="M92.6066 420.312C91.3075 419.136 90.4925 418.427 88.8704 419.553C87.9465 421.633 89.1909 422.223 90.6667 423.4C91.9679 425.471 95.6554 430.681 98.2036 430.584C98.9116 430.186 98.9576 430.224 99.363 429.489C99.1123 428.027 93.9327 422.249 92.6066 420.312Z" fill="#FCFCFD"/>
<path d="M111.292 431.691C110.397 432.077 110.399 432.239 110.02 432.988C110.237 435.549 114.26 436.47 116.412 437.028C131.528 440.948 147.936 443.146 163.537 441.785C164.308 441.453 165.231 440.866 165.29 439.98C164.238 438.238 158.652 438.601 156.629 438.625C140.48 438.811 126.717 436.491 111.292 431.691Z" fill="#FCFCFD"/>
<path d="M115.572 419.251C114.294 419.144 113.378 419.546 112.876 420.75C113.041 421.107 113.043 421.177 113.379 421.452C116.73 424.2 149.837 425.135 156.186 425.06C158.615 425.03 161.021 424.788 163.43 424.502C164.827 424.054 166.541 423.247 165.91 421.484C165.443 421.194 164.912 420.917 164.35 420.981C154.427 422.1 144.312 421.468 134.367 420.841C128.129 420.445 121.831 419.447 115.572 419.251Z" fill="#FCFCFD"/>
<path d="M85.7278 389.937C77.1695 386.739 80.8338 397.7 82.5307 400.962C83.3443 402.492 84.2294 403.987 85.1823 405.438C80.6261 402.513 72.6117 396.516 67.3292 397.734C65.5512 398.145 64.6586 399.141 63.5148 400.409C65.0368 406.367 67.3935 409.07 72.7528 412.375C77.7665 415.468 88.4081 418.373 94.117 417.032C97.6214 415.224 95.8853 409.714 95.3073 406.877C95.0004 406.185 94.6573 404.449 94.4712 403.633C93.0088 399.284 90.0996 391.572 85.7278 389.937ZM67.5625 401.671C68.1718 400.876 68.8289 400.958 69.8026 400.883C72.9609 401.929 89.2223 411.036 89.8946 413.316C89.1806 413.654 88.2358 413.501 87.4154 413.461C81.1285 412.747 73.382 409.971 69.2204 404.942C68.5004 404.073 67.583 402.81 67.5625 401.671ZM83.8755 392.478C89.4693 396.831 91.1483 403.371 92.9087 410.139L92.4928 410.366C89.9798 407.476 81.5409 395.926 83.8755 392.478Z" fill="#FCFCFD"/>
<path d="M319.843 408.411C319.596 409.559 319.348 410.904 319.304 412.181C319.238 414.056 319.594 416.257 321.396 417.605C321.442 418.267 321.668 418.842 321.956 419.336C322.324 419.968 322.879 420.587 323.212 421.003L324.067 422.068L325.079 421.152C325.412 420.85 325.664 420.626 325.894 420.453C326.12 420.283 326.263 420.21 326.357 420.18C326.406 420.164 326.539 420.106 326.905 420.302C326.97 420.508 326.985 420.64 326.983 420.718C326.981 420.808 326.96 420.877 326.893 420.975C326.807 421.099 326.656 421.256 326.375 421.486C326.032 421.766 325.826 421.904 325.354 422.281L324.477 422.98L325.051 423.945C325.339 424.427 325.639 424.992 325.987 425.63C326.326 426.254 326.702 426.93 327.11 427.57C327.876 428.772 328.95 430.172 330.429 430.662L330.925 430.827L331.396 430.598C332.023 430.293 332.57 429.751 332.995 429.294C333.222 429.049 333.451 428.787 333.668 428.538C333.89 428.284 334.104 428.04 334.319 427.807C334.76 427.33 335.148 426.967 335.505 426.741C335.622 426.668 335.724 426.616 335.813 426.58C335.822 426.624 335.833 426.672 335.845 426.725C335.657 427.256 335.231 427.917 334.599 428.679C333.873 429.555 333.084 430.334 332.374 431.108L331.322 432.256L332.647 433.072C335.279 434.694 337.282 436.04 339.79 437.856L340.417 438.311L341.111 437.969C341.756 437.652 342.229 437.181 342.589 436.739C342.935 436.314 343.25 435.818 343.486 435.468C343.714 435.132 343.894 434.898 344.045 434.737C344.055 434.769 344.067 434.802 344.077 434.836C344.008 435.166 343.846 435.608 343.594 436.133C343.294 436.755 342.931 437.376 342.62 437.901L341.635 439.56L343.545 439.83C344.77 440.004 346.695 440.929 348.794 442.494C350.853 444.029 352.923 446.063 354.454 448.254C355.999 450.466 356.904 452.704 356.861 454.678C356.821 456.471 355.995 458.232 353.681 459.727L244.807 459.727C243.842 454.869 243.23 448.704 242.672 442.446C242.078 435.789 241.543 429.023 240.693 423.823C240.374 421.859 240.132 419.896 239.878 417.897C239.691 416.417 239.498 414.92 239.265 413.41C239.373 413.419 239.485 413.429 239.603 413.44C240.433 413.517 241.415 413.629 242.457 413.749C244.491 413.982 246.782 414.246 248.388 414.285L248.389 414.286C251.137 414.43 254.669 414.307 257.368 414.28L257.38 414.28C257.891 414.27 258.667 414.343 259.614 414.433C260.509 414.519 261.532 414.615 262.389 414.615L262.39 414.615C269.833 414.601 278.954 415.307 286.595 413.99C288.792 413.91 290.289 413.688 292.381 413.375C298.359 412.778 303.553 412.413 309.642 411.451L309.667 411.447L309.692 411.442C312.191 410.945 313.48 410.602 315.891 409.844L315.946 409.826L316 409.804C317.316 409.255 318.577 408.754 319.843 408.411Z" fill="#FD459D" stroke="black" stroke-width="2.57246"/>
<path d="M270.735 455.856C272.413 455.17 285.265 453.902 288.471 453.447C295.205 452.51 301.892 451.252 308.507 449.677C311.989 448.852 315.485 447.883 318.851 446.653C320.225 446.149 323.626 444.422 324.768 444.413C325.46 444.73 325.172 444.48 325.529 445.314C325.471 446.59 325.012 447.451 324.065 448.315C319.418 452.568 291.911 456.495 284.188 457.503L270.735 455.856Z" fill="#FCFCFD"/>
<path d="M330.832 427.445C332.398 426.684 334.187 422.919 336.4 423.248C337.119 423.92 336.893 423.668 337.174 424.757C336.779 426.535 334.624 428.56 333.321 429.981C331.614 431.968 326.013 439.416 323.324 438.358C322.253 435.899 327.44 431.554 328.832 429.857C329.459 429.095 330.126 428.084 330.832 427.445Z" fill="#FCFCFD"/>
<path d="M340.545 434.817C342.199 434.005 342.594 431.348 344.447 431.123C345.249 431.717 345.008 431.587 345.394 432.737C345.292 433.901 344.346 435.516 343.727 436.56C343.567 436.852 343.404 437.14 343.237 437.431C342.097 439.413 338.186 446.37 335.962 447.112C335.435 447.289 335.244 447.019 334.836 446.745C333.496 443.885 340.419 436.98 340.545 434.817Z" fill="#FCFCFD"/>
<path d="M324.214 418.203C325.513 417.027 326.328 416.319 327.95 417.444C328.874 419.525 327.629 420.115 326.154 421.291C324.852 423.363 321.165 428.573 318.617 428.476C317.909 428.077 317.863 428.116 317.457 427.381C317.708 425.918 322.888 420.14 324.214 418.203Z" fill="#FCFCFD"/>
<path d="M305.536 429.583C306.431 429.97 306.429 430.132 306.808 430.881C306.591 433.441 302.568 434.363 300.416 434.921C285.301 438.841 268.892 441.039 253.291 439.677C252.52 439.346 251.597 438.758 251.538 437.873C252.591 436.13 258.176 436.494 260.199 436.518C276.348 436.703 290.111 434.383 305.536 429.583Z" fill="#FCFCFD"/>
<path d="M301.256 417.143C302.535 417.036 303.45 417.438 303.952 418.641C303.787 418.999 303.785 419.069 303.449 419.344C300.098 422.092 266.991 423.026 260.642 422.952C258.214 422.922 255.807 422.68 253.398 422.394C252.002 421.946 250.287 421.139 250.918 419.376C251.386 419.086 251.916 418.808 252.478 418.873C262.402 419.992 272.516 419.359 282.461 418.733C288.699 418.337 294.997 417.338 301.256 417.143Z" fill="#FCFCFD"/>
<path d="M331.108 387.826C339.667 384.627 336.002 395.589 334.305 398.851C333.492 400.381 332.607 401.876 331.655 403.327C336.211 400.402 344.224 394.404 349.507 395.622C351.285 396.033 352.177 397.029 353.321 398.298C351.799 404.256 349.443 406.959 344.083 410.264C339.069 413.357 328.428 416.262 322.719 414.921C319.215 413.113 320.951 407.602 321.529 404.766C321.836 404.074 322.179 402.337 322.365 401.521C323.827 397.172 326.736 389.46 331.108 387.826ZM349.273 399.56C348.664 398.765 348.007 398.846 347.033 398.771C343.876 399.816 327.615 408.923 326.941 411.204C327.655 411.542 328.6 411.39 329.421 411.35C335.707 410.635 343.455 407.86 347.616 402.831C348.336 401.962 349.253 400.699 349.273 399.56ZM332.957 390.366C327.363 394.719 325.684 401.26 323.923 408.027L324.339 408.254C326.852 405.365 335.291 393.815 332.957 390.366Z" fill="#FCFCFD"/>
<path d="M128.277 227.475L128.932 228.582L129.875 228.025L129.474 227.005L128.277 227.475ZM125.092 215.85C124.832 215.189 124.086 214.863 123.425 215.123C122.763 215.383 122.438 216.129 122.698 216.791L123.895 216.32L125.092 215.85ZM91.2266 249.387L91.8813 250.494L128.932 228.582L128.277 227.475L127.623 226.368L90.5718 248.28L91.2266 249.387ZM128.277 227.475L129.474 227.005L125.092 215.85L123.895 216.32L122.698 216.791L127.08 227.946L128.277 227.475Z" fill="black"/>
<defs>
<linearGradient id="paint0_linear_3592_661" x1="93.7589" y1="421.584" x2="107.153" y2="432.861" gradientUnits="userSpaceOnUse">
<stop stop-color="#FFBFFF"/>
<stop offset="1" stop-color="#FFE7FF"/>
</linearGradient>
<linearGradient id="paint1_linear_3592_661" x1="139.582" y1="445.368" x2="140.176" y2="440.215" gradientUnits="userSpaceOnUse">
<stop stop-color="#FFE5FF"/>
<stop offset="1" stop-color="#FFF7FF"/>
</linearGradient>
</defs>
</svg>
