<svg width="197" height="181" viewBox="0 0 197 181" fill="none" xmlns="http://www.w3.org/2000/svg">
<path d="M50.4707 1.5498C51.0364 1.72317 51.5996 1.90464 52.1592 2.0957L52.8389 2.33301C59.6904 4.84543 62.7754 9.91374 64.9961 14.9307C65.5558 16.1951 66.05 17.4305 66.5469 18.6396C67.0372 19.8328 67.5305 21.0016 68.0664 22.0566C69.115 24.1211 70.478 26.071 72.6924 26.8896L73.3154 27.1201L73.9053 26.8135C75.179 26.151 76.4837 25.5517 77.8154 25.0195L77.8203 25.0176C87.9973 20.9099 101.682 22.4481 112.877 24.2266C112.861 24.2241 112.9 24.2304 113.017 24.2695C113.125 24.306 113.266 24.3599 113.441 24.4326C113.792 24.5783 114.23 24.779 114.737 25.0225C115.79 25.5277 116.93 26.1092 118.191 26.7217C119.392 27.3047 120.628 27.8782 121.629 28.2383C122.118 28.4143 122.637 28.5721 123.107 28.6309C123.34 28.6599 123.65 28.6771 123.977 28.6104C124.312 28.5417 124.796 28.3526 125.134 27.8623C127.924 23.8073 129.827 18.986 131.915 14.8311C134.054 10.5738 136.48 6.76989 140.437 4.04688L140.438 4.0459C141.644 3.21544 143.304 2.84354 144.601 3.19336C148.33 4.24902 151.433 7.13137 154.08 11.3418C156.728 15.5526 158.816 20.9314 160.568 26.6729C162.318 32.4061 163.705 38.4072 164.99 43.8535C166.263 49.2496 167.452 54.1783 168.795 57.6035L168.841 57.7207L168.906 57.8291C171.251 61.7274 174.148 65.1497 176.923 68.4844C179.723 71.8499 182.411 75.1397 184.522 78.9004L184.525 78.9053C194.156 95.9252 195.464 113.085 195.371 132.367C195.322 142.596 194.933 150.807 192.25 157.788C189.609 164.658 184.685 170.468 175.246 175.716C170.106 178.03 163.733 178.546 157.777 178.959H157.775C144.245 179.916 130.336 179.266 116.593 179.296C95.4926 179.326 74.4011 179.666 53.3545 179.296H53.3555C38.5105 179.025 23.2309 177.433 12.9131 166.59C6.21703 159.552 3.25798 148.704 2.12012 136.951C0.985681 125.234 1.68512 112.944 2.05078 103.206C2.9921 78.1597 13.353 56.4865 31.8613 39.5693L32.25 39.2148L32.3311 38.6953C33.3749 32.0668 34.373 23.439 37.0254 16.0225C39.6317 8.73472 43.6688 3.09127 50.4707 1.5498Z" fill="#F7CB46" stroke="black" stroke-width="3"/>
<path d="M140.846 85.7146C143.552 82.3139 149.378 77.9525 153.867 80.5479C154.94 82.8287 154.736 81.8461 154.276 84.5206C155.773 86.6762 159.913 88.5294 160.529 89.8296C168.441 106.524 144.423 114.604 135.617 101.201C131.649 95.1616 136.722 89.6473 140.846 85.7146Z" fill="#FF80AB"/>
<path d="M140.848 85.7146C143.554 82.3139 149.38 77.9525 153.869 80.5479C154.942 82.8287 154.738 81.8461 154.278 84.5206C146.472 83.573 147.371 89.6403 140.848 85.7146Z" fill="#040304"/>
<path d="M38.3446 84.6676L36.878 82.8877L37.0536 81.2779C41.1467 78.0334 49.3471 81.5203 50.9924 86.632C51.6666 87.3862 55.3701 90.6869 55.5184 90.9814C65.3651 110.551 29.03 113.988 31.4091 94.4181C31.9138 90.2661 34.5362 86.9745 38.3446 84.6676Z" fill="#FF80AB"/>
<path d="M38.3456 84.6676L36.8789 82.8877L37.0546 81.2779C41.1476 78.0334 49.348 81.5203 50.9933 86.632C45.7142 88.8547 46.2491 84.274 38.3456 84.6676Z" fill="#040304"/>
<path d="M94.646 79.3848C97.8266 79.4719 100.932 79.7784 103.481 81.7257C105.833 86.7853 100.652 88.423 99.7243 94.6806C100.454 98.3548 105.408 102.126 109.132 100.113C111.423 98.8747 112.046 96.8122 114.834 96.1822C116.696 97.5545 116.098 97.0166 117.064 99.4287C116.246 103.859 112.602 104.355 108.588 104.793C103.766 105.319 101.671 103.26 98.2445 100.386L96.5558 100.185C93.777 102.156 89.0641 105.386 85.6513 105.439C81.9277 105.496 77.3703 100.535 77.2148 96.9024L78.5715 95.9838C83.5518 95.7164 81.1585 99.1582 86.4437 100.434C91.2252 100.108 93.5952 96.6229 96.902 93.144C92.9947 90.5456 88.8915 88.4611 89.4215 83.3224C90.7125 81.0265 92.2386 80.5998 94.646 79.3848Z" fill="#040304"/>
<path d="M122.366 72.3807C126.438 71.8158 130.201 74.6306 130.776 78.6704C131.349 82.7093 128.517 86.4466 124.446 87.0206C120.369 87.5965 116.594 84.7798 116.019 80.7339C115.444 76.6881 118.286 72.9457 122.366 72.3807Z" fill="#040304"/>
<path d="M65.5172 73.1765C68.0033 72.4242 70.7035 73.0763 72.5628 74.8763C74.4221 76.6774 75.1448 79.3399 74.4473 81.8231C73.7498 84.3063 71.7432 86.2145 69.2136 86.8015C65.4768 87.669 61.7198 85.4402 60.7226 81.763C59.7253 78.0858 61.847 74.2874 65.5172 73.1765Z" fill="#040304"/>
</svg>
