<svg width="235" height="91" viewBox="0 0 235 91" fill="none" xmlns="http://www.w3.org/2000/svg">
<g clip-path="url(#clip0_3843_11806)">
<path d="M40.4697 11.0781C55.0461 11.0784 66.8525 22.8487 66.8525 37.3555C66.8523 51.8621 55.0459 63.6316 40.4697 63.6318C25.8933 63.6318 14.0862 51.8622 14.0859 37.3555C14.0859 22.8485 25.8932 11.0781 40.4697 11.0781Z" fill="#FAA640" stroke="black" stroke-width="3"/>
<path d="M61.4385 31.9688C76.0148 31.9689 87.8213 43.7393 87.8213 58.2461C87.8211 72.7528 76.0147 84.5223 61.4385 84.5224C46.8621 84.5224 35.0549 72.7529 35.0547 58.2461C35.0547 43.7392 46.8619 31.9688 61.4385 31.9688Z" fill="#FEABC8" stroke="black" stroke-width="3"/>
<path d="M27.8838 27.7891C42.4601 27.7894 54.2666 39.5597 54.2666 54.0665C54.2664 68.5731 42.46 80.3426 27.8838 80.3428C13.3074 80.3428 1.50023 68.5732 1.5 54.0665C1.5 39.5595 13.3073 27.7891 27.8838 27.7891Z" fill="#56D5F3" stroke="black" stroke-width="3"/>
<path d="M92.3916 1.5C106.968 1.50024 118.774 13.2705 118.774 27.7773C118.774 42.284 106.968 54.0535 92.3916 54.0537C77.8152 54.0537 66.008 42.2841 66.0078 27.7773C66.0078 13.2704 77.8151 1.5 92.3916 1.5Z" fill="#56D5F3" stroke="black" stroke-width="3"/>
<path d="M129.228 20.5273C143.804 20.5275 155.61 32.2978 155.61 46.8046C155.61 61.3112 143.804 73.0808 129.228 73.081C114.651 73.081 102.844 61.3114 102.844 46.8046C102.844 32.2977 114.651 20.5273 129.228 20.5273Z" fill="#56D5F3" stroke="black" stroke-width="3"/>
<path d="M206.915 6.89453C221.491 6.89477 233.298 18.6651 233.298 33.1719C233.298 47.6785 221.491 59.4481 206.915 59.4482C192.339 59.4482 180.531 47.6786 180.531 33.1719C180.531 18.665 192.339 6.89453 206.915 6.89453Z" fill="#FEABC8" stroke="black" stroke-width="3"/>
<path d="M111.438 36.1484C126.015 36.1486 137.821 47.9189 137.821 62.4257C137.821 76.9323 126.015 88.7019 111.438 88.7021C96.8621 88.7021 85.0549 76.9325 85.0547 62.4257C85.0547 47.9188 96.8619 36.1484 111.438 36.1484Z" fill="#FEABC8" stroke="black" stroke-width="3"/>
<path d="M171.517 13.7305C186.093 13.7308 197.899 25.5011 197.899 40.0079C197.899 54.5145 186.093 66.284 171.517 66.2842C156.94 66.2842 145.133 54.5146 145.133 40.0079C145.133 25.5009 156.94 13.7305 171.517 13.7305Z" fill="#FEABC8" stroke="black" stroke-width="3"/>
<path d="M153.728 36.1484C168.304 36.1486 180.11 47.9189 180.11 62.4257C180.11 76.9323 168.304 88.7019 153.728 88.7021C139.151 88.7021 127.344 76.9325 127.344 62.4257C127.344 47.9188 139.151 36.1484 153.728 36.1484Z" fill="#F7CB46" stroke="black" stroke-width="3"/>
<path d="M198.47 30.5781C213.046 30.5783 224.853 42.3486 224.853 56.8554C224.852 71.362 213.046 83.1315 198.47 83.1318C183.893 83.1318 172.086 71.3622 172.086 56.8554C172.086 42.3485 183.893 30.5781 198.47 30.5781Z" fill="#F7CB46" stroke="black" stroke-width="3"/>
</g>
<defs>
<clipPath id="clip0_3843_11806">
<rect width="235" height="91" fill="white"/>
</clipPath>
</defs>
</svg>
