<svg width="450" height="105" viewBox="0 0 450 105" fill="none" xmlns="http://www.w3.org/2000/svg">
<path d="M278.032 2.5C292.609 2.50024 304.415 14.2705 304.415 28.7773C304.415 43.284 292.608 55.0535 278.032 55.0537C263.456 55.0537 251.649 43.2841 251.648 28.7773C251.648 14.2704 263.456 2.5 278.032 2.5Z" fill="#FEABC8" stroke="black" stroke-width="3"/>
<path d="M115.329 7.50195C129.905 7.50219 141.712 19.2725 141.712 33.7793C141.712 48.2859 129.905 60.0554 115.329 60.0557C100.753 60.0557 88.9455 48.2861 88.9453 33.7793C88.9453 19.2724 100.753 7.50195 115.329 7.50195Z" fill="#FAA640" stroke="black" stroke-width="3"/>
<path d="M422.048 1.5C436.624 1.50024 448.431 13.2705 448.431 27.7773C448.43 42.284 436.624 54.0535 422.048 54.0537C407.471 54.0537 395.664 42.2841 395.664 27.7773C395.664 13.2704 407.471 1.5 422.048 1.5Z" fill="#56D5F3" stroke="black" stroke-width="3"/>
<path d="M163.032 22.5C177.609 22.5002 189.415 34.2705 189.415 48.7773C189.415 63.284 177.608 75.0535 163.032 75.0537C148.456 75.0537 136.649 63.2841 136.648 48.7773C136.648 34.2704 148.456 22.5 163.032 22.5Z" fill="#FEABC8" stroke="black" stroke-width="3"/>
<path d="M212.04 27.5C226.616 27.5002 238.423 39.2705 238.423 53.7773C238.423 68.284 226.616 80.0535 212.04 80.0537C197.464 80.0537 185.656 68.2841 185.656 53.7773C185.656 39.2704 197.464 27.5 212.04 27.5Z" fill="#F7CB46" stroke="black" stroke-width="3"/>
<path d="M33.4697 29.1094C48.0461 29.1096 59.8525 40.8799 59.8525 55.3867C59.8523 69.8933 48.0459 81.6629 33.4697 81.6631C18.8933 81.6631 7.08616 69.8935 7.08594 55.3867C7.08594 40.8798 18.8932 29.1094 33.4697 29.1094Z" fill="#56D5F3" stroke="black" stroke-width="3"/>
<path d="M89.3916 20.752C103.968 20.7522 115.774 32.5225 115.774 47.0293C115.774 61.5359 103.968 73.3054 89.3916 73.3057C74.8152 73.3057 63.008 61.5361 63.0078 47.0293C63.0078 32.5224 74.8151 20.752 89.3916 20.752Z" fill="#56D5F3" stroke="black" stroke-width="3"/>
<path d="M195.649 50C210.226 50.0002 222.032 61.7705 222.032 76.2773C222.032 90.784 210.226 102.553 195.649 102.554C181.073 102.554 169.266 90.7841 169.266 76.2773C169.266 61.7704 181.073 50 195.649 50Z" fill="#FAA640" stroke="black" stroke-width="3"/>
<path d="M74.0088 43.0352C88.5851 43.0354 100.392 54.8057 100.392 69.3125C100.391 83.8191 88.585 95.5886 74.0088 95.5889C59.4324 95.5889 47.6252 83.8193 47.625 69.3125C47.625 54.8056 59.4323 43.0352 74.0088 43.0352Z" fill="#FEABC8" stroke="black" stroke-width="3"/>
<path d="M122.946 40.2539C137.523 40.2541 149.329 52.0245 149.329 66.5312C149.329 81.0379 137.522 92.8074 122.946 92.8076C108.37 92.8076 96.5627 81.038 96.5625 66.5312C96.5625 52.0243 108.37 40.2539 122.946 40.2539Z" fill="#F7CB46" stroke="black" stroke-width="3"/>
<path d="M183.526 70.8945C184.099 70.8945 184.46 71.5098 184.182 72.0098L172.494 92.9658H3.07422L20.3066 70.8945H183.526Z" fill="#E4AC00" stroke="black" stroke-width="3" stroke-linejoin="round"/>
<path d="M188.778 96.5535L184.259 71.9562C184.059 70.8629 182.579 70.6589 182.09 71.657L169.203 97.9464L188.778 96.5535Z" fill="#F7CB46" stroke="black" stroke-width="3"/>
</svg>
