<svg width="164" height="360" viewBox="0 0 164 360" fill="none" xmlns="http://www.w3.org/2000/svg">
<path d="M78.7617 237.234C78.8156 237.545 78.8625 237.933 78.8975 238.395C78.9887 239.599 78.9954 241.138 78.957 242.744C78.8977 245.226 78.7324 247.757 78.6299 249.317C77.8363 249.526 77.0496 249.75 76.2705 249.987L75.1494 250.341C73.8201 250.771 72.1118 251.462 70.5166 252.251C68.9562 253.023 67.3543 253.961 66.3486 254.921C59.4156 261.538 52.7069 269.07 46.3408 275.873L29.4971 293.83C26.8956 296.598 23.5027 299.91 21.0537 302.817L21.0488 302.823L21.0439 302.828C19.3164 304.919 17.841 307.126 16.6357 309.421L16.6318 309.429L16.6279 309.436C15.3168 312.002 14.9516 315.141 15.2656 318.145C15.5804 321.154 16.5914 324.172 18.1943 326.535C22.362 332.679 27.9066 336.076 35.6445 338.462C33.0155 341.309 31.487 343.792 29.9229 347.104L26.8379 345.874C26.6279 345.79 26.4193 345.705 26.2119 345.619C14.7483 340.845 6.61363 333.879 3.14355 324.823L2.98145 324.391C-0.0438359 316.042 1.59059 307.125 7.6582 299.58L7.66016 299.577C9.28706 297.545 11.3927 295.233 13.3291 293.281C21.4347 285.11 28.9781 276.441 36.6582 267.982C44.3565 259.503 52.2216 251.201 61.0527 243.645C62.8519 242.105 65.9042 240.743 69.3965 239.612C72.5715 238.584 75.9561 237.795 78.7617 237.234Z" fill="#56D5F3" stroke="black" stroke-width="3"/>
<path d="M84.3945 237.234C84.3406 237.545 84.2938 237.933 84.2588 238.395C84.1676 239.599 84.1608 241.138 84.1992 242.744C84.2586 245.226 84.4239 247.757 84.5264 249.317C85.32 249.526 86.1066 249.75 86.8857 249.987L88.0068 250.341C89.3361 250.771 91.0445 251.462 92.6396 252.251C94.2001 253.023 95.8019 253.961 96.8076 254.921C103.741 261.538 110.449 269.07 116.815 275.873L133.659 293.83C136.261 296.598 139.654 299.91 142.103 302.817L142.107 302.823L142.112 302.828C143.84 304.919 145.315 307.126 146.521 309.421L146.524 309.429L146.528 309.436C147.839 312.002 148.205 315.141 147.891 318.145C147.576 321.154 146.565 324.172 144.962 326.535C140.794 332.679 135.25 336.076 127.512 338.462C130.141 341.309 131.669 343.792 133.233 347.104L136.318 345.874C136.528 345.79 136.737 345.705 136.944 345.619C148.408 340.845 156.543 333.879 160.013 324.823L160.175 324.391C163.2 316.042 161.566 307.125 155.498 299.58L155.496 299.577C153.869 297.545 151.764 295.233 149.827 293.281C141.722 285.11 134.178 276.441 126.498 267.982C118.8 259.503 110.935 251.201 102.104 243.645C100.304 242.105 97.252 240.743 93.7598 239.612C90.5847 238.584 87.2002 237.795 84.3945 237.234Z" fill="#56D5F3" stroke="black" stroke-width="3"/>
<rect x="27.1094" y="328.576" width="16.754" height="29.9233" rx="8.01118" fill="#FEABC8" stroke="black" stroke-width="3"/>
<rect x="118.562" y="328.576" width="16.754" height="29.9233" rx="8.01118" fill="#FEABC8" stroke="black" stroke-width="3"/>
<rect x="68.5" y="1.5" width="28" height="229" rx="7.27955" fill="#F7CB46" stroke="black" stroke-width="3"/>
<rect x="77.5938" y="218.102" width="9.4377" height="35.7764" rx="4.71885" fill="#FEABC8" stroke="black" stroke-width="3"/>
</svg>
