<svg width="684" height="843" viewBox="0 0 684 843" fill="none" xmlns="http://www.w3.org/2000/svg">
<path d="M231 666.5H457C553.978 666.5 632.685 744.712 633.49 841.5H54.5098C55.3155 744.712 134.022 666.5 231 666.5Z" fill="#F7CB46" stroke="black" stroke-width="3"/>
<path d="M231.704 1.5H456.28C554.152 1.5 633.492 80.8406 633.492 178.712V201.5H54.4922V178.712C54.4922 80.8406 133.833 1.5 231.704 1.5Z" fill="#F7CB46" stroke="black" stroke-width="3"/>
<path d="M147.242 119.789C160.442 126.198 181.593 137.898 194.244 145.418C188.636 158.241 185.115 167.139 183.705 181.736L178.451 187.61L128.728 186.579C132.829 159.919 135.972 143.746 147.242 119.789Z" fill="#FE68A5" stroke="black" stroke-width="3"/>
<path d="M537.827 118.687C549.105 139.858 555.926 162.698 557.401 187.526C545.013 187.528 532.616 187.515 520.218 187.595L514.678 187.637C512.931 187.652 510.547 187.843 507.996 187.786C506.768 187.759 505.623 187.671 504.679 187.487C504.037 187.363 503.574 187.208 503.257 187.054L502.966 185.239L502.323 181.243L500.206 184.693L499.914 185.168L499.188 183.84C499.06 183.157 498.924 182.41 498.788 181.64C498.515 180.089 498.24 178.468 498.01 177.24L497.796 176.161C495.878 167.175 493.961 161.187 489.967 153.281C490.196 152.452 490.084 151.587 489.948 150.942C489.745 149.974 489.353 148.908 489.036 148.018C488.693 147.052 488.437 146.292 488.354 145.714C488.337 145.598 488.33 145.511 488.328 145.447C496.722 141.304 505.216 136.525 513.66 131.773C521.785 127.202 529.864 122.656 537.827 118.687Z" fill="#FE68A5" stroke="black" stroke-width="3"/>
<path d="M321.642 8.97266C351.618 7.7093 374.568 8.59509 403.811 16.3721C447.643 28.0296 486.329 50.0519 516.72 86.5303C525.087 96.5719 531.552 107.579 538.104 119.03C533.385 121.809 526.843 124.924 521.963 127.477L521.957 127.48C511.281 133.131 500.556 138.677 489.788 144.122C485.099 136.477 481.142 130.69 475.392 123.605C449.025 91.1272 401.185 67.1381 361.146 65.291C293.917 59.6218 232.121 83.0931 194.121 145.141C178.613 136.426 162.995 127.942 147.271 119.69C148.401 117.354 149.731 115.023 151.035 112.753C182.611 57.7902 238.662 22.5351 297.221 12.2256C305.228 10.816 313.42 9.95616 321.642 8.97266Z" fill="#FE68A5" stroke="black" stroke-width="3"/>
<path d="M243.917 91.4346C327.605 37.2637 444.491 58.1865 495.993 151.201C500.283 159.801 502.274 166.099 504.304 175.862V175.863C504.563 177.11 504.934 179.382 505.329 181.687C505.66 183.614 506.014 185.603 506.324 186.878L506.276 186.982C506.03 187.031 505.701 187.081 505.285 187.128C504.347 187.233 503.08 187.318 501.567 187.383C498.548 187.513 494.65 187.563 490.663 187.571C482.591 187.588 474.553 187.438 472.304 187.438L399.513 187.429V187.428L399.511 187.429L179.861 187.619C180.302 184.719 180.83 181.837 181.448 178.977L181.449 178.975C189.367 142.095 214.941 110.19 243.917 91.4346Z" fill="#FCFCFD" stroke="black" stroke-width="3"/>
<path d="M442.712 46.3232C447.348 45.5378 452.085 47.0917 455.554 50.5889C459.029 54.0928 460.837 59.1574 460.409 64.3232C459.731 72.5188 453.696 78.8479 446.298 79.4844C438.161 80.1842 430.793 73.8138 429.805 64.8047C428.814 55.7825 434.62 47.6945 442.712 46.3232Z" fill="#FAA640" stroke="black" stroke-width="3"/>
<path d="M338.217 20.2393C342.111 19.1915 346.238 19.8743 349.676 22.1543H349.677C354.879 25.6036 357.688 32.1547 356.685 38.7617C355.681 45.3638 351.095 50.5652 345.192 52.0332C337.255 54.0069 329.166 48.7388 327.206 39.9424C325.241 31.1171 330.264 22.3792 338.217 20.2393Z" fill="#FAA640" stroke="black" stroke-width="3"/>
<path d="M234.741 47.5195C237.56 46.7939 240.515 46.9859 243.236 48.0752C249.372 50.5311 253.35 57.1317 252.838 64.332C252.325 71.5288 247.467 77.3752 241.078 78.7871C236.231 79.8584 231.182 78.2183 227.666 74.3623C224.142 70.4963 222.652 64.9347 223.757 59.5918C224.963 53.7571 229.037 49.2116 234.234 47.6602L234.741 47.5195Z" fill="#FAA640" stroke="black" stroke-width="3"/>
<path d="M163.355 112.702C171.745 113.001 182.546 115.453 193.15 118.906C203.74 122.355 214.014 126.762 221.332 130.898L221.333 130.898C250.266 147.214 271.651 174.092 281.013 205.8L255.997 202.345C248.377 175.588 226.72 153.96 202.909 141.116L202.866 141.093L202.821 141.072C157.938 120.55 107.958 125.981 73.5083 162.557C73.1009 161.04 72.7859 159.622 72.4958 158.269C72.0571 156.221 71.6598 154.252 71.0619 152.397C69.965 148.994 68.1992 145.989 64.3864 142.912C95.3215 119.059 123.905 110.082 163.309 112.699L163.331 112.7L163.355 112.702Z" fill="#FE68A5" stroke="black" stroke-width="3"/>
<path d="M156.933 128.804C163.241 129.892 169.313 130.892 174.658 131.987C180.044 133.091 184.572 134.27 187.782 135.682L187.949 135.755L188.13 135.786C200.537 137.928 215.817 147.127 228.838 159.864C241.221 171.977 251.338 187.074 254.96 201.882C253.211 201.434 251.133 200.744 248.821 199.888C245.472 198.649 241.741 197.107 237.969 195.558C234.212 194.016 230.415 192.468 226.985 191.243C223.95 190.159 221.109 189.294 218.786 188.926C217.775 186.897 216.664 184.919 215.454 183.001L214.866 182.086C203.016 163.767 185.471 154.177 164.756 149.627L164.735 149.623L164.714 149.619C134.19 143.831 108.493 153.036 88.2553 175.888C84.3985 173.544 80.1379 171.105 76.8887 168.39L76.1939 167.791C74.9739 166.705 74.3532 165.777 74.0736 165.005C73.8053 164.264 73.8155 163.569 74.0435 162.842C74.5464 161.237 76.052 159.567 78.1277 157.495C98.9695 136.685 127.621 126.979 156.933 128.804Z" fill="#FEABC8" stroke="black" stroke-width="3"/>
<path d="M60.1145 133.104C61.9085 133.353 63.2214 133.835 64.2165 134.458C65.3347 135.158 66.1402 136.092 66.781 137.266C67.4342 138.462 67.909 139.894 68.3559 141.575C68.5784 142.412 68.7886 143.288 69.0119 144.215C69.2337 145.135 69.4679 146.101 69.733 147.09C70.5101 149.988 71.05 152.844 71.763 155.877C72.462 158.849 73.3025 161.865 74.6383 164.768L74.7873 165.091L75.0649 165.313C76.7182 166.632 79.1812 168.221 81.8695 169.93C84.5892 171.659 87.586 173.538 90.411 175.485C93.242 177.436 95.838 179.413 97.7609 181.315C99.6136 183.148 100.621 184.702 100.855 185.927C100.38 187.598 99.0002 188.999 96.7102 190.211C94.3135 191.479 91.1686 192.406 87.7499 193.189C84.2804 193.983 80.8542 194.564 77.5844 195.26C74.4631 195.925 71.5088 196.691 69.5728 197.85C64.9564 200.615 61.6441 205.724 58.6062 210.802C55.569 215.878 52.7702 220.982 49.1497 224.724C48.3278 224.894 47.3568 225.02 46.4127 225.158C44.949 224.628 43.7997 223.312 42.8503 221.129C41.8396 218.806 41.1822 215.788 40.5813 212.451C39.9927 209.182 39.4567 205.594 38.6791 202.399C37.9045 199.216 36.8341 196.157 35.0315 193.976C31.9911 190.298 28.5252 187.577 25.0816 185.114C21.8135 182.777 18.6515 180.725 15.6937 178.253L15.1047 177.753C12.542 175.54 11.0992 173.756 10.4201 172.345C9.77092 170.996 9.85285 170.078 10.2168 169.36C10.6293 168.546 11.5418 167.713 13.0778 166.891C14.5908 166.081 16.5398 165.369 18.7826 164.706C21.0179 164.046 23.4791 163.452 26.0012 162.857C28.5083 162.267 31.0805 161.674 33.4757 161.024C35.8677 160.375 38.1444 159.654 40.0656 158.789C41.9615 157.936 43.6668 156.875 44.759 155.467L44.7704 155.453L44.7809 155.438C47.4571 151.809 49.9825 147.657 52.5285 143.675C54.9464 139.894 57.4003 136.235 60.1145 133.104Z" fill="#F6C041" stroke="black" stroke-width="3"/>
<path d="M519.973 108.524C511.584 108.823 500.782 111.275 490.178 114.728C479.588 118.177 469.314 122.584 461.996 126.72L461.995 126.721C433.062 143.036 411.677 169.914 402.315 201.622L427.331 198.167C434.951 171.41 456.608 149.782 480.419 136.939L480.462 136.915L480.507 136.895C525.39 116.372 575.37 121.803 609.82 158.379C610.227 156.862 610.542 155.444 610.832 154.091C611.271 152.043 611.668 150.074 612.266 148.219C613.363 144.817 615.129 141.811 618.942 138.735C588.007 114.881 559.423 105.904 520.019 108.521L519.997 108.523L519.973 108.524Z" fill="#FE68A5" stroke="black" stroke-width="3"/>
<path d="M526.403 124.626C520.095 125.714 514.023 126.714 508.678 127.81C503.292 128.913 498.764 130.093 495.554 131.504L495.387 131.578L495.206 131.609C482.799 133.75 467.519 142.949 454.498 155.686C442.115 167.799 431.998 182.896 428.376 197.704C430.125 197.256 432.203 196.566 434.515 195.71C437.864 194.471 441.595 192.929 445.367 191.38C449.124 189.838 452.92 188.29 456.351 187.065C459.386 185.982 462.227 185.116 464.55 184.748C465.561 182.719 466.672 180.741 467.882 178.824L468.47 177.908C480.32 159.589 497.865 149.999 518.58 145.45L518.601 145.445L518.622 145.441C549.146 139.653 574.843 148.858 595.081 171.71C598.937 169.366 603.198 166.927 606.447 164.212L607.142 163.614C608.362 162.527 608.983 161.599 609.262 160.828C609.531 160.087 609.52 159.392 609.292 158.664C608.79 157.06 607.284 155.389 605.208 153.317C584.366 132.508 555.715 122.802 526.403 124.626Z" fill="#FEABC8" stroke="black" stroke-width="3"/>
<path d="M623.221 128.926C621.427 129.175 620.115 129.657 619.119 130.28C618.001 130.98 617.196 131.915 616.555 133.088C615.902 134.285 615.427 135.716 614.98 137.397C614.758 138.235 614.547 139.11 614.324 140.037C614.102 140.957 613.868 141.924 613.603 142.912C612.826 145.811 612.286 148.667 611.573 151.699C610.874 154.672 610.033 157.687 608.698 160.59L608.549 160.913L608.271 161.136C606.618 162.454 604.155 164.043 601.466 165.752C598.747 167.481 595.75 169.36 592.925 171.307C590.094 173.258 587.498 175.235 585.575 177.138C583.722 178.971 582.715 180.525 582.481 181.749C582.956 183.42 584.336 184.821 586.626 186.033C589.022 187.301 592.167 188.229 595.586 189.011C599.056 189.805 602.482 190.386 605.752 191.083C608.873 191.748 611.827 192.514 613.763 193.673C618.38 196.437 621.692 201.546 624.73 206.624C627.767 211.7 630.566 216.805 634.186 220.546C635.008 220.716 635.979 220.843 636.923 220.981C638.387 220.45 639.536 219.134 640.486 216.952C641.496 214.628 642.154 211.61 642.755 208.273C643.343 205.005 643.879 201.416 644.657 198.221C645.431 195.038 646.502 191.979 648.304 189.798C651.345 186.12 654.811 183.4 658.254 180.937C661.522 178.599 664.684 176.547 667.642 174.076L668.231 173.576C670.794 171.362 672.237 169.578 672.916 168.168C673.565 166.819 673.483 165.901 673.119 165.182C672.707 164.368 671.794 163.536 670.258 162.713C668.745 161.903 666.796 161.191 664.553 160.529C662.318 159.868 659.857 159.274 657.335 158.68C654.828 158.089 652.255 157.496 649.86 156.846C647.468 156.197 645.191 155.476 643.27 154.611C641.374 153.758 639.669 152.697 638.577 151.289L638.566 151.275L638.555 151.26C635.879 147.631 633.353 143.479 630.807 139.498C628.389 135.716 625.936 132.057 623.221 128.926Z" fill="#F6C041" stroke="black" stroke-width="3"/>
<path d="M146.102 588.483L129.324 608.679H128.625V228.43H146.102V588.483Z" fill="#F7CB46" stroke="black" stroke-width="3"/>
<rect x="128.5" y="181.625" width="429" height="49" fill="#F7CB46" stroke="black" stroke-width="3"/>
<path d="M665.502 720.215L676.446 734.325L653.78 803.254C651.805 809.261 646.196 813.322 639.872 813.322H52.7393C46.4989 813.322 40.9436 809.367 38.9023 803.47L14.9814 734.363L27.249 720.215H665.502Z" fill="#FE68A5" stroke="black" stroke-width="3"/>
<path d="M343.566 743.958C346.312 744.402 348.441 746.527 350.29 749.65C352.291 753.031 353.634 756.974 355.096 760.243L355.378 760.873L356.04 761.069C361.694 762.74 366.314 763.771 369.437 764.622C371.043 765.06 372.251 765.447 373.126 765.851C374.021 766.263 374.367 766.602 374.497 766.825C374.585 766.975 374.682 767.247 374.479 767.907C374.264 768.61 373.76 769.57 372.848 770.904C371.026 773.566 367.893 777.273 363.303 782.695L362.82 783.265L362.984 783.993C364.285 789.78 364.979 793.969 365.031 796.886C365.085 799.907 364.439 800.967 363.803 801.358C363.451 801.575 362.896 801.729 361.993 801.691C361.087 801.654 359.935 801.428 358.491 800.991C355.597 800.116 351.822 798.491 346.994 796.298L346.853 796.233L346.7 796.199L346.478 796.155C345.357 795.965 344.13 796.191 342.988 796.526C341.733 796.896 340.362 797.467 338.991 798.084C336.166 799.355 333.347 800.802 330.812 801.61C329.561 802.009 328.513 802.204 327.686 802.173C326.893 802.143 326.396 801.914 326.048 801.536C325.669 801.124 325.282 800.333 325.152 798.816C325.023 797.306 325.162 795.218 325.694 792.393C326.212 789.65 326.728 786.887 327.271 784.156L327.406 783.474L326.971 782.929C325.612 781.228 323.655 779.182 321.862 777.186C320.018 775.131 318.303 773.08 317.212 771.196C316.079 769.24 315.874 767.904 316.256 767.026C316.628 766.17 317.87 765.059 321.5 764.382C325.115 763.707 329.781 762.321 333.124 760.995L333.131 760.992L333.896 760.684L334.386 760.487L334.645 760.027C336.218 757.229 337.608 753.804 339.012 750.912C340.357 748.141 341.774 745.708 343.566 743.958Z" fill="#F7CB46" stroke="black" stroke-width="3"/>
<path d="M168.023 752.332C169.745 752.695 171.149 754.082 172.425 756.238C173.865 758.672 174.813 761.474 175.898 763.9L176.181 764.531L176.843 764.727C180.953 765.941 184.353 766.703 186.594 767.313C187.759 767.631 188.61 767.905 189.214 768.184C189.837 768.471 189.998 768.673 190.029 768.728C190.036 768.74 190.044 768.754 190.046 768.797C190.049 768.853 190.044 768.975 189.979 769.188C189.841 769.638 189.502 770.296 188.845 771.256C187.535 773.17 185.274 775.846 181.929 779.798L181.446 780.368L181.61 781.097C182.556 785.303 183.052 788.315 183.089 790.391C183.127 792.57 182.651 793.127 182.391 793.287C182.227 793.388 181.913 793.494 181.306 793.469C180.695 793.444 179.894 793.289 178.859 792.977C176.785 792.349 174.064 791.179 170.549 789.582L170.407 789.519L170.256 789.484L170.074 789.448C169.165 789.294 168.198 789.48 167.351 789.729C166.409 790.006 165.392 790.431 164.392 790.881C162.307 791.819 160.301 792.85 158.487 793.429C157.596 793.713 156.886 793.839 156.353 793.819C155.855 793.801 155.608 793.663 155.447 793.488C155.256 793.28 154.993 792.805 154.902 791.752C154.813 790.705 154.907 789.227 155.291 787.191C155.668 785.195 156.043 783.189 156.437 781.205L156.572 780.521L156.138 779.977C155.14 778.728 153.696 777.218 152.407 775.782C151.067 774.289 149.845 772.824 149.074 771.494C148.262 770.092 148.205 769.277 148.399 768.83C148.585 768.404 149.304 767.633 151.914 767.146L151.913 767.145C154.57 766.649 157.99 765.634 160.443 764.661L160.45 764.658L161.007 764.434L161.496 764.237L161.755 763.777C162.905 761.732 163.941 759.189 164.942 757.126C165.878 755.198 166.843 753.541 168.023 752.332Z" fill="#F7CB46" stroke="black" stroke-width="3"/>
<path d="M499.391 752.332C501.113 752.695 502.516 754.082 503.792 756.238C505.232 758.672 506.181 761.474 507.266 763.9L507.548 764.531L508.21 764.727C512.32 765.941 515.721 766.703 517.961 767.313C519.126 767.631 519.977 767.905 520.581 768.184C521.204 768.471 521.365 768.673 521.396 768.728C521.404 768.74 521.411 768.754 521.413 768.797C521.416 768.853 521.411 768.975 521.346 769.188C521.208 769.638 520.869 770.296 520.212 771.256C518.902 773.17 516.641 775.846 513.296 779.798L512.813 780.368L512.978 781.097C513.923 785.303 514.419 788.315 514.456 790.391C514.495 792.57 514.018 793.127 513.758 793.287C513.594 793.388 513.28 793.494 512.673 793.469C512.062 793.444 511.261 793.289 510.227 792.977C508.152 792.349 505.431 791.179 501.916 789.582L501.774 789.519L501.623 789.484L501.441 789.448C500.532 789.294 499.565 789.48 498.718 789.729C497.777 790.006 496.759 790.431 495.759 790.881C493.674 791.819 491.668 792.85 489.854 793.429C488.963 793.713 488.253 793.839 487.72 793.819C487.222 793.801 486.975 793.663 486.814 793.488C486.623 793.28 486.36 792.805 486.27 791.752C486.18 790.705 486.274 789.227 486.658 787.191C487.035 785.195 487.41 783.189 487.804 781.205L487.939 780.521L487.505 779.977C486.507 778.728 485.063 777.218 483.774 775.782C482.434 774.289 481.212 772.824 480.441 771.494C479.629 770.092 479.572 769.277 479.767 768.83C479.952 768.404 480.672 767.633 483.281 767.146L483.28 767.145C485.937 766.649 489.357 765.634 491.811 764.661L491.817 764.658L492.374 764.434L492.863 764.237L493.122 763.777C494.272 761.732 495.308 759.189 496.31 757.126C497.245 755.198 498.21 753.541 499.391 752.332Z" fill="#F7CB46" stroke="black" stroke-width="3"/>
<path d="M633.786 633.859L675.852 732.538H15.4795L54.1523 633.859H633.786Z" fill="#F7CB46" stroke="black" stroke-width="3"/>
<rect x="54.625" y="610.182" width="578.648" height="24.8571" fill="#F7CB46" stroke="black" stroke-width="3"/>
<rect x="54.5" y="181.625" width="75" height="428" fill="#F7CB46" stroke="black" stroke-width="3"/>
<path d="M60.1145 133.031C61.9085 133.28 63.2214 133.762 64.2165 134.386C65.3347 135.086 66.1402 136.02 66.781 137.194C67.4342 138.39 67.909 139.821 68.3559 141.503C68.5784 142.34 68.7886 143.215 69.0119 144.142C69.2337 145.063 69.4679 146.029 69.733 147.018C70.5101 149.916 71.05 152.772 71.763 155.805C72.462 158.777 73.3025 161.792 74.6383 164.696L74.7873 165.019L75.0649 165.241C76.7182 166.56 79.1812 168.148 81.8695 169.857C84.5892 171.586 87.586 173.466 90.411 175.413C93.242 177.364 95.838 179.341 97.7609 181.243C99.6136 183.076 100.621 184.63 100.855 185.854C100.38 187.525 99.0002 188.927 96.7102 190.138C94.3135 191.407 91.1686 192.334 87.7499 193.117C84.2804 193.911 80.8542 194.491 77.5844 195.188C74.4631 195.853 71.5088 196.619 69.5728 197.778C64.9564 200.542 61.6441 205.652 58.6062 210.729C55.569 215.806 52.7702 220.91 49.1497 224.652C48.3278 224.821 47.3568 224.948 46.4127 225.086C44.949 224.555 43.7997 223.24 42.8503 221.057C41.8396 218.734 41.1822 215.715 40.5813 212.379C39.9927 209.11 39.4567 205.521 38.6791 202.327C37.9045 199.144 36.8341 196.085 35.0315 193.904C31.9911 190.226 28.5252 187.505 25.0816 185.042C21.8135 182.704 18.6515 180.652 15.6937 178.181L15.1047 177.681C12.542 175.467 11.0992 173.684 10.4201 172.273C9.77092 170.924 9.85285 170.006 10.2168 169.288C10.6293 168.474 11.5418 167.641 13.0778 166.819C14.5908 166.008 16.5398 165.297 18.7826 164.634C21.0179 163.974 23.4791 163.38 26.0012 162.785C28.5083 162.194 31.0805 161.602 33.4757 160.952C35.8677 160.303 38.1444 159.582 40.0656 158.717C41.9615 157.863 43.6668 156.802 44.759 155.395L44.7704 155.381L44.7809 155.366C47.4571 151.737 49.9825 147.585 52.5285 143.603C54.9464 139.821 57.4003 136.162 60.1145 133.031Z" fill="#FAA640" stroke="black" stroke-width="3"/>
<path d="M223.859 641.5C238.52 641.5 251.719 645.072 261.204 650.767C270.718 656.479 276.265 664.163 276.265 672.367C276.265 680.572 270.718 688.255 261.204 693.968C251.719 699.663 238.52 703.234 223.859 703.234C209.199 703.234 195.998 699.663 186.514 693.968C176.999 688.255 171.453 680.572 171.453 672.367C171.453 664.163 176.999 656.479 186.514 650.767C195.998 645.072 209.199 641.5 223.859 641.5Z" fill="#FE68A5" stroke="black" stroke-width="3"/>
<path d="M223.499 640.58C235 640.58 245.339 643.37 252.753 647.801C260.198 652.251 264.459 658.188 264.459 664.459C264.459 670.73 260.198 676.667 252.753 681.117C245.339 685.548 235 688.338 223.499 688.338C211.998 688.338 201.659 685.548 194.245 681.117C186.8 676.667 182.539 670.73 182.539 664.459C182.539 658.188 186.8 652.251 194.245 647.801C201.659 643.369 211.998 640.58 223.499 640.58Z" fill="#FAA640" stroke="black" stroke-width="3"/>
<path d="M264.703 665.493H181.805V638.568H264.703V665.493Z" fill="#FAA640"/>
<path d="M223.499 612.625C235 612.625 245.339 615.414 252.753 619.846C260.198 624.295 264.459 630.232 264.459 636.504C264.459 642.775 260.198 648.712 252.753 653.162C245.339 657.593 235 660.383 223.499 660.383C211.998 660.383 201.659 657.593 194.245 653.162C186.8 648.712 182.539 642.775 182.539 636.504C182.539 630.232 186.8 624.295 194.245 619.846C201.659 615.414 211.998 612.625 223.499 612.625Z" fill="#FAA640" stroke="black" stroke-width="3"/>
<path d="M264.203 636.432L264.203 666.681" stroke="black" stroke-width="3" stroke-linecap="round"/>
<path d="M183.133 640.061L183.133 666.68" stroke="black" stroke-width="3" stroke-linecap="round"/>
<rect x="557.531" y="181.625" width="76" height="428" fill="#F7CB46" stroke="black" stroke-width="3"/>
<path d="M623.534 128.856C621.74 129.104 620.427 129.587 619.432 130.21C618.314 130.91 617.508 131.844 616.867 133.018C616.214 134.214 615.739 135.646 615.293 137.327C615.07 138.164 614.86 139.04 614.637 139.966C614.415 140.887 614.181 141.853 613.915 142.842C613.138 145.74 612.598 148.596 611.885 151.629C611.186 154.601 610.346 157.617 609.01 160.52L608.861 160.843L608.584 161.065C606.93 162.384 604.467 163.973 601.779 165.682C599.059 167.411 596.062 169.29 593.237 171.237C590.406 173.188 587.81 175.165 585.888 177.067C584.035 178.9 583.028 180.454 582.793 181.678C583.268 183.35 584.648 184.751 586.938 185.963C589.335 187.231 592.48 188.158 595.899 188.941C599.368 189.735 602.794 190.316 606.064 191.012C609.185 191.677 612.14 192.443 614.076 193.602C618.692 196.367 622.004 201.476 625.042 206.554C628.079 211.63 630.878 216.734 634.499 220.476C635.321 220.646 636.292 220.772 637.236 220.91C638.699 220.38 639.849 219.064 640.798 216.881C641.809 214.558 642.466 211.54 643.067 208.203C643.656 204.934 644.192 201.346 644.969 198.151C645.744 194.968 646.814 191.909 648.617 189.728C651.657 186.05 655.123 183.329 658.567 180.866C661.835 178.529 664.997 176.477 667.955 174.005L668.544 173.505C671.106 171.292 672.549 169.508 673.228 168.097C673.878 166.748 673.796 165.83 673.432 165.112C673.019 164.298 672.107 163.465 670.571 162.643C669.058 161.833 667.109 161.121 664.866 160.458C662.631 159.798 660.169 159.204 657.647 158.609C655.14 158.019 652.568 157.426 650.173 156.776C647.781 156.127 645.504 155.406 643.583 154.541C641.687 153.688 639.982 152.627 638.889 151.219L638.878 151.205L638.868 151.19C636.191 147.561 633.666 143.409 631.12 139.427C628.702 135.646 626.248 131.987 623.534 128.856Z" fill="#FAA640" stroke="black" stroke-width="3"/>
<path d="M453.125 700.985C452.678 687.125 452.099 673.914 453.398 678.157C453.398 678.157 526.48 645.313 526.48 662.196C526.48 668.429 525.746 675.454 525.367 678.666C525.237 679.769 524.52 680.707 523.497 681.141L462.544 707.034C458.165 708.894 453.278 705.74 453.125 700.985Z" fill="#FAA640" stroke="black" stroke-width="3" stroke-linecap="round"/>
<path d="M521.592 654.447C529.896 657.996 529.896 669.767 521.592 673.316L466.254 696.968C459.485 699.861 451.961 694.894 451.961 687.532L451.961 640.23C451.961 632.869 459.485 627.903 466.254 630.796L521.592 654.447Z" fill="#FE68A5" stroke="black" stroke-width="3"/>
<path d="M398.543 701.591C399.939 678.753 399.785 664.511 399.147 641.592C399.147 641.592 324.838 645.317 324.838 662.2C324.838 668.115 325.499 675.005 325.89 678.565C326.054 680.057 327.025 681.325 328.41 681.903L389.296 707.322C393.535 709.092 398.262 706.175 398.543 701.591Z" fill="#FAA640" stroke="black" stroke-width="3" stroke-linecap="round"/>
<path d="M329.729 654.447C321.424 657.996 321.424 669.767 329.729 673.316L385.066 696.968C391.836 699.861 399.359 694.894 399.359 687.532L399.359 640.23C399.359 632.869 391.836 627.903 385.066 630.796L329.729 654.447Z" fill="#FE68A5" stroke="black" stroke-width="3"/>
</svg>
