<svg width="62" height="62" viewBox="0 0 62 62" fill="none" xmlns="http://www.w3.org/2000/svg">
<rect x="1.5" y="1.5" width="59" height="59" rx="18.75" fill="#F7CB46"/>
<rect x="1.5" y="1.5" width="59" height="59" rx="18.75" stroke="#F1F3F2" stroke-width="3"/>
<path d="M20.377 15.752C22.0149 15.7878 23.6173 16.2247 25.3018 16.8926C26.6945 17.4448 27.8843 18.4524 28.8662 19.5605C29.5289 20.3084 30.1211 21.1319 30.6416 21.9512C31.1809 21.1213 31.794 20.2899 32.4785 19.5371C33.4924 18.4221 34.7183 17.4151 36.1484 16.8828C37.7563 16.2845 39.2678 15.8917 40.8145 15.8594C42.3786 15.8268 43.9044 16.1644 45.5459 16.9189C46.6524 17.4276 47.4527 18.2249 47.7129 19.334C47.9568 20.3738 47.6589 21.4217 47.209 22.3291C46.3123 24.1375 44.4627 26.0799 42.5459 27.7988C41.1769 29.0265 39.7043 30.1978 38.374 31.2012C39.7859 32.2617 41.3647 33.514 42.8291 34.8301C44.8107 36.611 46.717 38.6224 47.6416 40.498C48.1059 41.44 48.4071 42.516 48.1641 43.5811C47.9056 44.7135 47.1024 45.5447 45.9688 46.0859C44.2348 46.9136 42.6105 47.2831 40.9463 47.248C39.2994 47.2133 37.6877 46.7833 35.9814 46.123C34.5091 45.5533 33.257 44.4915 32.2266 43.3164C31.5284 42.5202 30.9068 41.6415 30.3623 40.7656C29.7837 41.6818 29.1157 42.6095 28.3613 43.4424C27.3415 44.5683 26.109 45.5854 24.6719 46.127C23.0236 46.7481 21.4802 47.1436 19.9004 47.1719C18.3058 47.2004 16.7504 46.8539 15.0742 46.0967C13.9338 45.5815 13.1099 44.7703 12.8408 43.6377C12.5886 42.5749 12.8946 41.4998 13.3594 40.5654C14.2862 38.7024 16.2015 36.694 18.1924 34.9111C19.6267 33.6267 21.1699 32.3994 22.5615 31.3516C21.2389 30.3482 19.7754 29.1753 18.4141 27.9434C16.5054 26.2161 14.6647 24.2596 13.7715 22.4268C13.3224 21.5052 13.0319 20.452 13.2666 19.4072C13.516 18.2973 14.2914 17.4743 15.3926 16.9326C17.1045 16.0907 18.7208 15.7158 20.377 15.752Z" fill="#FF80AB" stroke="black" stroke-width="2.5"/>
</svg>
