<svg width="38" height="38" viewBox="0 0 38 38" fill="none" xmlns="http://www.w3.org/2000/svg">
<path d="M17.2881 1.09863C26.8878 0.391617 35.2607 7.55807 36.041 17.1494C36.8211 26.7405 29.7171 35.1663 20.1289 36.0195C10.4366 36.8826 1.89679 29.6857 1.1084 19.9902C0.319456 10.2942 7.58367 1.81304 17.2881 1.09863Z" fill="#FAA640" stroke="black" stroke-width="2.1"/>
<path d="M22.375 10.0381C22.9027 10.0502 23.3527 10.0866 23.7637 10.209H23.7646C24.9707 10.5683 26.0158 11.6243 26.6494 12.9229C27.8373 15.3584 27.6831 18.5307 26.7021 21.1963C25.9292 23.2965 24.6218 25.0471 22.79 25.9561L22.416 26.127C19.8098 27.2152 17.4836 26.2969 14.5723 25.0732C12.3956 23.7184 10.5393 21.8461 9.66406 19.5029C9.17013 18.1797 9.03517 16.7967 9.5 15.6836L9.60156 15.4648C9.96102 14.7552 10.6265 14.2447 11.4297 14.0205C13.9281 13.3226 15.4038 14.4241 18.0635 15.9648L19.1006 16.5664L19.5596 15.458C20.4065 13.4142 21.1871 11.7353 22.375 10.0381Z" fill="#F391CA" stroke="black" stroke-width="2.1"/>
</svg>
