<svg width="161" height="210" viewBox="0 0 161 210" fill="none" xmlns="http://www.w3.org/2000/svg">
<circle cx="80.5" cy="129" r="80.5" fill="black"/>
<path d="M81.5645 -1.10938C81.6404 2.82998 81.5931 6.92144 81.5918 10.8848L79.9346 10.9092L79.9072 -1.10938H81.5645Z" fill="#F1F3F2" stroke="black" stroke-width="0.780497"/>
<path d="M103.629 122.247C103.68 122.473 103.735 122.769 103.793 123.117C103.908 123.813 104.029 124.699 104.145 125.605C104.26 126.512 104.368 127.436 104.457 128.208C104.546 128.977 104.617 129.601 104.655 129.9C105.53 136.711 105.862 143.709 105.859 150.588C98.1393 151.721 91.826 152.163 84.0254 152.437L81.7549 152.452C81.5796 142.984 81.6722 133.233 81.6758 123.74C89.7135 123.714 95.6643 123.188 103.579 122.051C103.594 122.106 103.612 122.172 103.629 122.247Z" fill="#F9B3D0" stroke="black" stroke-width="0.780497"/>
<path d="M56.2129 151.896C62.2372 152.588 68.2113 153.597 74.3721 153.724C76.371 153.765 78.3619 153.777 80.3428 153.864L80.377 178.611C75.3157 178.595 70.0645 178.221 65.0215 177.817C63.8208 177.721 62.618 177.582 61.4062 177.445C60.2999 177.321 59.1867 177.2 58.0732 177.117C56.5579 167.884 56.1801 161.209 56.2129 151.896Z" fill="#F9B3D0" stroke="black" stroke-width="0.780497"/>
<path d="M39.1182 117.301C39.7935 117.509 40.4667 117.736 41.1484 117.961C46.4734 119.717 51.653 120.782 57.1543 121.636C55.6463 131.09 54.8584 140.644 54.7969 150.218L53.8184 150.055H53.8193C47.403 148.942 41.0858 147.32 34.9268 145.205C35.3392 135.782 36.7451 126.429 39.1182 117.301Z" fill="#F9B3D0" stroke="black" stroke-width="0.780497"/>
<path d="M64.6064 93.7412C69.9458 94.7071 74.7215 95.0316 80.1123 95.1074C80.0847 104.159 80.1141 113.211 80.2021 122.262C78.3724 122.273 76.3902 122.186 74.5498 122.136H74.5488C70.0363 121.966 63.2632 121.241 58.7451 120.412C59.4268 114.895 60.8488 108.443 62.1104 103.012C62.7727 100.161 63.6583 96.5153 64.6064 93.7412Z" fill="#F9B3D0" stroke="black" stroke-width="0.780497"/>
<path d="M34.7627 146.65C41.2849 148.881 47.9765 150.582 54.7725 151.735C54.6544 157.46 54.8823 163.187 55.457 168.884L55.458 168.885C55.7377 171.558 56.1691 174.249 56.5576 176.9C51.1791 176.186 42.2732 174.417 37.3076 172.829C36.7397 170.884 36.4894 168.631 36.1719 166.562C35.1657 160.01 34.6311 153.282 34.7627 146.65Z" fill="#F9B3D0" stroke="black" stroke-width="0.780497"/>
<path d="M127.407 147.065C127.417 147.138 127.427 147.22 127.435 147.311C127.459 147.619 127.465 147.998 127.46 148.394C127.455 148.787 127.44 149.189 127.426 149.539C127.411 149.884 127.397 150.189 127.394 150.375C127.256 158.099 126.145 165.374 124.123 172.803C123.8 172.869 123.474 172.955 123.157 173.044C122.752 173.157 122.368 173.271 121.996 173.362C116.391 174.739 110.65 176.207 104.948 176.876C104.951 176.798 104.958 176.708 104.973 176.609C105.015 176.317 105.091 176.02 105.137 175.816C106.927 167.768 107.206 159.953 107.367 151.784C114.18 150.841 120.889 149.261 127.407 147.065Z" fill="#F9B3D0" stroke="black" stroke-width="0.780497"/>
<path d="M22.6699 109.792C27.4166 112.654 32.4439 115.022 37.6738 116.858C35.2678 125.902 34.1222 135.437 33.4297 144.719L32.501 144.372C26.3275 142.064 22.4585 140.495 16.7266 137.101C17.0443 127.81 19.6571 118.57 22.6699 109.792Z" fill="#F9B3D0" stroke="black" stroke-width="0.780497"/>
<path d="M139.473 109.494C139.508 109.562 139.546 109.642 139.586 109.732C139.71 110.017 139.844 110.38 139.973 110.761C140.23 111.52 140.459 112.32 140.553 112.645C142.904 120.768 144.773 129.301 145.298 137.729C140.239 140.485 135.626 142.765 130.113 144.604L128.891 144.995C128.761 135.517 127.127 125.888 124.859 116.728C131.208 114.375 133.837 112.988 139.473 109.494Z" fill="#F9B3D0" stroke="black" stroke-width="0.780497"/>
<path d="M113.015 89.5498C113.116 89.6809 113.245 89.8803 113.395 90.1396C113.59 90.4794 113.803 90.8907 114.014 91.3164C114.435 92.1687 114.833 93.0569 115.045 93.5166C118.266 100.5 121.355 108.289 123.193 115.77C118.881 117.31 114.465 118.543 109.979 119.459L109.058 119.643C107.659 119.904 106.258 120.157 104.856 120.404C104.134 116.238 103.348 111.787 102.448 107.676C101.421 102.978 100.184 98.2316 99.0742 93.5479C104.289 92.4992 108.016 91.511 113.015 89.5498Z" fill="#F9B3D0" stroke="black" stroke-width="0.780497"/>
<path d="M145.376 139.899C145.396 140.263 145.407 140.697 145.413 141.141C145.424 142.029 145.413 142.938 145.411 143.381V143.384C145.432 148.597 145.001 153.802 144.123 158.94C143.891 160.258 143.611 161.538 143.325 162.819C143.057 164.024 142.783 165.232 142.542 166.465C142.002 166.636 141.468 166.826 140.941 167.028L140.346 167.264C135.574 169.195 130.71 170.723 125.792 172.29C128.093 163.386 128.844 155.778 128.85 146.561C135.24 144.688 139.612 142.233 145.338 139.424C145.352 139.553 145.365 139.713 145.376 139.899Z" fill="#F9B3D0" stroke="black" stroke-width="0.780497"/>
<path d="M36.4824 83.6719C36.9536 83.9264 37.5504 84.3128 38.0117 84.583C41.1642 86.4292 44.3447 87.7978 47.7129 89.1084C43.7971 97.0594 40.4448 106.959 38.0693 115.426L35.9189 114.656H35.9199C31.0345 112.757 27.6813 111.025 23.2812 108.411C23.8439 106.853 24.6693 105.206 25.3262 103.629C28.354 96.357 32.1243 90.213 36.4824 83.6719Z" fill="#F9B3D0" stroke="black" stroke-width="0.780497"/>
<path d="M58.3398 178.606C65.9654 179.396 72.666 179.992 80.3535 180.1C80.397 186.465 80.4 192.83 80.3643 199.195C74.6312 199.139 70.7129 198.93 65.0078 198.166C61.8905 192.427 59.5576 185.067 58.3398 178.606Z" fill="#F9B3D0" stroke="black" stroke-width="0.780497"/>
<path d="M103.021 178.559C103.013 178.658 103 178.776 102.978 178.914C102.928 179.215 102.849 179.567 102.759 179.928C102.577 180.654 102.358 181.375 102.247 181.774C100.656 187.521 98.8764 193.126 96.0674 198.358C92.2139 198.825 88.1513 199.042 84.2158 199.144L82.5088 199.182L81.8125 199.183V180.057C88.1806 179.989 93.6061 179.575 99.6885 178.925L102.395 178.626L102.408 178.624C102.66 178.587 102.775 178.564 102.9 178.557C102.938 178.554 102.977 178.557 103.021 178.559Z" fill="#F9B3D0" stroke="black" stroke-width="0.780497"/>
<path d="M123.669 174.465C123.622 174.683 123.55 174.951 123.468 175.231C123.384 175.514 123.293 175.802 123.212 176.055C123.132 176.303 123.061 176.525 123.02 176.664C120.955 183.67 118.201 188.662 114.383 194.796C107.908 196.671 104.41 197.158 97.8779 198.227C97.9404 198.062 98.0182 197.862 98.1104 197.635C98.355 197.033 98.6866 196.252 99.0322 195.445C99.7187 193.843 100.47 192.119 100.679 191.545C102.263 187.2 103.469 182.804 104.604 178.347C110.139 177.841 118.237 175.848 123.669 174.465Z" fill="#F9B3D0" stroke="black" stroke-width="0.780497"/>
<path d="M28.4336 76.2969C28.634 76.5337 28.8775 76.8334 29.1299 77.1445C29.6243 77.754 30.1694 78.4313 30.4453 78.71C32.0308 80.3116 33.5821 81.5468 35.3154 82.8721C33.5191 85.6473 31.7724 88.1317 30.0479 91.0977C26.9219 96.4735 24.38 101.982 21.958 107.677L21.2305 107.166C17.538 104.501 15.7869 102.907 12.8057 99.5576C17.7365 89.9898 20.8533 84.0443 28.2871 76.1299C28.3315 76.1807 28.3817 76.2356 28.4336 76.2969Z" fill="#F9B3D0" stroke="black" stroke-width="0.780497"/>
<path d="M132.682 76.3232C132.769 76.3938 132.875 76.4848 132.996 76.5977C133.255 76.838 133.553 77.1418 133.853 77.4609C134.452 78.0987 135.044 78.7823 135.318 79.1035C141.008 85.7661 144.787 91.914 148.447 99.7861C146.106 102.352 144.219 104.27 141.434 106.364L141.433 106.365C141.073 106.637 140.663 106.917 140.262 107.194C138.018 101.292 135.689 95.9787 132.307 90.5449C130.476 87.6039 128.495 84.843 126.502 82.042C128.631 80.3841 130.93 78.4137 132.682 76.3232Z" fill="#F9B3D0" stroke="black" stroke-width="0.780497"/>
<path d="M90.085 71.1836C90.1501 71.2719 90.2385 71.4137 90.3408 71.6182C90.4836 71.9036 90.6332 72.2579 90.7793 72.6299C90.925 73.0008 91.0637 73.3824 91.1865 73.7207C91.3077 74.0545 91.4158 74.355 91.4951 74.5508C93.8878 80.4522 95.5512 86.2814 97.29 92.4014C94.6118 92.8127 91.9239 93.1594 89.2285 93.4365C86.677 93.5789 84.1233 93.6741 81.5684 93.7236C81.3863 86.6436 81.5273 79.0058 81.5439 71.8828C84.2181 71.7369 86.8876 71.5165 89.5488 71.2178L89.5762 71.2139C89.7531 71.181 89.8872 71.1818 90.085 71.1836Z" fill="#F9B3D0" stroke="black" stroke-width="0.780497"/>
<path d="M5.13086 130.552C8.76203 133.689 11.038 135.357 15.1768 137.938C15.0719 142.209 14.9782 145.827 15.293 150.186C15.6812 155.56 16.5336 160.539 17.5674 165.772C17.5098 165.751 17.4483 165.729 17.3838 165.703C17.0528 165.571 16.6582 165.386 16.2178 165.165C15.3374 164.722 14.2941 164.137 13.251 163.523C11.2624 162.354 9.29172 161.093 8.48145 160.559C5.81525 152.714 4.71695 139.158 5.13086 130.552Z" fill="#F9B3D0" stroke="black" stroke-width="0.780497"/>
<path d="M71.9805 71.123C74.9441 71.5309 77.1527 71.7078 80.1504 71.8789C80.0825 79.1628 80.067 86.4471 80.1055 93.7314C77.9527 93.7114 75.8824 93.5719 73.708 93.4355C70.5787 93.1392 67.9668 92.7662 64.9043 92.3525C66.5242 86.1938 69.489 76.6809 71.9805 71.123Z" fill="#F9B3D0" stroke="black" stroke-width="0.780497"/>
<path d="M62.0664 68.625C65.1228 69.6484 67.3364 70.299 70.4619 70.9131C67.6997 77.8383 65.3598 84.925 63.457 92.1338C62.1897 91.9025 60.7447 91.5724 59.4814 91.3096C56.0409 90.4714 53.05 89.5161 49.7344 88.3721C52.5748 82.0975 57.9802 74.0978 62.0664 68.625Z" fill="#F9B3D0" stroke="black" stroke-width="0.780497"/>
<path d="M19.6963 168.231C20.1384 168.414 20.5995 168.617 21.0107 168.795C25.9885 170.949 31.0133 172.473 36.165 174.017C37.8966 181.436 39.9252 186.529 43.6436 193.052C38.7394 191.685 32.6954 188.987 28.167 186.892C27.7431 186.217 27.3025 185.566 26.873 184.922C26.4204 184.243 25.9788 183.569 25.5693 182.866C22.7981 178.11 21.1735 173.476 19.6963 168.231Z" fill="#F9B3D0" stroke="black" stroke-width="0.780497"/>
<path d="M99.8848 68.9414C100.064 69.1561 100.28 69.4238 100.498 69.6973C100.936 70.2456 101.375 70.8095 101.526 71.0137C105.323 76.1277 109.496 82.5057 112.354 88.2549C109.288 89.304 107.079 90.1896 103.995 90.9951L103.337 91.1621C101.808 91.5377 100.267 91.8584 98.7158 92.1299C96.8802 84.9122 94.3074 77.9189 91.6592 70.9971C94.7862 70.3328 96.5391 69.9648 99.6816 68.7041C99.7376 68.7686 99.8066 68.8476 99.8848 68.9414Z" fill="#F9B3D0" stroke="black" stroke-width="0.780497"/>
<path d="M156.096 132.052C156.145 132.429 156.181 132.877 156.207 133.336C156.233 133.795 156.25 134.26 156.26 134.67L156.276 135.678C156.377 144.334 155.196 152.958 152.775 161.269C151.951 161.887 150.241 162.818 148.442 163.712C146.869 164.494 145.261 165.232 144.194 165.69C144.223 165.457 144.276 165.178 144.34 164.886C144.407 164.578 144.485 164.265 144.555 163.99C144.623 163.721 144.685 163.477 144.718 163.322V163.321C146.307 155.778 147.455 146.248 146.769 138.516C149.401 137.141 153.743 133.95 156.062 131.829C156.074 131.898 156.085 131.973 156.096 132.052Z" fill="#F9B3D0" stroke="black" stroke-width="0.780497"/>
<path d="M107.166 64.5635C113.727 69.9853 119.076 75.0283 124.383 81.7793C122.408 83.3408 120.257 84.5692 118.015 85.7314L117.009 86.2461C115.865 86.7846 114.874 87.1915 113.729 87.6426C109.321 79.8091 106.591 75.2944 101.188 68.127C103.545 67.1676 105.197 66.1887 107.166 64.5635Z" fill="#F9B3D0" stroke="black" stroke-width="0.780497"/>
<path d="M111.783 59.7021C118.942 63.9317 125.973 69.1664 131.657 75.2383C130.414 76.7727 128.492 78.5155 127.021 79.7754C126.558 80.1537 126.081 80.5039 125.592 80.8633C121.093 75.4729 114.05 67.8903 108.363 63.6641C109.57 62.6089 110.941 61.0533 111.783 59.7021Z" fill="#F9B3D0" stroke="black" stroke-width="0.780497"/>
<path d="M25.8145 71.3242C26.0059 71.6905 26.2437 72.1719 26.4844 72.6689C26.8666 73.4583 27.2644 74.3033 27.4775 74.751C22.4855 79.9024 18.1648 86.2709 14.7695 92.6387L14.0947 93.9277C13.4061 95.2682 12.7289 96.6402 11.9814 97.9238C11.668 97.4945 11.3438 96.8862 11.0508 96.2188C10.6859 95.3877 10.3924 94.5196 10.2393 93.9121C13.6117 86.4632 19.9732 77.1302 25.6934 71.1035C25.7298 71.1706 25.7722 71.2434 25.8145 71.3242Z" fill="#F9B3D0" stroke="black" stroke-width="0.780497"/>
<path d="M135.811 72.3008C141.673 78.0867 146.815 85.6665 150.437 93.0303C150.575 93.3124 150.66 93.7699 150.671 94.3418C150.681 94.9039 150.619 95.5378 150.494 96.1465C150.368 96.7569 150.182 97.3253 149.955 97.7627C149.806 98.0499 149.652 98.2518 149.509 98.3809C145.29 89.7452 140.444 82.0916 133.676 75.1787C134.392 74.2857 135.174 73.2697 135.811 72.3008Z" fill="#F9B3D0" stroke="black" stroke-width="0.780497"/>
<path d="M9.30176 95.7744C9.54556 96.3339 9.69389 96.7788 9.90332 97.2822C10.1781 97.9427 10.5351 98.6206 11.2979 99.6074C6.97199 109.629 5.4323 116.741 3.92383 127.39C3.25081 126.692 2.59309 125.979 1.95117 125.253C2.3957 114.619 4.82888 105.313 9.30176 95.7744Z" fill="#F9B3D0" stroke="black" stroke-width="0.780497"/>
<path d="M152.036 96.1787C152.156 96.4205 152.285 96.693 152.411 96.9736C152.738 97.7027 153.046 98.4558 153.188 98.792V98.793C156.741 107.277 158.832 116.301 159.373 125.482C158.805 126.588 158.053 127.511 157.251 128.521C156.572 118.267 153.783 109.403 150.299 99.8467C150.833 99.0154 151.211 98.3955 151.504 97.7373C151.716 97.2622 151.88 96.773 152.036 96.1787Z" fill="#F9B3D0" stroke="black" stroke-width="0.780497"/>
<path d="M66.043 199.782C71.2202 200.365 75.1106 200.552 80.3721 200.633C80.4089 203.452 80.3707 206.374 80.3643 209.212C80.3069 209.216 80.2423 209.223 80.1699 209.226C79.9256 209.236 79.62 209.238 79.2715 209.233C78.575 209.224 77.7189 209.188 76.8555 209.139C75.2319 209.045 73.6189 208.905 72.9951 208.811C69.8813 205.636 68.2646 203.374 66.043 199.782Z" fill="#F9B3D0" stroke="black" stroke-width="0.780497"/>
<path d="M47.7666 55.2334C48.0714 56.1306 48.3614 56.942 48.708 57.8203C41.284 61.8669 34.4251 67.584 28.5488 73.5684C27.9289 72.3169 27.4403 71.252 26.8936 69.9531C28.1138 68.5907 29.3449 67.5767 30.751 66.3301H30.752C35.9597 61.7116 41.515 58.261 47.7666 55.2334Z" fill="#F9B3D0" stroke="black" stroke-width="0.780497"/>
<path d="M112.94 55.4814C115.798 56.8303 120.154 59.496 124.326 62.4326C128.675 65.4932 132.767 68.8098 134.748 71.1914C134.328 71.8522 133.861 72.4937 133.393 73.1504L132.666 74.0752C126.363 67.5847 120.213 62.9972 112.526 58.3916C112.706 57.7565 112.835 57.2721 112.902 56.7803C112.957 56.3762 112.968 55.9739 112.94 55.4814Z" fill="#F9B3D0" stroke="black" stroke-width="0.780497"/>
<path d="M73.7148 54.9854C74.8201 55.4353 76.0295 55.7007 77.1641 55.9385C76.7941 56.827 76.3803 57.7244 75.9531 58.626C75.4585 59.6698 74.9479 60.7237 74.4902 61.7656C73.34 64.3846 72.3008 67.01 71.1348 69.5898C69.9004 69.3446 68.6714 69.0712 67.4502 68.7676C65.9011 68.3649 64.5172 67.9076 63.0244 67.3945C66.1577 63.216 70.2498 58.9517 73.7148 54.9854Z" fill="#F9B3D0" stroke="black" stroke-width="0.780497"/>
<path d="M88.0342 55.0986C88.0377 55.0989 88.0413 55.0983 88.0449 55.0986C89.2907 56.3716 90.6241 57.9867 91.8428 59.3438C94.2244 61.9955 96.5307 64.6735 98.7031 67.4863C97.4179 68.0267 96.3374 68.3934 94.957 68.8193C93.6734 69.1814 92.368 69.4596 91.0488 69.6562C90.0334 67.3412 88.9143 64.9617 87.8145 62.5986C86.7413 60.293 85.6877 58.0006 84.7637 55.7842C85.8433 55.5816 86.9196 55.3325 87.9746 55.0957C87.9877 55.0958 88.0076 55.0966 88.0342 55.0986Z" fill="#F9B3D0" stroke="black" stroke-width="0.780497"/>
<path d="M95.291 199.956C95.2094 200.159 95.0851 200.421 94.9111 200.728C94.6278 201.227 94.2528 201.804 93.8516 202.381C93.0478 203.536 92.1584 204.665 91.7354 205.142C89.6043 207.543 88.5811 208.413 87.4365 208.779C86.8591 208.964 86.2302 209.028 85.3682 209.064C84.5239 209.101 83.4514 209.112 82.0566 209.204L81.9248 209.191C81.9177 209.143 81.9082 209.087 81.9014 209.022C81.8755 208.779 81.8545 208.449 81.8389 208.054C81.8077 207.265 81.7974 206.241 81.7969 205.19C81.796 203.397 81.8242 201.552 81.835 200.656C86.4934 200.539 90.5907 200.372 95.2656 199.957L95.2666 199.958L95.291 199.956Z" fill="#F9B3D0" stroke="black" stroke-width="0.780497"/>
<path d="M151.698 163.724C148.285 171.101 143.686 177.916 137.961 183.687C137.443 184.208 136.817 184.634 136.149 185.031C136.185 184.971 136.218 184.912 136.252 184.856C136.336 184.717 136.417 184.585 136.466 184.5C139.592 179.03 141.89 173.328 143.796 167.346C146.709 166.102 148.919 165.088 151.698 163.724Z" fill="#F9B3D0" stroke="black" stroke-width="0.780497"/>
<path d="M9.5332 162.951C12.212 164.549 14.7969 166.301 17.9678 167.492C18.7933 172.318 21.5778 178.155 23.6211 182.442V182.441C23.7517 182.716 23.951 183.028 24.1572 183.338C24.3696 183.657 24.5928 183.98 24.7959 184.306C24.9987 184.631 25.1668 184.937 25.2695 185.208C25.3086 185.311 25.3331 185.402 25.3496 185.481C22.4153 182.792 19.1038 178.838 16.1621 174.609C13.4209 170.669 11.0155 166.513 9.5332 162.951Z" fill="#F9B3D0" stroke="black" stroke-width="0.780497"/>
<path d="M70.709 53.4395C71.1932 53.8918 71.7395 54.1904 72.2793 54.4619C71.9199 54.882 71.5062 55.3179 71.1289 55.7178C67.7476 59.3011 64.6385 63.0715 61.5479 66.8887C60.6925 66.5171 59.8349 66.0968 58.9795 65.6875C57.6633 65.0026 56.7773 64.4662 55.6709 63.6377C60.7812 59.484 64.9083 56.7324 70.709 53.4395Z" fill="#F9B3D0" stroke="black" stroke-width="0.780497"/>
<path d="M90.6318 53.7266C90.8877 53.7813 91.2476 53.907 91.7041 54.1143C92.24 54.3576 92.8791 54.6941 93.5889 55.1006C95.0077 55.9132 96.6911 56.9937 98.375 58.1357C101.462 60.2292 104.518 62.512 105.925 63.707C105.024 64.4175 104.354 64.8627 103.28 65.4902C102.22 66.0387 101.232 66.4709 100.142 66.9424C96.5252 62.5326 93.3126 58.7856 89.5107 54.5117C89.8959 54.2588 90.2764 53.9809 90.6318 53.7266Z" fill="#F9B3D0" stroke="black" stroke-width="0.780497"/>
<path d="M131.611 189.207C130.446 191.061 128.805 192.051 126.875 193.528C120.803 198.177 115.023 200.852 108.212 203.707C108.241 203.681 108.27 203.655 108.299 203.629C109.116 202.894 110.005 202.095 110.209 201.886C112.066 199.977 113.616 198.026 115.221 195.938C115.471 195.843 115.729 195.751 115.989 195.66L116.879 195.354C121.944 193.588 126.776 191.463 131.611 189.207Z" fill="#F9B3D0" stroke="black" stroke-width="0.780497"/>
<path d="M69.2578 51.2852C69.3154 51.4112 69.3795 51.5757 69.4443 51.7529C69.5212 51.9631 69.5884 52.1701 69.6455 52.3408C63.892 55.5756 59.6129 58.5651 54.4707 62.6396C53.9939 62.1744 53.5103 61.6764 53.0342 61.2002C52.2548 60.3405 51.5307 59.3862 50.8037 58.4404C56.6489 55.3543 62.8381 52.8158 69.2578 51.2852Z" fill="#F9B3D0" stroke="black" stroke-width="0.780497"/>
<path d="M29.8945 189.292C30.2113 189.431 30.5207 189.573 30.791 189.699C35.4652 191.89 40.3135 193.506 45.1602 195.18C45.4807 195.676 45.7815 196.188 46.0928 196.714C46.4251 197.275 46.7694 197.848 47.1543 198.407C48.4445 200.282 49.8578 201.789 51.3936 203.291C51.2534 203.235 51.1091 203.178 50.9639 203.118C50.1386 202.777 49.3093 202.406 48.8242 202.195C42.7192 199.546 34.6888 194.351 29.8945 189.292Z" fill="#F9B3D0" stroke="black" stroke-width="0.780497"/>
<path d="M92.2568 51.0381C97.3359 52.3609 105.917 56.4031 110.513 59.0137C109.906 59.9151 109.354 60.5589 108.582 61.459C108.16 61.9066 107.706 62.3274 107.244 62.7588C106.787 62.4181 106.317 62.0126 105.838 61.6426H105.837C101.408 58.2206 96.8053 55.0269 91.751 52.54C92.0218 52.028 92.1406 51.555 92.2568 51.0381Z" fill="#F9B3D0" stroke="black" stroke-width="0.780497"/>
<path d="M78.6221 56.1152C79.0821 56.1418 79.6115 56.1564 80.0752 56.1699C80.0784 60.916 80.1886 65.6791 80.1465 70.3994C78.3878 70.3801 76.8525 70.2526 75.0645 70.0742C74.2712 69.9769 73.4785 69.8734 72.6865 69.7656C73.1602 68.6687 73.6207 67.5619 74.0791 66.458C74.6041 65.1938 75.1294 63.934 75.6816 62.6924C76.6423 60.533 77.7332 58.3419 78.6221 56.1152Z" fill="#F9B3D0" stroke="black" stroke-width="0.780497"/>
<path d="M68.9932 48.6162C69.003 48.6197 69.0145 48.6259 69.0303 48.6328C69.075 48.7804 69.0934 48.972 69.0869 49.209C69.0812 49.4172 69.0611 49.6138 69.041 49.8184C66.2979 50.2358 62.6935 51.4863 59.1953 52.9199C55.7252 54.3421 52.3276 55.958 49.918 57.1543C49.5629 56.3851 49.3593 55.5205 49.1689 54.6436C55.0089 52.1097 61.0958 50.1912 67.332 48.9209L68.6025 48.6719C68.7262 48.6563 68.8171 48.6406 68.8838 48.6289C68.9535 48.6167 68.975 48.6139 68.9854 48.6133C68.9873 48.6139 68.9898 48.615 68.9932 48.6162Z" fill="#F9B3D0" stroke="black" stroke-width="0.780497"/>
<path d="M92.2988 48.624C94.8899 48.9192 98.3069 49.8096 101.693 50.9199C105.281 52.0963 108.803 53.5091 111.224 54.6875C111.388 55.3096 111.451 55.7667 111.439 56.2109C111.428 56.6319 111.351 57.0562 111.218 57.6191C111.203 57.6136 111.187 57.6098 111.171 57.6035C111.014 57.5411 110.827 57.4496 110.63 57.3457C110.434 57.2425 110.237 57.1306 110.058 57.0283C109.883 56.9284 109.718 56.8334 109.602 56.7715C104.208 53.9005 98.6215 51.3393 92.7168 49.625L92.2988 48.624Z" fill="#F9B3D0" stroke="black" stroke-width="0.780497"/>
<path d="M78.6953 51.3252C78.8075 51.3415 78.9085 51.3778 79.043 51.4326C79.3225 51.5465 79.6825 51.7169 80.2988 51.7207C80.6692 51.7229 81.1903 51.6123 81.627 51.5225C81.8566 51.4752 82.0721 51.4312 82.2617 51.4014C82.3599 51.3859 82.4434 51.3758 82.5127 51.3701L82.6777 51.3662C84.5088 51.5093 86.9592 52.3451 88.917 53.0469C87.2585 53.9862 85.4943 54.1192 83.4121 54.4199C79.7594 54.8092 75.8057 54.6325 72.5918 52.8906C74.5275 52.2581 76.1496 51.7542 78.2402 51.3555L78.251 51.3535C78.4483 51.3102 78.5864 51.3094 78.6953 51.3252Z" fill="#F1F3F2" stroke="black" stroke-width="0.780497"/>
<path d="M81.6074 12.5527C81.6767 18.5326 81.6856 24.5131 81.6348 30.4932L79.918 30.4648C79.8479 24.5681 79.9359 18.4991 79.9268 12.5654L81.6074 12.5527Z" fill="#F1F3F2" stroke="black" stroke-width="0.780497"/>
<path d="M81.6104 32.1396C81.6412 37.8274 81.6427 43.5154 81.6123 49.2031C81.0159 49.3554 80.5598 49.3725 79.9141 49.3926L79.9189 32.1348L81.6104 32.1396Z" fill="#F1F3F2" stroke="black" stroke-width="0.780497"/>
<path d="M159.479 128.074C159.581 135.047 158.831 141.021 157.229 147.962C157.12 148.435 156.983 148.935 156.836 149.445C157.15 147.15 157.419 144.555 157.59 141.959C157.87 137.695 157.891 133.396 157.418 130.412C158.232 129.573 158.821 128.887 159.479 128.074Z" fill="#F9B3D0" stroke="black" stroke-width="0.780497"/>
<path d="M1.89062 127.386C2.52348 128.009 3.13576 128.622 3.73438 129.284C3.40165 135.351 3.60216 141.435 4.33105 147.467C2.72414 140.713 1.89335 135.16 1.89062 127.386Z" fill="#F9B3D0" stroke="black" stroke-width="0.780497"/>
<path d="M83.0381 47.9102C84.5595 47.9334 86.4473 48.1937 87.7246 48.7754C88.2184 49.0003 88.6763 49.1967 89.0908 49.4102C89.5035 49.6227 89.8384 49.8359 90.0811 50.0762C90.3172 50.31 90.4612 50.5648 90.5059 50.873C90.5462 51.1516 90.5095 51.5053 90.3398 51.9658C90.2845 51.9653 90.2156 51.9606 90.1328 51.9473C89.9313 51.9147 89.6856 51.8463 89.4209 51.7578C88.8679 51.573 88.3705 51.3532 88.0029 51.2197C86.338 50.6153 84.7002 50.1631 82.998 49.7568L83.0381 47.9102Z" fill="#F1F3F2" stroke="black" stroke-width="0.780497"/>
<path d="M78.3828 49.7188C76.1476 50.076 73.8816 50.8265 71.7998 51.5459L71.7988 51.5469L71.0908 51.793C70.9211 51.367 70.7797 50.9326 70.6309 50.4766C72.4963 48.8457 74.3266 48.2031 76.8623 47.877H76.8662C77.0654 47.8491 77.4039 47.8375 77.7754 47.833C77.9573 47.8308 78.1417 47.8304 78.3125 47.8301C78.3332 47.83 78.3537 47.8291 78.374 47.8291L78.3828 49.7188Z" fill="#F1F3F2" stroke="black" stroke-width="0.780497"/>
<path d="M90.5811 48.4902C90.7181 48.6786 90.8185 48.8178 90.8955 48.9482C90.7241 48.8436 90.5363 48.7295 90.3428 48.6123C90.2334 48.5461 90.1199 48.4809 90.0068 48.4131C90.2022 48.44 90.3951 48.4651 90.5811 48.4902Z" fill="#F9B3D0" stroke="black" stroke-width="0.780497"/>
<path d="M58.5576 121.877C65.8273 123.123 72.88 123.569 80.2158 123.728L80.2744 152.438L78.166 152.403H78.167C70.8203 152.213 63.4936 151.549 56.2324 150.416C56.1372 141.924 57.2994 130.309 58.5576 121.877Z" fill="#FF80AB" stroke="black" stroke-width="0.780497"/>
<path d="M105.808 152.028C105.812 152.068 105.821 152.112 105.825 152.162C105.844 152.382 105.856 152.674 105.861 153.021C105.872 153.715 105.858 154.603 105.833 155.516C105.808 156.427 105.773 157.359 105.741 158.138C105.71 158.914 105.683 159.545 105.674 159.847C105.503 165.626 104.533 171.413 103.38 177.098C102.445 177.162 101.431 177.281 100.527 177.4C94.4043 178.206 88.3598 178.43 82.1719 178.623L82.1621 178.624C82.0625 178.63 82.0119 178.633 81.958 178.636C81.9111 178.638 81.8904 178.637 81.877 178.636C81.8722 178.635 81.8675 178.633 81.8613 178.632C81.8581 178.598 81.8538 178.561 81.8506 178.52C81.8357 178.326 81.8224 178.06 81.8105 177.729C81.7868 177.066 81.7698 176.157 81.7578 175.074C81.7339 172.91 81.731 170.065 81.7373 167.141C81.7491 161.685 81.7907 155.949 81.793 153.879C84.1656 153.837 86.8089 153.837 89.1416 153.724H89.1445C94.6224 153.414 100.084 152.863 105.513 152.072L105.536 152.068C105.701 152.034 105.751 152.028 105.795 152.027C105.799 152.027 105.803 152.028 105.808 152.028Z" fill="#FF80AB" stroke="black" stroke-width="0.780497"/>
<path d="M123.491 117.334C123.564 117.505 123.644 117.732 123.729 118.003C123.898 118.545 124.079 119.235 124.251 119.946C124.594 121.368 124.892 122.849 124.983 123.334C126.353 130.627 127.277 138.098 127.426 145.513C121.423 147.574 117.269 148.555 111.489 149.617L108.87 150.086L107.371 150.318C107.382 140.641 106.434 131.4 105.064 121.846C107.96 121.321 111.019 120.788 113.87 120.082C117.054 119.293 120.324 118.231 123.454 117.258C123.465 117.281 123.479 117.306 123.491 117.334Z" fill="#FF80AB" stroke="black" stroke-width="0.780497"/>
<path d="M97.6445 94.0527C97.7302 94.2645 97.8298 94.5558 97.9414 94.9209C98.1642 95.6498 98.4271 96.6459 98.7158 97.8301C99.2928 100.197 99.9681 103.294 100.629 106.463C101.86 112.367 103.035 118.508 103.424 120.614C97.9952 121.417 92.9196 122.105 87.4062 122.188L87.3936 122.189C85.4854 122.281 83.5751 122.313 81.665 122.289C81.5278 113.253 81.4894 104.215 81.5518 95.1777C86.9968 95.2092 92.1261 94.6458 97.4951 93.8809L97.4961 93.8818L97.5635 93.875C97.5868 93.9235 97.6157 93.9816 97.6445 94.0527Z" fill="#FF80AB" stroke="black" stroke-width="0.780497"/>
<path d="M49.0332 89.6338C52.7229 91.1885 59.1478 92.7634 63.0889 93.5254C60.5468 102.278 58.6255 111.198 57.3408 120.221C56.322 120.04 55.3004 119.875 54.2764 119.727L54.2686 119.726L53.501 119.616C49.5939 118.995 43.0165 117.067 39.4717 115.9C41.5142 107.481 45.3798 97.4759 49.0332 89.6338Z" fill="#FF80AB" stroke="black" stroke-width="0.780497"/>
<path d="M16.5654 138.743C22.974 142.32 26.4465 143.62 33.3496 146.241C33.1611 149.49 33.3753 154.513 33.8398 159.513C34.2872 164.327 34.9687 169.155 35.7568 172.387C29.7165 170.753 25.1417 169.006 19.3086 166.516C17.2015 158.92 16.1033 146.756 16.5654 138.743Z" fill="#FF80AB" stroke="black" stroke-width="0.780497"/>
<path d="M125.282 82.9258C125.364 83.0069 125.462 83.1135 125.574 83.2461C125.787 83.4981 126.026 83.8107 126.266 84.1387C126.505 84.4659 126.742 84.804 126.953 85.1064C127.162 85.4064 127.349 85.6765 127.481 85.8584C132.5 92.7547 136.176 100.057 139.016 108.102C134.653 110.789 132.468 112.083 127.98 113.955L127.031 114.346L124.585 115.292C123.964 112.484 122.771 108.965 121.85 106.381C119.751 100.423 117.271 94.6066 114.428 88.9658C118.275 87.395 121.919 85.3675 125.282 82.9258Z" fill="#FF80AB" stroke="black" stroke-width="0.780497"/>
<path d="M37.8027 174.542C43.7295 176.273 50.8367 177.527 56.8652 178.449C58.3722 185.637 59.922 191.387 63.2744 197.913C56.6944 196.872 52.3705 195.914 45.8369 193.912C42.0999 187.946 39.3863 181.399 37.8027 174.542Z" fill="#FF80AB" stroke="black" stroke-width="0.780497"/>
<path d="M12.3994 101.331C12.6936 101.622 13.0603 101.996 13.4375 102.383C14.1837 103.148 14.9843 103.979 15.3105 104.279C17.35 106.153 19.2059 107.515 21.4287 109.051C19.6078 114.27 17.8105 119.687 16.7881 125.153C16.1023 128.82 15.5762 132.544 15.2568 136.262C11.1743 133.675 8.83166 131.84 5.23145 128.63C5.40487 127.585 5.54284 126.495 5.67871 125.404C5.82445 124.235 5.97059 123.064 6.16602 121.933C7.49179 114.259 9.07274 108.118 12.1992 101.139C12.2602 101.197 12.3282 101.261 12.3994 101.331Z" fill="#FF80AB" stroke="black" stroke-width="0.780497"/>
<path d="M149.146 101.073C149.188 101.162 149.235 101.262 149.283 101.372C149.444 101.739 149.618 102.183 149.788 102.639C150.129 103.556 150.44 104.483 150.598 104.924C153.694 113.572 155.197 121.013 155.891 130.092C152.889 132.935 150.493 134.535 146.96 136.685L146.959 136.686C146.883 136.732 146.824 136.774 146.775 136.808C146.774 136.8 146.773 136.792 146.771 136.784C146.734 136.572 146.69 136.278 146.641 135.927C146.542 135.225 146.426 134.304 146.312 133.359C146.084 131.482 145.858 129.494 145.78 129.011C144.663 122.054 142.864 115.315 140.776 108.615C143.64 106.625 146.906 103.849 149.146 101.073Z" fill="#FF80AB" stroke="black" stroke-width="0.780497"/>
<path d="M142.05 168.121C139.537 175.508 137.376 179.97 133.396 186.741C132.481 187.06 131.525 187.536 130.599 188.015C129.612 188.525 128.661 189.036 127.776 189.4C124.154 190.895 120.39 192.511 116.716 193.86C116.754 193.789 116.795 193.714 116.838 193.636C117.15 193.069 117.575 192.331 118.019 191.567C118.898 190.053 119.864 188.417 120.129 187.883C122.299 183.501 124.075 178.718 125.284 173.975C130.962 172.289 136.556 170.335 142.05 168.121Z" fill="#FF80AB" stroke="black" stroke-width="0.780497"/>
<path d="M54.5801 64.6143C54.8022 64.7603 55.0901 64.954 55.3867 65.1543C55.9716 65.5492 56.6055 65.9813 56.7959 66.0977V66.0967C58.0188 66.8495 59.2955 67.5102 60.6152 68.0752C55.9035 74.5374 51.9662 80.7062 48.4043 87.8789C48.0071 87.7063 47.5895 87.5318 47.1709 87.3613L45.5908 86.7188C42.365 85.3284 40.2914 84.2538 37.3975 82.4482C41.7818 76.0959 48.5186 69.5336 54.415 64.5088C54.4636 64.54 54.5195 64.5745 54.5801 64.6143Z" fill="#FF80AB" stroke="black" stroke-width="0.780497"/>
<path d="M49.4658 59.0713C49.6246 59.2653 49.8256 59.525 50.0371 59.8037C50.3434 60.2073 50.6676 60.641 50.877 60.8955C51.7297 61.9328 52.4063 62.6459 53.29 63.5273C47.5054 68.2962 40.6032 75.6014 36.167 81.6387L34.6377 80.4961C32.3694 78.718 31.0178 77.1108 29.3135 74.8896C30.7666 73.415 32.2354 71.9479 33.7285 70.5205C38.4706 65.9868 43.8357 62.4308 49.4658 59.0713Z" fill="#FF80AB" stroke="black" stroke-width="0.780497"/>
<path d="M47.3672 195.913C52.8732 197.579 58.5072 198.788 64.2129 199.527C65.604 202.394 68.498 206.061 70.7246 208.578C67.0109 208.109 62.6007 207.006 59.0811 205.994C53.8718 204.497 49.9929 200.652 47.3672 195.913Z" fill="#FF80AB" stroke="black" stroke-width="0.780497"/>
<path d="M112.609 196.855C111.51 198.277 110.054 200.026 108.491 201.613C106.69 203.442 104.788 205.015 103.149 205.659C99.4943 207.096 94.4886 207.924 90.4189 208.563C90.5619 208.421 90.7192 208.268 90.8809 208.11C91.4173 207.589 92.0217 207.012 92.2686 206.733L92.2695 206.734C94.1663 204.626 95.7857 202.283 97.0908 199.766C102.463 199.132 107.396 198.303 112.609 196.855Z" fill="#FF80AB" stroke="black" stroke-width="0.780497"/>
<path d="M82.9268 56.0029C83.0093 55.9997 83.0964 56.0055 83.2275 56.0234C83.3036 56.1603 83.4114 56.3621 83.5361 56.6182C83.711 56.9772 83.9152 57.4153 84.1191 57.8604C84.52 58.7351 84.9369 59.6747 85.0928 60.0127L85.0938 60.0156C86.6273 63.2786 88.1118 66.5646 89.5498 69.8711C89.1534 69.9041 88.7551 69.9411 88.374 69.9746H88.3711C85.9245 70.2069 83.962 70.3822 81.5703 70.4189L81.5254 61.3203C81.5204 59.8736 81.4527 57.5707 81.5664 56.1592C81.7495 56.0828 81.9225 56.1059 82.3916 56.0654L82.4092 56.0635C82.6752 56.0285 82.7971 56.008 82.9268 56.0029Z" fill="#FF80AB" stroke="black" stroke-width="0.780497"/>
<mask id="path-73-inside-1_3592_584" fill="white">
<path d="M135.31 186.785L135.381 186.842C135.121 187.254 133.629 188.501 133.171 188.902L133.102 188.736C133.801 187.756 134.317 187.389 135.31 186.785Z"/>
</mask>
<path d="M135.31 186.785L135.381 186.842C135.121 187.254 133.629 188.501 133.171 188.902L133.102 188.736C133.801 187.756 134.317 187.389 135.31 186.785Z" fill="#E7EFF4"/>
<path d="M135.31 186.785L135.799 186.177L135.372 185.834L134.905 186.118L135.31 186.785ZM135.381 186.842L136.041 187.259L136.413 186.67L135.87 186.234L135.381 186.842ZM133.171 188.902L132.451 189.203L132.869 190.203L133.685 189.489L133.171 188.902ZM133.102 188.736L132.466 188.283L132.214 188.637L132.382 189.038L133.102 188.736ZM135.31 186.785L134.821 187.394L134.892 187.451L135.381 186.842L135.87 186.234L135.799 186.177L135.31 186.785ZM135.381 186.842L134.721 186.426C134.724 186.422 134.706 186.448 134.649 186.512C134.597 186.57 134.528 186.642 134.443 186.726C134.272 186.894 134.058 187.091 133.83 187.294C133.367 187.708 132.906 188.097 132.657 188.314L133.171 188.902L133.685 189.489C133.894 189.306 134.408 188.871 134.87 188.459C135.105 188.248 135.342 188.032 135.539 187.837C135.716 187.662 135.922 187.448 136.041 187.259L135.381 186.842ZM133.171 188.902L133.891 188.6L133.821 188.435L133.102 188.736L132.382 189.038L132.451 189.203L133.171 188.902ZM133.102 188.736L133.737 189.19C134.351 188.329 134.769 188.027 135.715 187.452L135.31 186.785L134.905 186.118C133.865 186.75 133.251 187.183 132.466 188.283L133.102 188.736Z" fill="black" mask="url(#path-73-inside-1_3592_584)"/>
</svg>
