<svg width="1440" height="230" viewBox="0 0 1440 230" fill="none" xmlns="http://www.w3.org/2000/svg">
<g clip-path="url(#clip0_3503_528)">
<rect width="1440" height="230" fill="white"/>
<rect x="-85.125" y="1.25" width="1548.38" height="199.709" fill="#F7CB46" stroke="black" stroke-width="3"/>
<rect x="-37.875" y="1.25" width="146.625" height="45.4739" fill="#F7CB46" stroke="black" stroke-width="3"/>
<rect x="-37.875" y="92.6895" width="146.625" height="45.4739" fill="#F7CB46" stroke="black" stroke-width="3"/>
<rect x="-116.625" y="46.418" width="146.625" height="46.5755" fill="#F7CB46" stroke="black" stroke-width="3"/>
<rect x="-42.375" y="181.924" width="146.625" height="46.5755" fill="#F7CB46" stroke="black" stroke-width="3"/>
<rect x="-116.625" y="137.857" width="146.625" height="45.4739" fill="#F7CB46" stroke="black" stroke-width="3"/>
<rect x="823.875" y="1.25" width="146.625" height="45.4739" fill="#F7CB46" stroke="black" stroke-width="3"/>
<rect x="823.875" y="92.6895" width="146.625" height="45.4739" fill="#F7CB46" stroke="black" stroke-width="3"/>
<rect x="745.125" y="46.418" width="146.625" height="46.5755" fill="#F7CB46" stroke="black" stroke-width="3"/>
<rect x="819.375" y="181.924" width="146.625" height="46.5755" fill="#F7CB46" stroke="black" stroke-width="3"/>
<rect x="745.125" y="137.857" width="146.625" height="45.4739" fill="#F7CB46" stroke="black" stroke-width="3"/>
<rect x="393" y="1.25" width="146.625" height="45.4739" fill="#F7CB46" stroke="black" stroke-width="3"/>
<rect x="393" y="92.6895" width="146.625" height="45.4739" fill="#F7CB46" stroke="black" stroke-width="3"/>
<rect x="314.25" y="46.418" width="146.625" height="46.5755" fill="#F7CB46" stroke="black" stroke-width="3"/>
<rect x="388.5" y="181.924" width="146.625" height="46.5755" fill="#F7CB46" stroke="black" stroke-width="3"/>
<rect x="314.25" y="137.857" width="146.625" height="45.4739" fill="#F7CB46" stroke="black" stroke-width="3"/>
<rect x="1254.75" y="1.25" width="146.625" height="45.4739" fill="#F7CB46" stroke="black" stroke-width="3"/>
<rect x="1254.75" y="92.6895" width="146.625" height="45.4739" fill="#F7CB46" stroke="black" stroke-width="3"/>
<rect x="1176" y="46.418" width="146.625" height="46.5755" fill="#F7CB46" stroke="black" stroke-width="3"/>
<rect x="1250.25" y="181.924" width="146.625" height="46.5755" fill="#F7CB46" stroke="black" stroke-width="3"/>
<rect x="1176" y="137.857" width="146.625" height="45.4739" fill="#F7CB46" stroke="black" stroke-width="3"/>
<rect x="108.375" y="1.25" width="146.625" height="45.4739" fill="#F7CB46" stroke="black" stroke-width="3"/>
<rect x="108.375" y="92.6895" width="146.625" height="45.4739" fill="#F7CB46" stroke="black" stroke-width="3"/>
<rect x="29.625" y="46.418" width="146.625" height="46.5755" fill="#F7CB46" stroke="black" stroke-width="3"/>
<rect x="103.875" y="181.924" width="146.625" height="46.5755" fill="#F7CB46" stroke="black" stroke-width="3"/>
<rect x="29.625" y="137.857" width="146.625" height="45.4739" fill="#F7CB46" stroke="black" stroke-width="3"/>
<rect x="970.125" y="1.25" width="146.625" height="45.4739" fill="#F7CB46" stroke="black" stroke-width="3"/>
<rect x="970.125" y="92.6895" width="146.625" height="45.4739" fill="#F7CB46" stroke="black" stroke-width="3"/>
<rect x="891.375" y="46.418" width="146.625" height="46.5755" fill="#F7CB46" stroke="black" stroke-width="3"/>
<rect x="965.625" y="181.924" width="146.625" height="46.5755" fill="#F7CB46" stroke="black" stroke-width="3"/>
<rect x="891.375" y="137.857" width="146.625" height="45.4739" fill="#F7CB46" stroke="black" stroke-width="3"/>
<rect x="539.25" y="1.25" width="146.625" height="45.4739" fill="#F7CB46" stroke="black" stroke-width="3"/>
<rect x="539.25" y="92.6895" width="146.625" height="45.4739" fill="#F7CB46" stroke="black" stroke-width="3"/>
<rect x="460.5" y="46.418" width="146.625" height="46.5755" fill="#F7CB46" stroke="black" stroke-width="3"/>
<rect x="534.75" y="181.924" width="146.625" height="46.5755" fill="#F7CB46" stroke="black" stroke-width="3"/>
<rect x="460.5" y="137.857" width="146.625" height="45.4739" fill="#F7CB46" stroke="black" stroke-width="3"/>
<rect x="1401" y="1.25" width="146.625" height="45.4739" fill="#F7CB46" stroke="black" stroke-width="3"/>
<rect x="1322.25" y="46.418" width="146.625" height="46.5755" fill="#F7CB46" stroke="black" stroke-width="3"/>
<rect x="1396.5" y="181.924" width="146.625" height="46.5755" fill="#F7CB46" stroke="black" stroke-width="3"/>
<rect x="1322.25" y="137.857" width="146.625" height="45.4739" fill="#F7CB46" stroke="black" stroke-width="3"/>
<rect x="254.625" y="1.25" width="146.625" height="45.4739" fill="#F7CB46" stroke="black" stroke-width="3"/>
<rect x="254.625" y="92.6895" width="146.625" height="45.4739" fill="#F7CB46" stroke="black" stroke-width="3"/>
<rect x="175.875" y="46.418" width="146.625" height="46.5755" fill="#F7CB46" stroke="black" stroke-width="3"/>
<path d="M397.295 183.014L396.768 228.499H250.125V181.935L397.295 183.014Z" fill="#F7CB46" stroke="black" stroke-width="3"/>
<rect x="175.875" y="137.857" width="146.625" height="45.4739" fill="#F7CB46" stroke="black" stroke-width="3"/>
<rect x="1116.38" y="1.25" width="146.625" height="45.4739" fill="#F7CB46" stroke="black" stroke-width="3"/>
<rect x="1116.38" y="92.6895" width="146.625" height="45.4739" fill="#F7CB46" stroke="black" stroke-width="3"/>
<rect x="1037.62" y="46.418" width="146.625" height="46.5755" fill="#F7CB46" stroke="black" stroke-width="3"/>
<rect x="1111.88" y="181.924" width="146.625" height="46.5755" fill="#F7CB46" stroke="black" stroke-width="3"/>
<rect x="1037.62" y="137.857" width="146.625" height="45.4739" fill="#F7CB46" stroke="black" stroke-width="3"/>
<rect x="685.5" y="1.25" width="146.625" height="45.4739" fill="#F7CB46" stroke="black" stroke-width="3"/>
<rect x="685.5" y="92.6895" width="146.625" height="45.4739" fill="#F7CB46" stroke="black" stroke-width="3"/>
<rect x="606.75" y="46.418" width="146.625" height="46.5755" fill="#F7CB46" stroke="black" stroke-width="3"/>
<rect x="681" y="181.924" width="146.625" height="46.5755" fill="#F7CB46" stroke="black" stroke-width="3"/>
<rect x="606.75" y="137.857" width="146.625" height="45.4739" fill="#F7CB46" stroke="black" stroke-width="3"/>
</g>
<defs>
<clipPath id="clip0_3503_528">
<rect width="1440" height="230" fill="white"/>
</clipPath>
</defs>
</svg>
