<svg width="301" height="443" viewBox="0 0 301 443" fill="none" xmlns="http://www.w3.org/2000/svg">
<g clip-path="url(#clip0_3683_1565)">
<rect width="300.828" height="443" rx="29.8767" fill="#FCFCFD"/>
<path d="M37.1445 30.5H263.27C271.761 30.5 278.645 37.3836 278.645 45.875V221H21.7695V45.875C21.7695 37.3836 28.6532 30.5 37.1445 30.5Z" fill="#F7CB46" stroke="black" stroke-width="3"/>
<circle cx="252.625" cy="78.625" r="4.125" fill="#F1F3F2" stroke="black" stroke-width="3"/>
<circle cx="43.1875" cy="70.1875" r="4.6875" fill="#F1F3F2" stroke="black" stroke-width="3"/>
<circle cx="263.625" cy="145.625" r="4.125" fill="#F1F3F2" stroke="black" stroke-width="3"/>
<circle cx="95.6445" cy="93.125" r="4.125" fill="#F1F3F2" stroke="black" stroke-width="3"/>
<circle cx="38.625" cy="175.625" r="4.125" fill="#F1F3F2" stroke="black" stroke-width="3"/>
<circle cx="166.625" cy="50.625" r="4.125" fill="#F1F3F2" stroke="black" stroke-width="3"/>
<circle cx="141.77" cy="189.875" r="4.125" fill="#F1F3F2" stroke="black" stroke-width="3"/>
<path d="M219.096 164.095C224.958 172.365 230.131 184.392 235.174 196.282C237.82 202.521 240.426 208.705 243.055 214.184C245.678 219.65 248.366 224.507 251.203 228.061L251.573 228.524L252.161 228.609L271.882 231.452C274.696 232.756 276.676 233.795 278.02 234.658C279.446 235.575 279.938 236.16 280.077 236.458C280.124 236.558 280.116 236.593 280.113 236.607C280.107 236.647 280.076 236.763 279.927 236.978C279.595 237.456 278.986 238.011 278.03 238.849C276.225 240.431 273.623 242.66 271.902 246.204C270.161 249.793 269.388 254.573 270.853 261.198C271.364 263.515 270.318 265.232 268.677 267.515C267.353 269.356 265.592 271.604 265.181 274.562L179.669 274.639C179.65 274.457 179.631 274.275 179.614 274.093L179.613 274.091L179.505 272.802C177.546 246.226 193.19 223.51 218.719 215.761L219.961 215.397C220.454 215.259 221.079 215.172 221.832 215.074C222.524 214.984 223.36 214.881 224.065 214.689L224.066 214.69C224.335 214.618 224.795 214.561 225.471 214.514C226.043 214.474 226.926 214.432 227.612 214.379C228.35 214.322 229.148 214.235 229.853 214.062C230.493 213.906 231.374 213.608 231.952 212.904L232.274 212.513L232.292 212.005C232.298 211.838 232.309 211.736 232.317 211.643C232.319 211.624 232.367 211.291 232.285 210.951C232.186 210.539 231.95 210.264 231.899 210.201C231.807 210.087 231.773 210.053 231.663 209.91L231.247 209.371L230.567 209.33L230.237 209.315C228.524 209.271 225.905 209.607 223.445 210.032C220.784 210.492 218.092 211.094 216.553 211.571V211.572C204.358 215.357 193.243 222.903 185.689 233.315C184.544 234.895 182.265 237.905 179.781 244.366C177.382 250.609 174.8 260.042 172.813 274.514C163.301 274.521 158.998 274.523 155.599 274.521L142.995 274.514H142.988L139.176 274.531H139.125L139.073 274.535L137.37 274.658L59.373 274.568C61.3787 273.013 63.166 271.148 64.499 268.725C68.0523 262.265 71.184 255.513 74.4111 248.982C79.1276 239.578 83.9159 230.21 88.7754 220.879L88.7812 220.867C88.9716 220.494 89.3383 219.866 89.8203 219.018C90.2849 218.199 90.8263 217.227 91.3096 216.256C91.7859 215.299 92.24 214.278 92.4971 213.37C92.6249 212.919 92.7246 212.425 92.7266 211.941C92.7285 211.475 92.6383 210.825 92.1787 210.276L91.7578 209.774L91.1035 209.742L90.5781 209.717L90.0186 209.688L89.5771 210.035C89.1403 210.378 88.7653 210.869 88.4707 211.304C88.1575 211.766 87.8515 212.295 87.5713 212.811C87.0363 213.795 86.4736 214.971 86.2012 215.496C77.9267 231.428 70.0219 247.52 62.1045 263.603C59.7737 268.338 56.6145 271.876 51.6006 273.262C45.8643 274.677 38.9536 275.095 34.0068 272.4C30.9557 270.739 28.9554 268.609 27.2461 265.583C25.0119 261.629 25.153 257.883 26.376 254.054C27.6421 250.089 29.9505 246.317 32.0195 242.116L43.2881 219.241L43.292 219.232L58.8613 187.08C61.1498 182.433 63.4971 177.486 65.9785 173.005C75.7317 178.386 86.6141 180.747 97.6162 180.803C112.601 180.878 127.623 180.812 142.593 180.82L164.705 180.833H164.706C174.5 180.836 183.445 181.356 193.333 178.649C204.29 175.65 211.162 171.488 219.096 164.095Z" fill="#56D5F3" stroke="black" stroke-width="3"/>
<path d="M217.223 47.541C220.31 47.3151 222.143 48.0741 223.304 49.2109C224.535 50.4164 225.259 52.2819 225.619 54.6992C225.978 57.103 225.948 59.8402 225.851 62.6016C225.755 65.2974 225.59 68.0808 225.731 70.3438C225.964 74.0661 225.734 77.8295 225.674 81.8076C225.615 85.7243 225.726 89.7628 226.707 93.7295C227.805 98.1704 229.442 102.096 231.239 106.084L232.019 107.799C236.395 117.732 238.285 126.001 237.971 136.766L237.817 138.473C237.221 143.918 236.342 147.95 234.741 153.167L233.978 154.791L233.975 154.8L233.971 154.808C230.149 163.187 226.857 168.168 219.652 173.725L218.948 174.26C211.957 179.455 203.857 182.959 195.283 184.497L195.28 184.498C189.154 185.61 180.117 185.457 173.491 185.455H173.492L146.186 185.428H146.185L118.101 185.418C107.036 185.413 96.1334 185.822 85.9131 182.285C75.6319 178.727 66.665 172.629 60.2119 163.919C57.8753 160.601 56.748 158.389 54.8398 154.705L54.2344 153.308C52.2302 147.899 51.6512 144.273 51.0752 138.547L50.9785 136.881C50.6832 125.438 53.4221 115.031 58.7754 104.959C61.604 99.6369 63.0043 95.9224 63.6738 92.0156C64.333 88.1693 64.2687 84.1851 64.2881 78.4668C64.3082 73.125 64.3067 67.7824 64.2832 62.4404L64.252 57.0986C64.2518 55.7696 64.3646 54.2839 64.7236 52.9639C65.0866 51.6292 65.6554 50.631 66.4404 50.0508C68.482 48.626 70.1311 48.024 71.4932 47.8887C72.8392 47.755 74.0343 48.0644 75.2051 48.6895C76.4055 49.3303 77.5603 50.2927 78.7939 51.4521C79.9646 52.5525 81.3154 53.9421 82.6455 55.1133C84.8321 57.039 89.3559 61.3262 93.8535 65.4873C96.0902 67.5566 98.3128 69.587 100.208 71.251C101.841 72.6847 103.294 73.9022 104.314 74.627L104.725 74.9062C104.98 75.0718 105.245 75.1401 105.349 75.166C105.495 75.2027 105.651 75.23 105.8 75.252C106.1 75.2963 106.474 75.3327 106.892 75.3633C107.733 75.4249 108.855 75.4714 110.153 75.5068C112.756 75.5779 116.14 75.6064 119.552 75.6123C126.329 75.624 133.417 75.5471 134.552 75.5469L182.713 75.5596H183.159L183.533 75.3154C185.872 73.7894 188.684 71.0349 190.567 69.2549C193.984 66.053 197.38 62.8275 200.752 59.5781L200.753 59.5771C205.999 54.5134 210.671 49.3351 217.223 47.541Z" fill="#56D5F3" stroke="black" stroke-width="3"/>
<path d="M73.7571 129.613C74.4308 128.535 73.7975 127.084 72.5844 126.705C67.4652 125.106 60.3466 124.675 55.1639 123.762C52.2134 123.242 45.1562 121.651 41.7031 121.446C41.1676 121.414 40.6457 121.613 40.2593 121.985C39.9733 122.261 39.8594 122.426 39.7216 122.753C39.3047 123.743 39.7295 124.82 40.7602 125.122C46.9565 126.938 66.6902 130.315 71.8589 130.699C72.3982 130.739 72.9192 130.548 73.3021 130.166C73.5067 129.962 73.641 129.799 73.7571 129.613Z" fill="#080607"/>
<path d="M212.063 129.613C211.39 128.535 212.023 127.084 213.236 126.705C218.355 125.106 225.474 124.675 230.656 123.762C233.607 123.242 240.664 121.651 244.117 121.446C244.653 121.414 245.175 121.613 245.561 121.985C245.847 122.261 245.961 122.426 246.099 122.753C246.516 123.743 246.091 124.82 245.06 125.122C238.864 126.938 219.13 130.315 213.961 130.699C213.422 130.739 212.901 130.548 212.518 130.166C212.314 129.962 212.179 129.799 212.063 129.613Z" fill="#080607"/>
<path d="M74.0762 140.083C74.5093 138.888 73.5861 137.601 72.3205 137.485C66.9799 136.993 59.9289 138.062 54.67 138.256C51.6761 138.365 44.4421 138.287 41.0227 138.809C40.4923 138.891 40.0237 139.194 39.7238 139.639C39.5018 139.968 39.4251 140.154 39.3589 140.503C39.1586 141.558 39.7993 142.522 40.8705 142.602C47.3097 143.08 67.313 142.249 72.4476 141.542C72.9833 141.469 73.4528 141.173 73.7472 140.719C73.9046 140.477 74.0016 140.289 74.0762 140.083Z" fill="#080607"/>
<path d="M211.74 140.083C211.307 138.888 212.23 137.601 213.496 137.485C218.836 136.993 225.887 138.062 231.146 138.256C234.14 138.365 241.374 138.287 244.794 138.809C245.324 138.891 245.793 139.194 246.093 139.639C246.315 139.968 246.391 140.154 246.458 140.503C246.658 141.558 246.017 142.522 244.946 142.602C238.507 143.08 218.503 142.249 213.369 141.542C212.833 141.469 212.364 141.173 212.069 140.719C211.912 140.477 211.815 140.289 211.74 140.083Z" fill="#080607"/>
<path d="M183.438 97C192.286 97 199.375 103.93 199.375 112.375C199.375 120.82 192.286 127.75 183.438 127.75C174.589 127.75 167.5 120.82 167.5 112.375C167.5 103.93 174.589 97 183.438 97Z" fill="#F1F3F2" stroke="black" stroke-width="3"/>
<path d="M102.438 97C111.286 97 118.375 103.93 118.375 112.375C118.375 120.82 111.286 127.75 102.438 127.75C93.5887 127.75 86.5 120.82 86.5 112.375C86.5 103.93 93.5887 97 102.438 97Z" fill="#F1F3F2" stroke="black" stroke-width="3"/>
<ellipse cx="182.312" cy="112.375" rx="6.1875" ry="6.75" fill="black"/>
<circle cx="101.875" cy="112.375" r="6.75" fill="black"/>
<path d="M216.3 57.0352C217.446 57.0221 218.156 57.7735 218.166 58.793C218.238 65.8096 218.302 73.2779 217.918 80.2861L209.634 75.8271H209.633C206.959 74.3269 203.6 72.5252 201.019 70.7988C202.647 68.9854 205.241 66.3755 207.959 63.8535C209.653 62.2817 211.371 60.7648 212.898 59.5186C214.294 58.3804 215.468 57.5197 216.3 57.0352Z" fill="#FE68A5" stroke="black" stroke-width="3"/>
<path d="M72.4189 57.1279C72.6059 57.1964 72.8364 57.2959 73.1133 57.4385C73.7373 57.7597 74.4776 58.2335 75.3105 58.8398C76.9749 60.0515 78.892 61.7059 80.8115 63.4834C83.8318 66.2802 86.7798 69.3073 88.6504 71.2471C86.4189 72.6692 84.1972 73.9079 81.7695 75.2793L81.7285 75.3018L81.6904 75.3271C79.1437 76.98 75.2411 79.1347 71.9893 80.9951C71.7683 73.5626 72.1113 65.8177 72.1074 58.2959L72.1201 57.9512C72.1438 57.6538 72.1988 57.4878 72.2559 57.3721C72.2906 57.3016 72.3408 57.2233 72.4189 57.1279Z" fill="#FE68A5" stroke="black" stroke-width="3"/>
<path d="M115.375 154C118.05 159.946 122.918 163.061 129.438 163C145.188 162.853 144.062 143.875 144.062 143.875C144.062 143.875 142.938 159.062 155.875 162.438C162.246 164.099 170.284 160.477 173.312 153.438" stroke="black" stroke-width="3.375" stroke-linecap="round"/>
<path d="M133.021 137.242C128.195 128.571 141.314 129.185 146.164 129.307C151.943 129.452 162.08 129.625 156.503 137.979C153.61 142.312 150.929 144.016 146.009 145.327C145.967 146.181 145.931 147.036 145.9 147.891C145.712 153.345 147.156 155.628 150.8 159.526C150.11 159.703 150.246 159.673 149.617 159.594L148.94 160.588C146.817 158.334 146.228 157.035 144.959 154.3C139.747 164.605 129.554 168.917 119.112 161.593C117.74 160.63 114.335 156.547 115.686 154.897C117.129 155.135 118.63 158.014 119.996 159.38C122.433 161.806 125.751 163.153 129.198 163.114C133.206 163.103 137.026 161.425 139.734 158.485C143.844 154.094 143.768 150.836 143.572 145.494C139.336 143.934 135.2 141.105 133.021 137.242Z" fill="#080607"/>
<path d="M133.021 137.242C128.195 128.571 141.314 129.185 146.164 129.307C151.943 129.452 162.08 129.625 156.503 137.979C153.61 142.312 150.929 144.016 146.009 145.327C145.967 146.181 145.931 147.036 145.9 147.891C145.712 153.345 147.156 155.628 150.8 159.526C150.11 159.703 150.246 159.673 149.617 159.594L148.94 160.588C146.817 158.334 146.228 157.035 144.959 154.3C139.747 164.605 129.554 168.917 119.112 161.593C117.74 160.63 114.335 156.547 115.686 154.897C117.129 155.135 118.63 158.014 119.996 159.38C122.433 161.806 125.751 163.153 129.198 163.114C133.206 163.103 137.026 161.425 139.734 158.485C143.844 154.094 143.768 150.836 143.572 145.494C139.336 143.934 135.2 141.105 133.021 137.242Z" stroke="black"/>
<path d="M173.873 154.092C173.941 156.554 172.328 158.905 170.746 160.597C164.499 167.277 155.428 166.37 149.125 160.389L149.795 159.354C150.417 159.437 150.283 159.468 150.966 159.284C162.55 167.185 167.459 161.617 173.254 154C173.46 154.03 173.667 154.061 173.873 154.092Z" fill="#080607"/>
<path d="M173.873 154.092C173.941 156.554 172.328 158.905 170.746 160.597C164.499 167.277 155.428 166.37 149.125 160.389L149.795 159.354C150.417 159.437 150.283 159.468 150.966 159.284C162.55 167.185 167.459 161.617 173.254 154C173.46 154.03 173.667 154.061 173.873 154.092Z" stroke="black"/>
<path d="M12.332 213.062L-0.0429688 226.562L33 301.5L65.7695 312.625L270.5 317L303.707 225.375L306.207 205.5L298.895 195.438L293.582 193.375L284.582 196.188L275.582 204.625L263.207 215.875L253.082 218.125L244.645 212.5L236.77 202.938L228.332 196.188L219.895 193.375L213.707 196.188L198.52 210.812L191.207 215.875L183.895 217.562L174.895 213.625L164.77 205.75L154.082 201.812L143.395 203.5L129.895 213.625L122.02 217L114.145 216.438L108.52 211.938L102.895 201.812L96.1445 192.812L91.082 190L84.8945 191.125L79.2695 197.312L71.3945 211.938L65.7695 215.875H59.0195L52.832 210.812L47.7695 205.188L39.8945 201.812L28.6445 204.062L12.332 213.062Z" fill="#FCFCFD" stroke="#FCFCFD" stroke-width="1.125"/>
<path d="M-2.04297 224.438C-2.04297 224.438 22.0966 200.975 37.2415 200.975C54.207 200.975 51.442 215.613 62.694 215.211C77.2106 214.692 75.807 188.231 90.3127 189.017C104.052 189.762 101.94 211.446 115.224 215.211C130.402 219.512 137.428 200.216 153.132 200.975C167.059 201.648 172.225 215.371 186.166 215.211C203.399 215.012 207.634 189.34 224.615 192.434C237.796 194.835 238.31 211.266 251.151 215.211C270.871 221.268 283.957 179.375 302.957 196.875C308.544 202.021 306.957 218.375 306.957 218.375" stroke="black" stroke-width="3"/>
<mask id="path-28-outside-1_3683_1565" maskUnits="userSpaceOnUse" x="92.0508" y="285.375" width="116" height="44" fill="black">
<rect fill="white" x="92.0508" y="285.375" width="116" height="44"/>
<path d="M98.4878 308.932C98.4878 304.704 95.0426 299.745 95.3036 294.473C95.4602 291.393 96.974 288.313 100.419 288.313C102.298 288.313 104.23 289.253 105.117 291.027C106.579 293.951 104.125 297.083 103.395 299.118C102.664 301.52 103.342 304.86 105.326 305.539C105.535 305.591 105.796 305.643 106.005 305.643C108.719 305.643 111.799 300.893 111.851 297.709C111.851 293.742 112.008 288.365 117.175 288.365C120.255 288.365 121.926 290.244 122.187 294.055C122.604 299.275 118.846 306.165 109.241 307.888C113.521 308.306 117.906 309.35 120.777 313.16C123.805 317.284 123.283 325.375 121.351 325.375H114.409C111.903 325.375 113.521 319.946 111.277 315.927C110.233 313.995 108.51 312.638 107.153 312.638C106.005 312.638 105.117 313.682 105.222 316.24C105.378 319.946 107.623 325.375 103.603 325.375H95.9822C93.1112 325.375 98.4878 314.883 98.4878 308.932ZM141.147 299.379C140.468 298.962 139.737 298.805 138.954 298.805C136.814 298.805 134.622 300.267 133.682 302.564C133.056 304.025 132.795 307.731 135.248 309.141C136.24 309.715 137.075 309.924 137.858 309.924C139.581 309.924 140.781 308.932 141.721 308.932C142.086 308.932 142.399 309.089 142.713 309.506C143.391 310.498 142.504 311.281 139.528 314.361C136.501 317.545 140.416 320.573 143.6 320.573C144.226 320.573 144.801 320.468 145.323 320.207C149.812 317.963 146.367 311.385 148.089 310.237C148.35 310.028 148.559 309.976 148.768 309.976C149.551 309.976 150.177 311.229 152.161 312.899C153.048 313.682 153.883 313.995 154.614 313.995C157.798 313.995 159.312 308.306 155.502 307.627C151.639 306.948 150.282 307.418 150.125 306.009C150.021 304.443 155.763 302.25 155.293 298.701C155.084 297.239 153.622 295.256 151.378 295.256C150.751 295.256 150.073 295.412 149.342 295.778C144.54 298.283 149.655 304.965 145.845 304.965C143.965 304.965 144.487 301.467 141.147 299.379ZM146.21 325.897C139.946 325.897 134.152 323.235 130.707 317.858C126.27 311.072 127.627 301.259 133.212 294.159C136.135 290.505 141.094 288.313 146.106 288.313C154.092 288.313 162.183 293.794 162.235 307.366C162.288 322.922 153.779 325.897 146.21 325.897ZM175.931 325.375H170.45C165.856 325.375 169.719 314.726 169.719 309.245C169.719 303.973 167.526 300.058 167.84 295.83C168.101 291.602 170.658 288.835 174.417 288.835C176.714 288.835 181.986 289.931 184.805 289.931C187.519 289.931 191.956 288.835 194.827 288.835C197.072 288.835 200.204 289.253 201.717 290.192C207.512 293.742 203.544 306.061 203.544 312.012C203.544 314.935 204.432 318.432 204.432 321.408C204.432 323.235 204.119 325.375 202.031 325.375H197.228C194.775 325.375 194.409 323.13 194.409 320.938C194.409 318.276 195.662 311.49 196.497 306.948C197.75 300.371 196.863 296.822 193.783 296.665C193.731 296.665 193.626 296.665 193.574 296.665C190.912 296.665 189.555 299.379 189.764 303.973C190.129 311.803 194.148 325.323 187.415 325.323H184.074C180.733 325.323 183.291 320.259 183.03 315.77C182.821 312.951 181.881 309.402 183.082 302.825C183.708 299.014 182.925 297.083 180.994 296.456C180.576 296.3 180.107 296.247 179.689 296.247C177.705 296.247 175.983 297.761 175.931 301.206C175.878 304.599 181.725 325.375 175.931 325.375Z"/>
</mask>
<path d="M98.4878 308.932C98.4878 304.704 95.0426 299.745 95.3036 294.473C95.4602 291.393 96.974 288.313 100.419 288.313C102.298 288.313 104.23 289.253 105.117 291.027C106.579 293.951 104.125 297.083 103.395 299.118C102.664 301.52 103.342 304.86 105.326 305.539C105.535 305.591 105.796 305.643 106.005 305.643C108.719 305.643 111.799 300.893 111.851 297.709C111.851 293.742 112.008 288.365 117.175 288.365C120.255 288.365 121.926 290.244 122.187 294.055C122.604 299.275 118.846 306.165 109.241 307.888C113.521 308.306 117.906 309.35 120.777 313.16C123.805 317.284 123.283 325.375 121.351 325.375H114.409C111.903 325.375 113.521 319.946 111.277 315.927C110.233 313.995 108.51 312.638 107.153 312.638C106.005 312.638 105.117 313.682 105.222 316.24C105.378 319.946 107.623 325.375 103.603 325.375H95.9822C93.1112 325.375 98.4878 314.883 98.4878 308.932ZM141.147 299.379C140.468 298.962 139.737 298.805 138.954 298.805C136.814 298.805 134.622 300.267 133.682 302.564C133.056 304.025 132.795 307.731 135.248 309.141C136.24 309.715 137.075 309.924 137.858 309.924C139.581 309.924 140.781 308.932 141.721 308.932C142.086 308.932 142.399 309.089 142.713 309.506C143.391 310.498 142.504 311.281 139.528 314.361C136.501 317.545 140.416 320.573 143.6 320.573C144.226 320.573 144.801 320.468 145.323 320.207C149.812 317.963 146.367 311.385 148.089 310.237C148.35 310.028 148.559 309.976 148.768 309.976C149.551 309.976 150.177 311.229 152.161 312.899C153.048 313.682 153.883 313.995 154.614 313.995C157.798 313.995 159.312 308.306 155.502 307.627C151.639 306.948 150.282 307.418 150.125 306.009C150.021 304.443 155.763 302.25 155.293 298.701C155.084 297.239 153.622 295.256 151.378 295.256C150.751 295.256 150.073 295.412 149.342 295.778C144.54 298.283 149.655 304.965 145.845 304.965C143.965 304.965 144.487 301.467 141.147 299.379ZM146.21 325.897C139.946 325.897 134.152 323.235 130.707 317.858C126.27 311.072 127.627 301.259 133.212 294.159C136.135 290.505 141.094 288.313 146.106 288.313C154.092 288.313 162.183 293.794 162.235 307.366C162.288 322.922 153.779 325.897 146.21 325.897ZM175.931 325.375H170.45C165.856 325.375 169.719 314.726 169.719 309.245C169.719 303.973 167.526 300.058 167.84 295.83C168.101 291.602 170.658 288.835 174.417 288.835C176.714 288.835 181.986 289.931 184.805 289.931C187.519 289.931 191.956 288.835 194.827 288.835C197.072 288.835 200.204 289.253 201.717 290.192C207.512 293.742 203.544 306.061 203.544 312.012C203.544 314.935 204.432 318.432 204.432 321.408C204.432 323.235 204.119 325.375 202.031 325.375H197.228C194.775 325.375 194.409 323.13 194.409 320.938C194.409 318.276 195.662 311.49 196.497 306.948C197.75 300.371 196.863 296.822 193.783 296.665C193.731 296.665 193.626 296.665 193.574 296.665C190.912 296.665 189.555 299.379 189.764 303.973C190.129 311.803 194.148 325.323 187.415 325.323H184.074C180.733 325.323 183.291 320.259 183.03 315.77C182.821 312.951 181.881 309.402 183.082 302.825C183.708 299.014 182.925 297.083 180.994 296.456C180.576 296.3 180.107 296.247 179.689 296.247C177.705 296.247 175.983 297.761 175.931 301.206C175.878 304.599 181.725 325.375 175.931 325.375Z" fill="#FEABC8"/>
<path d="M95.3036 294.473L92.8068 294.346L92.8066 294.349L95.3036 294.473ZM105.117 291.027L107.353 289.909H107.353L105.117 291.027ZM103.395 299.118L101.042 298.274L101.021 298.332L101.003 298.39L103.395 299.118ZM105.326 305.539L104.517 307.904L104.617 307.939L104.72 307.964L105.326 305.539ZM111.851 297.709L114.351 297.75L114.351 297.729V297.709H111.851ZM122.187 294.055L119.692 294.226L119.693 294.24L119.695 294.254L122.187 294.055ZM109.241 307.888L108.8 305.427L108.998 310.376L109.241 307.888ZM120.777 313.16L122.792 311.681L122.783 311.668L122.774 311.656L120.777 313.16ZM111.277 315.927L109.078 317.116L109.086 317.131L109.094 317.146L111.277 315.927ZM105.222 316.24L102.724 316.342L102.724 316.346L105.222 316.24ZM98.4878 308.932H100.988C100.988 306.298 99.9255 303.517 99.1637 301.286C98.3289 298.841 97.6964 296.699 97.8005 294.596L95.3036 294.473L92.8066 294.349C92.6497 297.518 93.6094 300.492 94.4319 302.902C95.3275 305.525 95.9878 307.338 95.9878 308.932H98.4878ZM95.3036 294.473L97.8004 294.6C97.8626 293.376 98.192 292.347 98.6594 291.695C99.0575 291.14 99.5668 290.813 100.419 290.813V288.313V285.813C97.8264 285.813 95.8562 287.025 94.5969 288.78C93.407 290.439 92.9012 292.489 92.8068 294.346L95.3036 294.473ZM100.419 288.313V290.813C101.554 290.813 102.501 291.385 102.881 292.145L105.117 291.027L107.353 289.909C105.959 287.12 103.042 285.813 100.419 285.813V288.313ZM105.117 291.027L102.881 292.145C103.155 292.694 103.16 293.391 102.735 294.534C102.525 295.098 102.25 295.665 101.937 296.297C101.655 296.867 101.285 297.596 101.042 298.274L103.395 299.118L105.748 299.963C105.87 299.623 106.08 299.197 106.418 298.516C106.725 297.897 107.109 297.116 107.421 296.278C108.04 294.614 108.541 292.284 107.353 289.909L105.117 291.027ZM103.395 299.118L101.003 298.39C100.497 300.053 100.485 301.965 100.927 303.62C101.347 305.192 102.377 307.172 104.517 307.904L105.326 305.539L106.135 303.174C106.291 303.227 105.99 303.198 105.758 302.329C105.548 301.544 105.562 300.585 105.786 299.846L103.395 299.118ZM105.326 305.539L104.72 307.964C104.964 308.025 105.473 308.143 106.005 308.143V305.643V303.143C106.03 303.143 106.05 303.144 106.063 303.145C106.076 303.146 106.085 303.146 106.089 303.147C106.096 303.148 106.092 303.147 106.076 303.145C106.061 303.142 106.041 303.138 106.015 303.133C105.989 303.127 105.961 303.121 105.932 303.114L105.326 305.539ZM106.005 305.643V308.143C107.405 308.143 108.62 307.542 109.54 306.863C110.479 306.17 111.3 305.262 111.971 304.309C113.272 302.459 114.314 299.996 114.351 297.75L111.851 297.709L109.351 297.668C109.336 298.606 108.812 300.11 107.882 301.432C107.437 302.064 106.975 302.542 106.572 302.839C106.149 303.151 105.961 303.143 106.005 303.143V305.643ZM111.851 297.709H114.351C114.351 295.65 114.416 293.771 114.918 292.422C115.149 291.802 115.418 291.455 115.68 291.254C115.918 291.073 116.34 290.865 117.175 290.865V288.365V285.865C115.427 285.865 113.891 286.33 112.646 287.28C111.426 288.212 110.687 289.456 110.232 290.677C109.365 293.008 109.351 295.801 109.351 297.709H111.851ZM117.175 288.365V290.865C118.175 290.865 118.609 291.146 118.864 291.436C119.191 291.806 119.581 292.604 119.692 294.226L122.187 294.055L124.681 293.884C124.531 291.696 123.956 289.649 122.612 288.127C121.197 286.524 119.256 285.865 117.175 285.865V288.365ZM122.187 294.055L119.695 294.254C120.002 298.096 117.235 303.914 108.8 305.427L109.241 307.888L109.682 310.349C120.456 308.416 125.206 300.454 124.679 293.856L122.187 294.055ZM109.241 307.888L108.998 310.376C113.138 310.78 116.578 311.741 118.78 314.665L120.777 313.16L122.774 311.656C119.234 306.958 113.905 305.831 109.484 305.4L109.241 307.888ZM120.777 313.16L118.762 314.64C119.842 316.11 120.418 318.564 120.424 320.82C120.427 321.925 120.29 322.775 120.13 323.259C120.046 323.511 120.004 323.514 120.094 323.408C120.2 323.282 120.621 322.875 121.351 322.875V325.375V327.875C122.565 327.875 123.425 327.215 123.917 326.63C124.393 326.066 124.685 325.405 124.875 324.834C125.261 323.671 125.428 322.241 125.424 320.808C125.417 317.988 124.74 314.334 122.792 311.681L120.777 313.16ZM121.351 325.375V322.875H114.409V325.375V327.875H121.351V325.375ZM114.409 325.375V322.875C114.582 322.875 114.894 322.935 115.187 323.164C115.439 323.361 115.506 323.552 115.489 323.511C115.418 323.337 115.335 322.913 115.232 321.905C115.061 320.221 114.888 317.266 113.459 314.708L111.277 315.927L109.094 317.146C109.91 318.607 110.051 320.376 110.258 322.411C110.344 323.263 110.467 324.447 110.867 325.417C111.086 325.948 111.455 326.594 112.107 327.103C112.8 327.645 113.609 327.875 114.409 327.875V325.375ZM111.277 315.927L113.476 314.738C112.805 313.496 111.901 312.406 110.888 311.601C109.92 310.832 108.612 310.138 107.153 310.138V312.638V315.138C107.051 315.138 107.283 315.123 107.777 315.515C108.225 315.872 108.705 316.426 109.078 317.116L111.277 315.927ZM107.153 312.638V310.138C105.693 310.138 104.379 310.866 103.58 312.183C102.867 313.358 102.662 314.824 102.724 316.342L105.222 316.24L107.72 316.138C107.699 315.644 107.731 315.294 107.774 315.062C107.818 314.829 107.867 314.756 107.855 314.777C107.836 314.808 107.755 314.92 107.585 315.016C107.415 315.112 107.254 315.138 107.153 315.138V312.638ZM105.222 316.24L102.724 316.346C102.771 317.452 102.97 318.644 103.133 319.637C103.31 320.709 103.449 321.575 103.481 322.305C103.515 323.099 103.388 323.25 103.451 323.149C103.665 322.804 103.977 322.875 103.603 322.875V325.375V327.875C105.239 327.875 106.778 327.268 107.697 325.789C108.464 324.554 108.52 323.116 108.476 322.09C108.429 320.999 108.23 319.813 108.067 318.825C107.891 317.758 107.751 316.881 107.719 316.134L105.222 316.24ZM103.603 325.375V322.875H95.9822V325.375V327.875H103.603V325.375ZM95.9822 325.375V322.875C96.1915 322.875 96.5485 322.927 96.9168 323.171C97.2845 323.414 97.4766 323.725 97.5639 323.929C97.6915 324.227 97.6105 324.317 97.6517 323.875C97.7257 323.08 98.0513 321.818 98.5577 320.087C99.0335 318.462 99.6421 316.504 100.117 314.623C100.588 312.754 100.988 310.739 100.988 308.932H98.4878H95.9878C95.9878 310.101 95.7155 311.628 95.2685 313.4C94.8246 315.16 94.2685 316.942 93.759 318.683C93.2801 320.319 92.7999 322.052 92.6733 323.411C92.6141 324.045 92.5841 325.001 92.9672 325.896C93.1823 326.399 93.5532 326.941 94.1576 327.341C94.7625 327.741 95.414 327.875 95.9822 327.875V325.375ZM141.147 299.379L142.472 297.259L142.464 297.255L142.457 297.25L141.147 299.379ZM133.682 302.564L135.98 303.548L135.988 303.529L135.996 303.51L133.682 302.564ZM135.248 309.141L136.501 306.977L136.493 306.973L135.248 309.141ZM142.713 309.506L144.776 308.094L144.745 308.05L144.713 308.006L142.713 309.506ZM139.528 314.361L137.73 312.624L137.724 312.631L137.717 312.638L139.528 314.361ZM145.323 320.207L144.205 317.971H144.205L145.323 320.207ZM148.089 310.237L149.476 312.317L149.566 312.257L149.651 312.189L148.089 310.237ZM152.161 312.899L153.815 311.025L153.793 311.006L153.771 310.987L152.161 312.899ZM155.502 307.627L155.94 305.166L155.934 305.165L155.502 307.627ZM150.125 306.009L147.631 306.175L147.634 306.23L147.64 306.285L150.125 306.009ZM155.293 298.701L157.771 298.373L157.769 298.36L157.768 298.347L155.293 298.701ZM149.342 295.778L148.224 293.542L148.205 293.551L148.186 293.561L149.342 295.778ZM130.707 317.858L132.812 316.509L132.805 316.5L132.799 316.49L130.707 317.858ZM133.212 294.159L131.26 292.598L131.254 292.606L131.247 292.614L133.212 294.159ZM162.235 307.366L164.735 307.358V307.356L162.235 307.366ZM141.147 299.379L142.457 297.25C141.298 296.537 140.087 296.305 138.954 296.305V298.805V301.305C139.387 301.305 139.638 301.386 139.836 301.509L141.147 299.379ZM138.954 298.805V296.305C135.724 296.305 132.663 298.452 131.368 301.617L133.682 302.564L135.996 303.51C136.58 302.081 137.904 301.305 138.954 301.305V298.805ZM133.682 302.564L131.384 301.579C130.881 302.753 130.616 304.498 130.83 306.187C131.047 307.898 131.839 310.066 134.003 311.309L135.248 309.141L136.493 306.973C136.203 306.806 135.899 306.417 135.79 305.557C135.678 304.675 135.857 303.836 135.98 303.548L133.682 302.564ZM135.248 309.141L133.995 311.304C135.313 312.067 136.575 312.424 137.858 312.424V309.924V307.424C137.575 307.424 137.167 307.363 136.501 306.977L135.248 309.141ZM137.858 309.924V312.424C139.202 312.424 140.29 312.032 140.995 311.756C141.407 311.594 141.569 311.522 141.773 311.452C141.955 311.39 141.897 311.432 141.721 311.432V308.932V306.432C141.074 306.432 140.515 306.598 140.153 306.722C139.814 306.838 139.392 307.013 139.171 307.1C138.61 307.32 138.236 307.424 137.858 307.424V309.924ZM141.721 308.932V311.432C141.52 311.432 141.262 311.382 141.015 311.244C140.793 311.12 140.702 310.992 140.713 311.006L142.713 309.506L144.713 308.006C144.037 307.105 143.039 306.432 141.721 306.432V308.932ZM142.713 309.506L140.649 310.918C140.563 310.791 140.376 310.417 140.441 309.925C140.487 309.572 140.634 309.452 140.464 309.687C140.311 309.898 140.039 310.216 139.556 310.73C139.08 311.235 138.493 311.835 137.73 312.624L139.528 314.361L141.326 316.098C142.708 314.668 143.871 313.509 144.517 312.614C144.857 312.144 145.284 311.45 145.399 310.575C145.532 309.561 145.202 308.717 144.776 308.094L142.713 309.506ZM139.528 314.361L137.717 312.638C136.632 313.779 135.958 315.142 135.94 316.644C135.922 318.126 136.547 319.374 137.343 320.296C138.861 322.052 141.353 323.073 143.6 323.073V320.573V318.073C143.183 318.073 142.679 317.969 142.191 317.757C141.699 317.543 141.336 317.268 141.126 317.026C141.026 316.91 140.978 316.822 140.957 316.771C140.938 316.725 140.939 316.707 140.939 316.705C140.939 316.702 140.94 316.693 140.944 316.675C140.948 316.658 140.957 316.626 140.979 316.578C141.022 316.483 141.121 316.314 141.34 316.083L139.528 314.361ZM143.6 320.573V323.073C144.505 323.073 145.485 322.921 146.441 322.443L145.323 320.207L144.205 317.971C144.116 318.015 143.948 318.073 143.6 318.073V320.573ZM145.323 320.207L146.441 322.443C150.147 320.59 150.33 316.881 150.241 314.709C150.218 314.131 150.17 313.568 150.132 313.103C150.093 312.61 150.065 312.24 150.061 311.931C150.057 311.605 150.084 311.516 150.073 311.555C150.056 311.62 149.93 312.014 149.476 312.317L148.089 310.237L146.702 308.157C145.818 308.747 145.423 309.598 145.246 310.251C145.077 310.878 145.055 311.509 145.062 311.996C145.068 312.501 145.111 313.037 145.149 313.506C145.189 314.002 145.227 314.456 145.245 314.913C145.326 316.878 144.988 317.58 144.205 317.971L145.323 320.207ZM148.089 310.237L149.651 312.189C149.604 312.227 149.479 312.315 149.28 312.386C149.072 312.459 148.886 312.476 148.768 312.476V309.976V307.476C147.985 307.476 147.226 307.726 146.527 308.285L148.089 310.237ZM148.768 309.976V312.476C148.246 312.476 147.925 312.253 147.891 312.228C147.885 312.224 147.958 312.28 148.213 312.545C148.661 313.011 149.431 313.869 150.55 314.811L152.161 312.899L153.771 310.987C152.907 310.259 152.372 309.656 151.815 309.078C151.568 308.82 151.213 308.459 150.808 308.167C150.374 307.856 149.681 307.476 148.768 307.476V309.976ZM152.161 312.899L150.507 314.774C151.728 315.852 153.129 316.495 154.614 316.495V313.995V311.495C154.613 311.495 154.556 311.497 154.431 311.443C154.302 311.388 154.092 311.27 153.815 311.025L152.161 312.899ZM154.614 313.995V316.495C157.845 316.495 159.7 313.73 160.133 311.554C160.369 310.37 160.301 308.969 159.611 307.708C158.877 306.366 157.581 305.458 155.94 305.166L155.502 307.627L155.063 310.088C155.224 310.117 155.272 310.155 155.261 310.148C155.248 310.139 155.232 310.12 155.225 310.109C155.224 310.106 155.293 310.254 155.229 310.577C155.166 310.893 155.01 311.179 154.842 311.351C154.691 311.506 154.616 311.495 154.614 311.495V313.995ZM155.502 307.627L155.934 305.165C154.893 304.982 154.025 304.877 153.325 304.801C152.572 304.719 152.166 304.683 151.844 304.628C151.489 304.567 151.72 304.55 152.033 304.795C152.502 305.164 152.599 305.639 152.61 305.733L150.125 306.009L147.64 306.285C147.729 307.084 148.055 308.028 148.943 308.726C149.675 309.301 150.517 309.473 151.003 309.556C151.523 309.645 152.19 309.707 152.783 309.771C153.429 309.842 154.178 309.933 155.069 310.089L155.502 307.627ZM150.125 306.009L152.619 305.843C152.659 306.435 152.41 306.787 152.409 306.788C152.398 306.805 152.45 306.729 152.659 306.534C153.18 306.049 153.589 305.766 154.488 304.984C155.217 304.349 156.103 303.507 156.769 302.476C157.459 301.408 157.988 300.013 157.771 298.373L155.293 298.701L152.814 299.029C152.832 299.164 152.82 299.374 152.568 299.764C152.293 300.191 151.839 300.661 151.204 301.213C150.739 301.618 149.761 302.4 149.25 302.877C148.943 303.163 148.567 303.543 148.263 303.993C147.971 304.428 147.565 305.191 147.631 306.175L150.125 306.009ZM155.293 298.701L157.768 298.347C157.581 297.037 156.889 295.695 155.875 294.671C154.824 293.61 153.286 292.756 151.378 292.756V295.256V297.756C151.714 297.756 152.029 297.893 152.322 298.189C152.652 298.522 152.796 298.903 152.818 299.054L155.293 298.701ZM151.378 295.256V292.756C150.319 292.756 149.26 293.023 148.224 293.542L149.342 295.778L150.46 298.014C150.885 297.801 151.183 297.756 151.378 297.756V295.256ZM149.342 295.778L148.186 293.561C146.316 294.537 145.307 296.026 144.886 297.639C144.506 299.098 144.633 300.573 144.734 301.564C144.792 302.133 144.84 302.508 144.865 302.886C144.877 303.058 144.88 303.186 144.878 303.281C144.875 303.378 144.868 303.41 144.871 303.398C144.876 303.368 144.956 303.021 145.329 302.722C145.687 302.435 145.978 302.465 145.845 302.465V304.965V307.465C146.664 307.465 147.629 307.286 148.455 306.624C149.297 305.95 149.639 305.06 149.776 304.366C149.906 303.705 149.887 303.047 149.854 302.551C149.821 302.059 149.752 301.48 149.708 301.057C149.607 300.065 149.594 299.4 149.724 298.901C149.814 298.557 149.967 298.271 150.498 297.994L149.342 295.778ZM145.845 304.965V302.465C146.373 302.465 146.73 302.808 146.795 302.896C146.797 302.898 146.784 302.881 146.758 302.835C146.731 302.789 146.697 302.726 146.653 302.637C146.555 302.439 146.464 302.235 146.315 301.911C145.748 300.678 144.79 298.709 142.472 297.259L141.147 299.379L139.822 301.499C140.844 302.138 141.295 302.961 141.772 303.999C141.965 304.419 142.314 305.248 142.78 305.876C143.38 306.685 144.377 307.465 145.845 307.465V304.965ZM146.21 325.897V323.397C140.661 323.397 135.728 321.061 132.812 316.509L130.707 317.858L128.602 319.207C132.576 325.409 139.231 328.397 146.21 328.397V325.897ZM130.707 317.858L132.799 316.49C129.101 310.834 130.066 302.201 135.177 295.705L133.212 294.159L131.247 292.614C125.187 300.316 123.439 311.311 128.614 319.226L130.707 317.858ZM133.212 294.159L135.164 295.721C137.557 292.73 141.759 290.813 146.106 290.813V288.313V285.813C140.43 285.813 134.714 288.28 131.26 292.598L133.212 294.159ZM146.106 288.313V290.813C149.534 290.813 152.877 291.985 155.367 294.506C157.841 297.012 159.711 301.096 159.735 307.376L162.235 307.366L164.735 307.356C164.707 300.064 162.506 294.621 158.925 290.994C155.359 287.382 150.663 285.813 146.106 285.813V288.313ZM162.235 307.366L159.735 307.374C159.76 314.709 157.776 318.531 155.433 320.585C153.027 322.694 149.731 323.397 146.21 323.397V325.897V328.397C150.258 328.397 155.001 327.612 158.729 324.345C162.519 321.022 164.763 315.579 164.735 307.358L162.235 307.366ZM167.84 295.83L170.333 296.014L170.334 295.999L170.335 295.984L167.84 295.83ZM201.717 290.192L200.399 292.316L200.405 292.32L200.411 292.324L201.717 290.192ZM196.497 306.948L194.042 306.481L194.04 306.488L194.039 306.496L196.497 306.948ZM193.783 296.665L193.91 294.168L193.846 294.165H193.783V296.665ZM189.764 303.973L187.266 304.087L187.266 304.09L189.764 303.973ZM183.03 315.77L185.526 315.625L185.524 315.605L185.523 315.586L183.03 315.77ZM183.082 302.825L185.541 303.274L185.545 303.252L185.549 303.23L183.082 302.825ZM180.994 296.456L180.116 298.797L180.169 298.817L180.223 298.834L180.994 296.456ZM175.931 301.206L178.43 301.245L178.43 301.244L175.931 301.206ZM175.931 325.375V322.875H170.45V325.375V327.875H175.931V325.375ZM170.45 325.375V322.875C170.394 322.875 170.581 322.876 170.776 323.052C170.923 323.185 170.883 323.25 170.816 322.992C170.661 322.402 170.651 321.312 170.845 319.656C171.031 318.059 171.352 316.323 171.654 314.483C171.942 312.728 172.219 310.846 172.219 309.245H169.719H167.219C167.219 310.385 167.013 311.89 166.72 313.673C166.441 315.371 166.083 317.325 165.878 319.075C165.681 320.766 165.566 322.681 165.979 324.259C166.195 325.085 166.608 326.025 167.423 326.761C168.286 327.541 169.356 327.875 170.45 327.875V325.375ZM169.719 309.245H172.219C172.219 306.278 171.598 303.711 171.095 301.574C170.573 299.349 170.209 297.684 170.333 296.014L167.84 295.83L165.346 295.645C165.157 298.203 165.733 300.61 166.228 302.718C166.744 304.913 167.219 306.94 167.219 309.245H169.719ZM167.84 295.83L170.335 295.984C170.437 294.328 170.973 293.17 171.642 292.455C172.285 291.768 173.191 291.335 174.417 291.335V288.835V286.335C171.884 286.335 169.632 287.286 167.991 289.039C166.376 290.764 165.503 293.103 165.344 295.676L167.84 295.83ZM174.417 288.835V291.335C175.343 291.335 177.005 291.57 179.068 291.859C180.966 292.125 183.183 292.431 184.805 292.431V289.931V287.431C183.608 287.431 181.779 287.19 179.762 286.907C177.909 286.648 175.787 286.335 174.417 286.335V288.835ZM184.805 289.931V292.431C186.394 292.431 188.399 292.118 190.132 291.855C192 291.572 193.62 291.335 194.827 291.335V288.835V286.335C193.163 286.335 191.129 286.646 189.382 286.911C187.5 287.197 185.929 287.431 184.805 287.431V289.931ZM194.827 288.835V291.335C195.813 291.335 197.01 291.428 198.11 291.623C199.278 291.83 200.056 292.104 200.399 292.316L201.717 290.192L203.036 288.068C201.865 287.341 200.32 286.937 198.982 286.7C197.576 286.451 196.086 286.335 194.827 286.335V288.835ZM201.717 290.192L200.411 292.324C201.134 292.767 201.685 293.538 202.024 294.876C202.373 296.252 202.436 298.009 202.309 300.045C202.182 302.067 201.882 304.174 201.597 306.251C201.322 308.252 201.044 310.319 201.044 312.012H203.544H206.044C206.044 310.729 206.263 309.025 206.55 306.932C206.828 304.914 207.158 302.604 207.299 300.358C207.439 298.127 207.408 295.766 206.871 293.648C206.324 291.492 205.198 289.392 203.023 288.06L201.717 290.192ZM203.544 312.012H201.044C201.044 313.678 201.296 315.463 201.511 317.031C201.739 318.682 201.932 320.123 201.932 321.408H204.432H206.932C206.932 319.717 206.681 317.922 206.465 316.349C206.237 314.694 206.044 313.269 206.044 312.012H203.544ZM204.432 321.408H201.932C201.932 321.801 201.914 322.156 201.873 322.463C201.83 322.778 201.772 322.967 201.73 323.061C201.692 323.146 201.708 323.067 201.84 322.973C201.992 322.865 202.103 322.875 202.031 322.875V325.375V327.875C203.003 327.875 203.935 327.617 204.733 327.051C205.512 326.499 205.997 325.771 206.299 325.092C206.865 323.818 206.932 322.373 206.932 321.408H204.432ZM202.031 325.375V322.875H197.228V325.375V327.875H202.031V325.375ZM197.228 325.375V322.875C197.007 322.875 197.015 322.829 197.108 322.889C197.197 322.947 197.199 322.995 197.156 322.903C197.103 322.793 197.032 322.576 196.981 322.21C196.93 321.85 196.909 321.426 196.909 320.938H194.409H191.909C191.909 322.069 191.984 323.674 192.642 325.054C192.996 325.798 193.55 326.544 194.397 327.091C195.249 327.64 196.222 327.875 197.228 327.875V325.375ZM194.409 320.938H196.909C196.909 319.841 197.185 317.677 197.608 315.045C198.021 312.481 198.537 309.677 198.956 307.401L196.497 306.948L194.039 306.496C193.622 308.761 193.095 311.621 192.672 314.251C192.26 316.812 191.909 319.373 191.909 320.938H194.409ZM196.497 306.948L198.953 307.416C199.598 304.03 199.778 301.049 199.184 298.769C198.878 297.591 198.325 296.448 197.376 295.574C196.395 294.67 195.183 294.233 193.91 294.168L193.783 296.665L193.656 299.162C193.922 299.175 193.977 299.241 193.989 299.252C194.033 299.293 194.202 299.477 194.346 300.029C194.652 301.207 194.649 303.29 194.042 306.481L196.497 306.948ZM193.783 296.665V294.165C193.783 294.165 193.783 294.165 193.783 294.165C193.783 294.165 193.782 294.165 193.782 294.165C193.782 294.165 193.782 294.165 193.782 294.165C193.782 294.165 193.782 294.165 193.782 294.165C193.782 294.165 193.782 294.165 193.781 294.165C193.781 294.165 193.781 294.165 193.781 294.165C193.781 294.165 193.781 294.165 193.781 294.165C193.781 294.165 193.781 294.165 193.78 294.165C193.78 294.165 193.78 294.165 193.78 294.165C193.78 294.165 193.78 294.165 193.78 294.165C193.78 294.165 193.78 294.165 193.78 294.165C193.779 294.165 193.779 294.165 193.779 294.165C193.779 294.165 193.779 294.165 193.779 294.165C193.779 294.165 193.779 294.165 193.779 294.165C193.778 294.165 193.778 294.165 193.778 294.165C193.778 294.165 193.778 294.165 193.778 294.165C193.778 294.165 193.778 294.165 193.778 294.165C193.777 294.165 193.777 294.165 193.777 294.165C193.777 294.165 193.777 294.165 193.777 294.165C193.777 294.165 193.777 294.165 193.777 294.165C193.777 294.165 193.776 294.165 193.776 294.165C193.776 294.165 193.776 294.165 193.776 294.165C193.776 294.165 193.776 294.165 193.776 294.165C193.776 294.165 193.775 294.165 193.775 294.165C193.775 294.165 193.775 294.165 193.775 294.165C193.775 294.165 193.775 294.165 193.775 294.165C193.775 294.165 193.774 294.165 193.774 294.165C193.774 294.165 193.774 294.165 193.774 294.165C193.774 294.165 193.774 294.165 193.774 294.165C193.773 294.165 193.773 294.165 193.773 294.165C193.773 294.165 193.773 294.165 193.773 294.165C193.773 294.165 193.773 294.165 193.773 294.165C193.772 294.165 193.772 294.165 193.772 294.165C193.772 294.165 193.772 294.165 193.772 294.165C193.772 294.165 193.772 294.165 193.772 294.165C193.771 294.165 193.771 294.165 193.771 294.165C193.771 294.165 193.771 294.165 193.771 294.165C193.771 294.165 193.771 294.165 193.771 294.165C193.77 294.165 193.77 294.165 193.77 294.165C193.77 294.165 193.77 294.165 193.77 294.165C193.77 294.165 193.77 294.165 193.769 294.165C193.769 294.165 193.769 294.165 193.769 294.165C193.769 294.165 193.769 294.165 193.769 294.165C193.769 294.165 193.769 294.165 193.768 294.165C193.768 294.165 193.768 294.165 193.768 294.165C193.768 294.165 193.768 294.165 193.768 294.165C193.768 294.165 193.767 294.165 193.767 294.165C193.767 294.165 193.767 294.165 193.767 294.165C193.767 294.165 193.767 294.165 193.767 294.165C193.767 294.165 193.766 294.165 193.766 294.165C193.766 294.165 193.766 294.165 193.766 294.165C193.766 294.165 193.766 294.165 193.766 294.165C193.765 294.165 193.765 294.165 193.765 294.165C193.765 294.165 193.765 294.165 193.765 294.165C193.765 294.165 193.765 294.165 193.764 294.165C193.764 294.165 193.764 294.165 193.764 294.165C193.764 294.165 193.764 294.165 193.764 294.165C193.764 294.165 193.763 294.165 193.763 294.165C193.763 294.165 193.763 294.165 193.763 294.165C193.763 294.165 193.763 294.165 193.763 294.165C193.763 294.165 193.762 294.165 193.762 294.165C193.762 294.165 193.762 294.165 193.762 294.165C193.762 294.165 193.762 294.165 193.762 294.165C193.761 294.165 193.761 294.165 193.761 294.165C193.761 294.165 193.761 294.165 193.761 294.165C193.761 294.165 193.761 294.165 193.76 294.165C193.76 294.165 193.76 294.165 193.76 294.165C193.76 294.165 193.76 294.165 193.76 294.165C193.76 294.165 193.759 294.165 193.759 294.165C193.759 294.165 193.759 294.165 193.759 294.165C193.759 294.165 193.759 294.165 193.759 294.165C193.758 294.165 193.758 294.165 193.758 294.165C193.758 294.165 193.758 294.165 193.758 294.165C193.758 294.165 193.757 294.165 193.757 294.165C193.757 294.165 193.757 294.165 193.757 294.165C193.757 294.165 193.757 294.165 193.757 294.165C193.756 294.165 193.756 294.165 193.756 294.165C193.756 294.165 193.756 294.165 193.756 294.165C193.756 294.165 193.756 294.165 193.755 294.165C193.755 294.165 193.755 294.165 193.755 294.165C193.755 294.165 193.755 294.165 193.755 294.165C193.755 294.165 193.754 294.165 193.754 294.165C193.754 294.165 193.754 294.165 193.754 294.165C193.754 294.165 193.754 294.165 193.754 294.165C193.753 294.165 193.753 294.165 193.753 294.165C193.753 294.165 193.753 294.165 193.753 294.165C193.753 294.165 193.752 294.165 193.752 294.165C193.752 294.165 193.752 294.165 193.752 294.165C193.752 294.165 193.752 294.165 193.752 294.165C193.751 294.165 193.751 294.165 193.751 294.165C193.751 294.165 193.751 294.165 193.751 294.165C193.751 294.165 193.751 294.165 193.75 294.165C193.75 294.165 193.75 294.165 193.75 294.165C193.75 294.165 193.75 294.165 193.75 294.165C193.749 294.165 193.749 294.165 193.749 294.165C193.749 294.165 193.749 294.165 193.749 294.165C193.749 294.165 193.749 294.165 193.748 294.165C193.748 294.165 193.748 294.165 193.748 294.165C193.748 294.165 193.748 294.165 193.748 294.165C193.747 294.165 193.747 294.165 193.747 294.165C193.747 294.165 193.747 294.165 193.747 294.165C193.747 294.165 193.747 294.165 193.746 294.165C193.746 294.165 193.746 294.165 193.746 294.165C193.746 294.165 193.746 294.165 193.746 294.165C193.745 294.165 193.745 294.165 193.745 294.165C193.745 294.165 193.745 294.165 193.745 294.165C193.745 294.165 193.744 294.165 193.744 294.165C193.744 294.165 193.744 294.165 193.744 294.165C193.744 294.165 193.744 294.165 193.744 294.165C193.743 294.165 193.743 294.165 193.743 294.165C193.743 294.165 193.743 294.165 193.743 294.165C193.743 294.165 193.742 294.165 193.742 294.165C193.742 294.165 193.742 294.165 193.742 294.165C193.742 294.165 193.742 294.165 193.741 294.165C193.741 294.165 193.741 294.165 193.741 294.165C193.741 294.165 193.741 294.165 193.741 294.165C193.741 294.165 193.74 294.165 193.74 294.165C193.74 294.165 193.74 294.165 193.74 294.165C193.74 294.165 193.74 294.165 193.739 294.165C193.739 294.165 193.739 294.165 193.739 294.165C193.739 294.165 193.739 294.165 193.739 294.165C193.738 294.165 193.738 294.165 193.738 294.165C193.738 294.165 193.738 294.165 193.738 294.165C193.738 294.165 193.737 294.165 193.737 294.165C193.737 294.165 193.737 294.165 193.737 294.165C193.737 294.165 193.737 294.165 193.736 294.165C193.736 294.165 193.736 294.165 193.736 294.165C193.736 294.165 193.736 294.165 193.736 294.165C193.736 294.165 193.735 294.165 193.735 294.165C193.735 294.165 193.735 294.165 193.735 294.165C193.735 294.165 193.735 294.165 193.734 294.165C193.734 294.165 193.734 294.165 193.734 294.165C193.734 294.165 193.734 294.165 193.734 294.165C193.733 294.165 193.733 294.165 193.733 294.165C193.733 294.165 193.733 294.165 193.733 294.165C193.733 294.165 193.732 294.165 193.732 294.165C193.732 294.165 193.732 294.165 193.732 294.165C193.732 294.165 193.732 294.165 193.731 294.165C193.731 294.165 193.731 294.165 193.731 294.165C193.731 294.165 193.731 294.165 193.731 294.165C193.73 294.165 193.73 294.165 193.73 294.165C193.73 294.165 193.73 294.165 193.73 294.165C193.73 294.165 193.729 294.165 193.729 294.165C193.729 294.165 193.729 294.165 193.729 294.165C193.729 294.165 193.729 294.165 193.728 294.165C193.728 294.165 193.728 294.165 193.728 294.165C193.728 294.165 193.728 294.165 193.728 294.165C193.727 294.165 193.727 294.165 193.727 294.165C193.727 294.165 193.727 294.165 193.727 294.165C193.727 294.165 193.726 294.165 193.726 294.165C193.726 294.165 193.726 294.165 193.726 294.165C193.726 294.165 193.726 294.165 193.725 294.165C193.725 294.165 193.725 294.165 193.725 294.165C193.725 294.165 193.725 294.165 193.725 294.165C193.724 294.165 193.724 294.165 193.724 294.165C193.724 294.165 193.724 294.165 193.724 294.165C193.724 294.165 193.723 294.165 193.723 294.165C193.723 294.165 193.723 294.165 193.723 294.165C193.723 294.165 193.723 294.165 193.722 294.165C193.722 294.165 193.722 294.165 193.722 294.165C193.722 294.165 193.722 294.165 193.721 294.165C193.721 294.165 193.721 294.165 193.721 294.165C193.721 294.165 193.721 294.165 193.721 294.165C193.72 294.165 193.72 294.165 193.72 294.165C193.72 294.165 193.72 294.165 193.72 294.165C193.72 294.165 193.719 294.165 193.719 294.165C193.719 294.165 193.719 294.165 193.719 294.165C193.719 294.165 193.719 294.165 193.718 294.165C193.718 294.165 193.718 294.165 193.718 294.165C193.718 294.165 193.718 294.165 193.718 294.165C193.717 294.165 193.717 294.165 193.717 294.165C193.717 294.165 193.717 294.165 193.717 294.165C193.716 294.165 193.716 294.165 193.716 294.165C193.716 294.165 193.716 294.165 193.716 294.165C193.716 294.165 193.715 294.165 193.715 294.165C193.715 294.165 193.715 294.165 193.715 294.165C193.715 294.165 193.715 294.165 193.714 294.165C193.714 294.165 193.714 294.165 193.714 294.165C193.714 294.165 193.714 294.165 193.714 294.165C193.713 294.165 193.713 294.165 193.713 294.165C193.713 294.165 193.713 294.165 193.713 294.165C193.712 294.165 193.712 294.165 193.712 294.165C193.712 294.165 193.712 294.165 193.712 294.165C193.712 294.165 193.711 294.165 193.711 294.165C193.711 294.165 193.711 294.165 193.711 294.165C193.711 294.165 193.711 294.165 193.71 294.165C193.71 294.165 193.71 294.165 193.71 294.165C193.71 294.165 193.71 294.165 193.71 294.165C193.709 294.165 193.709 294.165 193.709 294.165C193.709 294.165 193.709 294.165 193.709 294.165C193.708 294.165 193.708 294.165 193.708 294.165C193.708 294.165 193.708 294.165 193.708 294.165C193.708 294.165 193.707 294.165 193.707 294.165C193.707 294.165 193.707 294.165 193.707 294.165C193.707 294.165 193.707 294.165 193.706 294.165C193.706 294.165 193.706 294.165 193.706 294.165C193.706 294.165 193.706 294.165 193.705 294.165C193.705 294.165 193.705 294.165 193.705 294.165C193.705 294.165 193.705 294.165 193.705 294.165C193.704 294.165 193.704 294.165 193.704 294.165C193.704 294.165 193.704 294.165 193.704 294.165C193.704 294.165 193.703 294.165 193.703 294.165C193.703 294.165 193.703 294.165 193.703 294.165C193.703 294.165 193.702 294.165 193.702 294.165C193.702 294.165 193.702 294.165 193.702 294.165C193.702 294.165 193.702 294.165 193.701 294.165C193.701 294.165 193.701 294.165 193.701 294.165C193.701 294.165 193.701 294.165 193.701 294.165C193.7 294.165 193.7 294.165 193.7 294.165C193.7 294.165 193.7 294.165 193.7 294.165C193.699 294.165 193.699 294.165 193.699 294.165C193.699 294.165 193.699 294.165 193.699 294.165C193.699 294.165 193.698 294.165 193.698 294.165C193.698 294.165 193.698 294.165 193.698 294.165C193.698 294.165 193.697 294.165 193.697 294.165C193.697 294.165 193.697 294.165 193.697 294.165C193.697 294.165 193.697 294.165 193.696 294.165C193.696 294.165 193.696 294.165 193.696 294.165C193.696 294.165 193.696 294.165 193.695 294.165C193.695 294.165 193.695 294.165 193.695 294.165C193.695 294.165 193.695 294.165 193.695 294.165C193.694 294.165 193.694 294.165 193.694 294.165C193.694 294.165 193.694 294.165 193.694 294.165C193.694 294.165 193.693 294.165 193.693 294.165C193.693 294.165 193.693 294.165 193.693 294.165C193.693 294.165 193.692 294.165 193.692 294.165C193.692 294.165 193.692 294.165 193.692 294.165C193.692 294.165 193.692 294.165 193.691 294.165C193.691 294.165 193.691 294.165 193.691 294.165C193.691 294.165 193.691 294.165 193.69 294.165C193.69 294.165 193.69 294.165 193.69 294.165C193.69 294.165 193.69 294.165 193.69 294.165C193.689 294.165 193.689 294.165 193.689 294.165C193.689 294.165 193.689 294.165 193.689 294.165C193.688 294.165 193.688 294.165 193.688 294.165C193.688 294.165 193.688 294.165 193.688 294.165C193.688 294.165 193.687 294.165 193.687 294.165C193.687 294.165 193.687 294.165 193.687 294.165C193.687 294.165 193.687 294.165 193.686 294.165C193.686 294.165 193.686 294.165 193.686 294.165C193.686 294.165 193.686 294.165 193.685 294.165C193.685 294.165 193.685 294.165 193.685 294.165C193.685 294.165 193.685 294.165 193.685 294.165C193.684 294.165 193.684 294.165 193.684 294.165C193.684 294.165 193.684 294.165 193.684 294.165C193.683 294.165 193.683 294.165 193.683 294.165C193.683 294.165 193.683 294.165 193.683 294.165C193.683 294.165 193.682 294.165 193.682 294.165C193.682 294.165 193.682 294.165 193.682 294.165C193.682 294.165 193.681 294.165 193.681 294.165C193.681 294.165 193.681 294.165 193.681 294.165C193.681 294.165 193.681 294.165 193.68 294.165C193.68 294.165 193.68 294.165 193.68 294.165C193.68 294.165 193.68 294.165 193.679 294.165C193.679 294.165 193.679 294.165 193.679 294.165C193.679 294.165 193.679 294.165 193.679 294.165C193.678 294.165 193.678 294.165 193.678 294.165C193.678 294.165 193.678 294.165 193.678 294.165C193.677 294.165 193.677 294.165 193.677 294.165C193.677 294.165 193.677 294.165 193.677 294.165C193.677 294.165 193.676 294.165 193.676 294.165C193.676 294.165 193.676 294.165 193.676 294.165C193.676 294.165 193.676 294.165 193.675 294.165C193.675 294.165 193.675 294.165 193.675 294.165C193.675 294.165 193.675 294.165 193.674 294.165C193.674 294.165 193.674 294.165 193.674 294.165C193.674 294.165 193.674 294.165 193.674 294.165C193.673 294.165 193.673 294.165 193.673 294.165C193.673 294.165 193.673 294.165 193.673 294.165C193.672 294.165 193.672 294.165 193.672 294.165C193.672 294.165 193.672 294.165 193.672 294.165C193.672 294.165 193.671 294.165 193.671 294.165C193.671 294.165 193.671 294.165 193.671 294.165C193.671 294.165 193.67 294.165 193.67 294.165C193.67 294.165 193.67 294.165 193.67 294.165C193.67 294.165 193.67 294.165 193.669 294.165C193.669 294.165 193.669 294.165 193.669 294.165C193.669 294.165 193.669 294.165 193.668 294.165C193.668 294.165 193.668 294.165 193.668 294.165C193.668 294.165 193.668 294.165 193.668 294.165C193.667 294.165 193.667 294.165 193.667 294.165C193.667 294.165 193.667 294.165 193.667 294.165C193.666 294.165 193.666 294.165 193.666 294.165C193.666 294.165 193.666 294.165 193.666 294.165C193.666 294.165 193.665 294.165 193.665 294.165C193.665 294.165 193.665 294.165 193.665 294.165C193.665 294.165 193.665 294.165 193.664 294.165C193.664 294.165 193.664 294.165 193.664 294.165C193.664 294.165 193.664 294.165 193.663 294.165C193.663 294.165 193.663 294.165 193.663 294.165C193.663 294.165 193.663 294.165 193.663 294.165C193.662 294.165 193.662 294.165 193.662 294.165C193.662 294.165 193.662 294.165 193.662 294.165C193.661 294.165 193.661 294.165 193.661 294.165C193.661 294.165 193.661 294.165 193.661 294.165C193.661 294.165 193.66 294.165 193.66 294.165C193.66 294.165 193.66 294.165 193.66 294.165C193.66 294.165 193.66 294.165 193.659 294.165C193.659 294.165 193.659 294.165 193.659 294.165C193.659 294.165 193.659 294.165 193.658 294.165C193.658 294.165 193.658 294.165 193.658 294.165C193.658 294.165 193.658 294.165 193.658 294.165C193.657 294.165 193.657 294.165 193.657 294.165C193.657 294.165 193.657 294.165 193.657 294.165C193.656 294.165 193.656 294.165 193.656 294.165C193.656 294.165 193.656 294.165 193.656 294.165C193.656 294.165 193.655 294.165 193.655 294.165C193.655 294.165 193.655 294.165 193.655 294.165C193.655 294.165 193.655 294.165 193.654 294.165C193.654 294.165 193.654 294.165 193.654 294.165C193.654 294.165 193.654 294.165 193.653 294.165C193.653 294.165 193.653 294.165 193.653 294.165C193.653 294.165 193.653 294.165 193.653 294.165C193.652 294.165 193.652 294.165 193.652 294.165C193.652 294.165 193.652 294.165 193.652 294.165C193.652 294.165 193.651 294.165 193.651 294.165C193.651 294.165 193.651 294.165 193.651 294.165C193.651 294.165 193.65 294.165 193.65 294.165C193.65 294.165 193.65 294.165 193.65 294.165C193.65 294.165 193.65 294.165 193.649 294.165C193.649 294.165 193.649 294.165 193.649 294.165C193.649 294.165 193.649 294.165 193.649 294.165C193.648 294.165 193.648 294.165 193.648 294.165C193.648 294.165 193.648 294.165 193.648 294.165C193.647 294.165 193.647 294.165 193.647 294.165C193.647 294.165 193.647 294.165 193.647 294.165C193.647 294.165 193.646 294.165 193.646 294.165C193.646 294.165 193.646 294.165 193.646 294.165C193.646 294.165 193.646 294.165 193.645 294.165C193.645 294.165 193.645 294.165 193.645 294.165C193.645 294.165 193.645 294.165 193.644 294.165C193.644 294.165 193.644 294.165 193.644 294.165C193.644 294.165 193.644 294.165 193.644 294.165C193.643 294.165 193.643 294.165 193.643 294.165C193.643 294.165 193.643 294.165 193.643 294.165C193.643 294.165 193.642 294.165 193.642 294.165C193.642 294.165 193.642 294.165 193.642 294.165C193.642 294.165 193.642 294.165 193.641 294.165C193.641 294.165 193.641 294.165 193.641 294.165C193.641 294.165 193.641 294.165 193.64 294.165C193.64 294.165 193.64 294.165 193.64 294.165C193.64 294.165 193.64 294.165 193.64 294.165C193.639 294.165 193.639 294.165 193.639 294.165C193.639 294.165 193.639 294.165 193.639 294.165C193.639 294.165 193.638 294.165 193.638 294.165C193.638 294.165 193.638 294.165 193.638 294.165C193.638 294.165 193.638 294.165 193.637 294.165C193.637 294.165 193.637 294.165 193.637 294.165C193.637 294.165 193.637 294.165 193.637 294.165C193.636 294.165 193.636 294.165 193.636 294.165C193.636 294.165 193.636 294.165 193.636 294.165C193.635 294.165 193.635 294.165 193.635 294.165C193.635 294.165 193.635 294.165 193.635 294.165C193.635 294.165 193.634 294.165 193.634 294.165C193.634 294.165 193.634 294.165 193.634 294.165C193.634 294.165 193.634 294.165 193.633 294.165C193.633 294.165 193.633 294.165 193.633 294.165C193.633 294.165 193.633 294.165 193.633 294.165C193.632 294.165 193.632 294.165 193.632 294.165C193.632 294.165 193.632 294.165 193.632 294.165C193.632 294.165 193.631 294.165 193.631 294.165C193.631 294.165 193.631 294.165 193.631 294.165C193.631 294.165 193.631 294.165 193.63 294.165C193.63 294.165 193.63 294.165 193.63 294.165C193.63 294.165 193.63 294.165 193.63 294.165C193.629 294.165 193.629 294.165 193.629 294.165C193.629 294.165 193.629 294.165 193.629 294.165C193.629 294.165 193.628 294.165 193.628 294.165C193.628 294.165 193.628 294.165 193.628 294.165C193.628 294.165 193.628 294.165 193.627 294.165C193.627 294.165 193.627 294.165 193.627 294.165C193.627 294.165 193.627 294.165 193.627 294.165C193.626 294.165 193.626 294.165 193.626 294.165C193.626 294.165 193.626 294.165 193.626 294.165C193.626 294.165 193.625 294.165 193.625 294.165C193.625 294.165 193.625 294.165 193.625 294.165C193.625 294.165 193.625 294.165 193.624 294.165C193.624 294.165 193.624 294.165 193.624 294.165C193.624 294.165 193.624 294.165 193.624 294.165C193.623 294.165 193.623 294.165 193.623 294.165C193.623 294.165 193.623 294.165 193.623 294.165C193.623 294.165 193.622 294.165 193.622 294.165C193.622 294.165 193.622 294.165 193.622 294.165C193.622 294.165 193.622 294.165 193.621 294.165C193.621 294.165 193.621 294.165 193.621 294.165C193.621 294.165 193.621 294.165 193.621 294.165C193.62 294.165 193.62 294.165 193.62 294.165C193.62 294.165 193.62 294.165 193.62 294.165C193.62 294.165 193.62 294.165 193.619 294.165C193.619 294.165 193.619 294.165 193.619 294.165C193.619 294.165 193.619 294.165 193.619 294.165C193.618 294.165 193.618 294.165 193.618 294.165C193.618 294.165 193.618 294.165 193.618 294.165C193.618 294.165 193.617 294.165 193.617 294.165C193.617 294.165 193.617 294.165 193.617 294.165C193.617 294.165 193.617 294.165 193.616 294.165C193.616 294.165 193.616 294.165 193.616 294.165C193.616 294.165 193.616 294.165 193.616 294.165C193.616 294.165 193.615 294.165 193.615 294.165C193.615 294.165 193.615 294.165 193.615 294.165C193.615 294.165 193.615 294.165 193.614 294.165C193.614 294.165 193.614 294.165 193.614 294.165C193.614 294.165 193.614 294.165 193.614 294.165C193.613 294.165 193.613 294.165 193.613 294.165C193.613 294.165 193.613 294.165 193.613 294.165C193.613 294.165 193.613 294.165 193.612 294.165C193.612 294.165 193.612 294.165 193.612 294.165C193.612 294.165 193.612 294.165 193.612 294.165C193.611 294.165 193.611 294.165 193.611 294.165C193.611 294.165 193.611 294.165 193.611 294.165C193.611 294.165 193.61 294.165 193.61 294.165C193.61 294.165 193.61 294.165 193.61 294.165C193.61 294.165 193.61 294.165 193.61 294.165C193.609 294.165 193.609 294.165 193.609 294.165C193.609 294.165 193.609 294.165 193.609 294.165C193.609 294.165 193.608 294.165 193.608 294.165C193.608 294.165 193.608 294.165 193.608 294.165C193.608 294.165 193.608 294.165 193.608 294.165C193.607 294.165 193.607 294.165 193.607 294.165C193.607 294.165 193.607 294.165 193.607 294.165C193.607 294.165 193.606 294.165 193.606 294.165C193.606 294.165 193.606 294.165 193.606 294.165C193.606 294.165 193.606 294.165 193.606 294.165C193.605 294.165 193.605 294.165 193.605 294.165C193.605 294.165 193.605 294.165 193.605 294.165C193.605 294.165 193.605 294.165 193.604 294.165C193.604 294.165 193.604 294.165 193.604 294.165C193.604 294.165 193.604 294.165 193.604 294.165C193.603 294.165 193.603 294.165 193.603 294.165C193.603 294.165 193.603 294.165 193.603 294.165C193.603 294.165 193.603 294.165 193.602 294.165C193.602 294.165 193.602 294.165 193.602 294.165C193.602 294.165 193.602 294.165 193.602 294.165C193.602 294.165 193.601 294.165 193.601 294.165C193.601 294.165 193.601 294.165 193.601 294.165C193.601 294.165 193.601 294.165 193.601 294.165C193.6 294.165 193.6 294.165 193.6 294.165C193.6 294.165 193.6 294.165 193.6 294.165C193.6 294.165 193.6 294.165 193.599 294.165C193.599 294.165 193.599 294.165 193.599 294.165C193.599 294.165 193.599 294.165 193.599 294.165C193.598 294.165 193.598 294.165 193.598 294.165C193.598 294.165 193.598 294.165 193.598 294.165C193.598 294.165 193.598 294.165 193.597 294.165C193.597 294.165 193.597 294.165 193.597 294.165C193.597 294.165 193.597 294.165 193.597 294.165C193.597 294.165 193.596 294.165 193.596 294.165C193.596 294.165 193.596 294.165 193.596 294.165C193.596 294.165 193.596 294.165 193.596 294.165C193.595 294.165 193.595 294.165 193.595 294.165C193.595 294.165 193.595 294.165 193.595 294.165C193.595 294.165 193.595 294.165 193.594 294.165C193.594 294.165 193.594 294.165 193.594 294.165C193.594 294.165 193.594 294.165 193.594 294.165C193.594 294.165 193.594 294.165 193.593 294.165C193.593 294.165 193.593 294.165 193.593 294.165C193.593 294.165 193.593 294.165 193.593 294.165C193.593 294.165 193.592 294.165 193.592 294.165C193.592 294.165 193.592 294.165 193.592 294.165C193.592 294.165 193.592 294.165 193.592 294.165C193.591 294.165 193.591 294.165 193.591 294.165C193.591 294.165 193.591 294.165 193.591 294.165C193.591 294.165 193.591 294.165 193.59 294.165C193.59 294.165 193.59 294.165 193.59 294.165C193.59 294.165 193.59 294.165 193.59 294.165C193.59 294.165 193.59 294.165 193.589 294.165C193.589 294.165 193.589 294.165 193.589 294.165C193.589 294.165 193.589 294.165 193.589 294.165C193.589 294.165 193.588 294.165 193.588 294.165C193.588 294.165 193.588 294.165 193.588 294.165C193.588 294.165 193.588 294.165 193.588 294.165C193.588 294.165 193.587 294.165 193.587 294.165C193.587 294.165 193.587 294.165 193.587 294.165C193.587 294.165 193.587 294.165 193.587 294.165C193.586 294.165 193.586 294.165 193.586 294.165C193.586 294.165 193.586 294.165 193.586 294.165C193.586 294.165 193.586 294.165 193.586 294.165C193.585 294.165 193.585 294.165 193.585 294.165C193.585 294.165 193.585 294.165 193.585 294.165C193.585 294.165 193.585 294.165 193.585 294.165C193.584 294.165 193.584 294.165 193.584 294.165C193.584 294.165 193.584 294.165 193.584 294.165C193.584 294.165 193.584 294.165 193.584 294.165C193.583 294.165 193.583 294.165 193.583 294.165C193.583 294.165 193.583 294.165 193.583 294.165C193.583 294.165 193.583 294.165 193.583 294.165C193.582 294.165 193.582 294.165 193.582 294.165C193.582 294.165 193.582 294.165 193.582 294.165C193.582 294.165 193.582 294.165 193.582 294.165C193.581 294.165 193.581 294.165 193.581 294.165C193.581 294.165 193.581 294.165 193.581 294.165C193.581 294.165 193.581 294.165 193.581 294.165C193.58 294.165 193.58 294.165 193.58 294.165C193.58 294.165 193.58 294.165 193.58 294.165C193.58 294.165 193.58 294.165 193.58 294.165C193.579 294.165 193.579 294.165 193.579 294.165C193.579 294.165 193.579 294.165 193.579 294.165C193.579 294.165 193.579 294.165 193.579 294.165C193.578 294.165 193.578 294.165 193.578 294.165C193.578 294.165 193.578 294.165 193.578 294.165C193.578 294.165 193.578 294.165 193.578 294.165C193.577 294.165 193.577 294.165 193.577 294.165C193.577 294.165 193.577 294.165 193.577 294.165C193.577 294.165 193.577 294.165 193.577 294.165C193.577 294.165 193.576 294.165 193.576 294.165C193.576 294.165 193.576 294.165 193.576 294.165C193.576 294.165 193.576 294.165 193.576 294.165C193.576 294.165 193.576 294.165 193.575 294.165C193.575 294.165 193.575 294.165 193.575 294.165C193.575 294.165 193.575 294.165 193.575 294.165C193.575 294.165 193.575 294.165 193.574 294.165C193.574 294.165 193.574 294.165 193.574 294.165V296.665V299.165C193.574 299.165 193.574 299.165 193.574 299.165C193.575 299.165 193.575 299.165 193.575 299.165C193.575 299.165 193.575 299.165 193.575 299.165C193.575 299.165 193.575 299.165 193.575 299.165C193.576 299.165 193.576 299.165 193.576 299.165C193.576 299.165 193.576 299.165 193.576 299.165C193.576 299.165 193.576 299.165 193.576 299.165C193.576 299.165 193.577 299.165 193.577 299.165C193.577 299.165 193.577 299.165 193.577 299.165C193.577 299.165 193.577 299.165 193.577 299.165C193.577 299.165 193.577 299.165 193.578 299.165C193.578 299.165 193.578 299.165 193.578 299.165C193.578 299.165 193.578 299.165 193.578 299.165C193.578 299.165 193.578 299.165 193.579 299.165C193.579 299.165 193.579 299.165 193.579 299.165C193.579 299.165 193.579 299.165 193.579 299.165C193.579 299.165 193.579 299.165 193.58 299.165C193.58 299.165 193.58 299.165 193.58 299.165C193.58 299.165 193.58 299.165 193.58 299.165C193.58 299.165 193.58 299.165 193.581 299.165C193.581 299.165 193.581 299.165 193.581 299.165C193.581 299.165 193.581 299.165 193.581 299.165C193.581 299.165 193.581 299.165 193.582 299.165C193.582 299.165 193.582 299.165 193.582 299.165C193.582 299.165 193.582 299.165 193.582 299.165C193.582 299.165 193.582 299.165 193.583 299.165C193.583 299.165 193.583 299.165 193.583 299.165C193.583 299.165 193.583 299.165 193.583 299.165C193.583 299.165 193.583 299.165 193.584 299.165C193.584 299.165 193.584 299.165 193.584 299.165C193.584 299.165 193.584 299.165 193.584 299.165C193.584 299.165 193.584 299.165 193.585 299.165C193.585 299.165 193.585 299.165 193.585 299.165C193.585 299.165 193.585 299.165 193.585 299.165C193.585 299.165 193.585 299.165 193.586 299.165C193.586 299.165 193.586 299.165 193.586 299.165C193.586 299.165 193.586 299.165 193.586 299.165C193.586 299.165 193.586 299.165 193.587 299.165C193.587 299.165 193.587 299.165 193.587 299.165C193.587 299.165 193.587 299.165 193.587 299.165C193.587 299.165 193.588 299.165 193.588 299.165C193.588 299.165 193.588 299.165 193.588 299.165C193.588 299.165 193.588 299.165 193.588 299.165C193.588 299.165 193.589 299.165 193.589 299.165C193.589 299.165 193.589 299.165 193.589 299.165C193.589 299.165 193.589 299.165 193.589 299.165C193.59 299.165 193.59 299.165 193.59 299.165C193.59 299.165 193.59 299.165 193.59 299.165C193.59 299.165 193.59 299.165 193.59 299.165C193.591 299.165 193.591 299.165 193.591 299.165C193.591 299.165 193.591 299.165 193.591 299.165C193.591 299.165 193.591 299.165 193.592 299.165C193.592 299.165 193.592 299.165 193.592 299.165C193.592 299.165 193.592 299.165 193.592 299.165C193.592 299.165 193.593 299.165 193.593 299.165C193.593 299.165 193.593 299.165 193.593 299.165C193.593 299.165 193.593 299.165 193.593 299.165C193.594 299.165 193.594 299.165 193.594 299.165C193.594 299.165 193.594 299.165 193.594 299.165C193.594 299.165 193.594 299.165 193.594 299.165C193.595 299.165 193.595 299.165 193.595 299.165C193.595 299.165 193.595 299.165 193.595 299.165C193.595 299.165 193.595 299.165 193.596 299.165C193.596 299.165 193.596 299.165 193.596 299.165C193.596 299.165 193.596 299.165 193.596 299.165C193.596 299.165 193.597 299.165 193.597 299.165C193.597 299.165 193.597 299.165 193.597 299.165C193.597 299.165 193.597 299.165 193.597 299.165C193.598 299.165 193.598 299.165 193.598 299.165C193.598 299.165 193.598 299.165 193.598 299.165C193.598 299.165 193.598 299.165 193.599 299.165C193.599 299.165 193.599 299.165 193.599 299.165C193.599 299.165 193.599 299.165 193.599 299.165C193.6 299.165 193.6 299.165 193.6 299.165C193.6 299.165 193.6 299.165 193.6 299.165C193.6 299.165 193.6 299.165 193.601 299.165C193.601 299.165 193.601 299.165 193.601 299.165C193.601 299.165 193.601 299.165 193.601 299.165C193.601 299.165 193.602 299.165 193.602 299.165C193.602 299.165 193.602 299.165 193.602 299.165C193.602 299.165 193.602 299.165 193.602 299.165C193.603 299.165 193.603 299.165 193.603 299.165C193.603 299.165 193.603 299.165 193.603 299.165C193.603 299.165 193.603 299.165 193.604 299.165C193.604 299.165 193.604 299.165 193.604 299.165C193.604 299.165 193.604 299.165 193.604 299.165C193.605 299.165 193.605 299.165 193.605 299.165C193.605 299.165 193.605 299.165 193.605 299.165C193.605 299.165 193.605 299.165 193.606 299.165C193.606 299.165 193.606 299.165 193.606 299.165C193.606 299.165 193.606 299.165 193.606 299.165C193.606 299.165 193.607 299.165 193.607 299.165C193.607 299.165 193.607 299.165 193.607 299.165C193.607 299.165 193.607 299.165 193.608 299.165C193.608 299.165 193.608 299.165 193.608 299.165C193.608 299.165 193.608 299.165 193.608 299.165C193.608 299.165 193.609 299.165 193.609 299.165C193.609 299.165 193.609 299.165 193.609 299.165C193.609 299.165 193.609 299.165 193.61 299.165C193.61 299.165 193.61 299.165 193.61 299.165C193.61 299.165 193.61 299.165 193.61 299.165C193.61 299.165 193.611 299.165 193.611 299.165C193.611 299.165 193.611 299.165 193.611 299.165C193.611 299.165 193.611 299.165 193.612 299.165C193.612 299.165 193.612 299.165 193.612 299.165C193.612 299.165 193.612 299.165 193.612 299.165C193.613 299.165 193.613 299.165 193.613 299.165C193.613 299.165 193.613 299.165 193.613 299.165C193.613 299.165 193.613 299.165 193.614 299.165C193.614 299.165 193.614 299.165 193.614 299.165C193.614 299.165 193.614 299.165 193.614 299.165C193.615 299.165 193.615 299.165 193.615 299.165C193.615 299.165 193.615 299.165 193.615 299.165C193.615 299.165 193.616 299.165 193.616 299.165C193.616 299.165 193.616 299.165 193.616 299.165C193.616 299.165 193.616 299.165 193.616 299.165C193.617 299.165 193.617 299.165 193.617 299.165C193.617 299.165 193.617 299.165 193.617 299.165C193.617 299.165 193.618 299.165 193.618 299.165C193.618 299.165 193.618 299.165 193.618 299.165C193.618 299.165 193.618 299.165 193.619 299.165C193.619 299.165 193.619 299.165 193.619 299.165C193.619 299.165 193.619 299.165 193.619 299.165C193.62 299.165 193.62 299.165 193.62 299.165C193.62 299.165 193.62 299.165 193.62 299.165C193.62 299.165 193.62 299.165 193.621 299.165C193.621 299.165 193.621 299.165 193.621 299.165C193.621 299.165 193.621 299.165 193.621 299.165C193.622 299.165 193.622 299.165 193.622 299.165C193.622 299.165 193.622 299.165 193.622 299.165C193.622 299.165 193.623 299.165 193.623 299.165C193.623 299.165 193.623 299.165 193.623 299.165C193.623 299.165 193.623 299.165 193.624 299.165C193.624 299.165 193.624 299.165 193.624 299.165C193.624 299.165 193.624 299.165 193.624 299.165C193.625 299.165 193.625 299.165 193.625 299.165C193.625 299.165 193.625 299.165 193.625 299.165C193.625 299.165 193.626 299.165 193.626 299.165C193.626 299.165 193.626 299.165 193.626 299.165C193.626 299.165 193.626 299.165 193.627 299.165C193.627 299.165 193.627 299.165 193.627 299.165C193.627 299.165 193.627 299.165 193.627 299.165C193.628 299.165 193.628 299.165 193.628 299.165C193.628 299.165 193.628 299.165 193.628 299.165C193.628 299.165 193.629 299.165 193.629 299.165C193.629 299.165 193.629 299.165 193.629 299.165C193.629 299.165 193.629 299.165 193.63 299.165C193.63 299.165 193.63 299.165 193.63 299.165C193.63 299.165 193.63 299.165 193.63 299.165C193.631 299.165 193.631 299.165 193.631 299.165C193.631 299.165 193.631 299.165 193.631 299.165C193.631 299.165 193.632 299.165 193.632 299.165C193.632 299.165 193.632 299.165 193.632 299.165C193.632 299.165 193.632 299.165 193.633 299.165C193.633 299.165 193.633 299.165 193.633 299.165C193.633 299.165 193.633 299.165 193.633 299.165C193.634 299.165 193.634 299.165 193.634 299.165C193.634 299.165 193.634 299.165 193.634 299.165C193.634 299.165 193.635 299.165 193.635 299.165C193.635 299.165 193.635 299.165 193.635 299.165C193.635 299.165 193.635 299.165 193.636 299.165C193.636 299.165 193.636 299.165 193.636 299.165C193.636 299.165 193.636 299.165 193.637 299.165C193.637 299.165 193.637 299.165 193.637 299.165C193.637 299.165 193.637 299.165 193.637 299.165C193.638 299.165 193.638 299.165 193.638 299.165C193.638 299.165 193.638 299.165 193.638 299.165C193.638 299.165 193.639 299.165 193.639 299.165C193.639 299.165 193.639 299.165 193.639 299.165C193.639 299.165 193.639 299.165 193.64 299.165C193.64 299.165 193.64 299.165 193.64 299.165C193.64 299.165 193.64 299.165 193.64 299.165C193.641 299.165 193.641 299.165 193.641 299.165C193.641 299.165 193.641 299.165 193.641 299.165C193.642 299.165 193.642 299.165 193.642 299.165C193.642 299.165 193.642 299.165 193.642 299.165C193.642 299.165 193.643 299.165 193.643 299.165C193.643 299.165 193.643 299.165 193.643 299.165C193.643 299.165 193.643 299.165 193.644 299.165C193.644 299.165 193.644 299.165 193.644 299.165C193.644 299.165 193.644 299.165 193.644 299.165C193.645 299.165 193.645 299.165 193.645 299.165C193.645 299.165 193.645 299.165 193.645 299.165C193.646 299.165 193.646 299.165 193.646 299.165C193.646 299.165 193.646 299.165 193.646 299.165C193.646 299.165 193.647 299.165 193.647 299.165C193.647 299.165 193.647 299.165 193.647 299.165C193.647 299.165 193.647 299.165 193.648 299.165C193.648 299.165 193.648 299.165 193.648 299.165C193.648 299.165 193.648 299.165 193.649 299.165C193.649 299.165 193.649 299.165 193.649 299.165C193.649 299.165 193.649 299.165 193.649 299.165C193.65 299.165 193.65 299.165 193.65 299.165C193.65 299.165 193.65 299.165 193.65 299.165C193.65 299.165 193.651 299.165 193.651 299.165C193.651 299.165 193.651 299.165 193.651 299.165C193.651 299.165 193.652 299.165 193.652 299.165C193.652 299.165 193.652 299.165 193.652 299.165C193.652 299.165 193.652 299.165 193.653 299.165C193.653 299.165 193.653 299.165 193.653 299.165C193.653 299.165 193.653 299.165 193.653 299.165C193.654 299.165 193.654 299.165 193.654 299.165C193.654 299.165 193.654 299.165 193.654 299.165C193.655 299.165 193.655 299.165 193.655 299.165C193.655 299.165 193.655 299.165 193.655 299.165C193.655 299.165 193.656 299.165 193.656 299.165C193.656 299.165 193.656 299.165 193.656 299.165C193.656 299.165 193.656 299.165 193.657 299.165C193.657 299.165 193.657 299.165 193.657 299.165C193.657 299.165 193.657 299.165 193.658 299.165C193.658 299.165 193.658 299.165 193.658 299.165C193.658 299.165 193.658 299.165 193.658 299.165C193.659 299.165 193.659 299.165 193.659 299.165C193.659 299.165 193.659 299.165 193.659 299.165C193.66 299.165 193.66 299.165 193.66 299.165C193.66 299.165 193.66 299.165 193.66 299.165C193.66 299.165 193.661 299.165 193.661 299.165C193.661 299.165 193.661 299.165 193.661 299.165C193.661 299.165 193.661 299.165 193.662 299.165C193.662 299.165 193.662 299.165 193.662 299.165C193.662 299.165 193.662 299.165 193.663 299.165C193.663 299.165 193.663 299.165 193.663 299.165C193.663 299.165 193.663 299.165 193.663 299.165C193.664 299.165 193.664 299.165 193.664 299.165C193.664 299.165 193.664 299.165 193.664 299.165C193.665 299.165 193.665 299.165 193.665 299.165C193.665 299.165 193.665 299.165 193.665 299.165C193.665 299.165 193.666 299.165 193.666 299.165C193.666 299.165 193.666 299.165 193.666 299.165C193.666 299.165 193.666 299.165 193.667 299.165C193.667 299.165 193.667 299.165 193.667 299.165C193.667 299.165 193.667 299.165 193.668 299.165C193.668 299.165 193.668 299.165 193.668 299.165C193.668 299.165 193.668 299.165 193.668 299.165C193.669 299.165 193.669 299.165 193.669 299.165C193.669 299.165 193.669 299.165 193.669 299.165C193.67 299.165 193.67 299.165 193.67 299.165C193.67 299.165 193.67 299.165 193.67 299.165C193.67 299.165 193.671 299.165 193.671 299.165C193.671 299.165 193.671 299.165 193.671 299.165C193.671 299.165 193.672 299.165 193.672 299.165C193.672 299.165 193.672 299.165 193.672 299.165C193.672 299.165 193.672 299.165 193.673 299.165C193.673 299.165 193.673 299.165 193.673 299.165C193.673 299.165 193.673 299.165 193.674 299.165C193.674 299.165 193.674 299.165 193.674 299.165C193.674 299.165 193.674 299.165 193.674 299.165C193.675 299.165 193.675 299.165 193.675 299.165C193.675 299.165 193.675 299.165 193.675 299.165C193.676 299.165 193.676 299.165 193.676 299.165C193.676 299.165 193.676 299.165 193.676 299.165C193.676 299.165 193.677 299.165 193.677 299.165C193.677 299.165 193.677 299.165 193.677 299.165C193.677 299.165 193.677 299.165 193.678 299.165C193.678 299.165 193.678 299.165 193.678 299.165C193.678 299.165 193.678 299.165 193.679 299.165C193.679 299.165 193.679 299.165 193.679 299.165C193.679 299.165 193.679 299.165 193.679 299.165C193.68 299.165 193.68 299.165 193.68 299.165C193.68 299.165 193.68 299.165 193.68 299.165C193.681 299.165 193.681 299.165 193.681 299.165C193.681 299.165 193.681 299.165 193.681 299.165C193.681 299.165 193.682 299.165 193.682 299.165C193.682 299.165 193.682 299.165 193.682 299.165C193.682 299.165 193.683 299.165 193.683 299.165C193.683 299.165 193.683 299.165 193.683 299.165C193.683 299.165 193.683 299.165 193.684 299.165C193.684 299.165 193.684 299.165 193.684 299.165C193.684 299.165 193.684 299.165 193.685 299.165C193.685 299.165 193.685 299.165 193.685 299.165C193.685 299.165 193.685 299.165 193.685 299.165C193.686 299.165 193.686 299.165 193.686 299.165C193.686 299.165 193.686 299.165 193.686 299.165C193.687 299.165 193.687 299.165 193.687 299.165C193.687 299.165 193.687 299.165 193.687 299.165C193.687 299.165 193.688 299.165 193.688 299.165C193.688 299.165 193.688 299.165 193.688 299.165C193.688 299.165 193.688 299.165 193.689 299.165C193.689 299.165 193.689 299.165 193.689 299.165C193.689 299.165 193.689 299.165 193.69 299.165C193.69 299.165 193.69 299.165 193.69 299.165C193.69 299.165 193.69 299.165 193.69 299.165C193.691 299.165 193.691 299.165 193.691 299.165C193.691 299.165 193.691 299.165 193.691 299.165C193.692 299.165 193.692 299.165 193.692 299.165C193.692 299.165 193.692 299.165 193.692 299.165C193.692 299.165 193.693 299.165 193.693 299.165C193.693 299.165 193.693 299.165 193.693 299.165C193.693 299.165 193.694 299.165 193.694 299.165C193.694 299.165 193.694 299.165 193.694 299.165C193.694 299.165 193.694 299.165 193.695 299.165C193.695 299.165 193.695 299.165 193.695 299.165C193.695 299.165 193.695 299.165 193.695 299.165C193.696 299.165 193.696 299.165 193.696 299.165C193.696 299.165 193.696 299.165 193.696 299.165C193.697 299.165 193.697 299.165 193.697 299.165C193.697 299.165 193.697 299.165 193.697 299.165C193.697 299.165 193.698 299.165 193.698 299.165C193.698 299.165 193.698 299.165 193.698 299.165C193.698 299.165 193.699 299.165 193.699 299.165C193.699 299.165 193.699 299.165 193.699 299.165C193.699 299.165 193.699 299.165 193.7 299.165C193.7 299.165 193.7 299.165 193.7 299.165C193.7 299.165 193.7 299.165 193.701 299.165C193.701 299.165 193.701 299.165 193.701 299.165C193.701 299.165 193.701 299.165 193.701 299.165C193.702 299.165 193.702 299.165 193.702 299.165C193.702 299.165 193.702 299.165 193.702 299.165C193.702 299.165 193.703 299.165 193.703 299.165C193.703 299.165 193.703 299.165 193.703 299.165C193.703 299.165 193.704 299.165 193.704 299.165C193.704 299.165 193.704 299.165 193.704 299.165C193.704 299.165 193.704 299.165 193.705 299.165C193.705 299.165 193.705 299.165 193.705 299.165C193.705 299.165 193.705 299.165 193.705 299.165C193.706 299.165 193.706 299.165 193.706 299.165C193.706 299.165 193.706 299.165 193.706 299.165C193.707 299.165 193.707 299.165 193.707 299.165C193.707 299.165 193.707 299.165 193.707 299.165C193.707 299.165 193.708 299.165 193.708 299.165C193.708 299.165 193.708 299.165 193.708 299.165C193.708 299.165 193.708 299.165 193.709 299.165C193.709 299.165 193.709 299.165 193.709 299.165C193.709 299.165 193.709 299.165 193.71 299.165C193.71 299.165 193.71 299.165 193.71 299.165C193.71 299.165 193.71 299.165 193.71 299.165C193.711 299.165 193.711 299.165 193.711 299.165C193.711 299.165 193.711 299.165 193.711 299.165C193.711 299.165 193.712 299.165 193.712 299.165C193.712 299.165 193.712 299.165 193.712 299.165C193.712 299.165 193.712 299.165 193.713 299.165C193.713 299.165 193.713 299.165 193.713 299.165C193.713 299.165 193.713 299.165 193.714 299.165C193.714 299.165 193.714 299.165 193.714 299.165C193.714 299.165 193.714 299.165 193.714 299.165C193.715 299.165 193.715 299.165 193.715 299.165C193.715 299.165 193.715 299.165 193.715 299.165C193.715 299.165 193.716 299.165 193.716 299.165C193.716 299.165 193.716 299.165 193.716 299.165C193.716 299.165 193.716 299.165 193.717 299.165C193.717 299.165 193.717 299.165 193.717 299.165C193.717 299.165 193.717 299.165 193.718 299.165C193.718 299.165 193.718 299.165 193.718 299.165C193.718 299.165 193.718 299.165 193.718 299.165C193.719 299.165 193.719 299.165 193.719 299.165C193.719 299.165 193.719 299.165 193.719 299.165C193.719 299.165 193.72 299.165 193.72 299.165C193.72 299.165 193.72 299.165 193.72 299.165C193.72 299.165 193.72 299.165 193.721 299.165C193.721 299.165 193.721 299.165 193.721 299.165C193.721 299.165 193.721 299.165 193.721 299.165C193.722 299.165 193.722 299.165 193.722 299.165C193.722 299.165 193.722 299.165 193.722 299.165C193.723 299.165 193.723 299.165 193.723 299.165C193.723 299.165 193.723 299.165 193.723 299.165C193.723 299.165 193.724 299.165 193.724 299.165C193.724 299.165 193.724 299.165 193.724 299.165C193.724 299.165 193.724 299.165 193.725 299.165C193.725 299.165 193.725 299.165 193.725 299.165C193.725 299.165 193.725 299.165 193.725 299.165C193.726 299.165 193.726 299.165 193.726 299.165C193.726 299.165 193.726 299.165 193.726 299.165C193.726 299.165 193.727 299.165 193.727 299.165C193.727 299.165 193.727 299.165 193.727 299.165C193.727 299.165 193.727 299.165 193.728 299.165C193.728 299.165 193.728 299.165 193.728 299.165C193.728 299.165 193.728 299.165 193.728 299.165C193.729 299.165 193.729 299.165 193.729 299.165C193.729 299.165 193.729 299.165 193.729 299.165C193.729 299.165 193.73 299.165 193.73 299.165C193.73 299.165 193.73 299.165 193.73 299.165C193.73 299.165 193.73 299.165 193.731 299.165C193.731 299.165 193.731 299.165 193.731 299.165C193.731 299.165 193.731 299.165 193.731 299.165C193.732 299.165 193.732 299.165 193.732 299.165C193.732 299.165 193.732 299.165 193.732 299.165C193.732 299.165 193.733 299.165 193.733 299.165C193.733 299.165 193.733 299.165 193.733 299.165C193.733 299.165 193.733 299.165 193.734 299.165C193.734 299.165 193.734 299.165 193.734 299.165C193.734 299.165 193.734 299.165 193.734 299.165C193.735 299.165 193.735 299.165 193.735 299.165C193.735 299.165 193.735 299.165 193.735 299.165C193.735 299.165 193.736 299.165 193.736 299.165C193.736 299.165 193.736 299.165 193.736 299.165C193.736 299.165 193.736 299.165 193.736 299.165C193.737 299.165 193.737 299.165 193.737 299.165C193.737 299.165 193.737 299.165 193.737 299.165C193.737 299.165 193.738 299.165 193.738 299.165C193.738 299.165 193.738 299.165 193.738 299.165C193.738 299.165 193.738 299.165 193.739 299.165C193.739 299.165 193.739 299.165 193.739 299.165C193.739 299.165 193.739 299.165 193.739 299.165C193.74 299.165 193.74 299.165 193.74 299.165C193.74 299.165 193.74 299.165 193.74 299.165C193.74 299.165 193.741 299.165 193.741 299.165C193.741 299.165 193.741 299.165 193.741 299.165C193.741 299.165 193.741 299.165 193.741 299.165C193.742 299.165 193.742 299.165 193.742 299.165C193.742 299.165 193.742 299.165 193.742 299.165C193.742 299.165 193.743 299.165 193.743 299.165C193.743 299.165 193.743 299.165 193.743 299.165C193.743 299.165 193.743 299.165 193.744 299.165C193.744 299.165 193.744 299.165 193.744 299.165C193.744 299.165 193.744 299.165 193.744 299.165C193.744 299.165 193.745 299.165 193.745 299.165C193.745 299.165 193.745 299.165 193.745 299.165C193.745 299.165 193.745 299.165 193.746 299.165C193.746 299.165 193.746 299.165 193.746 299.165C193.746 299.165 193.746 299.165 193.746 299.165C193.747 299.165 193.747 299.165 193.747 299.165C193.747 299.165 193.747 299.165 193.747 299.165C193.747 299.165 193.747 299.165 193.748 299.165C193.748 299.165 193.748 299.165 193.748 299.165C193.748 299.165 193.748 299.165 193.748 299.165C193.749 299.165 193.749 299.165 193.749 299.165C193.749 299.165 193.749 299.165 193.749 299.165C193.749 299.165 193.749 299.165 193.75 299.165C193.75 299.165 193.75 299.165 193.75 299.165C193.75 299.165 193.75 299.165 193.75 299.165C193.751 299.165 193.751 299.165 193.751 299.165C193.751 299.165 193.751 299.165 193.751 299.165C193.751 299.165 193.751 299.165 193.752 299.165C193.752 299.165 193.752 299.165 193.752 299.165C193.752 299.165 193.752 299.165 193.752 299.165C193.752 299.165 193.753 299.165 193.753 299.165C193.753 299.165 193.753 299.165 193.753 299.165C193.753 299.165 193.753 299.165 193.754 299.165C193.754 299.165 193.754 299.165 193.754 299.165C193.754 299.165 193.754 299.165 193.754 299.165C193.754 299.165 193.755 299.165 193.755 299.165C193.755 299.165 193.755 299.165 193.755 299.165C193.755 299.165 193.755 299.165 193.755 299.165C193.756 299.165 193.756 299.165 193.756 299.165C193.756 299.165 193.756 299.165 193.756 299.165C193.756 299.165 193.756 299.165 193.757 299.165C193.757 299.165 193.757 299.165 193.757 299.165C193.757 299.165 193.757 299.165 193.757 299.165C193.757 299.165 193.758 299.165 193.758 299.165C193.758 299.165 193.758 299.165 193.758 299.165C193.758 299.165 193.758 299.165 193.759 299.165C193.759 299.165 193.759 299.165 193.759 299.165C193.759 299.165 193.759 299.165 193.759 299.165C193.759 299.165 193.76 299.165 193.76 299.165C193.76 299.165 193.76 299.165 193.76 299.165C193.76 299.165 193.76 299.165 193.76 299.165C193.761 299.165 193.761 299.165 193.761 299.165C193.761 299.165 193.761 299.165 193.761 299.165C193.761 299.165 193.761 299.165 193.762 299.165C193.762 299.165 193.762 299.165 193.762 299.165C193.762 299.165 193.762 299.165 193.762 299.165C193.762 299.165 193.763 299.165 193.763 299.165C193.763 299.165 193.763 299.165 193.763 299.165C193.763 299.165 193.763 299.165 193.763 299.165C193.763 299.165 193.764 299.165 193.764 299.165C193.764 299.165 193.764 299.165 193.764 299.165C193.764 299.165 193.764 299.165 193.764 299.165C193.765 299.165 193.765 299.165 193.765 299.165C193.765 299.165 193.765 299.165 193.765 299.165C193.765 299.165 193.765 299.165 193.766 299.165C193.766 299.165 193.766 299.165 193.766 299.165C193.766 299.165 193.766 299.165 193.766 299.165C193.766 299.165 193.767 299.165 193.767 299.165C193.767 299.165 193.767 299.165 193.767 299.165C193.767 299.165 193.767 299.165 193.767 299.165C193.767 299.165 193.768 299.165 193.768 299.165C193.768 299.165 193.768 299.165 193.768 299.165C193.768 299.165 193.768 299.165 193.768 299.165C193.769 299.165 193.769 299.165 193.769 299.165C193.769 299.165 193.769 299.165 193.769 299.165C193.769 299.165 193.769 299.165 193.769 299.165C193.77 299.165 193.77 299.165 193.77 299.165C193.77 299.165 193.77 299.165 193.77 299.165C193.77 299.165 193.77 299.165 193.771 299.165C193.771 299.165 193.771 299.165 193.771 299.165C193.771 299.165 193.771 299.165 193.771 299.165C193.771 299.165 193.771 299.165 193.772 299.165C193.772 299.165 193.772 299.165 193.772 299.165C193.772 299.165 193.772 299.165 193.772 299.165C193.772 299.165 193.772 299.165 193.773 299.165C193.773 299.165 193.773 299.165 193.773 299.165C193.773 299.165 193.773 299.165 193.773 299.165C193.773 299.165 193.773 299.165 193.774 299.165C193.774 299.165 193.774 299.165 193.774 299.165C193.774 299.165 193.774 299.165 193.774 299.165C193.774 299.165 193.775 299.165 193.775 299.165C193.775 299.165 193.775 299.165 193.775 299.165C193.775 299.165 193.775 299.165 193.775 299.165C193.775 299.165 193.776 299.165 193.776 299.165C193.776 299.165 193.776 299.165 193.776 299.165C193.776 299.165 193.776 299.165 193.776 299.165C193.776 299.165 193.777 299.165 193.777 299.165C193.777 299.165 193.777 299.165 193.777 299.165C193.777 299.165 193.777 299.165 193.777 299.165C193.777 299.165 193.777 299.165 193.778 299.165C193.778 299.165 193.778 299.165 193.778 299.165C193.778 299.165 193.778 299.165 193.778 299.165C193.778 299.165 193.778 299.165 193.779 299.165C193.779 299.165 193.779 299.165 193.779 299.165C193.779 299.165 193.779 299.165 193.779 299.165C193.779 299.165 193.779 299.165 193.78 299.165C193.78 299.165 193.78 299.165 193.78 299.165C193.78 299.165 193.78 299.165 193.78 299.165C193.78 299.165 193.78 299.165 193.78 299.165C193.781 299.165 193.781 299.165 193.781 299.165C193.781 299.165 193.781 299.165 193.781 299.165C193.781 299.165 193.781 299.165 193.781 299.165C193.782 299.165 193.782 299.165 193.782 299.165C193.782 299.165 193.782 299.165 193.782 299.165C193.782 299.165 193.782 299.165 193.782 299.165C193.782 299.165 193.783 299.165 193.783 299.165C193.783 299.165 193.783 299.165 193.783 299.165V296.665ZM193.574 296.665V294.165C191.185 294.165 189.386 295.481 188.37 297.451C187.438 299.259 187.153 301.59 187.266 304.087L189.764 303.973L192.261 303.859C192.166 301.762 192.455 300.439 192.814 299.742C193.091 299.206 193.301 299.165 193.574 299.165V296.665ZM189.764 303.973L187.266 304.09C187.364 306.182 187.703 308.62 188.021 310.95C188.347 313.341 188.656 315.654 188.754 317.704C188.856 319.823 188.705 321.292 188.358 322.147C188.203 322.527 188.061 322.656 188.002 322.699C187.959 322.729 187.819 322.823 187.415 322.823V325.323V327.823C188.694 327.823 189.901 327.494 190.926 326.754C191.934 326.027 192.58 325.038 192.99 324.029C193.771 322.104 193.856 319.704 193.748 317.465C193.638 315.156 193.295 312.621 192.975 310.274C192.647 307.868 192.346 305.679 192.261 303.856L189.764 303.973ZM187.415 325.323V322.823H184.074V325.323V327.823H187.415V325.323ZM184.074 325.323V322.823C183.961 322.823 184.108 322.801 184.348 322.942C184.619 323.101 184.773 323.329 184.835 323.475C184.882 323.584 184.789 323.403 184.884 322.487C184.975 321.604 185.135 320.778 185.31 319.495C185.468 318.338 185.605 316.991 185.526 315.625L183.03 315.77L180.534 315.915C180.585 316.794 180.5 317.763 180.356 318.819C180.229 319.747 180.008 321.029 179.91 321.972C179.816 322.884 179.726 324.249 180.241 325.448C180.537 326.138 181.041 326.797 181.813 327.251C182.553 327.687 183.352 327.823 184.074 327.823V325.323ZM183.03 315.77L185.523 315.586C185.292 312.47 184.416 309.437 185.541 303.274L183.082 302.825L180.623 302.376C179.346 309.367 180.35 313.432 180.537 315.955L183.03 315.77ZM183.082 302.825L185.549 303.23C185.889 301.158 185.917 299.24 185.36 297.629C184.744 295.85 183.476 294.633 181.765 294.078L180.994 296.456L180.223 298.834C180.443 298.906 180.532 298.968 180.634 299.264C180.795 299.728 180.901 300.68 180.615 302.419L183.082 302.825ZM180.994 296.456L181.872 294.115C181.077 293.817 180.283 293.747 179.689 293.747V296.247V298.747C179.797 298.747 179.895 298.754 179.978 298.766C180.062 298.779 180.106 298.793 180.116 298.797L180.994 296.456ZM179.689 296.247V293.747C178.024 293.747 176.376 294.404 175.178 295.819C174.012 297.196 173.463 299.057 173.431 301.169L175.931 301.206L178.43 301.244C178.45 299.911 178.789 299.292 178.993 299.05C179.165 298.848 179.37 298.747 179.689 298.747V296.247ZM175.931 301.206L173.431 301.168C173.42 301.843 173.545 302.748 173.685 303.616C173.834 304.544 174.042 305.666 174.265 306.871C174.718 309.309 175.25 312.156 175.605 314.886C175.966 317.665 176.111 320.091 175.89 321.744C175.777 322.586 175.602 322.958 175.531 323.06C175.514 323.086 175.553 323.021 175.671 322.955C175.797 322.885 175.904 322.875 175.931 322.875V325.375V327.875C177.561 327.875 178.841 327.073 179.653 325.891C180.372 324.844 180.691 323.566 180.846 322.407C181.16 320.059 180.932 317.079 180.563 314.241C180.187 311.352 179.629 308.369 179.181 305.958C178.955 304.737 178.759 303.679 178.622 302.822C178.474 301.905 178.428 301.418 178.43 301.245L175.931 301.206Z" fill="black" mask="url(#path-28-outside-1_3683_1565)"/>
<path d="M137.609 338.938V340.789H129.383V356H127.133V338.938H137.609ZM143.117 356.234C142.234 356.234 141.434 356.086 140.715 355.789C140.004 355.484 139.391 355.059 138.875 354.512C138.367 353.965 137.977 353.316 137.703 352.566C137.43 351.816 137.293 350.996 137.293 350.105V349.613C137.293 348.582 137.445 347.664 137.75 346.859C138.055 346.047 138.469 345.359 138.992 344.797C139.516 344.234 140.109 343.809 140.773 343.52C141.438 343.23 142.125 343.086 142.836 343.086C143.742 343.086 144.523 343.242 145.18 343.555C145.844 343.867 146.387 344.305 146.809 344.867C147.23 345.422 147.543 346.078 147.746 346.836C147.949 347.586 148.051 348.406 148.051 349.297V350.27H138.582V348.5H145.883V348.336C145.852 347.773 145.734 347.227 145.531 346.695C145.336 346.164 145.023 345.727 144.594 345.383C144.164 345.039 143.578 344.867 142.836 344.867C142.344 344.867 141.891 344.973 141.477 345.184C141.062 345.387 140.707 345.691 140.41 346.098C140.113 346.504 139.883 347 139.719 347.586C139.555 348.172 139.473 348.848 139.473 349.613V350.105C139.473 350.707 139.555 351.273 139.719 351.805C139.891 352.328 140.137 352.789 140.457 353.188C140.785 353.586 141.18 353.898 141.641 354.125C142.109 354.352 142.641 354.465 143.234 354.465C144 354.465 144.648 354.309 145.18 353.996C145.711 353.684 146.176 353.266 146.574 352.742L147.887 353.785C147.613 354.199 147.266 354.594 146.844 354.969C146.422 355.344 145.902 355.648 145.285 355.883C144.676 356.117 143.953 356.234 143.117 356.234ZM159.184 348.816V350.574H152.48V348.816H159.184ZM152.938 343.32V356H150.77V343.32H152.938ZM160.941 343.32V356H158.762V343.32H160.941ZM171.91 353.832V347.305C171.91 346.805 171.809 346.371 171.605 346.004C171.41 345.629 171.113 345.34 170.715 345.137C170.316 344.934 169.824 344.832 169.238 344.832C168.691 344.832 168.211 344.926 167.797 345.113C167.391 345.301 167.07 345.547 166.836 345.852C166.609 346.156 166.496 346.484 166.496 346.836H164.328C164.328 346.383 164.445 345.934 164.68 345.488C164.914 345.043 165.25 344.641 165.688 344.281C166.133 343.914 166.664 343.625 167.281 343.414C167.906 343.195 168.602 343.086 169.367 343.086C170.289 343.086 171.102 343.242 171.805 343.555C172.516 343.867 173.07 344.34 173.469 344.973C173.875 345.598 174.078 346.383 174.078 347.328V353.234C174.078 353.656 174.113 354.105 174.184 354.582C174.262 355.059 174.375 355.469 174.523 355.812V356H172.262C172.152 355.75 172.066 355.418 172.004 355.004C171.941 354.582 171.91 354.191 171.91 353.832ZM172.285 348.312L172.309 349.836H170.117C169.5 349.836 168.949 349.887 168.465 349.988C167.98 350.082 167.574 350.227 167.246 350.422C166.918 350.617 166.668 350.863 166.496 351.16C166.324 351.449 166.238 351.789 166.238 352.18C166.238 352.578 166.328 352.941 166.508 353.27C166.688 353.598 166.957 353.859 167.316 354.055C167.684 354.242 168.133 354.336 168.664 354.336C169.328 354.336 169.914 354.195 170.422 353.914C170.93 353.633 171.332 353.289 171.629 352.883C171.934 352.477 172.098 352.082 172.121 351.699L173.047 352.742C172.992 353.07 172.844 353.434 172.602 353.832C172.359 354.23 172.035 354.613 171.629 354.98C171.23 355.34 170.754 355.641 170.199 355.883C169.652 356.117 169.035 356.234 168.348 356.234C167.488 356.234 166.734 356.066 166.086 355.73C165.445 355.395 164.945 354.945 164.586 354.383C164.234 353.812 164.059 353.176 164.059 352.473C164.059 351.793 164.191 351.195 164.457 350.68C164.723 350.156 165.105 349.723 165.605 349.379C166.105 349.027 166.707 348.762 167.41 348.582C168.113 348.402 168.898 348.312 169.766 348.312H172.285Z" fill="black"/>
</g>
<rect x="1.56722" y="1.56722" width="297.693" height="439.866" rx="28.3095" stroke="black" stroke-width="3.13443"/>
<defs>
<clipPath id="clip0_3683_1565">
<rect width="300.828" height="443" rx="29.8767" fill="white"/>
</clipPath>
</defs>
</svg>
