<svg width="611" height="592" viewBox="0 0 611 592" fill="none" xmlns="http://www.w3.org/2000/svg">
<rect x="1.575" y="1.575" width="607.85" height="588.85" rx="36.425" fill="#F7CB46"/>
<rect x="1.575" y="1.575" width="607.85" height="588.85" rx="36.425" stroke="white" stroke-width="3.15"/>
<path d="M43.4951 74.167C44.4982 74.1313 45.6838 74.131 46.8906 74.1523C48.7739 74.1857 50.6827 74.2713 51.9893 74.3496C52.0195 75.2844 52.0763 76.4974 52.1367 77.8408C52.222 79.7371 52.3138 81.9256 52.3467 84.0654C52.3796 86.2107 52.3526 88.2804 52.2061 89.9424C52.1327 90.7743 52.0315 91.4778 51.9014 92.0254C51.7638 92.604 51.6214 92.8855 51.542 92.9834C50.961 93.6974 49.9144 94.0937 48.7559 94.2188C47.8061 94.3217 46.516 94.4146 45.3047 94.3115C44.0398 94.2038 43.1137 93.9011 42.6455 93.4336C42.5687 93.3569 42.4078 93.1019 42.2461 92.5215C42.0938 91.9747 41.9725 91.2609 41.8828 90.4072C41.7038 88.7026 41.6623 86.5632 41.6914 84.3418C41.7204 82.1264 41.8187 79.8595 41.9141 77.9082C41.9837 76.4835 42.052 75.2077 42.0889 74.2559C42.4694 74.2174 42.9426 74.1867 43.4951 74.167Z" fill="url(#paint0_linear_3641_639)" stroke="black" stroke-width="2.1"/>
<path d="M29.875 47.6348C36.0069 41.7137 44.1312 39.1662 51.5752 40.1387C58.9953 41.1081 65.7689 45.5736 69.2891 53.7793C70.2841 56.0989 71.3679 59.7197 71.7773 63.3125C72.1908 66.9407 71.881 70.2487 70.4297 72.251C70.3278 72.3599 70.0812 72.5428 69.5977 72.7568C69.1125 72.9715 68.4822 73.1805 67.7314 73.3779C66.2315 73.7725 64.351 74.0958 62.4082 74.3457C58.5024 74.8482 54.5177 75.0303 53.0957 74.9297C51.8739 74.8368 49.3803 74.7074 46.9326 74.6641C45.7064 74.6423 44.4805 74.6422 43.4258 74.6797C42.4572 74.7141 41.5561 74.7838 40.9307 74.9209C39.473 75.0166 35.0969 74.6824 30.7871 74.0234C28.6214 73.6923 26.5254 73.2869 24.8828 72.832C24.0597 72.6041 23.3779 72.3713 22.8682 72.1406C22.3174 71.8914 22.1145 71.7085 22.0762 71.6562C19.7305 68.4602 20.1692 63.8962 22.1016 59.208C24.0119 54.5731 27.2478 50.1719 29.875 47.6348Z" fill="#FF80AB" stroke="black" stroke-width="2.1"/>
<path d="M41.9824 57.1982C42.7965 57.1801 43.5644 57.2329 44.1738 57.4502L44.4307 57.5566C45.1659 57.9077 45.7328 58.4631 46.0029 59.1289L46.0527 59.2637C46.3303 60.0859 46.1981 61.024 45.7246 61.8594H45.7236C44.9898 63.1541 43.8545 63.7301 42.2031 64.2002C40.8332 64.1665 39.8856 64.0615 38.9014 63.4502C38.0289 62.908 37.4292 62.1249 37.2822 61.2393V61.2383C37.1511 60.4503 37.3751 59.6737 37.9082 58.9814C38.831 57.7828 40.131 57.4668 41.9824 57.1982Z" fill="#FCF7F6" stroke="black" stroke-width="2.1"/>
<path d="M66.8564 56.7666C67.2456 56.7582 67.5597 56.7802 67.8115 56.8457C68.6317 57.0592 69.5958 57.9178 70.0801 58.7861V58.7871C70.6515 59.8402 70.7568 61.0856 70.3691 62.2197L70.3662 62.2285C69.9884 63.3648 69.2316 63.8715 67.877 64.5488C67.2625 64.6311 66.654 64.6737 66.1006 64.627L65.8467 64.5986C64.7384 64.4435 64.0808 63.6451 63.2139 62.3857C63.1615 61.1647 63.1146 60.1513 63.4209 59.2168C63.7972 58.0693 64.5534 57.5197 65.8691 56.8193C66.2209 56.7975 66.5144 56.774 66.8564 56.7666Z" fill="#FCF7F6" stroke="black" stroke-width="2.1"/>
<path d="M33.9629 47.4121C34.6988 47.4287 35.3577 47.4946 36.0078 47.6836V47.6846C36.9812 47.9692 37.8098 48.6087 38.332 49.4727L38.4326 49.6484C38.8204 50.3866 38.8924 51.2086 38.626 51.9678V51.9688C38.2283 53.1038 37.3942 53.6671 36.0391 54.3223C35.1775 54.3961 34.4637 54.4726 33.791 54.374H33.7891C32.962 54.2547 32.2183 53.8027 31.7314 53.123C31.3514 52.5915 31.1933 51.8648 31.2734 51.1377L31.3223 50.8262C31.6267 49.3438 32.5586 48.3594 33.9629 47.4121Z" fill="#FCF7F6" stroke="black" stroke-width="2.1"/>
<path d="M54.501 51.3242C55.3484 51.3741 56.1396 51.7807 56.7393 52.4482L56.8564 52.585C57.4918 53.363 57.7551 54.3274 57.5869 55.2979C57.4625 56.0149 57.2343 56.5306 56.917 56.9658C56.6292 57.3606 56.2391 57.7216 55.709 58.1201C55.5184 58.1348 55.3279 58.1479 55.1377 58.1553H55.1357C53.7649 58.2109 52.8796 57.997 52.0566 57.1602C51.3873 56.4788 51.068 55.5948 51.1484 54.6455C51.2678 53.2448 51.8834 52.4829 53.083 51.4209C53.6111 51.3477 54.0558 51.2979 54.501 51.3242Z" fill="#FCF7F6" stroke="black" stroke-width="2.1"/>
<path d="M24.3203 59.4014C25.2384 59.3596 25.9962 59.3479 26.6201 59.582C27.5363 59.9258 28.4085 60.7872 28.8145 61.7207C29.049 62.2604 29.0837 62.8337 28.916 63.3486L28.832 63.5654C28.4513 64.4051 27.7827 64.8156 26.6553 65.2061C25.6172 65.2676 24.6302 65.295 23.8916 65.0459C23.1492 64.7956 22.3837 64.1422 22.1035 63.499C21.8615 62.9428 21.8156 62.4389 21.959 61.8936L22.0322 61.6572C22.2566 61.0204 22.5456 60.6239 22.9053 60.3037C23.2566 59.991 23.6996 59.7289 24.3203 59.4014Z" fill="#FCF7F6" stroke="black" stroke-width="2.1"/>
<path d="M48.6787 40.917C49.5252 40.5418 50.5005 40.6229 51.2715 41.1221L51.4229 41.2275C52.2145 41.8198 52.625 42.7938 52.4961 43.7734C52.3671 44.7537 51.7189 45.5878 50.8018 45.9551C49.4174 46.5091 47.8448 45.8522 47.2656 44.4785C46.6866 43.1052 47.315 41.5203 48.6777 40.917H48.6787Z" fill="#FCF7F6" stroke="black" stroke-width="2.1"/>
<path d="M197.948 328.069C198.951 328.034 200.137 328.033 201.344 328.055C203.227 328.088 205.136 328.174 206.442 328.252C206.473 329.187 206.529 330.4 206.59 331.743C206.675 333.639 206.767 335.828 206.8 337.968C206.833 340.113 206.806 342.183 206.659 343.845C206.586 344.677 206.485 345.38 206.354 345.928C206.217 346.506 206.074 346.788 205.995 346.886C205.414 347.6 204.368 347.996 203.209 348.121C202.259 348.224 200.969 348.317 199.758 348.214C198.493 348.106 197.567 347.803 197.099 347.336C197.022 347.259 196.861 347.004 196.699 346.424C196.547 345.877 196.426 345.163 196.336 344.31C196.157 342.605 196.115 340.466 196.145 338.244C196.174 336.029 196.272 333.762 196.367 331.811C196.437 330.386 196.505 329.11 196.542 328.158C196.923 328.12 197.396 328.089 197.948 328.069Z" fill="url(#paint1_linear_3641_639)" stroke="black" stroke-width="2.1"/>
<path d="M184.328 301.535C190.46 295.614 198.584 293.067 206.028 294.039C213.448 295.008 220.222 299.474 223.742 307.68C224.737 309.999 225.821 313.62 226.23 317.213C226.644 320.841 226.334 324.149 224.883 326.151C224.781 326.26 224.534 326.443 224.051 326.657C223.566 326.872 222.935 327.081 222.185 327.278C220.685 327.673 218.804 327.996 216.861 328.246C212.955 328.749 208.971 328.931 207.549 328.83C206.327 328.737 203.833 328.608 201.386 328.564C200.16 328.543 198.934 328.543 197.879 328.58C196.91 328.615 196.009 328.684 195.384 328.821C193.926 328.917 189.55 328.583 185.24 327.924C183.075 327.593 180.979 327.187 179.336 326.732C178.513 326.504 177.831 326.272 177.321 326.041C176.771 325.792 176.568 325.609 176.529 325.557C174.184 322.361 174.622 317.797 176.555 313.108C178.465 308.473 181.701 304.072 184.328 301.535Z" fill="#FF80AB" stroke="black" stroke-width="2.1"/>
<path d="M196.443 311.099C197.257 311.08 198.025 311.133 198.635 311.351L198.892 311.457C199.627 311.808 200.194 312.363 200.464 313.029L200.514 313.164C200.791 313.986 200.659 314.924 200.186 315.76H200.185C199.451 317.055 198.315 317.631 196.664 318.101C195.294 318.067 194.347 317.962 193.362 317.351C192.49 316.808 191.89 316.025 191.743 315.14V315.139C191.612 314.351 191.836 313.574 192.369 312.882C193.292 311.683 194.592 311.367 196.443 311.099Z" fill="#FCF7F6" stroke="black" stroke-width="2.1"/>
<path d="M221.31 310.663C221.699 310.655 222.013 310.677 222.265 310.742C223.085 310.956 224.049 311.814 224.533 312.683V312.684C225.105 313.737 225.21 314.982 224.822 316.116L224.819 316.125C224.441 317.261 223.685 317.768 222.33 318.445C221.716 318.528 221.107 318.57 220.554 318.523L220.3 318.495C219.191 318.34 218.534 317.542 217.667 316.282C217.615 315.061 217.568 314.048 217.874 313.113C218.25 311.966 219.007 311.416 220.322 310.716C220.674 310.694 220.968 310.67 221.31 310.663Z" fill="#FCF7F6" stroke="black" stroke-width="2.1"/>
<path d="M188.416 301.311C189.152 301.327 189.811 301.393 190.461 301.582V301.583C191.434 301.868 192.263 302.507 192.785 303.371L192.886 303.547C193.274 304.285 193.346 305.107 193.079 305.866V305.867C192.681 307.002 191.847 307.566 190.492 308.221C189.631 308.295 188.917 308.371 188.244 308.272H188.242C187.415 308.153 186.671 307.701 186.185 307.021C185.804 306.49 185.646 305.763 185.727 305.036L185.775 304.725C186.08 303.242 187.012 302.258 188.416 301.311Z" fill="#FCF7F6" stroke="black" stroke-width="2.1"/>
<path d="M208.954 305.225C209.802 305.275 210.593 305.681 211.192 306.349L211.31 306.485C211.945 307.263 212.208 308.228 212.04 309.198C211.916 309.915 211.687 310.431 211.37 310.866C211.082 311.261 210.692 311.622 210.162 312.021C209.971 312.035 209.781 312.048 209.591 312.056H209.589C208.218 312.111 207.333 311.897 206.51 311.061C205.84 310.379 205.521 309.495 205.602 308.546C205.721 307.145 206.337 306.383 207.536 305.321C208.064 305.248 208.509 305.198 208.954 305.225Z" fill="#FCF7F6" stroke="black" stroke-width="2.1"/>
<path d="M178.773 313.306C179.692 313.264 180.449 313.252 181.073 313.486C181.989 313.83 182.862 314.692 183.268 315.625C183.502 316.165 183.537 316.738 183.369 317.253L183.285 317.47C182.904 318.309 182.236 318.72 181.108 319.11C180.07 319.172 179.083 319.199 178.345 318.95C177.602 318.7 176.837 318.047 176.557 317.403C176.315 316.847 176.269 316.343 176.412 315.798L176.485 315.562C176.71 314.925 176.999 314.528 177.358 314.208C177.71 313.895 178.153 313.633 178.773 313.306Z" fill="#FCF7F6" stroke="black" stroke-width="2.1"/>
<path d="M203.132 294.817C203.978 294.442 204.954 294.523 205.725 295.022L205.876 295.128C206.668 295.72 207.078 296.694 206.949 297.674C206.82 298.654 206.172 299.488 205.255 299.855C203.87 300.409 202.298 299.753 201.719 298.379C201.14 297.006 201.768 295.421 203.131 294.817H203.132Z" fill="#FCF7F6" stroke="black" stroke-width="2.1"/>
<path d="M469.651 98.9521C470.654 98.9165 471.84 98.9161 473.047 98.9375C474.93 98.9709 476.839 99.0565 478.146 99.1348C478.176 100.07 478.233 101.283 478.293 102.626C478.378 104.522 478.47 106.711 478.503 108.851C478.536 110.996 478.509 113.066 478.362 114.728C478.289 115.559 478.188 116.263 478.058 116.811C477.92 117.389 477.778 117.671 477.698 117.769C477.117 118.483 476.071 118.879 474.912 119.004C473.962 119.107 472.672 119.2 471.461 119.097C470.196 118.989 469.27 118.686 468.802 118.219C468.725 118.142 468.564 117.887 468.402 117.307C468.25 116.76 468.129 116.046 468.039 115.192C467.86 113.488 467.819 111.348 467.848 109.127C467.877 106.912 467.975 104.645 468.07 102.693C468.14 101.269 468.208 99.9929 468.245 99.041C468.626 99.0026 469.099 98.9718 469.651 98.9521Z" fill="url(#paint2_linear_3641_639)" stroke="black" stroke-width="2.1"/>
<path d="M456.023 72.4219C462.155 66.5009 470.28 63.9533 477.724 64.9258C485.144 65.8952 491.917 70.3607 495.438 78.5664C496.433 80.886 497.516 84.5068 497.926 88.0996C498.339 91.7278 498.029 95.0358 496.578 97.0381C496.476 97.147 496.23 97.3299 495.746 97.5439C495.261 97.7586 494.631 97.9676 493.88 98.165C492.38 98.5596 490.499 98.8829 488.557 99.1328C484.651 99.6353 480.666 99.8175 479.244 99.7168C478.022 99.6239 475.529 99.4945 473.081 99.4512C471.855 99.4294 470.629 99.4293 469.574 99.4668C468.606 99.5013 467.705 99.571 467.079 99.708C465.621 99.8037 461.245 99.4695 456.936 98.8105C454.77 98.4794 452.674 98.0741 451.031 97.6191C450.208 97.3912 449.526 97.1584 449.017 96.9277C448.466 96.6785 448.263 96.4956 448.225 96.4434C445.879 93.2473 446.318 88.6833 448.25 83.9951C450.16 79.3602 453.396 74.959 456.023 72.4219Z" fill="#FF80AB" stroke="black" stroke-width="2.1"/>
<path d="M468.146 81.9854C468.961 81.9672 469.728 82.02 470.338 82.2373L470.595 82.3438C471.33 82.6948 471.897 83.2502 472.167 83.916L472.217 84.0508C472.494 84.873 472.362 85.8111 471.889 86.6465H471.888C471.154 87.9412 470.019 88.5172 468.367 88.9873C466.997 88.9536 466.05 88.8487 465.065 88.2373C464.193 87.6952 463.593 86.912 463.446 86.0264V86.0254C463.315 85.2374 463.539 84.4608 464.072 83.7686C464.995 82.57 466.295 82.2539 468.146 81.9854Z" fill="#FCF7F6" stroke="black" stroke-width="2.1"/>
<path d="M493.021 81.5479C493.41 81.5394 493.724 81.5615 493.976 81.627C494.796 81.8404 495.76 82.699 496.244 83.5674V83.5684C496.816 84.6215 496.921 85.8669 496.533 87.001L496.53 87.0098C496.152 88.146 495.396 88.6528 494.041 89.3301C493.427 89.4124 492.818 89.455 492.265 89.4082L492.011 89.3799C490.902 89.2247 490.245 88.4263 489.378 87.167C489.326 85.9459 489.279 84.9326 489.585 83.998C489.961 82.8506 490.717 82.3009 492.033 81.6006C492.385 81.5787 492.679 81.5553 493.021 81.5479Z" fill="#FCF7F6" stroke="black" stroke-width="2.1"/>
<path d="M460.111 72.1973C460.847 72.2138 461.506 72.2797 462.156 72.4688V72.4697C463.13 72.7543 463.958 73.3939 464.48 74.2578L464.581 74.4336C464.969 75.1717 465.041 75.9937 464.774 76.7529V76.7539C464.377 77.8889 463.543 78.4523 462.188 79.1074C461.326 79.1813 460.612 79.2577 459.939 79.1592H459.938C459.11 79.0398 458.367 78.5879 457.88 77.9082C457.5 77.3766 457.342 76.6499 457.422 75.9229L457.471 75.6113C457.775 74.1289 458.707 73.1446 460.111 72.1973Z" fill="#FCF7F6" stroke="black" stroke-width="2.1"/>
<path d="M480.649 76.1094C481.497 76.1593 482.288 76.5659 482.888 77.2334L483.005 77.3701C483.64 78.1482 483.904 79.1126 483.735 80.083C483.611 80.8001 483.383 81.3157 483.065 81.751C482.778 82.1457 482.388 82.5068 481.857 82.9053C481.667 82.92 481.476 82.933 481.286 82.9404H481.284C479.913 82.996 479.028 82.7822 478.205 81.9453C477.536 81.2639 477.216 80.38 477.297 79.4307C477.416 78.03 478.032 77.268 479.231 76.2061C479.76 76.1329 480.204 76.083 480.649 76.1094Z" fill="#FCF7F6" stroke="black" stroke-width="2.1"/>
<path d="M450.469 84.1904C451.387 84.1487 452.145 84.1369 452.769 84.3711C453.685 84.7148 454.557 85.5763 454.963 86.5098C455.197 87.0495 455.232 87.6228 455.064 88.1377L454.98 88.3545C454.6 89.1942 453.931 89.6046 452.804 89.9951C451.766 90.0567 450.779 90.0841 450.04 89.835C449.298 89.5847 448.532 88.9313 448.252 88.2881C448.01 87.7319 447.964 87.2279 448.107 86.6826L448.181 86.4463C448.405 85.8095 448.694 85.413 449.054 85.0928C449.405 84.78 449.848 84.518 450.469 84.1904Z" fill="#FCF7F6" stroke="black" stroke-width="2.1"/>
<path d="M474.827 65.7021C475.674 65.3269 476.649 65.408 477.42 65.9072L477.571 66.0127C478.363 66.605 478.773 67.5789 478.645 68.5586C478.515 69.5389 477.867 70.3729 476.95 70.7402C475.566 71.2942 473.993 70.6374 473.414 69.2637C472.835 67.8903 473.463 66.3055 474.826 65.7021H474.827Z" fill="#FCF7F6" stroke="black" stroke-width="2.1"/>
<path d="M40.4355 321.007C40.998 321.055 41.6358 321.096 42.2549 321.131C43.0143 321.173 43.7443 321.208 44.3525 321.238C44.5026 324.591 44.5412 328.028 44.5625 331.492C44.5835 334.912 44.5899 338.362 44.6758 341.755L40.4062 341.768C40.4484 334.847 40.4583 327.927 40.4355 321.007Z" fill="#FF80AB" stroke="black" stroke-width="2.1"/>
<path d="M41.5 266.742C43.0873 266.802 44.117 267.573 45.0342 268.771C45.5486 269.444 46.0082 270.228 46.498 271.093C46.9763 271.937 47.4872 272.865 48.0693 273.723C48.5153 274.38 49.3323 275.682 49.9844 276.988C50.3111 277.643 50.5816 278.27 50.7471 278.802C50.8428 279.109 50.885 279.334 50.9023 279.488C50.5029 279.795 50.159 279.921 49.791 279.982C49.2354 280.076 48.6642 280.035 47.6445 280.037L45.6172 280.041L46.79 281.694C47.6498 282.906 49.5703 285.31 50.9756 287.775C51.6773 289.006 52.1937 290.159 52.3857 291.101C52.58 292.053 52.3994 292.515 52.1162 292.762H52.1152C52.1134 292.763 52.0953 292.778 52.0508 292.799C52.0031 292.822 51.9357 292.848 51.8447 292.873C51.659 292.925 51.4212 292.962 51.1416 292.985C50.5669 293.033 49.988 293.012 49.4824 293.013L47.6455 293.017L48.5811 294.598C49.2525 295.732 51.1941 298.855 52.8877 301.954C53.7344 303.503 54.5002 305.014 55.0049 306.236C55.2583 306.85 55.4318 307.36 55.5215 307.748C55.5358 307.81 55.544 307.866 55.5527 307.914C54.9605 308.141 54.2376 308.223 53.3848 308.201C52.2619 308.172 51.1717 307.987 49.9805 307.868L47.2402 307.596L49.1025 309.624C49.9644 310.562 52.1294 313.613 53.8643 316.751C54.7284 318.314 55.4549 319.844 55.8584 321.103C56.0607 321.733 56.1666 322.251 56.1855 322.645C56.1924 322.787 56.1843 322.897 56.1738 322.981C55.0605 323.253 53.3936 323.275 51.5107 323.162C49.3882 323.034 47.3049 322.764 45.6807 322.626L45.6553 322.624L45.6289 322.623L44.2686 322.588C41.1132 322.542 38.0839 322.731 34.9404 323.023C33.6544 323.143 32.4309 323.307 31.2373 323.268C30.1567 323.232 29.2275 323.028 28.4629 322.534C28.2771 322.091 28.2664 321.404 28.5684 320.404C28.9016 319.301 29.5533 318.031 30.3662 316.731C31.9871 314.14 34.1211 311.635 35.1621 310.451L36.4863 308.944L34.4932 308.715C33.1016 308.555 32.0662 308.521 31.0752 308.289C30.2778 308.102 29.6182 307.803 29.042 307.235C29.0542 307.091 29.0837 306.906 29.1416 306.675C29.2444 306.264 29.4173 305.774 29.6543 305.219C30.1286 304.107 30.8228 302.815 31.5967 301.504C33.1425 298.885 34.9456 296.291 35.7891 295.066L36.835 293.548L34.9951 293.423C34.5634 293.394 34.0674 293.38 33.7803 293.364C33.4397 293.345 33.2032 293.317 33.0098 293.267C32.7391 293.196 32.4685 293.063 32.1211 292.577C32.0616 292.111 32.1594 291.498 32.4629 290.714C32.7998 289.844 33.3436 288.88 34 287.859C34.6552 286.841 35.3902 285.814 36.1035 284.8C36.8056 283.801 37.4931 282.807 38.002 281.904L38.0039 281.899L38.248 281.462L38.9746 280.159L37.5029 279.915C37.0037 279.832 36.5269 279.794 36.1436 279.758C35.7373 279.72 35.4421 279.685 35.1963 279.621C34.966 279.561 34.8237 279.486 34.7178 279.395C34.645 279.332 34.5607 279.235 34.4746 279.073C34.6107 278.524 34.9352 277.679 35.4326 276.616C36.0056 275.393 36.7584 273.982 37.5625 272.593C38.3662 271.204 39.2139 269.852 39.9746 268.745C40.5925 267.846 41.1189 267.16 41.5 266.742Z" fill="#F9B3D0" stroke="black" stroke-width="2.1"/>
<path d="M442.936 485.282C443.498 485.33 444.136 485.372 444.755 485.406C445.514 485.449 446.244 485.484 446.853 485.514C447.003 488.867 447.041 492.304 447.062 495.768C447.084 499.187 447.09 502.637 447.176 506.03L442.906 506.043C442.948 499.122 442.958 492.202 442.936 485.282Z" fill="#FF80AB" stroke="black" stroke-width="2.1"/>
<path d="M444.008 431.018C445.595 431.078 446.625 431.849 447.542 433.047C448.056 433.719 448.516 434.504 449.006 435.368C449.484 436.212 449.995 437.14 450.577 437.998C451.023 438.655 451.84 439.957 452.492 441.264C452.819 441.918 453.089 442.546 453.255 443.077C453.351 443.385 453.393 443.61 453.41 443.764C453.011 444.07 452.667 444.196 452.299 444.258C451.743 444.351 451.172 444.31 450.152 444.312L448.125 444.316L449.298 445.97C450.158 447.182 452.078 449.586 453.483 452.051C454.185 453.282 454.702 454.434 454.894 455.376C455.088 456.329 454.907 456.79 454.624 457.037H454.623C454.621 457.039 454.603 457.053 454.559 457.074C454.511 457.097 454.444 457.123 454.353 457.148C454.167 457.2 453.929 457.238 453.649 457.261C453.075 457.308 452.496 457.287 451.99 457.288L450.153 457.292L451.089 458.873C451.76 460.008 453.702 463.131 455.396 466.229C456.242 467.779 457.008 469.289 457.513 470.512C457.766 471.126 457.94 471.635 458.029 472.023C458.044 472.085 458.052 472.141 458.061 472.189C457.468 472.417 456.745 472.499 455.893 472.477C454.77 472.448 453.68 472.262 452.488 472.144L449.748 471.871L451.61 473.899C452.472 474.838 454.637 477.888 456.372 481.026C457.236 482.59 457.963 484.12 458.366 485.378C458.568 486.009 458.674 486.526 458.693 486.92C458.7 487.062 458.692 487.172 458.682 487.257C457.568 487.528 455.901 487.551 454.019 487.438C451.896 487.31 449.813 487.04 448.188 486.901L448.163 486.899L448.137 486.898L446.776 486.863C443.621 486.817 440.592 487.007 437.448 487.299C436.162 487.418 434.939 487.582 433.745 487.543C432.665 487.508 431.735 487.303 430.971 486.81C430.785 486.366 430.774 485.679 431.076 484.68C431.409 483.577 432.061 482.307 432.874 481.007C434.495 478.415 436.629 475.911 437.67 474.727L438.994 473.22L437.001 472.99C435.609 472.83 434.574 472.796 433.583 472.564C432.786 472.378 432.126 472.079 431.55 471.511C431.562 471.367 431.592 471.181 431.649 470.95C431.752 470.54 431.925 470.05 432.162 469.494C432.636 468.383 433.331 467.09 434.104 465.779C435.65 463.16 437.453 460.566 438.297 459.342L439.343 457.823L437.503 457.698C437.071 457.669 436.575 457.656 436.288 457.64C435.948 457.621 435.711 457.593 435.518 457.542C435.247 457.471 434.976 457.338 434.629 456.853C434.569 456.387 434.667 455.773 434.971 454.989C435.308 454.119 435.851 453.155 436.508 452.135C437.163 451.116 437.898 450.09 438.611 449.075C439.313 448.077 440.001 447.082 440.51 446.18L440.512 446.175L440.756 445.737L441.482 444.435L440.011 444.19C439.512 444.107 439.035 444.069 438.651 444.033C438.245 443.995 437.95 443.96 437.704 443.896C437.474 443.837 437.331 443.762 437.226 443.67C437.153 443.607 437.069 443.51 436.982 443.349C437.119 442.799 437.443 441.954 437.94 440.892C438.513 439.668 439.266 438.257 440.07 436.868C440.874 435.48 441.722 434.127 442.482 433.021C443.1 432.122 443.627 431.435 444.008 431.018Z" fill="#F9B3D0" stroke="black" stroke-width="2.1"/>
<path d="M583.521 304.208C584.084 304.256 584.722 304.297 585.341 304.332C586.1 304.375 586.83 304.41 587.438 304.439C587.589 307.792 587.627 311.23 587.648 314.693C587.669 318.113 587.676 321.563 587.762 324.956L583.492 324.969C583.534 318.048 583.544 311.128 583.521 304.208Z" fill="#FF80AB" stroke="black" stroke-width="2.1"/>
<path d="M584.602 249.941C586.189 250.002 587.219 250.772 588.136 251.971C588.65 252.643 589.11 253.428 589.6 254.292C590.078 255.136 590.589 256.064 591.171 256.922C591.617 257.579 592.434 258.881 593.086 260.188C593.413 260.842 593.683 261.47 593.849 262.001C593.944 262.309 593.987 262.534 594.004 262.688C593.604 262.994 593.261 263.12 592.893 263.182C592.337 263.275 591.766 263.234 590.746 263.236L588.719 263.24L589.892 264.894C590.751 266.105 592.672 268.51 594.077 270.975C594.779 272.206 595.295 273.358 595.487 274.3C595.682 275.253 595.501 275.714 595.218 275.961H595.217C595.215 275.962 595.197 275.977 595.152 275.998C595.105 276.021 595.037 276.047 594.946 276.072C594.761 276.124 594.523 276.161 594.243 276.185C593.668 276.232 593.09 276.211 592.584 276.212L590.747 276.216L591.683 277.797C592.354 278.932 594.296 282.055 595.989 285.153C596.836 286.703 597.602 288.213 598.106 289.436C598.36 290.049 598.533 290.559 598.623 290.947C598.637 291.009 598.646 291.065 598.654 291.113C598.062 291.341 597.339 291.422 596.486 291.4C595.363 291.371 594.273 291.186 593.082 291.067L590.342 290.795L592.204 292.823C593.066 293.762 595.231 296.812 596.966 299.95C597.83 301.514 598.557 303.044 598.96 304.302C599.162 304.933 599.268 305.45 599.287 305.844C599.294 305.986 599.286 306.096 599.275 306.181C598.162 306.452 596.495 306.475 594.612 306.361C592.49 306.234 590.406 305.964 588.782 305.825L588.757 305.823L588.73 305.822L587.37 305.787C584.215 305.741 581.185 305.931 578.042 306.223C576.756 306.342 575.532 306.506 574.339 306.467C573.258 306.431 572.329 306.227 571.564 305.733C571.379 305.29 571.368 304.603 571.67 303.604C572.003 302.5 572.655 301.23 573.468 299.931C575.089 297.339 577.223 294.834 578.264 293.65L579.588 292.144L577.595 291.914C576.203 291.754 575.168 291.72 574.177 291.488C573.379 291.302 572.72 291.003 572.144 290.435C572.156 290.291 572.185 290.105 572.243 289.874C572.346 289.463 572.519 288.974 572.756 288.418C573.23 287.306 573.924 286.014 574.698 284.703C576.244 282.084 578.047 279.49 578.891 278.266L579.937 276.747L578.097 276.622C577.665 276.593 577.169 276.58 576.882 276.563C576.541 276.544 576.305 276.516 576.111 276.466C575.841 276.395 575.57 276.262 575.223 275.776C575.163 275.311 575.261 274.697 575.564 273.913C575.901 273.043 576.445 272.079 577.102 271.059C577.757 270.04 578.492 269.013 579.205 267.999C579.907 267.001 580.595 266.006 581.104 265.104L581.105 265.099L581.35 264.661L582.076 263.358L580.604 263.114C580.105 263.031 579.628 262.993 579.245 262.957C578.839 262.919 578.544 262.884 578.298 262.82C578.068 262.76 577.925 262.685 577.819 262.594C577.747 262.531 577.662 262.434 577.576 262.272C577.712 261.723 578.037 260.878 578.534 259.815C579.107 258.592 579.86 257.181 580.664 255.792C581.468 254.404 582.315 253.051 583.076 251.944C583.694 251.045 584.22 250.359 584.602 249.941Z" fill="#F9B3D0" stroke="black" stroke-width="2.1"/>
<path d="M336.213 138.951C338.458 145.652 340.543 152.368 342.783 159.117L343.388 160.939L344.596 159.447C347.32 156.082 349.229 152.07 350.924 148.049C351.732 146.132 352.488 144.225 353.26 142.364C352.926 145.598 352.646 148.836 352.354 152.056C351.886 157.202 351.384 162.309 350.571 167.346C343.284 167.215 335.996 167.186 328.708 167.26C327.142 160.351 325.828 153.426 324.55 146.46C327.179 150.74 330.165 154.336 333.695 158.583L335.578 160.848L335.553 157.902C335.508 152.741 336.157 149.977 336.527 144.654L336.532 144.581L336.527 144.508C336.401 142.698 336.26 140.81 336.213 138.951Z" fill="#A6DE55" stroke="black" stroke-width="2.1"/>
<path d="M38.5566 429.689C40.8017 436.39 42.8871 443.106 45.127 449.855L45.7314 451.678L46.9395 450.186C49.6634 446.82 51.5724 442.809 53.2676 438.787C54.0756 436.87 54.8315 434.963 55.6035 433.103C55.2697 436.336 54.9895 439.574 54.6973 442.794C54.2302 447.94 53.7282 453.047 52.915 458.084C45.6282 457.953 38.3397 457.924 31.0518 457.998C29.5057 451.176 28.2047 444.337 26.9414 437.459C29.322 441.503 31.9406 444.899 35.3984 449.059L37.2822 451.324L37.2559 448.378C37.2342 445.878 37.5351 443.979 37.8955 442.032C38.2563 440.084 38.6864 438.048 38.8711 435.393L38.876 435.319L38.8711 435.246C38.7446 433.437 38.6036 431.548 38.5566 429.689Z" fill="#A6DE55" stroke="black" stroke-width="2.1"/>
<path d="M313.533 477.115C315.778 483.816 317.864 490.532 320.104 497.281L320.708 499.104L321.916 497.611C324.64 494.246 326.549 490.234 328.244 486.213C329.052 484.296 329.808 482.389 330.58 480.528C330.246 483.762 329.966 487 329.674 490.22C329.207 495.366 328.705 500.473 327.892 505.51C320.605 505.379 313.316 505.35 306.028 505.424C304.461 498.508 303.146 491.575 301.866 484.601C304.459 488.792 307.383 492.253 310.9 496.484L312.783 498.75L312.758 495.804C312.736 493.265 312.914 491.337 313.145 489.39C313.375 487.444 313.666 485.434 313.848 482.818L313.853 482.745L313.848 482.672C313.721 480.862 313.58 478.974 313.533 477.115Z" fill="#A6DE55" stroke="black" stroke-width="2.1"/>
<path d="M421 139H531V40.1671C531 31.7894 537.791 24.998 546.169 24.998C554.547 24.998 561.338 31.7894 561.338 40.1671V531.162H609.384V561.5H434.125C425.747 561.5 418.956 554.708 418.956 546.331C418.956 537.953 425.747 531.162 434.125 531.162H531V169.338H411.61C400.041 169.338 390.662 159.959 390.662 148.39V57.4981H281.5V178.552C281.5 190.121 272.069 197.338 260.5 197.338H196.958V258.997C196.958 270.566 187.58 279.944 176.011 279.944L113.338 279.946L113.286 362.859L260 362.857C271.569 362.857 280.948 372.236 280.948 383.805L281 456.39C281 467.959 271.621 477.338 260.052 477.338L113.234 477.176V530.5L363.162 530.662V309.338H271.61C260.041 309.338 250.662 299.959 250.662 288.39V243.61C250.662 232.041 260.041 222.662 271.61 222.662H484.5C496.069 222.662 505.448 232.041 505.448 243.61V414.577C505.448 422.954 498.656 429.746 490.279 429.746C481.901 429.746 475.11 422.954 475.11 414.577V253H281V279H372.552C384.121 279 393.5 288.379 393.5 299.948V540.052C393.5 551.621 384.121 561 372.552 561L103.844 560.838C92.2745 560.838 82.8959 551.459 82.8959 539.89V467.786C82.8959 456.217 92.2745 446.838 103.844 446.838L250.662 447L250.61 393.195L103.895 393.197C92.3263 393.197 82.9477 383.819 82.9477 372.25L83 197.156L4 197.154V166.816L83 166.818V104.11C83 92.5406 92.3786 83.162 103.948 83.162H194.831V54.0278C194.831 45.6502 201.622 38.8588 210 38.8588C218.378 38.8588 225.169 45.6502 225.169 54.0278V92.5523C225.169 104.121 215.79 113.5 204.221 113.5H113.338V249.608L166.62 249.606V187.948C166.62 176.379 175.999 167 187.568 167H252L251.162 48.1077C251.162 36.5386 260.541 27.16 272.11 27.16H400.052C411.621 27.16 421 36.5386 421 48.1077V139Z" fill="#FF80AB" stroke="black" stroke-width="2.1"/>
<defs>
<linearGradient id="paint0_linear_3641_639" x1="45.6777" y1="73.2" x2="48.0539" y2="94.6906" gradientUnits="userSpaceOnUse">
<stop stop-color="#FFDAE2"/>
<stop offset="1" stop-color="#FFF0F6"/>
</linearGradient>
<linearGradient id="paint1_linear_3641_639" x1="200.131" y1="327.102" x2="202.507" y2="348.593" gradientUnits="userSpaceOnUse">
<stop stop-color="#FFDAE2"/>
<stop offset="1" stop-color="#FFF0F6"/>
</linearGradient>
<linearGradient id="paint2_linear_3641_639" x1="471.834" y1="97.9852" x2="474.21" y2="119.476" gradientUnits="userSpaceOnUse">
<stop stop-color="#FFDAE2"/>
<stop offset="1" stop-color="#FFF0F6"/>
</linearGradient>
</defs>
</svg>
