<svg width="583" height="591" viewBox="0 0 583 591" fill="none" xmlns="http://www.w3.org/2000/svg">
<g clip-path="url(#clip0_3592_775)">
<rect x="32.4766" y="52.9609" width="509.394" height="516.671" rx="32.7467" fill="#F7CB46"/>
<rect x="34.2958" y="54.7802" width="505.755" height="513.032" fill="#F7CB46" stroke="black" stroke-width="3.63853"/>
<rect x="88.3629" y="97.9313" width="230.249" height="27.909" fill="#FF80AB" stroke="black" stroke-width="2.61647"/>
<rect x="290.699" y="328.18" width="230.249" height="27.909" transform="rotate(-90 290.699 328.18)" fill="#FF80AB" stroke="black" stroke-width="2.61647"/>
<rect x="88.3629" y="125.637" width="68.9412" height="27.7046" transform="rotate(-90 88.3629 125.637)" fill="#FF80AB" stroke="black" stroke-width="2.61647"/>
<rect x="318.614" y="328.18" width="230.249" height="27.909" transform="rotate(180 318.614 328.18)" fill="#FF80AB" stroke="black" stroke-width="2.61647"/>
<rect x="88.3629" y="530.726" width="230.249" height="27.909" transform="rotate(-90 88.3629 530.726)" fill="#FF80AB" stroke="black" stroke-width="2.61647"/>
<rect x="456.871" y="531.939" width="368.513" height="27.7046" transform="rotate(180 456.871 531.939)" fill="#FF80AB" stroke="black" stroke-width="2.61647"/>
<rect x="429.168" y="531.939" width="368.513" height="27.7046" transform="rotate(-90 429.168 531.939)" fill="#FF80AB" stroke="black" stroke-width="2.61647"/>
<rect x="429.168" y="163.425" width="111.391" height="27.7046" fill="#FF80AB" stroke="black" stroke-width="2.61647"/>
</g>
<rect x="34.2958" y="54.7802" width="505.755" height="513.032" rx="30.9275" stroke="white" stroke-width="3.63853"/>
<rect x="1.5" y="1.5" width="578.937" height="587.25" rx="35.9102" fill="#F7CB46"/>
<rect x="1.5" y="1.5" width="578.937" height="587.25" rx="35.9102" stroke="white" stroke-width="3"/>
<path d="M44.2803 70.5996C45.2356 70.5656 46.3643 70.5656 47.5137 70.5859C49.3068 70.6177 51.1248 70.6989 52.3691 70.7734C52.3979 71.6638 52.4532 72.819 52.5107 74.0986C52.5919 75.9047 52.6797 77.9892 52.7109 80.0273C52.7423 82.0704 52.7167 84.0412 52.5771 85.624C52.5073 86.4164 52.4111 87.0868 52.2871 87.6084C52.1561 88.1595 52.0199 88.4274 51.9443 88.5205C51.4602 89.1156 50.6367 89.4793 49.6992 89.6406L49.291 89.6973C48.3865 89.7953 47.1575 89.8834 46.0039 89.7852C44.7992 89.6826 43.9165 89.3945 43.4707 88.9492C43.3975 88.8758 43.2446 88.6329 43.0908 88.0811C42.9457 87.5603 42.8305 86.8804 42.7451 86.0674C42.5746 84.4438 42.5348 82.4058 42.5625 80.29C42.5901 78.1801 42.6846 76.0215 42.7754 74.1631C42.8417 72.8062 42.9063 71.5911 42.9414 70.6846C43.3038 70.648 43.7541 70.6183 44.2803 70.5996Z" fill="url(#paint0_linear_3592_775)" stroke="black" stroke-width="2"/>
<path d="M31.3076 45.3311C37.1476 39.692 44.8851 37.2662 51.9746 38.1924C59.0413 39.1157 65.4922 43.3686 68.8447 51.1836C69.7924 53.3927 70.8239 56.841 71.2139 60.2627C71.6075 63.7172 71.3138 66.8674 69.9326 68.7744C69.8365 68.878 69.6014 69.0521 69.1387 69.2568C68.6767 69.4613 68.0764 69.6605 67.3613 69.8486C65.9328 70.2244 64.1413 70.5325 62.291 70.7705C58.5756 71.2485 54.786 71.4223 53.4277 71.3271H53.4287C52.2673 71.2387 49.8879 71.1156 47.5527 71.0742C46.3849 71.0535 45.2174 71.0531 44.2129 71.0889C43.2903 71.1217 42.4316 71.1868 41.8359 71.3174C40.4472 71.4084 36.2799 71.0904 32.1758 70.4629C30.1132 70.1475 28.1171 69.7623 26.5527 69.3291C25.7688 69.112 25.1193 68.8896 24.6338 68.6699C24.1095 68.4326 23.9164 68.2587 23.8799 68.209C21.6459 65.1651 22.064 60.8184 23.9043 56.3535C25.6101 52.2151 28.4251 48.2723 30.832 45.8047L31.3076 45.3311Z" fill="#FF80AB" stroke="black" stroke-width="2"/>
<path d="M42.8369 54.4385C43.7269 54.4184 44.559 54.4881 45.1719 54.7803V54.7793C45.8721 55.1137 46.4118 55.6431 46.6689 56.2773L46.7158 56.4053C46.9637 57.1396 46.869 57.9709 46.4844 58.7275L46.4033 58.8779C45.7045 60.1109 44.6225 60.6588 43.0498 61.1064C41.7451 61.0744 40.8426 60.9748 39.9053 60.3926C39.1262 59.9085 38.5756 59.2223 38.3945 58.4434L38.3633 58.2861L38.3438 58.1455C38.2661 57.4433 38.4828 56.7539 38.959 56.1357H38.96C39.8384 54.9951 41.0753 54.6941 42.8369 54.4385Z" fill="#FCF7F6" stroke="black" stroke-width="2"/>
<path d="M66.5293 54.0264C66.9001 54.0183 67.1996 54.0391 67.4395 54.1016C68.2207 54.3049 69.1385 55.123 69.5996 55.9502V55.9512C70.1438 56.9541 70.2443 58.1397 69.875 59.2197L69.8721 59.2275C69.5123 60.3096 68.7918 60.7925 67.502 61.4375C66.8258 61.5281 66.1571 61.5674 65.5684 61.4854C64.5126 61.3376 63.8864 60.5766 63.0605 59.377C63.0107 58.2142 62.966 57.2493 63.2578 56.3594C63.6163 55.2664 64.3365 54.7433 65.5898 54.0762C65.9246 54.0554 66.2038 54.0334 66.5293 54.0264Z" fill="#FCF7F6" stroke="black" stroke-width="2"/>
<path d="M35.2031 45.1191C35.9019 45.1351 36.5279 45.1974 37.1455 45.377V45.3779C38.1319 45.6663 38.9624 46.3373 39.4512 47.2412V47.2422C39.8003 47.903 39.8835 48.6347 39.6826 49.3213L39.6387 49.458C39.2598 50.5394 38.4653 51.076 37.1738 51.7002C36.3541 51.7705 35.6753 51.8427 35.0352 51.749H35.0322C34.2446 51.6353 33.5369 51.2049 33.0732 50.5576C32.7112 50.0514 32.5594 49.3595 32.6357 48.667L32.6826 48.3701C32.9728 46.9571 33.8638 46.022 35.2031 45.1191Z" fill="#FCF7F6" stroke="black" stroke-width="2"/>
<path d="M54.7598 48.8438C55.6202 48.8944 56.4193 49.3306 57.002 50.043V50.0439C57.6073 50.7851 57.8586 51.7034 57.6982 52.6279C57.5797 53.3108 57.3618 53.8013 57.0596 54.2158C56.7855 54.5917 56.4149 54.936 55.9102 55.3154C55.7286 55.3294 55.5473 55.3416 55.3662 55.3486H55.3643C54.0586 55.4016 53.2164 55.1984 52.4326 54.4014C51.7949 53.7525 51.4899 52.911 51.5664 52.0068C51.6801 50.6725 52.267 49.9465 53.4102 48.9346C53.8379 48.8753 54.2083 48.8328 54.5703 48.8369L54.7598 48.8438Z" fill="#FCF7F6" stroke="black" stroke-width="2"/>
<path d="M26.0117 56.5381C26.8868 56.4983 27.6095 56.4868 28.2041 56.71V56.7109C29.0765 57.0384 29.9073 57.8583 30.2939 58.7471C30.5492 59.3343 30.5557 59.9639 30.3105 60.5039L30.3096 60.5049C29.9468 61.3046 29.3104 61.6955 28.2363 62.0674C27.3125 62.1222 26.4315 62.1487 25.7461 61.958L25.6055 61.915L25.4727 61.8652C24.8089 61.5982 24.1525 61.0149 23.9023 60.4404C23.6392 59.8354 23.6194 59.2957 23.834 58.6875V58.6865C24.0477 58.0803 24.3236 57.7033 24.666 57.3984C25.0004 57.1008 25.4211 56.8498 26.0117 56.5381Z" fill="#FCF7F6" stroke="black" stroke-width="2"/>
<path d="M49.2148 38.9326C50.0749 38.5512 51.0749 38.6637 51.8291 39.2275C52.5829 39.7916 52.9733 40.7194 52.8506 41.6523C52.7277 42.5859 52.1108 43.3806 51.2373 43.7305C49.9189 44.2581 48.4208 43.6324 47.8691 42.3242C47.3178 41.0164 47.9163 39.5073 49.2139 38.9326H49.2148Z" fill="#FCF7F6" stroke="black" stroke-width="2"/>
<path d="M173.28 328.602C174.236 328.568 175.364 328.568 176.514 328.588C178.307 328.62 180.125 328.701 181.369 328.775C181.398 329.666 181.453 330.821 181.511 332.101C181.592 333.907 181.68 335.991 181.711 338.029C181.742 340.072 181.717 342.043 181.577 343.626C181.507 344.418 181.411 345.089 181.287 345.61C181.156 346.161 181.02 346.429 180.944 346.522C180.46 347.118 179.637 347.481 178.699 347.643L178.291 347.699C177.386 347.797 176.158 347.885 175.004 347.787C173.799 347.685 172.917 347.396 172.471 346.951C172.397 346.878 172.245 346.635 172.091 346.083C171.946 345.562 171.831 344.882 171.745 344.069C171.575 342.446 171.535 340.408 171.562 338.292C171.59 336.182 171.685 334.023 171.775 332.165C171.842 330.808 171.906 329.593 171.941 328.687C172.304 328.65 172.754 328.62 173.28 328.602Z" fill="url(#paint1_linear_3592_775)" stroke="black" stroke-width="2"/>
<path d="M160.308 303.33C166.148 297.691 173.885 295.265 180.975 296.191C188.041 297.115 194.492 301.368 197.845 309.183C198.792 311.392 199.824 314.84 200.214 318.262C200.608 321.716 200.314 324.866 198.933 326.773C198.837 326.877 198.601 327.051 198.139 327.256C197.677 327.46 197.076 327.66 196.361 327.848C194.933 328.223 193.141 328.531 191.291 328.77C187.576 329.247 183.786 329.421 182.428 329.326H182.429C181.267 329.238 178.888 329.115 176.553 329.073C175.385 329.053 174.217 329.052 173.213 329.088C172.29 329.121 171.432 329.186 170.836 329.316C169.447 329.407 165.28 329.089 161.176 328.462C159.113 328.147 157.117 327.761 155.553 327.328C154.769 327.111 154.119 326.889 153.634 326.669C153.109 326.432 152.916 326.258 152.88 326.208C150.646 323.164 151.064 318.817 152.904 314.353C154.61 310.214 157.425 306.271 159.832 303.804L160.308 303.33Z" fill="#FF80AB" stroke="black" stroke-width="2"/>
<path d="M171.845 312.44C172.735 312.42 173.567 312.49 174.18 312.782V312.781C174.88 313.116 175.42 313.645 175.677 314.279L175.724 314.407C175.971 315.142 175.877 315.973 175.492 316.729L175.411 316.88C174.712 318.113 173.63 318.661 172.058 319.108C170.753 319.076 169.85 318.977 168.913 318.395C168.134 317.91 167.583 317.224 167.402 316.445L167.371 316.288L167.352 316.147C167.274 315.445 167.491 314.756 167.967 314.138H167.968C168.846 312.997 170.083 312.696 171.845 312.44Z" fill="#FCF7F6" stroke="black" stroke-width="2"/>
<path d="M195.529 312.026C195.9 312.018 196.2 312.039 196.439 312.102C197.221 312.305 198.139 313.123 198.6 313.95V313.951C199.144 314.954 199.244 316.14 198.875 317.22L198.872 317.228C198.512 318.31 197.792 318.793 196.502 319.438C195.826 319.528 195.157 319.567 194.568 319.485C193.513 319.338 192.886 318.577 192.061 317.377C192.011 316.214 191.966 315.249 192.258 314.359C192.616 313.266 193.336 312.743 194.59 312.076C194.925 312.055 195.204 312.033 195.529 312.026Z" fill="#FCF7F6" stroke="black" stroke-width="2"/>
<path d="M164.211 303.119C164.91 303.135 165.536 303.197 166.153 303.377V303.378C167.14 303.666 167.97 304.337 168.459 305.241V305.242C168.808 305.903 168.891 306.635 168.69 307.321L168.646 307.458C168.268 308.539 167.473 309.076 166.182 309.7C165.362 309.77 164.683 309.843 164.043 309.749H164.04C163.252 309.635 162.545 309.205 162.081 308.558C161.719 308.051 161.567 307.359 161.644 306.667L161.69 306.37C161.981 304.957 162.872 304.022 164.211 303.119Z" fill="#FCF7F6" stroke="black" stroke-width="2"/>
<path d="M183.76 306.846C184.62 306.896 185.419 307.333 186.002 308.045V308.046C186.607 308.787 186.859 309.705 186.698 310.63C186.58 311.313 186.362 311.803 186.06 312.218C185.785 312.594 185.415 312.938 184.91 313.317C184.729 313.331 184.547 313.344 184.366 313.351H184.364C183.059 313.404 182.216 313.2 181.433 312.403C180.795 311.754 180.49 310.913 180.566 310.009C180.68 308.674 181.267 307.948 182.41 306.937C182.838 306.877 183.208 306.835 183.57 306.839L183.76 306.846Z" fill="#FCF7F6" stroke="black" stroke-width="2"/>
<path d="M155.02 314.541C155.895 314.501 156.617 314.49 157.212 314.713V314.714C158.084 315.041 158.915 315.861 159.302 316.75C159.557 317.337 159.563 317.967 159.318 318.507L159.317 318.508C158.955 319.307 158.318 319.698 157.244 320.07C156.32 320.125 155.439 320.152 154.754 319.961L154.613 319.918L154.48 319.868C153.817 319.601 153.16 319.018 152.91 318.443C152.647 317.838 152.627 317.299 152.842 316.69V316.689C153.055 316.083 153.331 315.706 153.674 315.401C154.008 315.104 154.429 314.853 155.02 314.541Z" fill="#FCF7F6" stroke="black" stroke-width="2"/>
<path d="M178.215 296.934C179.075 296.552 180.075 296.665 180.829 297.229C181.583 297.793 181.973 298.72 181.851 299.653C181.728 300.587 181.111 301.382 180.237 301.731C178.919 302.259 177.421 301.633 176.869 300.325C176.318 299.017 176.916 297.508 178.214 296.934H178.215Z" fill="#FCF7F6" stroke="black" stroke-width="2"/>
<path d="M447.28 113.252C448.236 113.218 449.364 113.218 450.514 113.238C452.307 113.27 454.125 113.351 455.369 113.426C455.398 114.316 455.453 115.471 455.511 116.751C455.592 118.557 455.68 120.642 455.711 122.68C455.742 124.723 455.717 126.694 455.577 128.276C455.507 129.069 455.411 129.739 455.287 130.261C455.156 130.812 455.02 131.08 454.944 131.173C454.46 131.768 453.637 132.132 452.699 132.293L452.291 132.35C451.386 132.448 450.158 132.536 449.004 132.438C447.799 132.335 446.917 132.047 446.471 131.602C446.397 131.528 446.245 131.285 446.091 130.733C445.946 130.213 445.831 129.533 445.745 128.72C445.575 127.096 445.535 125.058 445.562 122.942C445.59 120.832 445.685 118.674 445.775 116.815C445.842 115.459 445.906 114.243 445.941 113.337C446.304 113.3 446.754 113.271 447.28 113.252Z" fill="url(#paint2_linear_3592_775)" stroke="black" stroke-width="2"/>
<path d="M434.308 87.9844C440.148 82.3454 447.885 79.9195 454.975 80.8457C462.041 81.769 468.492 86.022 471.845 93.8369C472.792 96.046 473.824 99.4944 474.214 102.916C474.608 106.371 474.314 109.521 472.933 111.428C472.837 111.531 472.601 111.705 472.139 111.91C471.677 112.115 471.076 112.314 470.361 112.502C468.933 112.878 467.141 113.186 465.291 113.424C461.576 113.902 457.786 114.076 456.428 113.98H456.429C455.267 113.892 452.888 113.769 450.553 113.728C449.385 113.707 448.217 113.706 447.213 113.742C446.29 113.775 445.432 113.84 444.836 113.971C443.447 114.062 439.28 113.744 435.176 113.116C433.113 112.801 431.117 112.416 429.553 111.982C428.769 111.765 428.119 111.543 427.634 111.323C427.109 111.086 426.916 110.912 426.88 110.862C424.646 107.818 425.064 103.472 426.904 99.0068C428.61 94.8684 431.425 90.9256 433.832 88.458L434.308 87.9844Z" fill="#FF80AB" stroke="black" stroke-width="2"/>
<path d="M445.845 97.0947C446.735 97.0747 447.567 97.1443 448.18 97.4365V97.4355C448.88 97.77 449.42 98.2994 449.677 98.9336L449.724 99.0615C449.971 99.7958 449.877 100.627 449.492 101.384L449.411 101.534C448.712 102.767 447.63 103.315 446.058 103.763C444.753 103.731 443.85 103.631 442.913 103.049C442.134 102.565 441.583 101.879 441.402 101.1L441.371 100.942L441.352 100.802C441.274 100.1 441.491 99.4102 441.967 98.792H441.968C442.846 97.6514 444.083 97.3503 445.845 97.0947Z" fill="#FCF7F6" stroke="black" stroke-width="2"/>
<path d="M469.537 96.6777C469.908 96.6697 470.207 96.6905 470.447 96.7529C471.228 96.9563 472.146 97.7744 472.607 98.6016V98.6025C473.152 99.6055 473.252 100.791 472.883 101.871L472.88 101.879C472.52 102.961 471.8 103.444 470.51 104.089C469.834 104.179 469.165 104.219 468.576 104.137C467.52 103.989 466.894 103.228 466.068 102.028C466.019 100.866 465.974 99.9007 466.266 99.0107C466.624 97.9178 467.344 97.3946 468.598 96.7275C468.932 96.7067 469.212 96.6848 469.537 96.6777Z" fill="#FCF7F6" stroke="black" stroke-width="2"/>
<path d="M438.203 87.7734C438.902 87.7894 439.528 87.8517 440.146 88.0312V88.0322C441.132 88.3206 441.962 88.9916 442.451 89.8955V89.8965C442.8 90.5573 442.884 91.289 442.683 91.9756L442.639 92.1123C442.26 93.1937 441.465 93.7303 440.174 94.3545C439.354 94.4248 438.675 94.497 438.035 94.4033H438.032C437.245 94.2896 436.537 93.8592 436.073 93.2119C435.711 92.7057 435.559 92.0138 435.636 91.3213L435.683 91.0244C435.973 89.6114 436.864 88.6763 438.203 87.7734Z" fill="#FCF7F6" stroke="black" stroke-width="2"/>
<path d="M457.76 91.4971C458.62 91.5477 459.419 91.9839 460.002 92.6963V92.6973C460.607 93.4384 460.859 94.3568 460.698 95.2812C460.58 95.9641 460.362 96.4546 460.06 96.8691C459.785 97.245 459.415 97.5893 458.91 97.9688C458.729 97.9827 458.547 97.9949 458.366 98.002H458.364C457.059 98.0549 456.216 97.8517 455.433 97.0547C454.795 96.4058 454.49 95.5643 454.566 94.6602C454.68 93.3258 455.267 92.5998 456.41 91.5879C456.838 91.5286 457.208 91.4862 457.57 91.4902L457.76 91.4971Z" fill="#FCF7F6" stroke="black" stroke-width="2"/>
<path d="M429.012 99.1934C429.887 99.1535 430.61 99.1421 431.204 99.3652V99.3662C432.076 99.6936 432.907 100.514 433.294 101.402C433.549 101.99 433.556 102.619 433.311 103.159L433.31 103.16C432.947 103.96 432.31 104.351 431.236 104.723C430.312 104.777 429.431 104.804 428.746 104.613L428.605 104.57L428.473 104.521C427.809 104.253 427.152 103.67 426.902 103.096C426.639 102.491 426.619 101.951 426.834 101.343V101.342C427.048 100.736 427.324 100.359 427.666 100.054C428 99.756 428.421 99.505 429.012 99.1934Z" fill="#FCF7F6" stroke="black" stroke-width="2"/>
<path d="M452.215 81.5859C453.075 81.2045 454.075 81.317 454.829 81.8809C455.583 82.4449 455.973 83.3727 455.851 84.3057C455.728 85.2393 455.111 86.034 454.237 86.3838C452.919 86.9114 451.421 86.2858 450.869 84.9775C450.318 83.6697 450.916 82.1607 452.214 81.5859H452.215Z" fill="#FCF7F6" stroke="black" stroke-width="2"/>
<path d="M30.8838 305.685C31.4197 305.73 32.0274 305.77 32.6172 305.803C33.3403 305.843 34.0351 305.877 34.6143 305.905C34.7572 309.098 34.7941 312.372 34.8145 315.671C34.8345 318.928 34.8401 322.214 34.9219 325.445L30.8564 325.457C30.8966 318.866 30.9055 312.275 30.8838 305.685Z" fill="#FF80AB" stroke="black" stroke-width="2"/>
<path d="M31.9014 254.005C33.4129 254.062 34.3931 254.796 35.2666 255.938C35.7565 256.578 36.1947 257.324 36.6611 258.147C37.1165 258.951 37.6029 259.835 38.1572 260.652V260.653C38.5819 261.279 39.3605 262.519 39.9814 263.763C40.2926 264.386 40.5504 264.983 40.708 265.489C40.7992 265.782 40.8389 265.997 40.8555 266.144C40.4751 266.435 40.1483 266.555 39.7979 266.614C39.2685 266.703 38.7243 266.664 37.7529 266.666L35.8223 266.67L36.9395 268.245C37.7584 269.399 39.5876 271.689 40.9258 274.036C41.5941 275.208 42.0847 276.306 42.2676 277.203C42.4526 278.111 42.2815 278.55 42.0117 278.785H42.0107C42.0084 278.787 41.9908 278.8 41.9492 278.82C41.9038 278.842 41.8395 278.867 41.7529 278.891C41.5761 278.94 41.3502 278.975 41.084 278.997C40.5365 279.043 39.9846 279.022 39.5029 279.023L37.7539 279.027L38.6445 280.533C39.2838 281.614 41.133 284.589 42.7461 287.54C43.5525 289.015 44.2821 290.454 44.7627 291.618C45.004 292.203 45.1695 292.688 45.2549 293.058C45.2685 293.117 45.2758 293.17 45.2842 293.216C44.7202 293.432 44.0318 293.51 43.2197 293.489C42.1503 293.462 41.1121 293.286 39.9775 293.173L37.3672 292.912L39.1416 294.844C39.9624 295.737 42.0244 298.643 43.6768 301.632C44.4998 303.121 45.1919 304.578 45.5762 305.776C45.7689 306.377 45.8697 306.87 45.8877 307.245C45.8942 307.38 45.8859 307.485 45.876 307.565C44.8157 307.824 43.2278 307.845 41.4346 307.737C39.4133 307.616 37.4296 307.358 35.8828 307.227L35.8584 307.225L35.834 307.224L34.5381 307.191C31.5328 307.148 28.6474 307.327 25.6533 307.605C24.4286 307.719 23.2636 307.876 22.127 307.839C21.098 307.805 20.2135 307.61 19.4854 307.14C19.3083 306.718 19.2983 306.064 19.5859 305.111C19.9033 304.061 20.5227 302.851 21.2969 301.613C22.8405 299.145 24.8728 296.76 25.8643 295.632L27.127 294.196L25.2275 293.979C23.9023 293.826 22.9164 293.793 21.9727 293.572C21.2132 293.395 20.5849 293.11 20.0361 292.569C20.0477 292.432 20.0758 292.256 20.1309 292.036C20.2288 291.645 20.3943 291.178 20.6201 290.648C21.0718 289.59 21.7327 288.36 22.4697 287.111C23.9419 284.617 25.6587 282.146 26.4619 280.979L27.458 279.534L25.7061 279.415C25.2949 279.387 24.8224 279.374 24.5488 279.358C24.2243 279.34 23.9987 279.314 23.8145 279.266C23.5566 279.198 23.2989 279.072 22.9678 278.608C22.9114 278.165 23.0061 277.581 23.2949 276.835C23.6158 276.006 24.1327 275.088 24.7578 274.116C25.3818 273.146 26.0823 272.168 26.7617 271.202C27.4304 270.251 28.0847 269.304 28.5693 268.444L28.5713 268.44L28.8037 268.023L29.4961 266.783L28.0947 266.55C27.6191 266.471 27.164 266.435 26.7988 266.4C26.4121 266.364 26.1315 266.33 25.8975 266.27C25.6781 266.213 25.5423 266.142 25.4414 266.055C25.3719 265.995 25.2922 265.901 25.21 265.747C25.3398 265.224 25.6496 264.419 26.123 263.408C26.6687 262.243 27.3846 260.899 28.1504 259.576C28.9159 258.254 29.7237 256.965 30.4482 255.911C31.0365 255.055 31.5385 254.402 31.9014 254.005Z" fill="#F9B3D0" stroke="black" stroke-width="2"/>
<path d="M402.884 467.685C403.42 467.73 404.027 467.77 404.617 467.803C405.34 467.843 406.035 467.877 406.614 467.905C406.757 471.098 406.794 474.372 406.814 477.671C406.835 480.928 406.84 484.214 406.922 487.445L402.856 487.457C402.897 480.866 402.905 474.275 402.884 467.685Z" fill="#FF80AB" stroke="black" stroke-width="2"/>
<path d="M403.901 416.005C405.413 416.062 406.393 416.796 407.267 417.938C407.756 418.578 408.195 419.324 408.661 420.147C409.117 420.951 409.603 421.835 410.157 422.652V422.653C410.582 423.279 411.36 424.519 411.981 425.763C412.293 426.386 412.55 426.983 412.708 427.489C412.799 427.782 412.839 427.997 412.855 428.144C412.475 428.435 412.148 428.555 411.798 428.614C411.269 428.703 410.724 428.664 409.753 428.666L407.822 428.67L408.939 430.245C409.758 431.399 411.588 433.689 412.926 436.036C413.594 437.208 414.085 438.306 414.268 439.203C414.453 440.111 414.281 440.55 414.012 440.785H414.011C414.008 440.787 413.991 440.8 413.949 440.82C413.904 440.842 413.84 440.867 413.753 440.891C413.576 440.94 413.35 440.975 413.084 440.997C412.537 441.043 411.985 441.022 411.503 441.023L409.754 441.027L410.645 442.533C411.284 443.614 413.133 446.589 414.746 449.54C415.552 451.015 416.282 452.454 416.763 453.618C417.004 454.203 417.17 454.688 417.255 455.058C417.269 455.117 417.276 455.17 417.284 455.216C416.72 455.432 416.032 455.51 415.22 455.489C414.15 455.462 413.112 455.286 411.978 455.173L409.367 454.912L411.142 456.844C411.962 457.737 414.024 460.643 415.677 463.632C416.5 465.121 417.192 466.578 417.576 467.776C417.769 468.377 417.87 468.87 417.888 469.245C417.894 469.38 417.886 469.485 417.876 469.565C416.816 469.824 415.228 469.845 413.435 469.737C411.413 469.616 409.43 469.358 407.883 469.227L407.858 469.225L407.834 469.224L406.538 469.191C403.533 469.148 400.647 469.327 397.653 469.605C396.429 469.719 395.264 469.876 394.127 469.839C393.098 469.805 392.213 469.61 391.485 469.14C391.308 468.718 391.298 468.064 391.586 467.111C391.903 466.061 392.523 464.851 393.297 463.613C394.841 461.145 396.873 458.76 397.864 457.632L399.127 456.196L397.228 455.979C395.902 455.826 394.916 455.793 393.973 455.572C393.213 455.395 392.585 455.11 392.036 454.569C392.048 454.432 392.076 454.256 392.131 454.036C392.229 453.645 392.394 453.178 392.62 452.648C393.072 451.59 393.733 450.36 394.47 449.111C395.942 446.617 397.659 444.146 398.462 442.979L399.458 441.534L397.706 441.415C397.295 441.387 396.822 441.374 396.549 441.358C396.224 441.34 395.999 441.314 395.814 441.266C395.557 441.198 395.299 441.072 394.968 440.608C394.911 440.165 395.006 439.581 395.295 438.835C395.616 438.006 396.133 437.088 396.758 436.116C397.382 435.146 398.082 434.168 398.762 433.202C399.43 432.251 400.085 431.304 400.569 430.444L400.571 430.44L400.804 430.023L401.496 428.783L400.095 428.55C399.619 428.471 399.164 428.435 398.799 428.4C398.412 428.364 398.132 428.33 397.897 428.27C397.678 428.213 397.542 428.142 397.441 428.055C397.372 427.995 397.292 427.901 397.21 427.747C397.34 427.224 397.65 426.419 398.123 425.408C398.669 424.243 399.385 422.899 400.15 421.576C400.916 420.254 401.724 418.965 402.448 417.911C403.037 417.055 403.538 416.402 403.901 416.005Z" fill="#F9B3D0" stroke="black" stroke-width="2"/>
<path d="M552.876 289.687C553.412 289.732 554.02 289.772 554.609 289.805C555.332 289.845 556.027 289.879 556.606 289.907C556.749 293.1 556.786 296.374 556.807 299.673C556.827 302.93 556.832 306.216 556.914 309.447L552.849 309.459C552.889 302.868 552.898 296.277 552.876 289.687Z" fill="#FF80AB" stroke="black" stroke-width="2"/>
<path d="M553.901 238.005C555.413 238.062 556.393 238.796 557.267 239.938C557.756 240.578 558.195 241.324 558.661 242.147C559.117 242.951 559.603 243.835 560.157 244.652V244.653C560.582 245.279 561.36 246.519 561.981 247.763C562.293 248.386 562.55 248.983 562.708 249.489C562.799 249.782 562.839 249.997 562.855 250.144C562.475 250.435 562.148 250.555 561.798 250.614C561.269 250.703 560.724 250.664 559.753 250.666L557.822 250.67L558.939 252.245C559.758 253.399 561.588 255.689 562.926 258.036C563.594 259.208 564.085 260.306 564.268 261.203C564.453 262.111 564.281 262.55 564.012 262.785H564.011C564.008 262.787 563.991 262.8 563.949 262.82C563.904 262.842 563.84 262.867 563.753 262.891C563.576 262.94 563.35 262.975 563.084 262.997C562.537 263.043 561.985 263.022 561.503 263.023L559.754 263.027L560.645 264.533C561.284 265.614 563.133 268.589 564.746 271.54C565.552 273.015 566.282 274.454 566.763 275.618C567.004 276.203 567.17 276.688 567.255 277.058C567.269 277.117 567.276 277.17 567.284 277.216C566.72 277.432 566.032 277.51 565.22 277.489C564.15 277.462 563.112 277.286 561.978 277.173L559.367 276.912L561.142 278.844C561.962 279.737 564.024 282.643 565.677 285.632C566.5 287.121 567.192 288.578 567.576 289.776C567.769 290.377 567.87 290.87 567.888 291.245C567.894 291.38 567.886 291.485 567.876 291.565C566.816 291.824 565.228 291.845 563.435 291.737C561.413 291.616 559.43 291.358 557.883 291.227L557.858 291.225L557.834 291.224L556.538 291.191C553.533 291.148 550.647 291.327 547.653 291.605C546.429 291.719 545.264 291.876 544.127 291.839C543.098 291.805 542.213 291.61 541.485 291.14C541.308 290.718 541.298 290.064 541.586 289.111C541.903 288.061 542.523 286.851 543.297 285.613C544.841 283.145 546.873 280.76 547.864 279.632L549.127 278.196L547.228 277.979C545.902 277.826 544.916 277.793 543.973 277.572C543.213 277.395 542.585 277.11 542.036 276.569C542.048 276.432 542.076 276.256 542.131 276.036C542.229 275.645 542.394 275.178 542.62 274.648C543.072 273.59 543.733 272.36 544.47 271.111C545.942 268.617 547.659 266.146 548.462 264.979L549.458 263.534L547.706 263.415C547.295 263.387 546.822 263.374 546.549 263.358C546.224 263.34 545.999 263.314 545.814 263.266C545.557 263.198 545.299 263.072 544.968 262.608C544.911 262.165 545.006 261.581 545.295 260.835C545.616 260.006 546.133 259.088 546.758 258.116C547.382 257.146 548.082 256.168 548.762 255.202C549.43 254.251 550.085 253.304 550.569 252.444L550.571 252.44L550.804 252.023L551.496 250.783L550.095 250.55C549.619 250.471 549.164 250.435 548.799 250.4C548.412 250.364 548.132 250.33 547.897 250.27C547.678 250.213 547.542 250.142 547.441 250.055C547.372 249.995 547.292 249.901 547.21 249.747C547.34 249.224 547.65 248.419 548.123 247.408C548.669 246.243 549.385 244.899 550.15 243.576C550.916 242.254 551.724 240.965 552.448 239.911C553.037 239.055 553.538 238.402 553.901 238.005Z" fill="#F9B3D0" stroke="black" stroke-width="2"/>
<path d="M402.668 167.629H496.227V59.6225C496.227 51.6438 502.695 45.1758 510.674 45.1758C518.652 45.1758 525.12 51.6438 525.12 59.6225V515.495H580.359V544.389H413.445C405.467 544.389 398.999 537.921 398.999 529.942C398.999 521.963 405.467 515.495 413.445 515.495H496.227V196.522H393.724C382.706 196.522 373.774 187.59 373.774 176.572V74.0691H269.896V176.572C269.896 187.59 260.964 196.522 249.946 196.522H187.573V260.959C187.573 271.977 178.641 280.909 167.622 280.909H103.186V365.754H249.946C260.964 365.754 269.896 374.686 269.896 385.705V452.664C269.896 463.682 260.964 472.614 249.946 472.614H103.186V515.495H338.001V322.873H260.953C249.934 322.873 241.002 313.941 241.002 302.923V248.576C241.002 237.558 249.934 228.626 260.953 228.626H448.071C459.09 228.626 468.022 237.558 468.022 248.576V416.203C468.022 424.182 461.554 430.65 453.575 430.65C445.596 430.65 439.128 424.182 439.128 416.203V257.519H269.896V293.98H346.945C357.963 293.98 366.895 302.912 366.895 313.93V524.439C366.895 535.457 357.963 544.389 346.945 544.389H94.2424C83.2243 544.389 74.2923 535.457 74.2923 524.439V463.671C74.2923 452.653 83.2243 443.721 94.2424 443.721H241.002V394.648H94.2424C83.2243 394.648 74.2923 385.716 74.2923 374.698V209.134H2.35938V180.241H74.2923V107.319C74.2923 96.3012 83.2243 87.3693 94.2424 87.3693H183.904V59.6225C183.904 51.6438 190.372 45.1758 198.35 45.1758C206.329 45.1758 212.797 51.6438 212.797 59.6225V96.3124C212.797 107.331 203.865 116.263 192.847 116.263H103.186V252.016H158.679V187.579C158.679 176.561 167.611 167.629 178.629 167.629H241.002V65.126C241.002 54.1078 249.934 45.1758 260.953 45.1758H382.717C393.736 45.1758 402.668 54.1078 402.668 65.126V167.629Z" fill="#FF80AB" stroke="black" stroke-width="2"/>
<path d="M153.504 85.1377C162.647 84.4644 170.62 91.2901 171.363 100.425C172.106 109.559 165.341 117.584 156.209 118.396C146.978 119.218 138.846 112.364 138.095 103.13C137.343 93.8956 144.262 85.8181 153.504 85.1377Z" fill="#FAA640" stroke="black" stroke-width="2"/>
<path d="M158.346 93.6523C158.849 93.6639 159.278 93.6978 159.67 93.8145C160.819 94.1566 161.814 95.1626 162.418 96.3994C163.549 98.719 163.402 101.741 162.468 104.279C161.732 106.279 160.486 107.946 158.742 108.812L158.386 108.975C155.903 110.011 153.687 109.136 150.914 107.971C148.842 106.68 147.075 104.897 146.241 102.666C145.771 101.406 145.643 100.089 146.085 99.0293L146.182 98.8203C146.524 98.1445 147.158 97.6589 147.923 97.4453C150.302 96.7806 151.707 97.8295 154.24 99.2969L155.229 99.8691L155.665 98.8145C156.472 96.8682 157.215 95.2686 158.346 93.6523Z" fill="#F391CA" stroke="black" stroke-width="2"/>
<path d="M214.957 165.185C224.1 164.511 232.073 171.337 232.816 180.472C233.559 189.606 226.794 197.631 217.662 198.443C208.431 199.265 200.299 192.41 199.548 183.177C198.797 173.943 205.715 165.865 214.957 165.185Z" fill="#FAA640" stroke="black" stroke-width="2"/>
<path d="M219.799 173.699C220.302 173.711 220.731 173.745 221.123 173.861C222.272 174.203 223.268 175.209 223.871 176.446C225.002 178.766 224.855 181.788 223.921 184.326C223.185 186.326 221.94 187.993 220.195 188.858L219.839 189.021C217.356 190.058 215.14 189.183 212.367 188.018C210.295 186.727 208.528 184.944 207.694 182.713C207.224 181.453 207.096 180.136 207.538 179.076L207.635 178.867C207.977 178.191 208.611 177.706 209.376 177.492C211.755 176.827 213.16 177.876 215.693 179.344L216.682 179.916L217.118 178.861C217.925 176.915 218.668 175.315 219.799 173.699Z" fill="#F391CA" stroke="black" stroke-width="2"/>
<path d="M446.207 165.185C455.35 164.511 463.323 171.337 464.066 180.472C464.809 189.606 458.044 197.631 448.912 198.443C439.681 199.265 431.549 192.41 430.798 183.177C430.047 173.943 436.965 165.865 446.207 165.185Z" fill="#FAA640" stroke="black" stroke-width="2"/>
<path d="M451.049 173.699C451.552 173.711 451.981 173.745 452.373 173.861C453.522 174.203 454.518 175.209 455.121 176.446C456.252 178.766 456.105 181.788 455.171 184.326C454.435 186.326 453.19 187.993 451.445 188.858L451.089 189.021C448.606 190.058 446.39 189.183 443.617 188.018C441.545 186.727 439.778 184.944 438.944 182.713C438.474 181.453 438.346 180.136 438.788 179.076L438.885 178.867C439.227 178.191 439.861 177.706 440.626 177.492C443.005 176.827 444.41 177.876 446.943 179.344L447.932 179.916L448.368 178.861C449.175 176.915 449.918 175.315 451.049 173.699Z" fill="#F391CA" stroke="black" stroke-width="2"/>
<rect x="1.85938" y="1.5" width="578.937" height="587.25" rx="35.9102" stroke="white" stroke-width="3"/>
<path d="M350.793 352.771C359.936 352.097 367.909 358.923 368.652 368.058C369.395 377.192 362.63 385.217 353.498 386.029C344.267 386.851 336.135 379.996 335.384 370.763C334.633 361.528 341.551 353.451 350.793 352.771Z" fill="#FAA640" stroke="black" stroke-width="2"/>
<path d="M355.635 361.285C356.138 361.297 356.567 361.331 356.959 361.447C358.108 361.789 359.104 362.795 359.707 364.032C360.838 366.352 360.691 369.374 359.757 371.912C359.021 373.912 357.776 375.579 356.031 376.444L355.675 376.607C353.192 377.644 350.976 376.769 348.203 375.604C346.131 374.313 344.364 372.53 343.53 370.299C343.06 369.039 342.932 367.722 343.374 366.662L343.471 366.453C343.813 365.777 344.447 365.292 345.212 365.078C347.591 364.413 348.996 365.462 351.529 366.93L352.518 367.502L352.954 366.447C353.761 364.501 354.504 362.901 355.635 361.285Z" fill="#F391CA" stroke="black" stroke-width="2"/>
<path d="M235.153 513.481C244.401 512.8 252.467 519.705 253.219 528.944C253.97 538.183 247.127 546.3 237.891 547.122C228.554 547.953 220.328 541.02 219.568 531.681C218.808 522.34 225.805 514.17 235.153 513.481Z" fill="#FAA640" stroke="black" stroke-width="1.61712"/>
<path d="M239.91 521.995C240.462 522.005 240.946 522.034 241.389 522.166C242.604 522.528 243.635 523.582 244.254 524.851C245.415 527.231 245.258 530.31 244.312 532.881C243.514 535.047 242.12 536.852 240.124 537.686C237.552 538.76 235.257 537.839 232.486 536.674C230.387 535.369 228.579 533.554 227.726 531.268C227.247 529.985 227.103 528.613 227.572 527.49L227.675 527.269C227.998 526.631 228.559 526.155 229.237 525.895L229.535 525.796C232.008 525.105 233.492 526.213 236 527.666L236.799 528.129L237.152 527.276C237.974 525.293 238.734 523.657 239.91 521.995Z" fill="#F391CA" stroke="black" stroke-width="1.61712"/>
<path d="M451.849 513.481C461.096 512.8 469.162 519.705 469.914 528.944C470.666 538.183 463.822 546.3 454.586 547.122C445.249 547.953 437.023 541.02 436.264 531.681C435.504 522.34 442.5 514.17 451.849 513.481Z" fill="#FAA640" stroke="black" stroke-width="1.61712"/>
<path d="M456.605 521.995C457.158 522.005 457.641 522.034 458.084 522.166C459.299 522.528 460.33 523.582 460.949 524.851C462.11 527.231 461.953 530.31 461.007 532.881C460.21 535.047 458.815 536.852 456.819 537.686C454.247 538.76 451.952 537.839 449.182 536.674C447.082 535.369 445.275 533.554 444.421 531.268C443.942 529.985 443.799 528.613 444.268 527.49L444.37 527.269C444.693 526.631 445.255 526.155 445.933 525.895L446.23 525.796C448.704 525.105 450.187 526.213 452.695 527.666L453.494 528.129L453.848 527.276C454.669 525.293 455.43 523.657 456.605 521.995Z" fill="#F391CA" stroke="black" stroke-width="1.61712"/>
<path d="M314.488 129.44C316.627 135.823 318.613 142.219 320.746 148.647L321.321 150.384L322.473 148.962C325.067 145.757 326.885 141.936 328.499 138.106C329.268 136.281 329.988 134.465 330.724 132.693C330.406 135.773 330.14 138.856 329.861 141.923C329.416 146.824 328.938 151.688 328.163 156.484C321.223 156.36 314.281 156.333 307.34 156.403C305.849 149.824 304.598 143.228 303.381 136.594C305.885 140.67 308.729 144.095 312.091 148.14L313.884 150.297L313.859 147.491C313.817 142.575 314.436 139.943 314.788 134.874L314.793 134.805L314.788 134.734C314.668 133.01 314.533 131.211 314.488 129.44Z" fill="#A6DE55" stroke="black" stroke-width="2"/>
<path d="M69.0977 409.19C71.236 415.573 73.2221 421.969 75.3555 428.397L75.9307 430.134L77.082 428.712C79.6761 425.507 81.494 421.686 83.1084 417.856C83.8778 416.031 84.5978 414.215 85.333 412.443C85.0151 415.523 84.749 418.606 84.4707 421.673C84.0258 426.574 83.5469 431.438 82.7725 436.234C75.8323 436.11 68.8904 436.083 61.9492 436.153C60.4769 429.657 59.2391 423.145 58.0361 416.595C60.303 420.445 62.7982 423.679 66.0908 427.64L67.8838 429.797L67.8594 426.991C67.8387 424.61 68.1255 422.801 68.4688 420.947C68.8124 419.091 69.2216 417.153 69.3975 414.624L69.4023 414.555L69.3975 414.484C69.2769 412.76 69.1424 410.961 69.0977 409.19Z" fill="#A6DE55" stroke="black" stroke-width="2"/>
<path d="M298.598 467.69C300.736 474.073 302.722 480.469 304.855 486.897L305.431 488.634L306.582 487.212C309.176 484.007 310.994 480.186 312.608 476.356C313.378 474.531 314.098 472.715 314.833 470.943C314.515 474.023 314.249 477.106 313.971 480.173C313.526 485.074 313.047 489.938 312.272 494.734C305.332 494.61 298.39 494.583 291.449 494.653C289.956 488.067 288.705 481.464 287.486 474.821C289.955 478.813 292.741 482.11 296.091 486.14L297.884 488.297L297.859 485.491C297.838 483.073 298.009 481.237 298.229 479.383C298.448 477.53 298.724 475.615 298.897 473.124L298.902 473.055L298.897 472.984C298.777 471.26 298.642 469.461 298.598 467.69Z" fill="#A6DE55" stroke="black" stroke-width="2"/>
<defs>
<linearGradient id="paint0_linear_3592_775" x1="46.3593" y1="69.6791" x2="48.6224" y2="90.1463" gradientUnits="userSpaceOnUse">
<stop stop-color="#FFDAE2"/>
<stop offset="1" stop-color="#FFF0F6"/>
</linearGradient>
<linearGradient id="paint1_linear_3592_775" x1="175.359" y1="327.681" x2="177.622" y2="348.148" gradientUnits="userSpaceOnUse">
<stop stop-color="#FFDAE2"/>
<stop offset="1" stop-color="#FFF0F6"/>
</linearGradient>
<linearGradient id="paint2_linear_3592_775" x1="449.359" y1="112.331" x2="451.622" y2="132.799" gradientUnits="userSpaceOnUse">
<stop stop-color="#FFDAE2"/>
<stop offset="1" stop-color="#FFF0F6"/>
</linearGradient>
<clipPath id="clip0_3592_775">
<rect x="32.4766" y="52.9609" width="509.394" height="516.671" rx="32.7467" fill="white"/>
</clipPath>
</defs>
</svg>
