<svg width="96" height="98" viewBox="0 0 96 98" fill="none" xmlns="http://www.w3.org/2000/svg">
<path d="M68.3193 23.4385C69.9214 25.5027 72.1313 28.5292 74.3086 31.4844C76.6801 34.7031 79.0541 37.8935 80.4443 39.4609C80.4895 39.6167 80.5395 39.7628 80.5859 39.8877C80.7029 40.2021 80.8561 40.5571 81.0264 40.9258C81.3679 41.6652 81.8141 42.5374 82.2666 43.3955C83.2046 45.1744 84.123 46.8071 84.4521 47.4766V47.4775C87.6394 53.9562 91.2608 60.7138 93.043 67.5869C94.8062 74.3871 94.7129 81.112 90.6035 87.5566C85.5957 95.4095 77.3686 97.0781 68.3066 95.7568C59.2208 94.432 49.6868 90.1301 42.7607 86.5537C40.4243 85.3475 38.049 84.29 35.7773 83.2402C33.7886 82.3212 31.8617 81.3996 30.0098 80.3545C31.2789 70.6523 36.7457 59.1112 44.0752 48.5498C51.3005 38.1386 60.2007 28.8783 68.3193 23.4385Z" fill="#FAA640" stroke="black" stroke-width="3"/>
<path d="M51.042 2.15723C53.7896 5.77601 56.8738 9.24512 59.915 12.7217C62.9947 16.2422 66.0414 19.7863 68.7617 23.5947C60.2726 29.3151 51.1733 38.8435 43.8428 49.4062C36.7069 59.6885 31.119 71.136 29.4658 81.2109C23.4116 77.3752 17.3257 73.5893 11.2061 69.8594H11.2051C9.94045 69.0871 7.69879 67.842 5.72754 66.6816C4.71467 66.0854 3.74538 65.496 2.93262 64.96C2.33747 64.5675 1.86871 64.2289 1.53613 63.958C1.53237 63.9326 1.52785 63.9072 1.52441 63.8818C1.51834 63.837 1.51537 63.7971 1.51172 63.7627C10.7724 42.2324 23.4016 19.7562 43.3037 7.06934L44.2607 6.4707C46.5618 5.05636 48.769 3.9244 51.042 2.15723Z" fill="#46CEF5" stroke="black" stroke-width="3"/>
<path d="M22.2324 43.6113C22.739 43.9373 23.3608 44.3864 24.0674 44.9336C25.4782 46.0261 27.1603 47.4589 28.8154 48.96C30.4698 50.4603 32.0788 52.0118 33.3457 53.335C33.9798 53.9973 34.5185 54.5918 34.9297 55.0869C35.0525 55.2348 35.1583 55.3677 35.249 55.4854C35.1781 55.5743 35.1204 55.6238 35.0654 55.667C34.9547 55.7539 34.8125 55.845 34.5361 56.0137C34.3893 56.1033 34.2167 56.2086 34.0195 56.333C33.8776 56.2894 33.7037 56.2285 33.499 56.1406C32.997 55.9251 32.3771 55.5951 31.6699 55.1611C30.2586 54.2951 28.5991 53.0753 26.998 51.7051C25.3951 50.3332 23.8899 48.8436 22.7676 47.4502C21.753 46.1906 21.1884 45.175 21.0029 44.4814C21.1816 44.0139 21.2408 43.9777 21.2686 43.9502C21.333 43.8862 21.4258 43.8123 21.6904 43.6104C21.763 43.555 21.8411 43.4916 21.9287 43.4238C22.0218 43.4795 22.1236 43.5413 22.2324 43.6113Z" fill="#010101" stroke="black" stroke-width="3"/>
<path d="M41.6738 20.1611C43.4624 20.907 45.7247 22.4325 47.7529 24.3633C48.9644 25.5166 50.0386 26.7637 50.8359 27.9893C51.6431 29.2299 52.11 30.3616 52.2246 31.2969V31.2979C52.2289 31.3344 52.2271 31.5145 51.9365 31.9258C51.8955 31.9838 51.8494 32.0376 51.8057 32.0938C50.954 31.4045 49.9536 30.6851 48.9678 29.9697C47.4098 28.8392 45.7946 27.6513 44.4365 26.3838C43.063 25.1019 42.0885 23.861 41.668 22.6719C41.3852 21.872 41.3349 21.0533 41.6738 20.1611Z" fill="#010101" stroke="black" stroke-width="3"/>
</svg>
