<svg width="103" height="121" viewBox="0 0 103 121" fill="none" xmlns="http://www.w3.org/2000/svg">
<path d="M50.6356 0C51.6177 0.0474118 53.7542 0.246047 54.0556 1.07412C57.9585 11.8064 56.0116 34.2698 60.443 44.223C64.7347 53.8631 97.7941 51.1246 102.391 55.6263C102.887 57.0462 102.873 56.3653 102.57 57.7321C99.424 61.216 70.1229 63.41 64.4047 67.8251C58.6946 72.2344 59.023 78.187 58.2837 84.8402C57.5753 91.0405 56.9282 97.2474 56.3449 103.461C55.947 107.859 55.6962 112.505 54.9192 116.846C54.5262 119.043 53.8636 119.479 52.1153 120.617C50.7035 120.701 50.7852 120.664 49.4387 120.172C45.7834 116.751 45.3717 82.9928 43.4672 75.814C39.5023 60.8694 21.4244 64.1694 9.3482 60.2506C6.57446 59.3506 0.662593 59.3457 0 56.3089C2.99515 51.4966 38.3569 53.5574 41.7409 45.2203C45.4607 36.0575 45.3186 22.7585 46.9354 12.7995C47.6601 8.33548 47.0482 3.34417 50.6356 0Z" fill="#080607"/>
<path d="M51.0442 3.47852C51.6447 3.75318 52.389 4.09649 52.4723 4.85835C58.0083 55.495 48.6879 49.0781 98.7794 56.8471C88.6731 58.9961 78.6721 60.6294 68.609 63.1684C55.2926 66.5289 56.1317 78.2453 54.9184 89.5858C53.9437 98.6594 53.0336 107.74 52.1863 116.825L51.2231 117.306C47.5033 115.446 50.5924 71.566 41.1478 66.2142C30.9311 60.425 16.4202 58.2735 5.51562 56.9942C14.7854 54.6514 25.1932 54.6825 34.6526 52.4647C46.6078 49.8146 45.8962 42.7069 47.4943 33.0807C49.045 23.7414 49.0572 12.4304 51.0442 3.47852Z" fill="#F7CB46"/>
</svg>
