<svg width="258" height="154" viewBox="0 0 258 154" fill="none" xmlns="http://www.w3.org/2000/svg">
<path d="M124.234 9.61189C117.46 6.43286 91.7902 -1.91997 85.2234 0.402229L84.8769 0.43568C81.4997 0.73287 77.4346 0.201536 74.229 0.960593C54.121 5.80891 35.6734 23.6358 25.3244 40.9352C21.8263 46.7825 13.6634 63.9938 9.42349 66.4434C-8.87565 77.0155 3.52777 83.9769 12.6992 95.6452C14.1725 97.519 14.5035 102.057 15.3655 104.852L15.791 105.65C16.2789 108.947 16.9532 109.378 19.5604 111.578C27.6082 126.303 50.0971 145.255 66.4242 151.096C67.7053 151.554 70.1781 151.95 71.501 152.396C73.9404 153.263 74.1216 153.023 76.6748 152.345C77.3903 152.85 77.9199 153.177 78.825 153.268C97.7387 155.151 117.094 148.77 133.895 140.58C135.355 139.866 139.963 137.511 140.992 136.661L147.895 132.775C154.291 128.68 158.077 124.736 163.773 120.457C168.156 117.62 185.904 100.672 188.842 96.8108C191.162 88.8645 191.246 84.4452 190.442 76.0487C172.341 48.8178 154.221 23.6802 124.234 9.61189Z" fill="#010101"/>
<path d="M84.2754 1.97949C90.118 15.6999 92.4125 36.3872 92.2783 57.5732C92.1413 79.2171 89.4739 101.136 85.6436 116.221C84.6882 119.983 82.2943 126.738 80.8369 130.724C79.4481 134.52 76.598 139.703 74.6816 143.717C74.2712 144.577 73.3398 146.063 72.3535 147.681C71.8771 148.462 71.3996 149.257 71.0039 149.969C70.8863 150.18 70.7713 150.394 70.6621 150.604C70.201 150.492 69.7218 150.385 69.2754 150.285C68.4208 150.093 67.6747 149.921 67.1436 149.753L66.9297 149.682C58.9968 146.844 49.4485 140.765 40.8545 133.52C32.2576 126.272 24.7766 117.992 20.877 110.857L20.7422 110.611L20.5273 110.43C19.141 109.26 18.5236 108.756 18.1104 108.165C17.7568 107.659 17.5078 107.006 17.2744 105.429L17.2373 105.172L17.1143 104.942L16.7617 104.281C16.3764 102.983 16.1172 101.369 15.7275 99.582C15.5359 98.7034 15.315 97.8067 15.0352 96.9922C14.76 96.1911 14.3962 95.3751 13.8779 94.7158C11.551 91.7555 8.98643 89.0549 6.87012 86.6533C4.69895 84.1895 3.01087 82.0535 2.13574 80.0352C1.30251 78.1133 1.23775 76.3822 2.24219 74.542C3.31168 72.5827 5.68097 70.3359 10.1738 67.7402C10.9102 67.3148 11.6279 66.6384 12.3027 65.8779C12.993 65.1001 13.711 64.1505 14.4385 63.0977C15.8937 60.9917 17.4477 58.3811 18.959 55.6982C22.0404 50.2278 24.857 44.6356 26.6113 41.7031C36.8445 24.5974 55.0079 7.13525 74.5801 2.41602C75.9951 2.08184 77.6559 2.02264 79.4883 2.02344C81.0172 2.02411 82.7002 2.06812 84.2754 1.97949Z" fill="#46CEF5" stroke="black" stroke-width="3"/>
<path d="M15.7891 105.651C27.3626 102.42 36.0744 100.866 44.3852 90.8978C45.5261 89.5296 47.3395 87.7259 48.3056 86.2457C49.1901 84.8903 48.7767 83.8945 50.3484 82.7945C51.9001 82.3957 52.1688 82.5572 53.7983 82.902C54.4064 83.4597 54.839 83.6083 54.7901 84.5713C54.5741 88.849 48.8629 95.8754 46.2172 98.6563C41.1744 103.956 33.7347 108.006 26.7578 109.839C24.1711 110.519 22.192 110.522 19.5584 111.58C16.9512 109.38 16.2769 108.949 15.7891 105.651Z" fill="#010101"/>
<path d="M53.4668 42.8223C59.1324 42.3327 64.6195 44.9504 67.8086 49.665C70.898 54.2331 71.3605 60.0753 69.0596 65.0596L68.8281 65.5391C66.2685 70.6241 61.1615 73.9234 55.4795 74.1641C46.9573 74.5251 39.7059 68.0036 39.1582 59.4795C38.6107 50.955 44.9678 43.5567 53.4668 42.8223Z" fill="#FCFCFD" stroke="black" stroke-width="3"/>
<path d="M53.5445 51.4193C62.7314 51.0642 65.6741 61.1179 56.3099 65.9019C47.7028 68.0375 44.0466 57.2538 53.5445 51.4193Z" fill="#010101"/>
<path d="M110.371 25.2715C119.07 25.9366 128.255 33.7575 128.789 42.8398C129.251 50.7957 122.515 55.5604 117.607 60.8011C121.126 62.5682 124.675 64.9927 126.802 68.402C134.04 79.9892 126.262 88.2346 116.648 94.3508C137.319 110.837 116.034 131.107 106.727 125.29C107.5 123.078 108.159 122.445 110.565 121.648C120.715 118.287 125.202 109.513 117.403 100.783C116.06 99.2808 109.258 95.7049 111.285 93.5705C116.786 87.7785 123.318 85.8912 125.89 77.5988C123.627 65.4211 113.703 65.4481 111.738 61.2295C112.591 57.1326 122.007 52.3524 124.116 46.1578C128.133 34.3435 111.078 30.7122 109.661 27.941C109.59 26.5889 109.699 26.5117 110.371 25.2715Z" fill="#FCFCFD"/>
<path d="M148.154 48.4082C153.335 49.1402 157.77 54.4916 159.409 59.2003C163.169 70.013 158.509 76.6773 148.391 80.2494C150.14 82.1997 152.409 84.0028 154.292 86.0735C156.889 88.8878 158.201 92.6554 157.918 96.4764C157.301 105.284 148.276 111.582 139.765 110.829C139.322 110.237 139.077 109.764 138.711 109.13C138.75 108.409 138.859 107.248 139.598 107.02C146.765 104.793 149.169 104.46 153.444 97.6105C153.18 86.3585 146.129 89.0486 142.883 79.9573C140.832 74.22 152.557 75.8249 154.749 71.0152C156.831 66.4512 155.533 60.1195 152.21 56.3371C150.307 54.1635 147.479 53.8503 146.714 51.2276C146.797 49.7951 147.17 49.5828 148.154 48.4082Z" fill="#FCFCFD"/>
<path d="M254.211 29.2764C254.921 29.1991 255.457 29.2453 255.852 29.3691C256.091 29.9286 256.217 30.8741 256.052 32.3516C255.858 34.0831 255.301 36.2558 254.448 38.7744C252.745 43.804 249.956 49.9498 246.938 56.2246C243.945 62.448 240.698 68.8574 238.188 74.2188C236.926 76.9128 235.828 79.3901 235.016 81.5068C234.217 83.5871 233.642 85.4501 233.516 86.8672C233.16 90.8387 233.757 95.4218 234.395 99.8389C235.044 104.339 235.735 108.673 235.701 112.425V112.466L235.703 112.507C235.821 115.089 236.303 120.744 236.918 126.233C237.226 128.983 237.569 131.708 237.918 134C238.246 136.151 238.595 138.024 238.949 139.168C239.083 140.267 239.271 141.572 239.269 142.819C239.267 143.459 239.213 144.012 239.1 144.451C239.083 144.517 239.063 144.578 239.045 144.635C238.904 144.58 238.743 144.514 238.563 144.43C237.936 144.135 237.185 143.697 236.337 143.137C234.642 142.016 232.669 140.481 230.68 138.826C226.785 135.587 222.961 132.005 221.189 130.396C220.583 129.57 219.508 128.386 218.251 127.076C216.889 125.657 215.235 124.007 213.548 122.346C210.148 118.999 206.645 115.637 204.962 113.879V113.878L204.445 113.333C201.882 110.597 199.581 107.687 197.311 104.775C195.082 101.918 192.87 99.0432 190.513 96.418C192.613 88.9485 192.72 84.4017 191.999 76.5801C200.314 67.6866 205.98 60.382 215.523 52.5986C225.03 44.8435 233.489 37.4382 244.791 32.8525L244.824 32.8389C246.566 32.0836 248.742 30.926 251.085 30.0791C252.223 29.6676 253.289 29.3767 254.211 29.2764Z" fill="#46CEF5" stroke="black" stroke-width="3"/>
<path d="M234.035 51.9577C236.548 51.9622 239.357 51.7828 240.193 54.92C240.013 55.4307 239.563 56.5166 239.081 56.7256C230.815 60.3234 222.889 64.3053 215.105 68.904C213.163 70.0529 211.736 70.1905 209.782 71.6282C208.079 72.276 207.571 72.7295 206.041 72.1698C204.679 69.7216 207.668 68.087 209.352 66.4859C214.558 61.5469 220.658 58.1479 227.086 55.1072C229.272 54.0741 231.657 53.3787 233.656 52.188L234.035 51.9577Z" fill="#010101"/>
<path d="M204.433 93.4043C209.993 96.032 228.968 110.53 230.64 117.9C230.749 118.389 229.592 119.022 229.077 119.4C228.724 119.218 226.725 118.314 226.641 118.26C221.75 114.931 204.317 99.891 202.633 95.8886C202.986 94.3357 203.025 94.7198 204.433 93.4043Z" fill="#010101"/>
<path d="M215.473 77.8106C218.874 76.9891 223.798 79.9231 222.621 83.7943C221.014 85.0583 220.281 84.8569 218.501 83.9679C215.242 84.1069 211.032 84.8852 208.93 81.8156L209.187 80.7703C211.102 78.5394 212.812 78.3323 215.473 77.8106Z" fill="#010101"/>
</svg>
