<svg width="623" height="495" viewBox="0 0 623 495" fill="none" xmlns="http://www.w3.org/2000/svg">
<path d="M568.135 327.241C568.293 327.243 568.429 327.252 568.547 327.266C569.888 346.407 569.883 362.202 569.957 381.431C567.788 381.904 565.427 382.45 563.473 382.773L563.405 382.784L563.339 382.802L556.518 384.578C549.002 386.425 538.596 389.155 530.774 390.38C530.815 389.991 530.85 389.581 530.879 389.153C530.974 387.754 531.022 386.073 531.035 384.21C531.062 380.482 530.952 375.96 530.795 371.378C530.479 362.159 529.978 352.775 529.988 348.805C529.989 348.364 529.875 347.086 529.722 345.522C529.563 343.904 529.349 341.853 529.127 339.769C528.791 336.616 528.441 333.397 528.232 331.458C538.497 330.08 548.529 328.577 558.792 327.685C561.32 327.709 563.792 327.51 566.21 327.351L566.209 327.35C567.021 327.306 567.522 327.233 568.135 327.241Z" fill="#46CEF5" stroke="black" stroke-width="3"/>
<path d="M561.681 361.87C563.945 361.508 564.762 362.386 565.066 364.546C563.626 369.006 553.724 368.683 549.506 368.841C546.569 368.199 546.141 369.155 544.098 366.263C543.471 361.547 557.983 362.897 561.681 361.87Z" fill="#010101"/>
<path d="M554.405 338.723C557.903 339.451 560.206 337.228 562.414 340.466C562.669 342.118 562.817 341.376 562.033 342.783C559.347 344.673 554.574 344.682 551.33 344.539C548.709 346.287 541.859 345.396 542.495 340.934C544.551 338.938 550.576 339.318 553.95 338.796L554.405 338.723Z" fill="#010101"/>
<path d="M582.802 326.693C587.916 326.533 594.516 326.666 600.773 327.744C607.077 328.83 612.796 330.836 616.374 334.236C619.014 336.746 620.598 340.077 620.63 343.68C620.685 349.997 616.976 356.163 612.373 360.739L611.925 361.178C606.806 366.094 599.345 370.445 591.335 373.992C584.032 377.226 576.357 379.754 569.757 381.424C569.686 362.528 569.675 346.788 568.344 327.772C568.71 327.661 569.196 327.552 569.794 327.452C571.086 327.237 572.736 327.085 574.462 326.978C577.919 326.762 581.47 326.735 582.802 326.693Z" fill="#FAA640" stroke="black" stroke-width="3"/>
<path d="M10.1875 313.76C18.6641 313.143 29.1125 313.726 39.2236 315.688C48.8704 317.56 58.0943 320.667 64.9883 325.091C61.2947 333.994 58.1595 344.408 55.6328 353.534C55.3355 354.608 54.6834 357.686 54.0479 360.466C53.7234 361.885 53.3984 363.249 53.1133 364.307C52.9703 364.837 52.843 365.271 52.7354 365.587C52.6813 365.746 52.6389 365.856 52.6084 365.926C52.6063 365.931 52.6034 365.934 52.6016 365.938L52.0938 366.583L52.4219 367.315C52.4258 367.344 52.4333 367.392 52.4385 367.465C52.4525 367.663 52.4571 367.948 52.4502 368.323C52.4364 369.071 52.3781 370.076 52.2881 371.28C52.1074 373.698 51.8139 376.764 51.5469 379.974C51.2821 383.155 51.0457 386.445 50.9902 389.202C50.9625 390.579 50.9796 391.852 51.0654 392.927C51.1398 393.858 51.2759 394.773 51.5488 395.495C51.5522 395.516 51.5557 395.539 51.5596 395.562C41.3726 395.316 29.1606 398.538 20.5771 403.632L19.707 404.162C16.7212 406.034 13.6603 408.548 10.8643 410.75C10.8058 410.519 10.7441 410.263 10.6807 409.983C10.3716 408.62 10.0448 406.852 9.70898 404.79C9.03783 400.67 8.342 395.453 7.68457 390.116C6.37688 379.501 5.21015 368.316 4.71777 364.713L4.71289 364.677L4.70703 364.642L4.58203 363.912C4.30359 362.154 4.11403 360.015 3.95312 357.807C3.77223 355.323 3.62568 352.733 3.42285 350.683C2.26112 338.942 2.00998 327.217 1.79492 315.356C4.59112 314.702 7.76223 313.936 10.1875 313.76ZM53.0928 395.628C52.7183 395.605 52.3406 395.588 51.96 395.575L53.0088 395.109C53.0099 395.134 53.0458 395.347 53.0928 395.628Z" fill="#FAA640" stroke="black" stroke-width="3"/>
<path d="M3.23438 364.917C27.4886 359.348 30.9397 361.211 53.8369 366.799C54.6205 368.545 51.2152 391.085 53.0112 395.109C52.995 395.073 53.3156 396.939 53.3528 397.147C42.8037 396.414 29.3801 399.872 20.5061 405.434C16.9959 407.635 13.4533 410.695 10.1288 413.226C7.8548 409.295 4.21969 372.127 3.23438 364.917Z" fill="#010101"/>
<path d="M21.3066 406.707C29.6752 401.461 42.2922 398.127 52.3818 398.596C57.5643 409.574 60.7091 414.88 68.9033 423.438C61.749 426.688 56.1601 430.014 51.3701 434.375C46.1454 439.132 41.949 445.048 37.6729 453.26C36.7062 455.116 35.7456 457.369 34.8311 459.478C34.2542 460.808 33.6967 462.076 33.1562 463.198C21.9177 449.95 16.4449 430.698 11.8438 413.801C15.0053 411.349 18.1392 408.693 21.3066 406.707Z" fill="#FAA640" stroke="black" stroke-width="3"/>
<path d="M71.4736 423.934C74.0742 425.342 76.2406 427.028 78.7262 428.201C82.699 430.077 90.4728 431.665 94.1341 433.369C83.2764 439.273 72.9251 457.322 69.5858 469.114C67.049 478.068 66.9171 483.233 67.6046 492.197C57.8651 490.822 39.0332 474.236 33.4766 465.83C35.2604 462.724 37.1307 457.547 39.0026 453.952C47.4556 437.72 55.3985 430.942 71.4736 423.934Z" fill="#010101"/>
<path d="M94.6543 434.798C96.3368 434.471 97.1369 434.446 98.6143 434.484C98.8574 436.532 98.9346 438.716 99.0098 440.955C99.0937 443.458 99.1762 446.041 99.5186 448.394C101.288 460.561 104.492 472.921 109.806 484.105C104.694 485.446 99.3159 486.439 93.8408 487.521C87.7766 488.721 81.6169 490.031 75.7852 492.052H75.7842C75.0207 492.317 74.0264 492.627 73.0439 492.855C72.0289 493.092 71.1566 493.209 70.583 493.169L70.5645 493.167L70.5459 493.166C70.1846 493.15 70.0009 493.097 69.9131 493.061C69.8441 493.032 69.8029 493.002 69.752 492.944C69.6815 492.865 69.5927 492.734 69.4482 492.467C69.3704 492.323 69.2255 492.044 69.0781 491.769C68.4273 483.121 68.5842 478.157 71.0303 469.523V469.522C72.6529 463.793 76.0068 456.469 80.3008 449.851C84.5586 443.288 89.6179 437.612 94.6543 434.798Z" fill="#FAA640" stroke="black" stroke-width="3"/>
<path d="M48.7051 92.6855C60.0676 85.8942 71.8863 84.5684 82.4736 87.6553C93.075 90.7462 102.556 98.2965 109.139 109.458C121.982 131.236 120.863 155.669 117.036 180.214C116.766 181.892 116.333 183.824 116.1 185.689L116.099 185.698C115.475 190.921 113.287 199.804 110.759 208.774C108.239 217.715 105.417 226.623 103.569 231.847L103.543 231.92L103.525 231.995C102.698 235.42 101.012 239.781 99.1895 244.334C97.3891 248.832 95.4602 253.508 94.2441 257.409L94.2412 257.416L94.2393 257.424C93.7441 259.071 90.9826 266.065 88.1367 272.843C86.7224 276.211 85.3034 279.486 84.1592 281.967C83.5859 283.21 83.0898 284.235 82.7021 284.968C82.5071 285.336 82.3513 285.607 82.2363 285.786C82.2134 285.822 82.1924 285.849 82.1768 285.872L81.1621 286.532L81.8359 287.749C79.2929 292.18 77.5005 297.095 75.5684 301.573C72.5605 308.537 69.446 315.455 66.2305 322.324C58.9423 317.748 49.4722 314.623 39.7998 312.746C29.4447 310.737 18.7301 310.133 9.97363 310.771C7.46403 310.953 4.27174 311.696 1.62988 312.317C1.59098 311.512 1.55962 310.479 1.53809 309.269C1.49724 306.972 1.49148 304.155 1.50977 301.324C1.54656 295.63 1.68227 289.989 1.82422 288.392L1.82715 288.352L1.8291 288.312C2.06602 281.467 1.97609 276.297 2.63379 269.531L2.65918 269.268L2.59277 269.011C2.57242 268.932 2.53328 268.668 2.50781 268.136C2.48398 267.637 2.47558 266.992 2.48242 266.211C2.49611 264.649 2.57037 262.603 2.69043 260.218C2.93037 255.45 3.35049 249.383 3.82227 243.238C4.75728 231.061 5.89034 218.629 6.21094 215.51C6.36122 214.845 6.52587 213.616 6.68945 212.202C6.87013 210.641 7.06559 208.721 7.25684 206.771C7.64166 202.845 8.00562 198.828 8.20215 197.189C8.95267 191.003 9.7559 184.824 10.6113 178.652C10.7114 177.961 10.8764 176.959 11.0684 175.786C11.2589 174.621 11.4733 173.301 11.668 171.999C11.8623 170.699 12.0389 169.401 12.1523 168.28C12.2485 167.331 12.3105 166.409 12.2715 165.708C13.0309 162.512 13.6511 159.262 14.2441 156.047C14.8538 152.741 15.4347 149.482 16.1191 146.296C20.8253 124.389 29.022 104.45 48.7051 92.6855Z" fill="#FAA640" stroke="black" stroke-width="3"/>
<path d="M1.14096 269.387C26.5157 267.02 49.2689 267.516 72.0325 280.326C75.1572 282.085 80.611 284.67 83.1512 287.028L83.5623 287.77C80.8502 292.277 79.0381 297.318 76.9454 302.168C73.7029 309.675 70.339 317.129 66.8558 324.527C52.4082 314.638 27.3159 311.013 10.0827 312.267C7.15717 312.479 3.2312 313.502 0.27764 314.174C-0.208809 311.094 0.0325216 291.602 0.329625 288.259C0.563729 281.496 0.477298 276.214 1.14096 269.387Z" fill="#010101"/>
<path d="M10.7572 165.593C27.127 162.855 49.3937 163.496 65.4611 167.324C80.0272 170.794 103.079 175.375 115.27 184.13C116.058 184.692 116.83 185.274 117.586 185.877C116.308 196.584 108.705 221.825 104.982 232.348C101.915 231.847 92.0032 225.165 86.6245 223.327C62.2501 214.999 30.0382 210.584 4.72656 215.272C5.24114 213.247 6.31345 200.327 6.71151 197.009C7.46342 190.812 8.26795 184.621 9.12502 178.438C9.53556 175.603 10.992 167.793 10.7572 165.593Z" fill="#010101"/>
<path d="M95.2656 487.705C105.168 364.828 129.217 313.352 181.529 246.106L488.476 245.066C533.513 329.297 554.646 412.14 545.412 487.705H95.2656Z" fill="#010101" stroke="black" stroke-width="3"/>
<path d="M193.16 234.795C193.307 234.872 193.436 234.915 193.49 234.932C193.654 234.983 193.857 235.027 194.057 235.067L194.237 235.104C194.235 235.493 194.174 236.03 194.088 236.731C194.036 237.157 193.978 237.64 193.962 238.079C193.947 238.467 193.95 239.068 194.18 239.608C194.309 239.912 194.542 240.273 194.951 240.53C195.369 240.793 195.819 240.852 196.202 240.816C196.439 240.795 196.671 240.733 196.896 240.649C199.613 243.381 202.929 246.582 205.248 249.165V249.164L206.555 250.62L206.63 250.705L206.718 250.776C211.793 254.954 216.971 259.006 222.246 262.928L222.267 262.943L222.288 262.959L225.699 265.313L225.736 265.339L225.774 265.361C232.552 269.469 237.997 272.653 245.165 276.091L245.182 276.099L245.197 276.105L250.257 278.386L250.29 278.4L250.325 278.414C259.91 282.174 265.297 283.942 275.417 286.212L275.474 286.224L280.286 287.109V287.11C290.414 289.018 299.075 290.55 309.512 291.152C311.251 291.324 312.717 291.49 314.592 291.476C320.637 291.922 326.699 292.115 332.762 292.053H332.775C334.536 292.019 336.919 291.886 339.194 291.783C341.508 291.678 343.703 291.603 345.198 291.669L345.227 291.671H345.254C347.084 291.683 349.686 291.479 351.434 291.394L351.479 291.392L351.523 291.387C364.244 289.996 372.131 288.837 384.573 286.009L384.579 286.007C386.308 285.606 388.082 285.335 389.927 285.021L389.928 285.022C400.775 283.265 409.204 281.082 419.626 277.935L419.733 277.901L419.835 277.854C420.97 277.315 423.17 276.679 424.684 276.185L424.691 276.182L424.7 276.179C433.92 273.044 444.105 269.046 452.648 264.17L452.712 264.134L452.771 264.092C454.28 263.025 455.608 262.467 457.475 261.581L457.51 261.563C464.409 258.066 470.487 253.671 476.53 249.104L476.544 249.094L476.559 249.082L480.238 246.159L480.299 246.111L480.354 246.058C482.923 243.546 485.691 240.536 488.21 237.843C492.965 246.6 499.227 259.787 500.936 269.557C498.692 270.64 497.039 272.063 495.546 273.538C493.777 275.286 492.371 276.942 490.35 278.527C479.55 286.997 469.387 293.897 457.4 300.599C425.212 318.594 388.371 322.512 352.11 328.211C348.711 328.745 344.784 328.849 340.746 328.845C336.777 328.84 332.651 328.729 329.025 328.853C282.916 328.107 232.895 314.603 197.065 284.928C189.382 278.564 185.627 274.486 182.684 270.031C179.772 265.625 177.679 260.926 173.446 253.117C173.491 253.083 173.535 253.049 173.579 253.015C174.241 252.491 175.154 251.685 176.211 250.717C178.336 248.771 181.163 246.06 183.977 243.368C186.8 240.667 189.61 237.985 191.727 236.067C192.259 235.585 192.739 235.157 193.16 234.795Z" fill="#46CEF5" stroke="black" stroke-width="3"/>
<path d="M384.234 284.547C386.024 284.132 387.868 283.851 389.681 283.543C391.585 290.696 396.205 307.031 393.216 313.841L392.321 314.625C387.257 313.463 386.928 300.313 386.165 295.977C385.563 292.555 384.332 287.864 384.234 284.547Z" fill="#010101"/>
<path d="M451.898 262.872C453.541 261.711 455.02 261.087 456.825 260.23C461.762 265.259 464.996 278.419 468.526 285.409C467.997 286.956 467.946 287.722 466.678 288.575C460.79 288.591 454.62 268.013 451.898 262.872Z" fill="#010101"/>
<path d="M345.258 290.17C347.034 290.182 349.523 289.984 351.354 289.895C351.853 295.259 355.728 319.426 348.895 320.07C347.301 318.879 346.982 317.729 346.799 315.626C346.073 307.268 345.606 298.536 345.258 290.17Z" fill="#010101"/>
<path d="M245.803 274.736L250.862 277.016C247.293 281.762 239.442 305.249 233.7 303.529C233.073 302.784 232.584 302.181 232.431 301.192C232.057 298.78 243.608 277.795 245.803 274.736Z" fill="#010101"/>
<path d="M309.625 289.656C311.424 289.833 312.822 289.994 314.643 289.975C315.02 293.515 313.545 315.203 311.712 317.591C310.459 318.009 309.505 318.693 308.344 319.009L307.685 318.47C306.115 314.575 308.308 293.529 309.625 289.656Z" fill="#010101"/>
<path d="M424.213 274.76C425.896 279.425 433.268 300.143 428.636 303.029C422.942 301.479 420.382 282.424 419.188 276.499C420.438 275.907 422.814 275.217 424.213 274.76Z" fill="#010101"/>
<path d="M275.742 284.746L280.561 285.634C279.005 295.376 276.844 302.27 275.088 311.535L274.863 311.783C273.596 313.15 273.05 313.819 271.25 313.881C270.613 313.497 270.219 313.438 270.017 312.797C268.613 308.323 274.319 288.251 275.742 284.746Z" fill="#010101"/>
<path d="M223.136 261.725L226.547 264.079C224.081 268.394 214.172 285.532 208.843 283.732C206.139 279.065 219.479 265.043 223.136 261.725Z" fill="#010101"/>
<path d="M207.663 249.62C206.234 254.212 199.913 260.06 196.791 263.874C194.718 266.407 191.225 271.533 187.641 270.903C186.266 269.927 186.58 270.435 186.078 268.999C187.657 263.948 201.635 251.246 206.356 248.164L207.663 249.62Z" fill="#010101"/>
<path d="M479.305 244.984C483.621 247.654 491.133 260.154 490.212 265.577L489.631 266.243C485.207 265.621 481.748 256.687 478.964 253.555C477.742 252.18 476.12 249.71 475.625 247.907L479.305 244.984Z" fill="#010101"/>
<path d="M182.77 341.082C184.384 341.809 184.565 341.837 185.825 343.025C187.187 347.133 172.782 364.98 187.759 368.806C193.519 370.277 193.316 368.477 197.531 366.842C204.431 364.166 210.068 353.488 215.164 350.78C216.541 350.777 217.525 351.953 218.867 352.976C217.171 362.731 211.046 381.475 225.767 384.964C231.587 386.344 244.489 370.153 248.681 366.121C250.596 367.679 250.849 367.958 252.283 369.902C251.383 380.995 251.493 388.827 260.666 396.2C272.529 396.229 277.296 390.96 282.435 380.937C283.363 379.601 283.699 379.211 285.284 379.233C288.125 382.307 284.715 388.309 283.024 391.3C278.01 400.171 264.708 405.977 255.573 400.053C248.834 395.682 246.572 386.565 245.087 379.202C240.423 384.064 234.121 390.141 227.115 391.067C217.494 392.339 210.22 380.838 209.915 372.355C209.824 369.782 210.054 368.096 209.765 365.274C204.639 370.089 199.898 374.213 192.693 375.513C184.264 377.201 175.718 370.704 174.739 362.224C173.787 353.975 177.906 347.255 182.77 341.082Z" fill="#46CEF5"/>
<path d="M182.185 404.64C188.132 407.31 184.281 411.492 183.272 416.302C182.47 419.205 181.716 424.615 182.951 427.498C191.581 447.631 205.72 428.606 213.412 419.414C214.493 418.121 215.915 417.682 217.309 417.703C222.196 420.687 212.069 440.651 226.766 447.337C235.113 445.952 240.952 442.919 245.661 435.589C247.649 432.496 248.537 430.345 251.382 427.98C252.737 427.986 253.015 428.638 254.277 429.713C253.877 435.303 247.988 443.693 243.642 447.394C234.187 455.444 219.265 456.082 214.171 442.815C213.301 440.548 212.883 433.684 211.634 432.129C206.151 436.48 202.555 441.58 194.948 442.085C174.101 443.467 172.604 417.079 182.185 404.64Z" fill="#46CEF5"/>
<path d="M461.306 1.95215C464.302 1.20384 467.243 1.35303 470.134 2.62988C473.046 3.91658 476.017 6.39812 478.952 10.499C480.05 12.0332 481.46 14.9789 483.016 18.8193C484.554 22.6163 486.183 27.1579 487.738 31.7861C490.85 41.0469 493.636 50.5789 494.767 55.0547C503.477 89.5409 513.279 129.7 513.542 165.062L513.373 172.253C513.206 174.178 512.696 177.232 512.203 180.19C511.739 182.977 511.27 185.791 511.22 187.179L510.09 194.447C508.921 199.343 507.096 205.382 506.121 210.31L503.438 215.882C499.998 221.382 498.108 225.352 496.036 229.099C493.956 232.86 491.599 236.585 487.082 241.86C484.25 244.863 481.17 248.261 478.309 251.062L474.694 253.934C468.683 258.475 462.801 262.716 456.177 266.077C454.461 266.891 452.856 267.573 451.111 268.794C442.826 273.515 432.879 277.43 423.753 280.533C422.504 280.941 420.054 281.658 418.665 282.292C408.366 285.4 400.091 287.537 389.449 289.262L389.438 289.264C387.883 289.528 386.226 289.784 384.599 290.131L383.91 290.284C371.618 293.078 363.852 294.222 351.23 295.602C349.335 295.695 346.999 295.881 345.296 295.871C343.647 295.801 341.335 295.884 339.061 295.987C336.731 296.093 334.428 296.221 332.719 296.254C326.727 296.316 320.736 296.125 314.762 295.682L314.699 295.677L314.636 295.678C312.912 295.696 311.603 295.546 309.779 295.366L309.749 295.363L309.718 295.361L307.817 295.24C298.405 294.583 290.336 293.151 280.844 291.363L280.838 291.362L276.046 290.479C266.131 288.253 260.893 286.536 251.453 282.834L246.432 280.571C239.426 277.21 234.092 274.095 227.369 270.021L223.995 267.69C218.804 263.83 213.708 259.842 208.712 255.731L207.482 254.361C204.876 251.459 200.966 247.718 198.242 244.946L198.237 244.94L193.819 240.489C189.983 234.572 187.097 228.367 184.635 221.714L184.622 221.681L184.607 221.647L182.21 216.014C180.443 210.449 179.099 204.18 177.725 198.333L176.733 192.439C176.672 189.566 175.906 185.358 175.537 182.667C171.08 150.11 176.908 117.527 184.276 85.5918L184.277 85.5898C188.779 65.9891 193.65 46.0809 203.899 28.9453C209.153 20.1621 214.139 17.0534 219.002 17.1533C224.053 17.2573 229.64 20.7882 236.102 27.0332C249.868 40.3386 257.445 53.7463 267.123 70.251L267.706 71.2451L268.817 70.9375C270.093 70.584 271.491 70.0772 272.655 69.6855L272.703 69.6699L272.749 69.6504C294.243 60.7973 333.229 55.9591 357.089 54.5781C364.686 54.1389 378.147 55.0794 386.373 55.4395C390.626 55.6258 395.462 56.4216 400.38 57.3037C405.255 58.1781 410.228 59.1418 414.603 59.6104L415.608 59.7178L416.085 58.8252C420.604 50.3668 430.783 29.9271 442.84 15.8047C448.893 8.71495 455.21 3.47487 461.306 1.95215Z" fill="#FAA640" stroke="black" stroke-width="3"/>
<path d="M291.886 129.342C293.276 129.123 298.451 129.038 300.023 129.03C313.059 128.94 323.959 129.173 335.476 136.157C350.457 145.241 350.794 166.791 341.911 180.171C334.578 191.218 316.117 197.577 303.117 199.984L302.455 200.09C288.256 202.328 271.729 201.341 259.562 192.715C244.379 181.949 242.694 161.653 254.013 147.422C264.284 134.509 276.286 131.368 291.886 129.342Z" fill="#040605"/>
<path d="M305.245 136.29C308.012 135.568 312.647 136.162 315.486 136.483C295.226 149.356 299.274 174.288 316.651 187.423C313.312 189.088 310.96 189.968 307.489 191.253C293.425 194.999 273.745 194.842 262.495 184.451C251.983 174.741 252.929 159.903 262.69 150.033C273.539 139.063 290.444 136.584 305.245 136.29Z" fill="#FCFCFD"/>
<path d="M421.181 123.133C438.957 121.226 470.582 126.616 472.427 149.458C474.693 177.5 444.385 191.434 420.211 193.53C408.298 195.55 387.777 192.887 378.134 185.648C364.576 175.471 365.418 158.672 375.375 146.246C386.778 132.014 403.546 125.254 421.181 123.133Z" fill="#040605"/>
<path d="M421.351 130.91C423.374 129.8 429.766 130.723 431.929 131.758C432.137 133.82 428.918 139.309 428.167 141.659C422.838 158.338 427.059 170.963 441.365 180.196C438.065 181.912 435.495 183.218 431.819 183.98C417.598 187.245 394.718 188.909 382.431 179.577C372.395 171.108 375.851 157.065 383.579 148.592C393.708 137.486 406.554 132.017 421.351 130.91Z" fill="#FCFCFD"/>
<path d="M267.109 71.0604C288.855 62.1036 333.127 54.4648 357 53.0832C364.698 52.6381 378.305 53.588 386.436 53.9439C395.167 54.3266 392.897 56.2729 401.51 57.1954C403.231 57.6278 415.756 58.4962 416.079 59.9684C418.64 71.671 423.588 87.0691 421.208 98.7352C419.156 107.319 417.329 111.923 410.878 116.174C406.843 116.532 404.751 117.077 401.51 114.284C396.308 109.802 393.546 103.592 390.799 97.4525C384.606 83.6136 380.525 68.9764 374.135 55.1641C375.116 68.737 375.621 82.0248 373.143 95.5282C371.441 104.8 369.618 119.82 357.445 120.642C354.279 120.856 350.778 119.511 348.495 117.17C339.946 106.684 334.364 92.6933 329.117 80.3834C326.403 74.0157 324.55 68.0314 321.663 62.0562L321.626 62.6944C320.912 76.1423 327.035 124.93 306.651 125.239C292.435 125.455 271.168 81.7001 267.109 71.0604Z" fill="#010101"/>
<path d="M153.581 205.671C162.371 202.092 171.495 199.161 180.348 195.709C183.203 194.595 190.027 191.92 192.9 193.546C193.142 194.585 193.328 194.708 192.784 195.614C189.522 201.045 163.116 209.157 156.007 211.374C149.138 213.458 130.134 221.584 124.951 219.877C123.864 218.79 124.152 219.357 124.047 217.612C126.31 213.362 147.381 208.152 153.082 205.873L153.581 205.671Z" fill="#010101"/>
<path d="M148.017 181.723L148.435 181.708C155.708 181.389 180.143 177.184 185.519 179.61C186.57 181.136 184.969 184.675 183.885 184.806C172.412 186.195 160.627 186.565 149.032 187.761C143.359 188.532 125.611 192.312 121.629 189.041C121.093 187.417 121.191 188.066 121.521 186.315C123.293 184.139 143.467 182.406 148.017 181.723Z" fill="#010101"/>
<path d="M194.836 205.938L197.822 208.815C194.158 216.885 177.489 229.911 169.961 235.141C166.045 237.871 159.374 244.27 155.956 245.088C154.341 244.758 155.007 245.149 153.94 243.788C153.708 242.358 153.652 241.683 153.625 240.233L154.014 240.043C153.613 238.193 159.015 236.743 159.714 235.016L161.262 234.013C162.459 233.227 164.285 231.559 165.431 230.575C170.058 226.845 174.948 223.337 179.469 219.625C184.598 215.414 189.899 210.436 194.836 205.938Z" fill="#010101"/>
<path d="M278.409 209.06C307.33 205.711 322.54 233.196 304.926 256.311C300.082 262.666 292.349 266.243 284.469 267.122C276.809 267.312 269.516 265.895 262.913 261.805C256.649 257.852 252.203 251.577 250.546 244.353C248.976 237.472 250.187 230.25 253.913 224.259C259.296 215.606 268.892 211.356 278.409 209.06Z" fill="#FF80AB"/>
<path d="M442.498 195.47C449.135 195.235 455.052 195.112 461.179 197.951C467.352 200.755 472.156 205.904 474.528 212.26C477.083 219.29 476.234 230.08 472.805 236.657C468.051 245.778 462.914 249.56 453.621 252.837C411.666 256.469 412.146 202.728 442.498 195.47Z" fill="#FF80AB"/>
<path d="M381.504 195.295C380.681 193.957 379.475 194.031 378.11 193.695C378.11 193.695 362.028 188.223 355.551 194.201C354.231 195.419 352.622 197.747 352.622 197.747C354.08 207.064 357.958 210.159 362.149 217.663C363.918 220.83 354.759 227.698 349.191 220.994C346.333 217.554 343.389 209.686 338.811 211.613C335.73 215.339 339.601 221.247 342.125 224.308C352.484 236.872 361.269 231.759 370.984 223.469C381.945 231.95 391.943 225.224 397.563 214.617C399.2 211.528 407.271 198.401 402.283 195.242C396.653 191.677 394.399 200.007 393.334 204.099C391.305 211.896 386.428 223.761 376.189 217.472C374.715 213.984 384.581 200.301 381.504 195.295Z" fill="#040605"/>
<path d="M222.159 47.0605C223.709 47.434 225.435 47.229 226.902 47.9627C237.816 53.4205 245.702 66.146 249.938 77.1458C243.284 80.661 234.386 83.3365 227.105 86.8784C219.707 90.7095 217.69 90.8057 209.487 95.9441C208.535 82.0461 209.148 55.6839 222.159 47.0605Z" fill="#FF80AB"/>
<path d="M464.067 33.8848C476.259 34.4815 480.859 68.0939 480.9 77.4341C475.022 74.7115 469.038 72.2262 462.961 69.9838C455.475 67.064 447.258 65.1937 439.438 63.2546C445.093 53.2152 452.535 37.2603 464.067 33.8848Z" fill="#FF80AB"/>
<path d="M518.395 191.728C513.016 190.883 499.962 190.748 497.133 186.509C496.876 184.956 496.704 185.623 497.542 184.414C501.98 181.935 514.214 183.683 519.549 184.31C530.93 185.262 542.247 186.338 553.696 186.999C556.969 187.188 558.832 192.348 554.897 194.394C549.462 197.22 521.613 190.802 518.395 191.728Z" fill="#010101"/>
<path d="M511.593 213.591C507.237 212.19 489.973 207.416 490.578 201.825C494.227 197.714 510.377 205.378 514.393 207.778C517.155 208.666 551.52 220.03 538.874 225.533C535.162 227.147 517.892 216.153 511.593 213.591Z" fill="#010101"/>
<path d="M521.881 162.064L538.556 159.286C542.168 158.655 546.099 157.164 549.527 158.698C550.914 157.417 548.64 157.573 551.21 157.369C553.285 158.234 554.204 160.371 553.912 162.533C551.968 165.298 534.401 168.04 531.827 166.629C526.795 168.534 526.359 168.195 521.71 169.327C516.463 169.974 501.818 175.155 498.531 170.705C498.479 166.029 517.728 162.564 521.881 162.064Z" fill="#010101"/>
<path d="M367.23 212.483L354.758 194.112C354.758 194.112 362.059 189.881 367.23 189.606C372.374 189.332 380.048 192.725 380.048 192.725L367.23 212.483Z" fill="#FF80AB"/>
<path d="M340 160C341.462 177.335 324.89 193.316 299 195.5C273.11 197.684 255.609 186.12 254.147 168.785C252.685 151.45 269.179 135.905 295.069 133.722C320.958 131.538 338.538 142.665 340 160Z" fill="#FCFCFD"/>
<path d="M465 149C468.023 165.04 453.032 182.187 427.5 187C401.968 191.813 378.998 184.384 375.974 168.344C372.951 152.304 387.935 136.014 413.467 131.202C438.999 126.389 461.977 132.96 465 149Z" fill="#FCFCFD"/>
</svg>
