<svg width="78" height="84" viewBox="0 0 78 84" fill="none" xmlns="http://www.w3.org/2000/svg">
<path d="M49.3224 1.31009C52.7746 4.22925 54.4714 7.97244 55.3619 12.1679C56.2972 16.5752 56.3185 21.3159 56.5853 26.0853L56.6406 27.0822L57.6214 27.2711C59.1194 27.5598 60.6089 27.8914 62.0872 28.2672L62.0876 28.2686C64.1269 28.8017 67.1917 29.7748 69.9319 31.0981C71.3019 31.7597 72.5554 32.492 73.5506 33.2766C74.4318 33.9714 75.0462 34.6568 75.3909 35.3099L75.5219 35.5883C76.4054 37.7128 76.2404 39.5913 75.4245 41.3171C74.5842 43.0947 73.0257 44.7596 71.0511 46.2902C67.0895 49.3606 61.8657 51.5897 58.7408 53.026L57.9287 53.3994L57.9992 54.2899C58.263 57.6314 58.211 64.3265 56.7864 70.334C56.0739 73.3386 55.0378 76.0847 53.5937 78.1455C52.1644 80.1851 50.3836 81.4944 48.1344 81.8208L48.1335 81.8203C46.8433 82.0074 45.4455 81.5735 43.8945 80.5499C42.3433 79.5261 40.7694 77.9977 39.1845 76.231C37.5984 74.4629 36.0772 72.5453 34.5733 70.7324C33.0988 68.955 31.6272 67.2606 30.222 66.0881L29.7515 65.6953L29.1496 65.8166L26.8789 66.272L26.7921 66.2899L26.7083 66.3185C23.7627 67.3464 17.8959 69.4627 12.4982 70.0986C9.7915 70.4175 7.35254 70.3434 5.50894 69.6785C3.75027 69.0442 2.53013 67.8822 2.06601 65.8343C1.33261 62.598 2.62319 58.5055 4.78817 54.2387C6.93336 50.0109 9.72711 45.9899 11.6768 42.8446L12.1471 42.0857L11.598 41.3821C9.43092 38.6053 5.19536 33.5398 2.86173 28.4006C1.69565 25.8326 1.08283 23.405 1.33327 21.3363C1.57216 19.3633 2.61029 17.576 5.1096 16.2005C7.92677 14.6504 12.0993 14.7634 16.6962 15.6792C21.2392 16.5843 25.8099 18.1826 29.3224 19.2609L30.332 19.5715L30.8279 18.6383C33.1159 14.3399 35.4275 10.1164 38.4244 6.88593C41.2815 3.80633 44.7185 1.67783 49.3224 1.31009Z" fill="#E8BBF5" stroke="black" stroke-width="2.56041"/>
</svg>
