<svg width="301" height="443" viewBox="0 0 301 443" fill="none" xmlns="http://www.w3.org/2000/svg">
<g clip-path="url(#clip0_3683_1535)">
<rect width="300.828" height="443" rx="29.8767" fill="#FCFCFD"/>
<path d="M37.1445 30.5H263.27C271.761 30.5 278.645 37.3836 278.645 45.875V221H21.7695V45.875C21.7695 37.3836 28.6532 30.5 37.1445 30.5Z" fill="#56D5F3" stroke="black" stroke-width="3"/>
<path d="M216.096 164.095C221.958 172.365 227.131 184.392 232.174 196.282C234.82 202.521 237.426 208.705 240.055 214.184C242.678 219.65 245.366 224.507 248.203 228.061L249.435 229.604L250.591 228.003L269.791 201.413C274.493 203.865 276.423 206.897 276.954 210.326C277.555 214.204 276.419 218.838 274.598 224.252C272.82 229.537 270.388 235.558 268.799 241.721C267.197 247.936 266.378 254.528 267.853 261.198C268.364 263.515 267.318 265.232 265.677 267.515C264.353 269.356 262.592 271.604 262.181 274.562L176.669 274.639C176.65 274.457 176.631 274.275 176.614 274.093L176.613 274.091L176.505 272.802C174.546 246.226 190.19 223.51 215.719 215.761L216.961 215.397C217.454 215.259 218.079 215.172 218.832 215.074C219.524 214.984 220.36 214.881 221.065 214.689L221.066 214.69C221.335 214.618 221.795 214.561 222.471 214.514C223.043 214.474 223.925 214.432 224.611 214.379C225.35 214.322 226.148 214.235 226.853 214.062C227.493 213.906 228.374 213.608 228.952 212.904L229.274 212.513L229.292 212.005C229.298 211.838 229.309 211.736 229.317 211.643C229.319 211.624 229.367 211.291 229.285 210.951C229.186 210.539 228.95 210.264 228.899 210.201C228.807 210.087 228.773 210.053 228.663 209.91L228.247 209.371L227.567 209.33L227.237 209.315C225.524 209.271 222.905 209.607 220.445 210.032C217.784 210.492 215.092 211.094 213.553 211.571V211.572C201.358 215.357 190.243 222.903 182.689 233.315C181.544 234.894 179.265 237.905 176.781 244.366C174.382 250.609 171.8 260.042 169.813 274.514C160.301 274.521 155.998 274.523 152.599 274.521L139.995 274.514H139.988L136.176 274.531H136.125L136.073 274.535L134.37 274.658L56.373 274.568C58.3787 273.013 60.166 271.148 61.499 268.725C65.0523 262.265 68.184 255.513 71.4111 248.982C76.1276 239.578 80.9159 230.21 85.7754 220.879L85.7812 220.867C85.9716 220.494 86.3383 219.866 86.8203 219.018C87.2849 218.199 87.8263 217.227 88.3096 216.256C88.7859 215.299 89.24 214.278 89.4971 213.37C89.6249 212.919 89.7246 212.425 89.7266 211.941C89.7285 211.475 89.6383 210.825 89.1787 210.276L88.7578 209.774L88.1035 209.742L87.5781 209.717L87.0186 209.688L86.5771 210.035C86.1403 210.378 85.7653 210.869 85.4707 211.304C85.1575 211.766 84.8515 212.295 84.5713 212.811C84.0363 213.795 83.4736 214.971 83.2012 215.496C74.9267 231.428 67.0219 247.52 59.1045 263.603C56.7737 268.338 53.6145 271.876 48.6006 273.262C42.8643 274.677 35.9536 275.095 31.0068 272.4C27.9557 270.739 25.9554 268.609 24.2461 265.583C22.0119 261.629 22.153 257.883 23.376 254.054C24.6421 250.089 26.9505 246.317 29.0195 242.116L40.2881 219.241L40.292 219.232L55.8613 187.08C58.1498 182.433 60.4971 177.486 62.9785 173.005C72.7317 178.386 83.6141 180.747 94.6162 180.803C109.601 180.878 124.623 180.812 139.593 180.82L161.705 180.833H161.706C171.5 180.836 180.445 181.356 190.333 178.649C201.29 175.65 208.162 171.488 216.096 164.095Z" fill="#FAA640" stroke="black" stroke-width="3"/>
<path d="M214.223 47.541C217.31 47.3151 219.143 48.0741 220.304 49.2109C221.535 50.4164 222.259 52.2819 222.619 54.6992C222.978 57.103 222.948 59.8402 222.851 62.6016C222.755 65.2974 222.59 68.0808 222.731 70.3438C222.964 74.0661 222.734 77.8295 222.674 81.8076C222.615 85.7243 222.726 89.7628 223.707 93.7295C224.805 98.1704 226.442 102.096 228.239 106.084L229.019 107.799C233.395 117.732 235.285 126.001 234.971 136.766L234.817 138.473C234.221 143.918 233.342 147.95 231.741 153.167L230.978 154.791L230.975 154.8L230.971 154.808C227.149 163.187 223.857 168.168 216.652 173.725L215.948 174.26C208.957 179.455 200.857 182.959 192.283 184.497L192.28 184.498C186.154 185.61 177.117 185.457 170.491 185.455H170.492L143.186 185.428H143.185L115.101 185.418C104.036 185.413 93.1334 185.822 82.9131 182.285C72.6319 178.727 63.665 172.629 57.2119 163.919C54.8753 160.601 53.748 158.389 51.8398 154.705L51.2344 153.308C49.2302 147.899 48.6512 144.273 48.0752 138.547L47.9785 136.881C47.6832 125.438 50.4221 115.031 55.7754 104.959C58.604 99.6369 60.0043 95.9224 60.6738 92.0156C61.333 88.1693 61.2687 84.1851 61.2881 78.4668C61.3082 73.125 61.3067 67.7824 61.2832 62.4404L61.252 57.0986C61.2518 55.7696 61.3646 54.2839 61.7236 52.9639C62.0866 51.6292 62.6554 50.631 63.4404 50.0508C65.482 48.626 67.1311 48.024 68.4932 47.8887C69.8392 47.755 71.0343 48.0644 72.2051 48.6895C73.4055 49.3303 74.5603 50.2927 75.7939 51.4521C76.9646 52.5525 78.3154 53.9421 79.6455 55.1133C81.8321 57.039 86.3559 61.3262 90.8535 65.4873C93.0902 67.5566 95.3128 69.587 97.208 71.251C98.841 72.6847 100.294 73.9022 101.314 74.627L101.725 74.9062C101.98 75.0718 102.245 75.1401 102.349 75.166C102.495 75.2027 102.651 75.23 102.8 75.252C103.1 75.2963 103.474 75.3327 103.892 75.3633C104.733 75.4249 105.855 75.4714 107.153 75.5068C109.756 75.5779 113.14 75.6064 116.552 75.6123C123.329 75.624 130.417 75.5471 131.552 75.5469L179.713 75.5596H180.159L180.533 75.3154C182.872 73.7894 185.684 71.0349 187.567 69.2549C190.984 66.053 194.38 62.8275 197.752 59.5781L197.753 59.5771C202.999 54.5134 207.671 49.3351 214.223 47.541Z" fill="#FAA640" stroke="black" stroke-width="3"/>
<path d="M70.7571 129.613C71.4308 128.535 70.7975 127.084 69.5844 126.705C64.4652 125.106 57.3466 124.675 52.1639 123.762C49.2134 123.242 42.1562 121.651 38.7031 121.446C38.1676 121.414 37.6457 121.613 37.2593 121.985C36.9733 122.261 36.8594 122.426 36.7216 122.753C36.3047 123.743 36.7295 124.82 37.7602 125.122C43.9565 126.938 63.6902 130.315 68.8589 130.699C69.3982 130.739 69.9192 130.548 70.3021 130.166C70.5067 129.962 70.641 129.799 70.7571 129.613Z" fill="#080607"/>
<path d="M209.063 129.613C208.39 128.535 209.023 127.084 210.236 126.705C215.355 125.106 222.474 124.675 227.656 123.762C230.607 123.242 237.664 121.651 241.117 121.446C241.653 121.414 242.175 121.613 242.561 121.985C242.847 122.261 242.961 122.426 243.099 122.753C243.516 123.743 243.091 124.82 242.06 125.122C235.864 126.938 216.13 130.315 210.961 130.699C210.422 130.739 209.901 130.548 209.518 130.166C209.314 129.962 209.179 129.799 209.063 129.613Z" fill="#080607"/>
<path d="M71.0762 140.083C71.5093 138.888 70.5861 137.601 69.3205 137.485C63.9799 136.993 56.9289 138.062 51.67 138.256C48.6761 138.365 41.4421 138.287 38.0227 138.809C37.4923 138.891 37.0237 139.194 36.7238 139.639C36.5018 139.968 36.4251 140.154 36.3589 140.503C36.1586 141.558 36.7993 142.522 37.8705 142.602C44.3097 143.08 64.313 142.249 69.4476 141.542C69.9833 141.469 70.4528 141.173 70.7472 140.719C70.9046 140.477 71.0016 140.289 71.0762 140.083Z" fill="#080607"/>
<path d="M208.74 140.083C208.307 138.888 209.23 137.601 210.496 137.485C215.836 136.993 222.887 138.062 228.146 138.256C231.14 138.365 238.374 138.287 241.794 138.809C242.324 138.891 242.793 139.194 243.093 139.639C243.315 139.968 243.391 140.154 243.458 140.503C243.658 141.558 243.017 142.522 241.946 142.602C235.507 143.08 215.503 142.249 210.369 141.542C209.833 141.469 209.364 141.173 209.069 140.719C208.912 140.477 208.815 140.289 208.74 140.083Z" fill="#080607"/>
<path d="M180.438 97C189.286 97 196.375 103.93 196.375 112.375C196.375 120.82 189.286 127.75 180.438 127.75C171.589 127.75 164.5 120.82 164.5 112.375C164.5 103.93 171.589 97 180.438 97Z" fill="#F1F3F2" stroke="black" stroke-width="3"/>
<path d="M99.4375 97C108.286 97 115.375 103.93 115.375 112.375C115.375 120.82 108.286 127.75 99.4375 127.75C90.5887 127.75 83.5 120.82 83.5 112.375C83.5 103.93 90.5887 97 99.4375 97Z" fill="#F1F3F2" stroke="black" stroke-width="3"/>
<ellipse cx="179.312" cy="112.375" rx="6.1875" ry="6.75" fill="black"/>
<circle cx="98.875" cy="112.375" r="6.75" fill="black"/>
<path d="M213.3 57.0352C214.446 57.0221 215.156 57.7735 215.166 58.793C215.238 65.8096 215.302 73.2779 214.918 80.2861L206.634 75.8271H206.633C203.959 74.3269 200.6 72.5252 198.019 70.7988C199.647 68.9854 202.241 66.3755 204.959 63.8535C206.653 62.2817 208.371 60.7648 209.898 59.5186C211.294 58.3804 212.468 57.5197 213.3 57.0352Z" fill="#FE68A5" stroke="black" stroke-width="3"/>
<path d="M69.4189 57.1279C69.6059 57.1964 69.8364 57.2959 70.1133 57.4385C70.7373 57.7597 71.4776 58.2335 72.3105 58.8398C73.9749 60.0515 75.892 61.7059 77.8115 63.4834C80.8318 66.2802 83.7798 69.3073 85.6504 71.2471C83.4189 72.6692 81.1972 73.9079 78.7695 75.2793L78.7285 75.3018L78.6904 75.3271C76.1437 76.98 72.2411 79.1347 68.9893 80.9951C68.7683 73.5626 69.1113 65.8177 69.1074 58.2959L69.1201 57.9512C69.1438 57.6538 69.1988 57.4878 69.2559 57.3721C69.2906 57.3016 69.3408 57.2233 69.4189 57.1279Z" fill="#FE68A5" stroke="black" stroke-width="3"/>
<path d="M112.375 154C115.05 159.946 119.918 163.061 126.438 163C142.188 162.853 141.062 143.875 141.062 143.875C141.062 143.875 139.938 159.062 152.875 162.438C159.246 164.099 167.284 160.477 170.312 153.438" stroke="black" stroke-width="3.375" stroke-linecap="round"/>
<path d="M130.021 137.242C125.195 128.571 138.314 129.185 143.164 129.307C148.943 129.452 159.08 129.625 153.503 137.979C150.61 142.312 147.929 144.016 143.009 145.327C142.967 146.181 142.931 147.036 142.9 147.891C142.712 153.345 144.156 155.628 147.8 159.526C147.11 159.703 147.246 159.673 146.617 159.594L145.94 160.588C143.817 158.334 143.228 157.035 141.959 154.3C136.747 164.605 126.554 168.917 116.112 161.593C114.74 160.63 111.335 156.547 112.686 154.897C114.129 155.135 115.63 158.014 116.996 159.38C119.433 161.806 122.751 163.153 126.198 163.114C130.206 163.103 134.026 161.425 136.734 158.485C140.844 154.094 140.768 150.836 140.572 145.494C136.336 143.934 132.2 141.105 130.021 137.242Z" fill="#080607"/>
<path d="M130.021 137.242C125.195 128.571 138.314 129.185 143.164 129.307C148.943 129.452 159.08 129.625 153.503 137.979C150.61 142.312 147.929 144.016 143.009 145.327C142.967 146.181 142.931 147.036 142.9 147.891C142.712 153.345 144.156 155.628 147.8 159.526C147.11 159.703 147.246 159.673 146.617 159.594L145.94 160.588C143.817 158.334 143.228 157.035 141.959 154.3C136.747 164.605 126.554 168.917 116.112 161.593C114.74 160.63 111.335 156.547 112.686 154.897C114.129 155.135 115.63 158.014 116.996 159.38C119.433 161.806 122.751 163.153 126.198 163.114C130.206 163.103 134.026 161.425 136.734 158.485C140.844 154.094 140.768 150.836 140.572 145.494C136.336 143.934 132.2 141.105 130.021 137.242Z" stroke="black"/>
<path d="M170.873 154.092C170.941 156.554 169.328 158.905 167.746 160.597C161.499 167.277 152.428 166.37 146.125 160.389L146.795 159.354C147.417 159.437 147.283 159.468 147.966 159.284C159.55 167.185 164.459 161.617 170.254 154C170.46 154.03 170.667 154.061 170.873 154.092Z" fill="#080607"/>
<path d="M170.873 154.092C170.941 156.554 169.328 158.905 167.746 160.597C161.499 167.277 152.428 166.37 146.125 160.389L146.795 159.354C147.417 159.437 147.283 159.468 147.966 159.284C159.55 167.185 164.459 161.617 170.254 154C170.46 154.03 170.667 154.061 170.873 154.092Z" stroke="black"/>
<circle cx="245.625" cy="74.625" r="4.125" fill="#F1F3F2" stroke="black" stroke-width="3"/>
<circle cx="42.1875" cy="67.1875" r="4.6875" fill="#F1F3F2" stroke="black" stroke-width="3"/>
<circle cx="260.625" cy="158.625" r="4.125" fill="#F1F3F2" stroke="black" stroke-width="3"/>
<circle cx="36.625" cy="172.625" r="4.125" fill="#F1F3F2" stroke="black" stroke-width="3"/>
<circle cx="160.625" cy="50.625" r="4.125" fill="#F1F3F2" stroke="black" stroke-width="3"/>
<path d="M12.332 213.062L-0.0429688 226.562L22.5 292.5L65.7695 312.625L278 292.5L303.707 225.375L306.207 205.5L298.895 195.438L293.582 193.375L284.582 196.188L275.582 204.625L263.207 215.875L253.082 218.125L244.645 212.5L236.77 202.938L228.332 196.188L219.895 193.375L213.707 196.188L198.52 210.812L191.207 215.875L183.895 217.562L174.895 213.625L164.77 205.75L154.082 201.812L143.395 203.5L129.895 213.625L122.02 217L114.145 216.438L108.52 211.938L102.895 201.812L96.1445 192.812L91.082 190L84.8945 191.125L79.2695 197.312L71.3945 211.938L65.7695 215.875H59.0195L52.832 210.812L47.7695 205.188L39.8945 201.812L28.6445 204.062L12.332 213.062Z" fill="#FCFCFD" stroke="#FCFCFD" stroke-width="1.125"/>
<path d="M-2.04297 224.438C-2.04297 224.438 22.0966 200.975 37.2415 200.975C54.207 200.975 51.442 215.613 62.694 215.211C77.2106 214.692 75.807 188.231 90.3127 189.017C104.052 189.762 101.94 211.446 115.224 215.211C130.402 219.512 137.428 200.216 153.132 200.975C167.059 201.648 172.225 215.371 186.166 215.211C203.399 215.012 207.634 189.34 224.615 192.434C237.796 194.835 238.31 211.266 251.151 215.211C270.871 221.268 283.957 179.375 302.957 196.875C308.544 202.021 306.957 218.375 306.957 218.375" stroke="black" stroke-width="3"/>
<mask id="path-26-outside-1_3683_1535" maskUnits="userSpaceOnUse" x="60.0508" y="285.375" width="180" height="44" fill="black">
<rect fill="white" x="60.0508" y="285.375" width="180" height="44"/>
<path d="M66.4878 308.932C66.4878 304.704 63.0426 299.745 63.3036 294.473C63.4602 291.393 64.974 288.313 68.4192 288.313C70.2984 288.313 72.2298 289.253 73.1172 291.027C74.5788 293.951 72.1254 297.083 71.3946 299.118C70.6638 301.52 71.3424 304.86 73.326 305.539C73.5348 305.591 73.7958 305.643 74.0046 305.643C76.719 305.643 79.7988 300.893 79.851 297.709C79.851 293.742 80.0076 288.365 85.1754 288.365C88.2552 288.365 89.9256 290.244 90.1866 294.055C90.6042 299.275 86.8458 306.165 77.241 307.888C81.5214 308.306 85.9062 309.35 88.7772 313.16C91.8048 317.284 91.2828 325.375 89.3514 325.375H82.4088C79.9032 325.375 81.5214 319.946 79.2768 315.927C78.2328 313.995 76.5102 312.638 75.153 312.638C74.0046 312.638 73.1172 313.682 73.2216 316.24C73.3782 319.946 75.6228 325.375 71.6034 325.375H63.9822C61.1112 325.375 66.4878 314.883 66.4878 308.932ZM109.147 299.379C108.468 298.962 107.737 298.805 106.954 298.805C104.814 298.805 102.622 300.267 101.682 302.564C101.056 304.025 100.795 307.731 103.248 309.141C104.24 309.715 105.075 309.924 105.858 309.924C107.581 309.924 108.781 308.932 109.721 308.932C110.086 308.932 110.399 309.089 110.713 309.506C111.391 310.498 110.504 311.281 107.528 314.361C104.501 317.545 108.416 320.573 111.6 320.573C112.226 320.573 112.801 320.468 113.323 320.207C117.812 317.963 114.367 311.385 116.089 310.237C116.35 310.028 116.559 309.976 116.768 309.976C117.551 309.976 118.177 311.229 120.161 312.899C121.048 313.682 121.883 313.995 122.614 313.995C125.798 313.995 127.312 308.306 123.502 307.627C119.639 306.948 118.282 307.418 118.125 306.009C118.021 304.443 123.763 302.25 123.293 298.701C123.084 297.239 121.622 295.256 119.378 295.256C118.751 295.256 118.073 295.412 117.342 295.778C112.54 298.283 117.655 304.965 113.845 304.965C111.965 304.965 112.487 301.467 109.147 299.379ZM114.21 325.897C107.946 325.897 102.152 323.235 98.7066 317.858C94.2696 311.072 95.6268 301.259 101.212 294.159C104.135 290.505 109.094 288.313 114.106 288.313C122.092 288.313 130.183 293.794 130.235 307.366C130.288 322.922 121.779 325.897 114.21 325.897ZM170.031 305.33C170.239 310.602 172.327 313.473 171.44 319.372C171.022 322.608 168.726 325.323 165.385 325.323C162.775 325.323 156.876 324.279 154.266 324.279C151.395 324.279 146.645 325.427 143.617 325.427C142.051 325.427 139.859 325.01 138.502 324.227C132.655 320.886 137.823 308.514 137.823 303.19C137.823 299.64 136.466 298.022 135.787 294.107C135.422 291.863 135.735 288.835 140.016 288.835C146.593 288.835 146.332 299.223 144.661 305.643C143.983 308.253 141.425 316.814 145.288 317.649C149.464 318.485 151.291 312.951 150.717 307.418C150.299 304.025 147.689 297.761 148.733 292.907C149.151 291.08 150.612 288.835 153.431 288.835C156.563 288.835 157.659 291.027 157.294 293.481C156.667 297.344 156.72 298.805 157.294 301.467C158.077 305.33 159.173 308.88 158.077 314.204C157.607 316.501 159.121 317.963 160.687 317.963C162.096 317.963 163.558 316.814 163.767 314.1C164.132 308.514 161.731 304.077 161.887 295.725C161.94 291.967 163.036 288.835 167.421 288.835C170.761 288.835 172.954 291.549 171.753 294.995C170.344 299.066 169.822 300.893 170.031 305.33ZM180.59 308.932C180.59 304.704 177.144 299.745 177.405 294.473C177.562 291.393 179.076 288.313 182.521 288.313C184.4 288.313 186.332 289.253 187.219 291.027C188.681 293.951 186.227 297.083 185.496 299.118C184.766 301.52 185.444 304.86 187.428 305.539C187.637 305.591 187.898 305.643 188.106 305.643C190.821 305.643 193.901 300.893 193.953 297.709C193.953 293.742 194.109 288.365 199.277 288.365C202.357 288.365 204.027 290.244 204.288 294.055C204.706 299.275 200.948 306.165 191.343 307.888C195.623 308.306 200.008 309.35 202.879 313.16C205.907 317.284 205.385 325.375 203.453 325.375H196.511C194.005 325.375 195.623 319.946 193.379 315.927C192.335 313.995 190.612 312.638 189.255 312.638C188.106 312.638 187.219 313.682 187.323 316.24C187.48 319.946 189.725 325.375 185.705 325.375H178.084C175.213 325.375 180.59 314.883 180.59 308.932ZM219.125 309.611C227.581 308.306 228.677 305.069 228.573 301.467C228.521 298.44 226.172 296.561 223.718 296.561C222.257 296.561 220.691 297.187 219.542 298.649C216.776 302.042 218.133 305.696 219.125 309.611ZM220.064 288.835C221.004 288.522 222.152 288.313 223.405 288.313C226.38 288.313 229.93 289.409 231.966 291.967C233.427 293.846 234.419 296.404 235.15 300.476C236.716 309.141 238.439 325.375 233.219 325.375H228.364C221.943 325.375 231.183 315.092 226.798 313.056C226.224 312.795 225.075 312.586 223.927 312.586C222.1 312.586 220.221 313.108 220.534 314.622C221.735 320.886 221.526 325.375 217.193 325.375H211.712C207.484 325.375 210.459 320.834 212.182 313.526C213.539 307.679 207.849 293.324 220.064 288.835Z"/>
</mask>
<path d="M66.4878 308.932C66.4878 304.704 63.0426 299.745 63.3036 294.473C63.4602 291.393 64.974 288.313 68.4192 288.313C70.2984 288.313 72.2298 289.253 73.1172 291.027C74.5788 293.951 72.1254 297.083 71.3946 299.118C70.6638 301.52 71.3424 304.86 73.326 305.539C73.5348 305.591 73.7958 305.643 74.0046 305.643C76.719 305.643 79.7988 300.893 79.851 297.709C79.851 293.742 80.0076 288.365 85.1754 288.365C88.2552 288.365 89.9256 290.244 90.1866 294.055C90.6042 299.275 86.8458 306.165 77.241 307.888C81.5214 308.306 85.9062 309.35 88.7772 313.16C91.8048 317.284 91.2828 325.375 89.3514 325.375H82.4088C79.9032 325.375 81.5214 319.946 79.2768 315.927C78.2328 313.995 76.5102 312.638 75.153 312.638C74.0046 312.638 73.1172 313.682 73.2216 316.24C73.3782 319.946 75.6228 325.375 71.6034 325.375H63.9822C61.1112 325.375 66.4878 314.883 66.4878 308.932ZM109.147 299.379C108.468 298.962 107.737 298.805 106.954 298.805C104.814 298.805 102.622 300.267 101.682 302.564C101.056 304.025 100.795 307.731 103.248 309.141C104.24 309.715 105.075 309.924 105.858 309.924C107.581 309.924 108.781 308.932 109.721 308.932C110.086 308.932 110.399 309.089 110.713 309.506C111.391 310.498 110.504 311.281 107.528 314.361C104.501 317.545 108.416 320.573 111.6 320.573C112.226 320.573 112.801 320.468 113.323 320.207C117.812 317.963 114.367 311.385 116.089 310.237C116.35 310.028 116.559 309.976 116.768 309.976C117.551 309.976 118.177 311.229 120.161 312.899C121.048 313.682 121.883 313.995 122.614 313.995C125.798 313.995 127.312 308.306 123.502 307.627C119.639 306.948 118.282 307.418 118.125 306.009C118.021 304.443 123.763 302.25 123.293 298.701C123.084 297.239 121.622 295.256 119.378 295.256C118.751 295.256 118.073 295.412 117.342 295.778C112.54 298.283 117.655 304.965 113.845 304.965C111.965 304.965 112.487 301.467 109.147 299.379ZM114.21 325.897C107.946 325.897 102.152 323.235 98.7066 317.858C94.2696 311.072 95.6268 301.259 101.212 294.159C104.135 290.505 109.094 288.313 114.106 288.313C122.092 288.313 130.183 293.794 130.235 307.366C130.288 322.922 121.779 325.897 114.21 325.897ZM170.031 305.33C170.239 310.602 172.327 313.473 171.44 319.372C171.022 322.608 168.726 325.323 165.385 325.323C162.775 325.323 156.876 324.279 154.266 324.279C151.395 324.279 146.645 325.427 143.617 325.427C142.051 325.427 139.859 325.01 138.502 324.227C132.655 320.886 137.823 308.514 137.823 303.19C137.823 299.64 136.466 298.022 135.787 294.107C135.422 291.863 135.735 288.835 140.016 288.835C146.593 288.835 146.332 299.223 144.661 305.643C143.983 308.253 141.425 316.814 145.288 317.649C149.464 318.485 151.291 312.951 150.717 307.418C150.299 304.025 147.689 297.761 148.733 292.907C149.151 291.08 150.612 288.835 153.431 288.835C156.563 288.835 157.659 291.027 157.294 293.481C156.667 297.344 156.72 298.805 157.294 301.467C158.077 305.33 159.173 308.88 158.077 314.204C157.607 316.501 159.121 317.963 160.687 317.963C162.096 317.963 163.558 316.814 163.767 314.1C164.132 308.514 161.731 304.077 161.887 295.725C161.94 291.967 163.036 288.835 167.421 288.835C170.761 288.835 172.954 291.549 171.753 294.995C170.344 299.066 169.822 300.893 170.031 305.33ZM180.59 308.932C180.59 304.704 177.144 299.745 177.405 294.473C177.562 291.393 179.076 288.313 182.521 288.313C184.4 288.313 186.332 289.253 187.219 291.027C188.681 293.951 186.227 297.083 185.496 299.118C184.766 301.52 185.444 304.86 187.428 305.539C187.637 305.591 187.898 305.643 188.106 305.643C190.821 305.643 193.901 300.893 193.953 297.709C193.953 293.742 194.109 288.365 199.277 288.365C202.357 288.365 204.027 290.244 204.288 294.055C204.706 299.275 200.948 306.165 191.343 307.888C195.623 308.306 200.008 309.35 202.879 313.16C205.907 317.284 205.385 325.375 203.453 325.375H196.511C194.005 325.375 195.623 319.946 193.379 315.927C192.335 313.995 190.612 312.638 189.255 312.638C188.106 312.638 187.219 313.682 187.323 316.24C187.48 319.946 189.725 325.375 185.705 325.375H178.084C175.213 325.375 180.59 314.883 180.59 308.932ZM219.125 309.611C227.581 308.306 228.677 305.069 228.573 301.467C228.521 298.44 226.172 296.561 223.718 296.561C222.257 296.561 220.691 297.187 219.542 298.649C216.776 302.042 218.133 305.696 219.125 309.611ZM220.064 288.835C221.004 288.522 222.152 288.313 223.405 288.313C226.38 288.313 229.93 289.409 231.966 291.967C233.427 293.846 234.419 296.404 235.15 300.476C236.716 309.141 238.439 325.375 233.219 325.375H228.364C221.943 325.375 231.183 315.092 226.798 313.056C226.224 312.795 225.075 312.586 223.927 312.586C222.1 312.586 220.221 313.108 220.534 314.622C221.735 320.886 221.526 325.375 217.193 325.375H211.712C207.484 325.375 210.459 320.834 212.182 313.526C213.539 307.679 207.849 293.324 220.064 288.835Z" fill="#FEABC8"/>
<path d="M63.3036 294.473L60.8068 294.346L60.8066 294.349L63.3036 294.473ZM73.1172 291.027L75.3533 289.909H75.3532L73.1172 291.027ZM71.3946 299.118L69.0416 298.274L69.0208 298.332L69.0029 298.39L71.3946 299.118ZM73.326 305.539L72.5168 307.904L72.6169 307.939L72.7196 307.964L73.326 305.539ZM79.851 297.709L82.3506 297.75L82.351 297.729V297.709H79.851ZM90.1866 294.055L87.6924 294.226L87.6934 294.24L87.6945 294.254L90.1866 294.055ZM77.241 307.888L76.7997 305.427L76.9982 310.376L77.241 307.888ZM88.7772 313.16L90.7924 311.681L90.7832 311.668L90.7739 311.656L88.7772 313.16ZM79.2768 315.927L77.0775 317.116L77.0857 317.131L77.0941 317.146L79.2768 315.927ZM73.2216 316.24L70.7237 316.342L70.7238 316.346L73.2216 316.24ZM66.4878 308.932H68.9878C68.9878 306.298 67.9255 303.517 67.1637 301.286C66.3289 298.841 65.6964 296.699 65.8005 294.596L63.3036 294.473L60.8066 294.349C60.6497 297.518 61.6094 300.492 62.4319 302.902C63.3275 305.525 63.9878 307.338 63.9878 308.932H66.4878ZM63.3036 294.473L65.8004 294.6C65.8626 293.376 66.192 292.347 66.6594 291.695C67.0575 291.14 67.5668 290.813 68.4192 290.813V288.313V285.813C65.8264 285.813 63.8562 287.025 62.5969 288.78C61.407 290.439 60.9012 292.489 60.8068 294.346L63.3036 294.473ZM68.4192 288.313V290.813C69.5545 290.813 70.501 291.385 70.8811 292.145L73.1172 291.027L75.3532 289.909C73.9586 287.12 71.0423 285.813 68.4192 285.813V288.313ZM73.1172 291.027L70.8811 292.145C71.1555 292.694 71.1602 293.391 70.735 294.534C70.5249 295.098 70.2505 295.665 69.9374 296.297C69.655 296.867 69.2848 297.596 69.0416 298.274L71.3946 299.118L73.7476 299.963C73.8698 299.623 74.0803 299.197 74.4177 298.516C74.7245 297.897 75.1091 297.116 75.4211 296.278C76.0399 294.614 76.5405 292.284 75.3533 289.909L73.1172 291.027ZM71.3946 299.118L69.0029 298.39C68.4968 300.053 68.4847 301.965 68.9272 303.62C69.3474 305.192 70.377 307.172 72.5168 307.904L73.326 305.539L74.1352 303.174C74.2914 303.227 73.9899 303.198 73.7575 302.329C73.5476 301.544 73.5616 300.585 73.7863 299.846L71.3946 299.118ZM73.326 305.539L72.7196 307.964C72.9637 308.025 73.473 308.143 74.0046 308.143V305.643V303.143C74.0301 303.143 74.0497 303.144 74.0627 303.145C74.0758 303.146 74.0846 303.146 74.0886 303.147C74.0956 303.148 74.0919 303.147 74.0763 303.145C74.0612 303.142 74.0406 303.138 74.0146 303.133C73.9888 303.127 73.9611 303.121 73.9323 303.114L73.326 305.539ZM74.0046 305.643V308.143C75.4054 308.143 76.6199 307.542 77.5398 306.863C78.4793 306.17 79.2999 305.262 79.9706 304.309C81.2722 302.459 82.3138 299.996 82.3506 297.75L79.851 297.709L77.3513 297.668C77.3359 298.606 76.8116 300.11 75.8816 301.432C75.4366 302.064 74.975 302.542 74.572 302.839C74.1493 303.151 73.961 303.143 74.0046 303.143V305.643ZM79.851 297.709H82.351C82.351 295.65 82.4158 293.771 82.9181 292.422C83.1488 291.802 83.418 291.455 83.6804 291.254C83.9181 291.073 84.3397 290.865 85.1754 290.865V288.365V285.865C83.4272 285.865 81.8912 286.33 80.6462 287.28C79.4257 288.212 78.6869 289.456 78.2324 290.677C77.3645 293.008 77.351 295.801 77.351 297.709H79.851ZM85.1754 288.365V290.865C86.1745 290.865 86.6086 291.146 86.8638 291.436C87.1905 291.806 87.5813 292.604 87.6924 294.226L90.1866 294.055L92.6807 293.884C92.5309 291.696 91.956 289.649 90.6123 288.127C89.1971 286.524 87.2561 285.865 85.1754 285.865V288.365ZM90.1866 294.055L87.6945 294.254C88.0019 298.096 85.2354 303.914 76.7997 305.427L77.241 307.888L77.6823 310.349C88.4561 308.416 93.2065 300.454 92.6786 293.856L90.1866 294.055ZM77.241 307.888L76.9982 310.376C81.1378 310.78 84.5779 311.741 86.7805 314.665L88.7772 313.16L90.7739 311.656C87.2345 306.958 81.905 305.831 77.4837 305.4L77.241 307.888ZM88.7772 313.16L86.762 314.64C87.8416 316.11 88.4181 318.564 88.4239 320.82C88.4268 321.925 88.29 322.775 88.1296 323.259C88.0459 323.511 88.0043 323.514 88.0936 323.408C88.1998 323.282 88.6207 322.875 89.3514 322.875V325.375V327.875C90.5649 327.875 91.4246 327.215 91.9172 326.63C92.393 326.066 92.6853 325.405 92.8749 324.834C93.2609 323.671 93.4276 322.241 93.4239 320.808C93.4167 317.988 92.7404 314.334 90.7924 311.681L88.7772 313.16ZM89.3514 325.375V322.875H82.4088V325.375V327.875H89.3514V325.375ZM82.4088 325.375V322.875C82.5819 322.875 82.8935 322.935 83.1866 323.164C83.4387 323.361 83.506 323.552 83.4893 323.511C83.4175 323.337 83.3346 322.913 83.2321 321.905C83.0607 320.221 82.888 317.266 81.4595 314.708L79.2768 315.927L77.0941 317.146C77.9101 318.607 78.0506 320.376 78.2577 322.411C78.3444 323.263 78.467 324.447 78.8667 325.417C79.0857 325.948 79.4552 326.594 80.1072 327.103C80.8001 327.645 81.6093 327.875 82.4088 327.875V325.375ZM79.2768 315.927L81.476 314.738C80.8049 313.496 79.901 312.406 78.8877 311.601C77.9202 310.832 76.6125 310.138 75.153 310.138V312.638V315.138C75.0507 315.138 75.2829 315.123 75.777 315.515C76.2253 315.872 76.7046 316.426 77.0775 317.116L79.2768 315.927ZM75.153 312.638V310.138C73.6929 310.138 72.3794 310.866 71.5801 312.183C70.8671 313.358 70.6617 314.824 70.7237 316.342L73.2216 316.24L75.7195 316.138C75.6993 315.644 75.7306 315.294 75.7744 315.062C75.8185 314.829 75.8673 314.756 75.8548 314.777C75.8357 314.808 75.7552 314.92 75.5853 315.016C75.4154 315.112 75.2537 315.138 75.153 315.138V312.638ZM73.2216 316.24L70.7238 316.346C70.7706 317.452 70.9697 318.644 71.1333 319.637C71.3097 320.709 71.4494 321.575 71.4808 322.305C71.515 323.099 71.3881 323.25 71.4507 323.149C71.6655 322.804 71.9774 322.875 71.6034 322.875V325.375V327.875C73.239 327.875 74.7777 327.268 75.6972 325.789C76.4644 324.554 76.5203 323.116 76.4762 322.09C76.4293 320.999 76.2297 319.813 76.0668 318.825C75.8911 317.758 75.7509 316.881 75.7194 316.134L73.2216 316.24ZM71.6034 325.375V322.875H63.9822V325.375V327.875H71.6034V325.375ZM63.9822 325.375V322.875C64.1915 322.875 64.5485 322.927 64.9168 323.171C65.2845 323.414 65.4766 323.725 65.5639 323.929C65.6915 324.227 65.6105 324.317 65.6517 323.875C65.7257 323.08 66.0513 321.818 66.5577 320.087C67.0335 318.462 67.6421 316.504 68.1166 314.623C68.588 312.754 68.9878 310.739 68.9878 308.932H66.4878H63.9878C63.9878 310.101 63.7155 311.628 63.2685 313.4C62.8246 315.16 62.2685 316.942 61.759 318.683C61.2801 320.319 60.7999 322.052 60.6733 323.411C60.6141 324.045 60.5841 325.001 60.9672 325.896C61.1823 326.399 61.5532 326.941 62.1576 327.341C62.7625 327.741 63.414 327.875 63.9822 327.875V325.375ZM109.147 299.379L110.472 297.259L110.464 297.255L110.457 297.25L109.147 299.379ZM101.682 302.564L103.98 303.548L103.988 303.529L103.996 303.51L101.682 302.564ZM103.248 309.141L104.501 306.977L104.493 306.973L103.248 309.141ZM110.713 309.506L112.776 308.094L112.745 308.05L112.713 308.006L110.713 309.506ZM107.528 314.361L105.73 312.624L105.724 312.631L105.717 312.638L107.528 314.361ZM113.323 320.207L112.205 317.971H112.205L113.323 320.207ZM116.089 310.237L117.476 312.317L117.566 312.257L117.651 312.189L116.089 310.237ZM120.161 312.899L121.815 311.025L121.793 311.006L121.771 310.987L120.161 312.899ZM123.502 307.627L123.94 305.166L123.934 305.165L123.502 307.627ZM118.125 306.009L115.631 306.175L115.634 306.23L115.64 306.285L118.125 306.009ZM123.293 298.701L125.771 298.373L125.769 298.36L125.768 298.347L123.293 298.701ZM117.342 295.778L116.224 293.542L116.205 293.551L116.186 293.561L117.342 295.778ZM98.7066 317.858L100.812 316.509L100.805 316.5L100.799 316.49L98.7066 317.858ZM101.212 294.159L99.26 292.598L99.2537 292.606L99.2474 292.614L101.212 294.159ZM130.235 307.366L132.735 307.358V307.356L130.235 307.366ZM109.147 299.379L110.457 297.25C109.298 296.537 108.087 296.305 106.954 296.305V298.805V301.305C107.387 301.305 107.638 301.386 107.836 301.509L109.147 299.379ZM106.954 298.805V296.305C103.724 296.305 100.663 298.452 99.3681 301.617L101.682 302.564L103.996 303.51C104.58 302.081 105.904 301.305 106.954 301.305V298.805ZM101.682 302.564L99.3841 301.579C98.8809 302.753 98.6157 304.498 98.83 306.187C99.0471 307.898 99.8395 310.066 102.003 311.309L103.248 309.141L104.493 306.973C104.203 306.806 103.899 306.417 103.79 305.557C103.678 304.675 103.857 303.836 103.98 303.548L101.682 302.564ZM103.248 309.141L101.995 311.304C103.313 312.067 104.575 312.424 105.858 312.424V309.924V307.424C105.575 307.424 105.167 307.363 104.501 306.977L103.248 309.141ZM105.858 309.924V312.424C107.202 312.424 108.29 312.032 108.995 311.756C109.407 311.594 109.569 311.522 109.773 311.452C109.955 311.39 109.897 311.432 109.721 311.432V308.932V306.432C109.074 306.432 108.515 306.598 108.153 306.722C107.814 306.838 107.392 307.013 107.171 307.1C106.61 307.32 106.236 307.424 105.858 307.424V309.924ZM109.721 308.932V311.432C109.52 311.432 109.262 311.382 109.015 311.244C108.793 311.12 108.702 310.992 108.713 311.006L110.713 309.506L112.713 308.006C112.037 307.105 111.039 306.432 109.721 306.432V308.932ZM110.713 309.506L108.649 310.918C108.563 310.791 108.376 310.417 108.441 309.925C108.487 309.572 108.634 309.452 108.464 309.687C108.311 309.898 108.039 310.216 107.556 310.73C107.08 311.235 106.493 311.835 105.73 312.624L107.528 314.361L109.326 316.098C110.708 314.668 111.871 313.509 112.517 312.614C112.857 312.144 113.284 311.45 113.399 310.575C113.532 309.561 113.202 308.717 112.776 308.094L110.713 309.506ZM107.528 314.361L105.717 312.638C104.632 313.779 103.958 315.142 103.94 316.644C103.922 318.126 104.547 319.374 105.343 320.296C106.861 322.052 109.353 323.073 111.6 323.073V320.573V318.073C111.183 318.073 110.679 317.969 110.191 317.757C109.699 317.543 109.336 317.268 109.126 317.026C109.026 316.91 108.978 316.822 108.957 316.771C108.938 316.725 108.939 316.707 108.939 316.705C108.939 316.702 108.94 316.693 108.944 316.675C108.948 316.658 108.957 316.626 108.979 316.578C109.022 316.483 109.121 316.314 109.34 316.083L107.528 314.361ZM111.6 320.573V323.073C112.505 323.073 113.485 322.921 114.441 322.443L113.323 320.207L112.205 317.971C112.116 318.015 111.948 318.073 111.6 318.073V320.573ZM113.323 320.207L114.441 322.443C118.147 320.59 118.33 316.881 118.241 314.709C118.218 314.131 118.17 313.568 118.132 313.103C118.093 312.61 118.065 312.24 118.061 311.931C118.057 311.605 118.084 311.516 118.073 311.555C118.056 311.62 117.93 312.014 117.476 312.317L116.089 310.237L114.702 308.157C113.818 308.747 113.423 309.598 113.246 310.251C113.077 310.878 113.055 311.509 113.062 311.996C113.068 312.501 113.111 313.037 113.149 313.506C113.189 314.002 113.227 314.456 113.245 314.913C113.326 316.878 112.988 317.58 112.205 317.971L113.323 320.207ZM116.089 310.237L117.651 312.189C117.604 312.227 117.479 312.315 117.28 312.386C117.072 312.459 116.886 312.476 116.768 312.476V309.976V307.476C115.985 307.476 115.226 307.726 114.527 308.285L116.089 310.237ZM116.768 309.976V312.476C116.246 312.476 115.925 312.253 115.891 312.228C115.885 312.224 115.958 312.28 116.213 312.545C116.661 313.011 117.431 313.869 118.55 314.811L120.161 312.899L121.771 310.987C120.907 310.259 120.372 309.656 119.815 309.078C119.568 308.82 119.213 308.459 118.808 308.167C118.374 307.856 117.681 307.476 116.768 307.476V309.976ZM120.161 312.899L118.507 314.774C119.728 315.852 121.129 316.495 122.614 316.495V313.995V311.495C122.613 311.495 122.556 311.497 122.431 311.443C122.302 311.388 122.092 311.27 121.815 311.025L120.161 312.899ZM122.614 313.995V316.495C125.845 316.495 127.7 313.73 128.133 311.554C128.369 310.37 128.301 308.969 127.611 307.708C126.877 306.366 125.581 305.458 123.94 305.166L123.502 307.627L123.063 310.088C123.224 310.117 123.272 310.155 123.261 310.148C123.248 310.139 123.232 310.12 123.225 310.109C123.224 310.106 123.293 310.254 123.229 310.577C123.166 310.893 123.01 311.179 122.842 311.351C122.691 311.506 122.616 311.495 122.614 311.495V313.995ZM123.502 307.627L123.934 305.165C122.893 304.982 122.025 304.877 121.325 304.801C120.572 304.719 120.166 304.683 119.844 304.628C119.489 304.567 119.72 304.55 120.033 304.795C120.502 305.164 120.599 305.639 120.61 305.733L118.125 306.009L115.64 306.285C115.729 307.084 116.055 308.028 116.943 308.726C117.675 309.301 118.517 309.473 119.003 309.556C119.523 309.645 120.19 309.707 120.783 309.771C121.429 309.842 122.178 309.933 123.069 310.089L123.502 307.627ZM118.125 306.009L120.619 305.843C120.659 306.435 120.41 306.787 120.409 306.788C120.398 306.805 120.45 306.729 120.659 306.534C121.18 306.049 121.589 305.766 122.488 304.984C123.217 304.349 124.103 303.507 124.769 302.476C125.459 301.408 125.988 300.013 125.771 298.373L123.293 298.701L120.814 299.029C120.832 299.164 120.82 299.374 120.568 299.764C120.293 300.191 119.839 300.661 119.204 301.213C118.739 301.618 117.761 302.4 117.25 302.877C116.943 303.163 116.567 303.543 116.263 303.993C115.971 304.428 115.565 305.191 115.631 306.175L118.125 306.009ZM123.293 298.701L125.768 298.347C125.581 297.037 124.889 295.695 123.875 294.671C122.824 293.61 121.286 292.756 119.378 292.756V295.256V297.756C119.714 297.756 120.029 297.893 120.322 298.189C120.652 298.522 120.796 298.903 120.818 299.054L123.293 298.701ZM119.378 295.256V292.756C118.319 292.756 117.26 293.023 116.224 293.542L117.342 295.778L118.46 298.014C118.885 297.801 119.183 297.756 119.378 297.756V295.256ZM117.342 295.778L116.186 293.561C114.316 294.537 113.307 296.026 112.886 297.639C112.506 299.098 112.633 300.573 112.734 301.564C112.792 302.133 112.84 302.508 112.865 302.886C112.877 303.058 112.88 303.186 112.878 303.281C112.875 303.378 112.868 303.41 112.871 303.398C112.876 303.368 112.956 303.021 113.329 302.722C113.687 302.435 113.978 302.465 113.845 302.465V304.965V307.465C114.664 307.465 115.629 307.286 116.455 306.624C117.297 305.95 117.639 305.06 117.776 304.366C117.906 303.705 117.887 303.047 117.854 302.551C117.821 302.059 117.752 301.48 117.708 301.057C117.607 300.065 117.594 299.4 117.724 298.901C117.814 298.557 117.967 298.271 118.498 297.994L117.342 295.778ZM113.845 304.965V302.465C114.373 302.465 114.73 302.808 114.795 302.896C114.797 302.898 114.784 302.881 114.758 302.835C114.731 302.789 114.697 302.726 114.653 302.637C114.555 302.439 114.464 302.235 114.315 301.911C113.748 300.678 112.79 298.709 110.472 297.259L109.147 299.379L107.822 301.499C108.844 302.138 109.295 302.961 109.772 303.999C109.965 304.419 110.314 305.248 110.78 305.876C111.38 306.685 112.377 307.465 113.845 307.465V304.965ZM114.21 325.897V323.397C108.661 323.397 103.728 321.061 100.812 316.509L98.7066 317.858L96.6017 319.207C100.576 325.409 107.231 328.397 114.21 328.397V325.897ZM98.7066 317.858L100.799 316.49C97.1006 310.834 98.0662 302.201 103.177 295.705L101.212 294.159L99.2474 292.614C93.1874 300.316 91.4386 311.311 96.6142 319.226L98.7066 317.858ZM101.212 294.159L103.164 295.721C105.557 292.73 109.759 290.813 114.106 290.813V288.313V285.813C108.43 285.813 102.714 288.28 99.26 292.598L101.212 294.159ZM114.106 288.313V290.813C117.534 290.813 120.877 291.985 123.367 294.506C125.841 297.012 127.711 301.096 127.735 307.376L130.235 307.366L132.735 307.356C132.707 300.064 130.506 294.621 126.925 290.994C123.359 287.382 118.663 285.813 114.106 285.813V288.313ZM130.235 307.366L127.735 307.374C127.76 314.709 125.776 318.531 123.433 320.585C121.027 322.694 117.731 323.397 114.21 323.397V325.897V328.397C118.258 328.397 123.001 327.612 126.729 324.345C130.519 321.022 132.763 315.579 132.735 307.358L130.235 307.366ZM170.031 305.33L172.529 305.231L172.528 305.222L172.528 305.213L170.031 305.33ZM171.44 319.372L168.968 319L168.964 319.026L168.961 319.052L171.44 319.372ZM138.502 324.227L139.751 322.061L139.742 322.056L138.502 324.227ZM135.787 294.107L133.32 294.509L133.322 294.522L133.324 294.534L135.787 294.107ZM144.661 305.643L142.242 305.014L142.242 305.014L144.661 305.643ZM145.288 317.649L144.759 320.093L144.778 320.097L144.797 320.101L145.288 317.649ZM150.717 307.418L153.203 307.16L153.201 307.136L153.198 307.113L150.717 307.418ZM148.733 292.907L146.296 292.35L146.292 292.365L146.289 292.381L148.733 292.907ZM157.294 293.481L159.762 293.881L159.764 293.865L159.766 293.849L157.294 293.481ZM157.294 301.467L159.744 300.971L159.741 300.956L159.738 300.94L157.294 301.467ZM158.077 314.204L155.628 313.7L155.627 313.703L158.077 314.204ZM163.767 314.1L166.259 314.292L166.26 314.277L166.261 314.263L163.767 314.1ZM161.887 295.725L164.387 295.772L164.387 295.76L161.887 295.725ZM171.753 294.995L169.392 294.172L169.391 294.177L171.753 294.995ZM170.031 305.33L167.533 305.429C167.648 308.335 168.298 310.686 168.698 312.622C169.102 314.577 169.351 316.45 168.968 319L171.44 319.372L173.912 319.744C174.416 316.396 174.065 313.884 173.595 311.61C173.121 309.318 172.622 307.597 172.529 305.231L170.031 305.33ZM171.44 319.372L168.961 319.052C168.655 321.422 167.12 322.823 165.385 322.823V325.323V327.823C170.331 327.823 173.39 323.795 173.919 319.692L171.44 319.372ZM165.385 325.323V322.823C164.272 322.823 162.335 322.59 160.13 322.319C158.08 322.068 155.763 321.779 154.266 321.779V324.279V326.779C155.379 326.779 157.316 327.012 159.521 327.282C161.571 327.534 163.888 327.823 165.385 327.823V325.323ZM154.266 324.279V321.779C152.602 321.779 150.482 322.104 148.632 322.38C146.646 322.677 144.906 322.927 143.617 322.927V325.427V327.927C145.357 327.927 147.506 327.604 149.369 327.326C151.369 327.027 153.059 326.779 154.266 326.779V324.279ZM143.617 325.427V322.927C142.327 322.927 140.608 322.556 139.751 322.061L138.502 324.227L137.252 326.392C139.11 327.463 141.776 327.927 143.617 327.927V325.427ZM138.502 324.227L139.742 322.056C139.1 321.689 138.628 321.043 138.382 319.795C138.124 318.488 138.179 316.786 138.448 314.785C138.715 312.8 139.154 310.759 139.558 308.745C139.941 306.837 140.323 304.815 140.323 303.19H137.823H135.323C135.323 304.228 135.06 305.748 134.656 307.762C134.273 309.669 133.787 311.929 133.492 314.119C133.2 316.294 133.059 318.644 133.476 320.763C133.906 322.941 134.981 325.094 137.261 326.397L138.502 324.227ZM137.823 303.19H140.323C140.323 301.047 139.901 299.476 139.443 298.03C138.99 296.601 138.553 295.426 138.251 293.68L135.787 294.107L133.324 294.534C133.7 296.703 134.281 298.295 134.677 299.541C135.066 300.77 135.323 301.783 135.323 303.19H137.823ZM135.787 294.107L138.255 293.706C138.101 292.757 138.19 292.126 138.352 291.829C138.404 291.735 138.472 291.653 138.633 291.57C138.822 291.474 139.231 291.335 140.016 291.335V288.835V286.335C137.221 286.335 135.084 287.386 133.966 289.429C132.993 291.208 133.109 293.212 133.32 294.509L135.787 294.107ZM140.016 288.835V291.335C140.897 291.335 141.406 291.637 141.812 292.137C142.301 292.737 142.725 293.754 142.963 295.229C143.438 298.176 143.023 302.011 142.242 305.014L144.661 305.643L147.081 306.273C147.97 302.856 148.521 298.286 147.899 294.434C147.589 292.51 146.95 290.528 145.69 288.98C144.348 287.331 142.423 286.335 140.016 286.335V288.835ZM144.661 305.643L142.242 305.014C141.93 306.214 141.048 309.254 140.782 312.078C140.651 313.474 140.638 315.09 141.073 316.517C141.541 318.05 142.643 319.635 144.759 320.093L145.288 317.649L145.816 315.206C145.807 315.204 145.829 315.208 145.867 315.229C145.904 315.25 145.933 315.275 145.95 315.293C145.98 315.325 145.924 315.282 145.856 315.059C145.706 314.565 145.65 313.721 145.761 312.546C145.978 310.228 146.714 307.683 147.081 306.272L144.661 305.643ZM145.288 317.649L144.797 320.101C146.452 320.432 148.019 320.137 149.342 319.277C150.605 318.455 151.472 317.233 152.054 315.967C153.206 313.464 153.52 310.212 153.203 307.16L150.717 307.418L148.23 307.676C148.487 310.157 148.175 312.438 147.512 313.877C147.188 314.582 146.851 314.932 146.615 315.086C146.439 315.201 146.212 315.285 145.778 315.198L145.288 317.649ZM150.717 307.418L153.198 307.113C153.072 306.089 152.792 304.919 152.508 303.792C152.211 302.611 151.894 301.422 151.618 300.171C151.056 297.628 150.776 295.3 151.177 293.432L148.733 292.907L146.289 292.381C145.646 295.368 146.149 298.599 146.736 301.25C147.033 302.596 147.382 303.913 147.659 305.012C147.95 306.165 148.152 307.051 148.235 307.724L150.717 307.418ZM148.733 292.907L151.17 293.464C151.296 292.911 151.579 292.333 151.971 291.931C152.316 291.577 152.758 291.335 153.431 291.335V288.835V286.335C148.957 286.335 146.846 289.944 146.296 292.35L148.733 292.907ZM153.431 288.835V291.335C154.375 291.335 154.596 291.632 154.65 291.706C154.769 291.87 154.941 292.306 154.821 293.113L157.294 293.481L159.766 293.849C160.012 292.203 159.818 290.315 158.698 288.77C157.512 287.135 155.619 286.335 153.431 286.335V288.835ZM157.294 293.481L154.826 293.081C154.506 295.055 154.336 296.548 154.344 297.938C154.351 299.36 154.544 300.578 154.85 301.994L157.294 301.467L159.738 300.94C159.469 299.695 159.349 298.851 159.343 297.911C159.338 296.939 159.455 295.77 159.762 293.881L157.294 293.481ZM157.294 301.467L154.844 301.964C155.661 305.994 156.599 308.982 155.628 313.7L158.077 314.204L160.525 314.708C161.747 308.777 160.493 304.666 159.744 300.971L157.294 301.467ZM158.077 314.204L155.627 313.703C154.858 317.467 157.455 320.463 160.687 320.463V317.963V315.463C160.677 315.463 160.627 315.454 160.58 315.395C160.56 315.369 160.529 315.32 160.509 315.228C160.489 315.136 160.473 314.967 160.526 314.705L158.077 314.204ZM160.687 317.963V320.463C162.097 320.463 163.488 319.877 164.529 318.728C165.556 317.595 166.123 316.057 166.259 314.292L163.767 314.1L161.274 313.908C161.201 314.857 160.933 315.251 160.824 315.37C160.768 315.432 160.731 315.451 160.72 315.455C160.707 315.461 160.698 315.463 160.687 315.463V317.963ZM163.767 314.1L166.261 314.263C166.468 311.095 165.883 308.262 165.362 305.489C164.834 302.676 164.314 299.684 164.387 295.772L161.887 295.725L159.388 295.679C159.305 300.119 159.906 303.522 160.448 306.411C160.998 309.341 161.43 311.519 161.272 313.937L163.767 314.1ZM161.887 295.725L164.387 295.76C164.411 294.021 164.689 292.893 165.114 292.25C165.403 291.813 165.918 291.335 167.421 291.335V288.835V286.335C164.539 286.335 162.313 287.423 160.944 289.492C159.712 291.354 159.416 293.671 159.388 295.691L161.887 295.725ZM167.421 288.835V291.335C168.409 291.335 168.994 291.721 169.276 292.104C169.539 292.462 169.759 293.119 169.392 294.172L171.753 294.995L174.114 295.817C174.948 293.425 174.672 291.002 173.304 289.142C171.954 287.306 169.773 286.335 167.421 286.335V288.835ZM171.753 294.995L169.391 294.177C168.69 296.202 168.146 297.842 167.827 299.572C167.5 301.339 167.423 303.108 167.533 305.448L170.031 305.33L172.528 305.213C172.429 303.115 172.508 301.753 172.744 300.479C172.985 299.168 173.407 297.859 174.116 295.812L171.753 294.995ZM177.405 294.473L174.909 294.346L174.909 294.349L177.405 294.473ZM187.219 291.027L189.455 289.909V289.909L187.219 291.027ZM185.496 299.118L183.143 298.274L183.123 298.332L183.105 298.39L185.496 299.118ZM187.428 305.539L186.619 307.904L186.719 307.939L186.821 307.964L187.428 305.539ZM193.953 297.709L196.453 297.75L196.453 297.729V297.709H193.953ZM204.288 294.055L201.794 294.226L201.795 294.24L201.796 294.254L204.288 294.055ZM191.343 307.888L190.902 305.427L191.1 310.376L191.343 307.888ZM202.879 313.16L204.894 311.681L204.885 311.668L204.876 311.656L202.879 313.16ZM193.379 315.927L191.179 317.116L191.188 317.131L191.196 317.146L193.379 315.927ZM187.323 316.24L184.826 316.342L184.826 316.346L187.323 316.24ZM180.59 308.932H183.09C183.09 306.298 182.027 303.517 181.266 301.286C180.431 298.841 179.798 296.699 179.902 294.596L177.405 294.473L174.909 294.349C174.752 297.518 175.711 300.492 176.534 302.902C177.429 305.525 178.09 307.338 178.09 308.932H180.59ZM177.405 294.473L179.902 294.6C179.964 293.376 180.294 292.347 180.761 291.695C181.159 291.14 181.669 290.813 182.521 290.813V288.313V285.813C179.928 285.813 177.958 287.025 176.699 288.78C175.509 290.439 175.003 292.489 174.909 294.346L177.405 294.473ZM182.521 288.313V290.813C183.656 290.813 184.603 291.385 184.983 292.145L187.219 291.027L189.455 289.909C188.06 287.12 185.144 285.813 182.521 285.813V288.313ZM187.219 291.027L184.983 292.145C185.257 292.694 185.262 293.391 184.837 294.534C184.627 295.098 184.352 295.665 184.039 296.297C183.757 296.867 183.387 297.596 183.143 298.274L185.496 299.118L187.849 299.963C187.972 299.623 188.182 299.197 188.52 298.516C188.826 297.897 189.211 297.116 189.523 296.278C190.142 294.614 190.642 292.284 189.455 289.909L187.219 291.027ZM185.496 299.118L183.105 298.39C182.599 300.053 182.587 301.965 183.029 303.62C183.449 305.192 184.479 307.172 186.619 307.904L187.428 305.539L188.237 303.174C188.393 303.227 188.092 303.198 187.859 302.329C187.649 301.544 187.663 300.585 187.888 299.846L185.496 299.118ZM187.428 305.539L186.821 307.964C187.066 308.025 187.575 308.143 188.106 308.143V305.643V303.143C188.132 303.143 188.152 303.144 188.165 303.145C188.178 303.146 188.186 303.146 188.19 303.147C188.198 303.148 188.194 303.147 188.178 303.145C188.163 303.142 188.142 303.138 188.116 303.133C188.091 303.127 188.063 303.121 188.034 303.114L187.428 305.539ZM188.106 305.643V308.143C189.507 308.143 190.722 307.542 191.642 306.863C192.581 306.17 193.402 305.262 194.072 304.309C195.374 302.459 196.416 299.996 196.453 297.75L193.953 297.709L191.453 297.668C191.438 298.606 190.913 300.11 189.983 301.432C189.538 302.064 189.077 302.542 188.674 302.839C188.251 303.151 188.063 303.143 188.106 303.143V305.643ZM193.953 297.709H196.453C196.453 295.65 196.518 293.771 197.02 292.422C197.251 291.802 197.52 291.455 197.782 291.254C198.02 291.073 198.442 290.865 199.277 290.865V288.365V285.865C197.529 285.865 195.993 286.33 194.748 287.28C193.528 288.212 192.789 289.456 192.334 290.677C191.466 293.008 191.453 295.801 191.453 297.709H193.953ZM199.277 288.365V290.865C200.276 290.865 200.71 291.146 200.966 291.436C201.292 291.806 201.683 292.604 201.794 294.226L204.288 294.055L206.783 293.884C206.633 291.696 206.058 289.649 204.714 288.127C203.299 286.524 201.358 285.865 199.277 285.865V288.365ZM204.288 294.055L201.796 294.254C202.104 298.096 199.337 303.914 190.902 305.427L191.343 307.888L191.784 310.349C202.558 308.416 207.308 300.454 206.78 293.856L204.288 294.055ZM191.343 307.888L191.1 310.376C195.24 310.78 198.68 311.741 200.882 314.665L202.879 313.16L204.876 311.656C201.336 306.958 196.007 305.831 191.586 305.4L191.343 307.888ZM202.879 313.16L200.864 314.64C201.943 316.11 202.52 318.564 202.526 320.82C202.529 321.925 202.392 322.775 202.231 323.259C202.148 323.511 202.106 323.514 202.195 323.408C202.302 323.282 202.723 322.875 203.453 322.875V325.375V327.875C204.667 327.875 205.527 327.215 206.019 326.63C206.495 326.066 206.787 325.405 206.977 324.834C207.363 323.671 207.529 322.241 207.526 320.808C207.519 317.988 206.842 314.334 204.894 311.681L202.879 313.16ZM203.453 325.375V322.875H196.511V325.375V327.875H203.453V325.375ZM196.511 325.375V322.875C196.684 322.875 196.995 322.935 197.288 323.164C197.541 323.361 197.608 323.552 197.591 323.511C197.519 323.337 197.436 322.913 197.334 321.905C197.163 320.221 196.99 317.266 195.561 314.708L193.379 315.927L191.196 317.146C192.012 318.607 192.152 320.376 192.36 322.411C192.446 323.263 192.569 324.447 192.969 325.417C193.188 325.948 193.557 326.594 194.209 327.103C194.902 327.645 195.711 327.875 196.511 327.875V325.375ZM193.379 315.927L195.578 314.738C194.907 313.496 194.003 312.406 192.99 311.601C192.022 310.832 190.714 310.138 189.255 310.138V312.638V315.138C189.153 315.138 189.385 315.123 189.879 315.515C190.327 315.872 190.807 316.426 191.179 317.116L193.379 315.927ZM189.255 312.638V310.138C187.795 310.138 186.481 310.866 185.682 312.183C184.969 313.358 184.764 314.824 184.826 316.342L187.323 316.24L189.821 316.138C189.801 315.644 189.832 315.294 189.876 315.062C189.92 314.829 189.969 314.756 189.957 314.777C189.938 314.808 189.857 314.92 189.687 315.016C189.517 315.112 189.356 315.138 189.255 315.138V312.638ZM187.323 316.24L184.826 316.346C184.872 317.452 185.072 318.644 185.235 319.637C185.412 320.709 185.551 321.575 185.583 322.305C185.617 323.099 185.49 323.25 185.553 323.149C185.767 322.804 186.079 322.875 185.705 322.875V325.375V327.875C187.341 327.875 188.88 327.268 189.799 325.789C190.566 324.554 190.622 323.116 190.578 322.09C190.531 320.999 190.332 319.813 190.169 318.825C189.993 317.758 189.853 316.881 189.821 316.134L187.323 316.24ZM185.705 325.375V322.875H178.084V325.375V327.875H185.705V325.375ZM178.084 325.375V322.875C178.293 322.875 178.65 322.927 179.019 323.171C179.386 323.414 179.578 323.725 179.666 323.929C179.793 324.227 179.712 324.317 179.754 323.875C179.828 323.08 180.153 321.818 180.66 320.087C181.135 318.462 181.744 316.504 182.218 314.623C182.69 312.754 183.09 310.739 183.09 308.932H180.59H178.09C178.09 310.101 177.817 311.628 177.37 313.4C176.926 315.16 176.37 316.942 175.861 318.683C175.382 320.319 174.902 322.052 174.775 323.411C174.716 324.045 174.686 325.001 175.069 325.896C175.284 326.399 175.655 326.941 176.259 327.341C176.864 327.741 177.516 327.875 178.084 327.875V325.375ZM219.125 309.611L216.701 310.225L217.259 312.428L219.506 312.081L219.125 309.611ZM228.573 301.467L226.073 301.51L226.073 301.525L226.074 301.54L228.573 301.467ZM219.542 298.649L221.48 300.228L221.494 300.211L221.508 300.193L219.542 298.649ZM220.064 288.835L219.274 286.463L219.238 286.475L219.202 286.488L220.064 288.835ZM231.966 291.967L233.939 290.432L233.931 290.421L233.922 290.41L231.966 291.967ZM235.15 300.476L232.689 300.917L232.69 300.92L235.15 300.476ZM226.798 313.056L227.851 310.788L227.842 310.784L227.833 310.78L226.798 313.056ZM220.534 314.622L222.989 314.151L222.986 314.133L222.982 314.115L220.534 314.622ZM212.182 313.526L214.615 314.099L214.617 314.091L212.182 313.526ZM219.125 309.611L219.506 312.081C223.938 311.397 227.004 310.138 228.893 308.099C230.87 305.965 231.131 303.448 231.072 301.395L228.573 301.467L226.074 301.54C226.119 303.089 225.884 303.99 225.225 304.701C224.478 305.508 222.768 306.519 218.743 307.14L219.125 309.611ZM228.573 301.467L231.072 301.424C230.995 296.935 227.435 294.061 223.718 294.061V296.561V299.061C224.908 299.061 226.046 299.945 226.073 301.51L228.573 301.467ZM223.718 296.561V294.061C221.53 294.061 219.223 295.008 217.576 297.104L219.542 298.649L221.508 300.193C222.158 299.366 222.983 299.061 223.718 299.061V296.561ZM219.542 298.649L217.605 297.069C215.742 299.353 215.28 301.777 215.429 304.094C215.566 306.223 216.255 308.465 216.701 310.225L219.125 309.611L221.548 308.997C221.002 306.841 220.517 305.298 220.419 303.773C220.333 302.437 220.576 301.337 221.48 300.228L219.542 298.649ZM220.064 288.835L220.855 291.207C221.541 290.978 222.423 290.813 223.405 290.813V288.313V285.813C221.882 285.813 220.467 286.066 219.274 286.463L220.064 288.835ZM223.405 288.313V290.813C225.92 290.813 228.608 291.763 230.01 293.524L231.966 291.967L233.922 290.41C231.252 287.055 226.841 285.813 223.405 285.813V288.313ZM231.966 291.967L229.992 293.502C231.097 294.922 231.99 297.023 232.689 300.917L235.15 300.476L237.611 300.034C236.848 295.785 235.758 292.771 233.939 290.432L231.966 291.967ZM235.15 300.476L232.69 300.92C233.46 305.184 234.254 311.239 234.229 316.162C234.216 318.658 233.992 320.641 233.569 321.918C233.359 322.553 233.159 322.828 233.075 322.915C233.044 322.946 233.054 322.928 233.107 322.904C233.132 322.893 233.158 322.885 233.182 322.88C233.205 322.875 233.219 322.875 233.219 322.875V325.375V327.875C236.223 327.875 237.677 325.42 238.316 323.488C238.99 321.451 239.216 318.834 239.229 316.187C239.256 310.827 238.406 304.432 237.61 300.031L235.15 300.476ZM233.219 325.375V322.875H228.364V325.375V327.875H233.219V325.375ZM228.364 325.375V322.875C227.846 322.875 227.919 322.764 228.158 322.948C228.471 323.189 228.515 323.493 228.513 323.474C228.505 323.39 228.51 323.125 228.636 322.589C228.757 322.077 228.947 321.485 229.185 320.783C229.614 319.52 230.283 317.717 230.472 316.136C230.57 315.311 230.578 314.29 230.2 313.287C229.786 312.19 228.983 311.314 227.851 310.788L226.798 313.056L225.745 315.323C225.756 315.328 225.706 315.306 225.64 315.236C225.575 315.165 225.538 315.094 225.522 315.052C225.503 315.001 225.558 315.117 225.507 315.543C225.398 316.462 224.981 317.613 224.45 319.175C224.209 319.886 223.951 320.675 223.77 321.439C223.595 322.18 223.445 323.087 223.541 323.999C223.644 324.976 224.054 326.099 225.108 326.91C226.089 327.665 227.277 327.875 228.364 327.875V325.375ZM226.798 313.056L227.833 310.78C226.806 310.313 225.259 310.086 223.927 310.086V312.586V315.086C224.358 315.086 224.793 315.126 225.162 315.188C225.344 315.219 225.496 315.253 225.611 315.284C225.734 315.318 225.778 315.338 225.764 315.332L226.798 313.056ZM223.927 312.586V310.086C222.858 310.086 221.492 310.227 220.337 310.787C219.737 311.078 219.033 311.56 218.544 312.357C218.019 313.214 217.892 314.19 218.086 315.128L220.534 314.622L222.982 314.115C222.997 314.185 223.012 314.316 222.985 314.487C222.957 314.662 222.894 314.829 222.806 314.973C222.638 315.246 222.459 315.314 222.519 315.285C222.572 315.26 222.723 315.203 223 315.156C223.266 315.111 223.583 315.086 223.927 315.086V312.586ZM220.534 314.622L218.079 315.092C218.676 318.209 218.817 320.436 218.504 321.78C218.361 322.395 218.171 322.604 218.092 322.671C218.037 322.719 217.833 322.875 217.193 322.875V325.375V327.875C218.72 327.875 220.167 327.47 221.331 326.48C222.473 325.51 223.073 324.205 223.373 322.914C223.948 320.449 223.593 317.298 222.989 314.151L220.534 314.622ZM217.193 325.375V322.875H211.712V325.375V327.875H217.193V325.375ZM211.712 325.375V322.875C211.012 322.875 211.604 322.699 211.964 323.372C212.138 323.698 211.949 323.719 212.162 322.705C212.346 321.829 212.699 320.72 213.173 319.207C213.63 317.749 214.162 316.021 214.615 314.099L212.182 313.526L209.749 312.952C209.34 314.684 208.855 316.265 208.402 317.713C207.965 319.107 207.516 320.504 207.269 321.677C207.052 322.711 206.803 324.325 207.555 325.73C208.492 327.483 210.298 327.875 211.712 327.875V325.375ZM212.182 313.526L214.617 314.091C215.058 312.194 214.907 309.796 214.763 307.663C214.607 305.365 214.421 303.061 214.548 300.812C214.673 298.576 215.101 296.618 216.03 295.023C216.924 293.489 218.383 292.116 220.927 291.182L220.064 288.835L219.202 286.488C215.638 287.798 213.227 289.903 211.71 292.506C210.229 295.048 209.704 297.886 209.555 300.531C209.408 303.162 209.627 305.824 209.774 308.002C209.933 310.345 209.985 311.934 209.747 312.96L212.182 313.526Z" fill="black" mask="url(#path-26-outside-1_3683_1535)"/>
<path d="M122.742 338.938H124.934L130.523 352.848L136.102 338.938H138.305L131.367 356H129.656L122.742 338.938ZM122.027 338.938H123.961L124.277 349.344V356H122.027V338.938ZM137.074 338.938H139.008V356H136.758V349.344L137.074 338.938ZM146.215 354.688L149.742 343.32H152.062L146.977 357.957C146.859 358.27 146.703 358.605 146.508 358.965C146.32 359.332 146.078 359.68 145.781 360.008C145.484 360.336 145.125 360.602 144.703 360.805C144.289 361.016 143.793 361.121 143.215 361.121C143.043 361.121 142.824 361.098 142.559 361.051C142.293 361.004 142.105 360.965 141.996 360.934L141.984 359.176C142.047 359.184 142.145 359.191 142.277 359.199C142.418 359.215 142.516 359.223 142.57 359.223C143.062 359.223 143.48 359.156 143.824 359.023C144.168 358.898 144.457 358.684 144.691 358.379C144.934 358.082 145.141 357.672 145.312 357.148L146.215 354.688ZM143.625 343.32L146.918 353.164L147.48 355.449L145.922 356.246L141.258 343.32H143.625ZM158.93 354.453C159.445 354.453 159.922 354.348 160.359 354.137C160.797 353.926 161.156 353.637 161.438 353.27C161.719 352.895 161.879 352.469 161.918 351.992H163.98C163.941 352.742 163.688 353.441 163.219 354.09C162.758 354.73 162.152 355.25 161.402 355.648C160.652 356.039 159.828 356.234 158.93 356.234C157.977 356.234 157.145 356.066 156.434 355.73C155.73 355.395 155.145 354.934 154.676 354.348C154.215 353.762 153.867 353.09 153.633 352.332C153.406 351.566 153.293 350.758 153.293 349.906V349.414C153.293 348.562 153.406 347.758 153.633 347C153.867 346.234 154.215 345.559 154.676 344.973C155.145 344.387 155.73 343.926 156.434 343.59C157.145 343.254 157.977 343.086 158.93 343.086C159.922 343.086 160.789 343.289 161.531 343.695C162.273 344.094 162.855 344.641 163.277 345.336C163.707 346.023 163.941 346.805 163.98 347.68H161.918C161.879 347.156 161.73 346.684 161.473 346.262C161.223 345.84 160.879 345.504 160.441 345.254C160.012 344.996 159.508 344.867 158.93 344.867C158.266 344.867 157.707 345 157.254 345.266C156.809 345.523 156.453 345.875 156.188 346.32C155.93 346.758 155.742 347.246 155.625 347.785C155.516 348.316 155.461 348.859 155.461 349.414V349.906C155.461 350.461 155.516 351.008 155.625 351.547C155.734 352.086 155.918 352.574 156.176 353.012C156.441 353.449 156.797 353.801 157.242 354.066C157.695 354.324 158.258 354.453 158.93 354.453ZM168.984 349.953H171.328L167.66 356H165.316L168.984 349.953ZM170.801 343.32H176.098V356H173.93V345.078H170.801C170.184 345.078 169.68 345.184 169.289 345.395C168.898 345.598 168.613 345.863 168.434 346.191C168.254 346.52 168.164 346.859 168.164 347.211C168.164 347.555 168.246 347.887 168.41 348.207C168.574 348.52 168.832 348.777 169.184 348.98C169.535 349.184 169.988 349.285 170.543 349.285H174.516V351.066H170.543C169.816 351.066 169.172 350.969 168.609 350.773C168.047 350.578 167.57 350.309 167.18 349.965C166.789 349.613 166.492 349.203 166.289 348.734C166.086 348.258 165.984 347.742 165.984 347.188C165.984 346.633 166.09 346.121 166.301 345.652C166.52 345.184 166.832 344.773 167.238 344.422C167.652 344.07 168.156 343.801 168.75 343.613C169.352 343.418 170.035 343.32 170.801 343.32Z" fill="black"/>
</g>
<rect x="1.56722" y="1.56722" width="297.693" height="439.866" rx="28.3095" stroke="black" stroke-width="3.13443"/>
<defs>
<clipPath id="clip0_3683_1535">
<rect width="300.828" height="443" rx="29.8767" fill="white"/>
</clipPath>
</defs>
</svg>
