<svg width="138" height="137" viewBox="0 0 138 137" fill="none" xmlns="http://www.w3.org/2000/svg">
<path d="M61.9541 84.3154C64.5687 84.2282 67.646 84.2284 70.7666 84.2803C76.1526 84.3698 81.6218 84.6122 84.9824 84.8174C85.0469 87.1513 85.2143 90.4176 85.3916 94.1182C85.6113 98.7027 85.8478 104.004 85.9326 109.19C86.0176 114.385 85.9491 119.42 85.5674 123.481C85.3764 125.514 85.1106 127.26 84.7607 128.642C84.3994 130.068 83.9927 130.919 83.6377 131.328C81.8747 133.361 78.8149 134.383 75.6846 134.7H75.6836C73.2097 134.952 69.7945 135.185 66.5566 134.927C63.2329 134.661 60.4784 133.902 58.9736 132.492H58.9746C58.5789 132.121 58.1104 131.308 57.6846 129.874C57.2726 128.487 56.9543 126.708 56.7207 124.621C56.2538 120.45 56.1466 115.239 56.2217 109.858C56.2966 104.488 56.5522 98.9969 56.7979 94.2783C57.0003 90.3898 57.1968 86.9872 57.2783 84.6436C58.453 84.4893 60.0497 84.379 61.9541 84.3154Z" fill="url(#paint0_linear_3497_347)" stroke="black" stroke-width="3.15"/>
<path d="M26.0879 20.4844C42.1199 5.9606 63.4082 -0.324874 82.9736 2.07324C102.51 4.46778 120.292 15.5064 129.503 35.6504C132.101 41.3316 134.919 50.1648 135.984 58.9385C137.057 67.771 136.299 76.0914 132.291 81.2256C131.886 81.6517 131.07 82.1756 129.736 82.7295C128.408 83.2811 126.716 83.804 124.747 84.29C120.812 85.2612 115.909 86.0521 110.879 86.6592C100.79 87.8768 90.4313 88.3275 86.6465 88.0762H86.6455C83.4784 87.8509 75.7151 87.8453 68.8232 87.8926C65.356 87.9164 62.0824 87.9537 59.6758 87.9854C58.4723 88.0012 57.485 88.016 56.7988 88.0264C56.4559 88.0316 56.1881 88.0352 56.0059 88.0381C55.919 88.0395 55.8515 88.0403 55.8047 88.041C55.786 88.0396 55.7631 88.0391 55.7363 88.0371C55.6486 88.0305 55.5177 88.02 55.3467 88.0068C55.0047 87.9805 54.5014 87.9417 53.8594 87.8896C52.5752 87.7855 50.7348 87.6308 48.5127 87.4277C44.0665 87.0215 38.0983 86.4227 32.001 85.6543C25.8956 84.8849 19.6945 83.9493 14.7705 82.8721C12.3048 82.3326 10.2016 81.7669 8.60645 81.1836C7.80894 80.8919 7.17131 80.607 6.69238 80.3369C6.19517 80.0565 5.96388 79.844 5.87891 79.7354C-0.479063 71.6087 0.813361 60.1892 5.82422 48.7832C10.8 37.4571 19.2182 26.7083 26.0879 20.4844Z" fill="#FAA640" stroke="black" stroke-width="3.15"/>
<path d="M63.5479 55.5859C65.7769 55.5263 67.9977 55.706 69.6963 56.6123V56.6133C71.5643 57.6119 73.1195 59.2527 73.8818 61.3594L74.0234 61.7871C74.7567 64.2198 74.4505 66.8949 73.3848 69.2432L73.1621 69.708C71.2147 73.5554 68.2071 75.1626 64.2354 76.417C61.1492 76.3373 58.8194 76.1022 56.4502 74.623L55.9629 74.3018C53.7626 72.7708 52.0937 70.4507 51.6777 67.6426V67.6416L51.6201 67.1719C51.3906 64.8336 52.0509 62.5958 53.3701 60.6777V60.6768C55.8064 57.1336 59.2131 56.2876 63.5479 55.5859Z" fill="#FCF7F6" stroke="black" stroke-width="3.15"/>
<path d="M113.3 55.7256C115.277 55.6198 117.077 55.4372 118.633 55.7373L118.958 55.8076C121.48 56.4236 124.177 58.7562 125.509 61.0039V61.0049C127.11 63.7742 127.401 67.0344 126.318 70.0049L126.313 70.0176C125.186 73.2001 122.824 74.5853 119.179 76.2842C117.236 76.5383 115.227 76.6606 113.418 76.4238H113.419C109.92 75.9646 107.952 73.5243 105.688 70.416C105.549 67.3928 105.382 64.6914 106.256 62.1924C107.376 58.9877 109.722 57.4966 113.3 55.7256Z" fill="#FCF7F6" stroke="black" stroke-width="3.15"/>
<path d="M41.3408 24.5801C43.4407 24.6069 45.3695 24.768 47.2969 25.2939V25.2949C50.2859 26.1149 52.7701 28.0173 54.2168 30.54C55.3377 32.5366 55.5541 34.7756 54.7764 36.8545V36.8555C53.5901 40.0318 51.0252 41.5545 47.3711 43.1973C45.113 43.3766 43.028 43.6026 41.0664 43.333L41.0635 43.332C38.7516 43.0191 36.6849 41.8918 35.2666 40.2207L34.9922 39.8799C33.6807 38.1604 33.2926 35.8148 33.7715 33.6318H33.7725C34.6549 29.601 37.4361 27.0004 41.3408 24.5801Z" fill="#FCF7F6" stroke="black" stroke-width="3.15"/>
<path d="M94.4473 30.5938C96.9912 30.7343 99.3021 31.8763 101.015 33.6641L101.349 34.0293C103.169 36.1208 103.919 38.7107 103.439 41.3057C103.097 43.1559 102.458 44.5354 101.539 45.7178C100.664 46.8432 99.4918 47.8438 97.9434 48.9121C97.3167 48.9625 96.6896 49.0034 96.0625 49.0264H96.0605C92.3316 49.1684 89.6639 48.6159 87.2363 46.2998C85.2934 44.4448 84.3802 42.0466 84.6094 39.5088C84.9571 35.6818 86.8614 33.6186 90.1885 30.8838C91.7065 30.6817 93.0683 30.5172 94.4473 30.5938Z" fill="#FCF7F6" stroke="black" stroke-width="3.15"/>
<path d="M10.7432 52.6494C13.2056 52.5364 15.5185 52.4596 17.4619 53.1641C19.9971 54.0828 22.334 56.2422 23.5713 58.6299L23.8037 59.1104C24.5568 60.7844 24.6363 62.6072 23.9814 64.2363L23.8408 64.5596C22.6432 67.1106 20.487 68.28 17.3701 69.3066C14.6525 69.466 11.7842 69.5742 9.57227 68.8535V68.8525L9.15918 68.7061C7.09782 67.908 5.06252 66.1818 4.24902 64.3779C3.42607 62.5513 3.35933 60.8666 4.03418 59.0195H4.03516C5.23832 55.7217 7.21436 54.4334 10.7432 52.6494Z" fill="#FCF7F6" stroke="black" stroke-width="3.15"/>
<path d="M74.4082 5.05273C77.0534 3.95215 80.114 4.23983 82.4619 5.77344L82.6865 5.92578C85.0501 7.58501 86.2307 10.2717 85.8574 12.9336C85.4949 15.52 83.707 17.791 81.0781 18.876L80.8213 18.9775C76.606 20.56 71.9034 18.6487 70.2041 14.8672C68.5307 11.1432 70.3042 6.75814 74.4072 5.05371L74.4082 5.05273Z" fill="#FCF7F6" stroke="black" stroke-width="3.15"/>
<defs>
<linearGradient id="paint0_linear_3497_347" x1="67.6217" y1="82.941" x2="73.0179" y2="134.959" gradientUnits="userSpaceOnUse">
<stop stop-color="#FFDAE2"/>
<stop offset="1" stop-color="#FFF0F6"/>
</linearGradient>
</defs>
</svg>
