<svg width="2839" height="265" viewBox="0 0 2839 265" fill="none" xmlns="http://www.w3.org/2000/svg">
<g clip-path="url(#clip0_3544_197)">
<path d="M629.974 0.0199957C654.045 0.600141 669.48 16.1396 678.815 31.2475C683.491 38.8139 686.679 46.3332 688.698 51.9546C689.497 54.1781 690.112 56.1093 690.566 57.6333C691.521 55.8975 692.846 53.5911 694.525 50.9311C698.262 45.0111 703.759 37.3049 710.785 30.2075C724.807 16.0429 745.265 4.00729 770.009 14.1958C782.378 19.2888 789.62 27.9865 793.472 38.1216C797.303 48.2025 797.766 59.657 796.735 70.3589C795.794 80.1327 793.594 89.37 791.487 96.518C794.555 92.059 798.505 86.9951 803.258 82.2973C809.477 76.1495 817.133 70.5643 826.039 67.8325C834.987 65.0878 845.112 65.252 856.143 70.477C868.141 76.1608 875.665 83.7229 880.14 91.9223C884.605 100.105 885.981 108.823 885.856 116.758C885.749 123.597 884.524 129.891 883.174 134.832C886.544 130.45 891.183 125.031 896.955 119.735C909.901 107.856 928.738 96.4291 951.855 99.0298C979.501 102.14 996.719 116.482 1007 130.03C1012.13 136.795 1015.53 143.362 1017.65 148.242C1018.04 149.124 1018.38 149.952 1018.68 150.716C1019.05 148.791 1019.55 146.466 1020.18 143.855C1022.02 136.328 1025.06 126.385 1029.87 116.792C1034.68 107.212 1041.31 97.8785 1050.38 91.6958C1059.5 85.4788 1070.99 82.5147 1085.31 85.5522C1099.82 88.6289 1109.06 96.0693 1114.66 105.543C1120.23 114.96 1122.15 126.271 1122.28 137.052C1122.41 147.364 1120.9 157.305 1119.3 164.862C1120.97 162.239 1122.98 159.454 1125.36 156.762C1134.03 146.935 1147.66 138.247 1166.96 143.51C1177.75 146.455 1184.63 152.457 1188.73 159.98C1192.8 167.45 1194.07 176.311 1193.92 184.95C1193.75 194.49 1191.83 203.918 1189.86 211.207C1191.27 209.455 1192.9 207.68 1194.78 206.003C1201.74 199.802 1212.03 194.973 1226.44 197.48C1237.11 199.336 1243.87 204.477 1247.88 211.225C1251.85 217.905 1253.04 226.012 1252.93 233.72C1252.82 241.446 1251.41 248.914 1250.03 254.431C1249.34 257.195 1248.65 259.481 1248.14 261.079C1247.89 261.878 1247.67 262.506 1247.52 262.936C1247.45 263.151 1247.39 263.317 1247.34 263.43C1247.32 263.486 1247.31 263.53 1247.3 263.56C1247.29 263.575 1247.29 263.587 1247.29 263.595C1247.28 263.599 1247.28 263.603 1247.28 263.605C1247.28 263.606 1247.28 263.607 1247.28 263.608C1247.28 263.609 1247.27 263.607 1245.88 263.082L1247.28 263.61L1246.91 264.582H612V2.19773C617.333 0.675626 623.302 -0.140792 629.974 0.0199957ZM1108.09 220.949C1102.33 215.058 1093.52 209.457 1081.71 211.321C1070.15 213.147 1063.54 218.638 1059.84 223.759C1058 226.303 1056.89 228.733 1056.25 230.535C1055.92 231.436 1055.71 232.184 1055.58 232.714C1055.52 232.979 1055.47 233.191 1055.44 233.34C1055.43 233.415 1055.41 233.475 1055.41 233.518C1055.4 233.539 1055.4 233.557 1055.4 233.57C1055.4 233.576 1055.4 233.582 1055.4 233.586C1055.4 233.588 1055.39 233.591 1055.39 233.592L1055.39 233.595C1055.39 233.596 1055.43 233.603 1056.88 233.832L1055.39 233.597C1055.26 234.415 1055.82 235.184 1056.64 235.314C1057.46 235.444 1058.22 234.888 1058.36 234.072L1058.36 234.07C1058.36 234.066 1058.36 234.058 1058.36 234.046C1058.36 234.023 1058.37 233.983 1058.38 233.929C1058.4 233.821 1058.44 233.652 1058.5 233.432C1058.6 232.991 1058.78 232.343 1059.07 231.548C1059.64 229.957 1060.63 227.789 1062.27 225.516C1065.53 221.003 1071.46 215.979 1082.18 214.285C1092.67 212.629 1100.56 217.543 1105.95 223.046C1108.63 225.796 1110.66 228.661 1112.01 230.842C1112.69 231.931 1113.19 232.844 1113.52 233.481C1113.69 233.799 1113.81 234.047 1113.9 234.213C1113.94 234.296 1113.97 234.36 1113.98 234.4C1113.99 234.42 1114 234.434 1114 234.443C1114.01 234.447 1114.01 234.451 1114.01 234.453L1114.08 234.588C1114.46 235.246 1115.29 235.52 1116 235.199C1116.75 234.856 1117.08 233.967 1116.74 233.212L1115.56 233.749C1116.69 233.236 1116.74 233.213 1116.74 233.211L1116.74 233.209C1116.74 233.208 1116.74 233.206 1116.74 233.204C1116.74 233.199 1116.73 233.193 1116.73 233.186C1116.72 233.171 1116.71 233.15 1116.7 233.124C1116.68 233.072 1116.64 232.997 1116.59 232.902C1116.5 232.71 1116.36 232.434 1116.18 232.088C1115.82 231.396 1115.28 230.419 1114.56 229.261C1113.13 226.95 1110.97 223.897 1108.09 220.949ZM883.867 147.712C874.257 136.079 858.422 125.49 833.864 129.823C809.387 134.141 796.521 148.769 789.82 162.282C786.479 169.02 784.668 175.481 783.691 180.254C783.203 182.643 782.922 184.615 782.763 185.997C782.683 186.687 782.634 187.231 782.604 187.605C782.59 187.792 782.579 187.937 782.573 188.038C782.57 188.088 782.568 188.127 782.566 188.154C782.566 188.167 782.565 188.178 782.564 188.186V188.199C782.569 188.2 782.647 188.204 784.062 188.27L782.564 188.201C782.526 189.028 783.166 189.73 783.993 189.768C784.82 189.806 785.522 189.167 785.561 188.34L785.562 188.336C785.562 188.332 785.562 188.325 785.562 188.316C785.564 188.296 785.565 188.265 785.567 188.223C785.573 188.139 785.581 188.01 785.595 187.84C785.622 187.5 785.668 186.993 785.743 186.34C785.894 185.034 786.162 183.148 786.631 180.855C787.57 176.264 789.31 170.064 792.508 163.615C798.886 150.752 811.051 136.894 834.386 132.777C857.64 128.674 872.462 138.617 881.555 149.624C886.12 155.15 889.236 160.947 891.211 165.372C892.197 167.581 892.896 169.441 893.347 170.743C893.572 171.393 893.734 171.904 893.84 172.249C893.893 172.421 893.931 172.551 893.956 172.637C893.968 172.68 893.978 172.712 893.983 172.732C893.986 172.742 893.988 172.749 893.989 172.753C893.99 172.755 893.99 172.757 893.99 172.757L895.274 177.464L896.855 172.848H896.856C896.858 172.843 896.862 172.834 896.867 172.82C896.877 172.792 896.894 172.745 896.918 172.683C896.966 172.558 897.044 172.367 897.152 172.12C897.37 171.623 897.715 170.9 898.21 170.026C899.201 168.276 900.791 165.932 903.17 163.586C907.9 158.922 915.826 154.173 928.625 154.173C941.066 154.173 950.94 163.502 957.844 173.304C961.263 178.159 963.877 183.025 965.638 186.681C966.517 188.507 967.18 190.028 967.623 191.087C967.844 191.617 968.01 192.031 968.12 192.311C968.175 192.451 968.216 192.557 968.243 192.627C968.256 192.662 968.266 192.689 968.272 192.706C968.276 192.714 968.278 192.72 968.279 192.724L968.28 192.728L968.341 192.869C968.675 193.552 969.479 193.884 970.208 193.615C970.985 193.327 971.382 192.464 971.095 191.687L969.688 192.207C971.025 191.713 971.091 191.688 971.094 191.686L971.093 191.684C971.092 191.682 971.092 191.679 971.091 191.676C971.089 191.67 971.085 191.662 971.081 191.652C971.073 191.631 971.062 191.6 971.047 191.56C971.017 191.481 970.972 191.365 970.913 191.216C970.796 190.917 970.622 190.481 970.392 189.93C969.931 188.828 969.246 187.259 968.341 185.379C966.533 181.623 963.838 176.605 960.297 171.577C953.278 161.611 942.621 151.173 928.625 151.173C914.987 151.173 906.318 156.269 901.064 161.45C898.519 163.96 896.793 166.472 895.688 168.396C895.246 167.207 894.673 165.766 893.951 164.149C891.901 159.556 888.653 153.506 883.867 147.712Z" fill="#FF80AB"/>
<path d="M2215.97 0.0199958C2240.05 0.600142 2255.48 16.1396 2264.82 31.2475C2269.49 38.8139 2272.68 46.3332 2274.7 51.9546C2275.5 54.1781 2276.11 56.1093 2276.57 57.6333C2277.52 55.8975 2278.85 53.5911 2280.53 50.9311C2284.26 45.0111 2289.76 37.3049 2296.79 30.2075C2310.81 16.0429 2331.27 4.00724 2356.01 14.1958C2368.38 19.2888 2375.62 27.9865 2379.47 38.1216C2383.3 48.2025 2383.77 59.6569 2382.74 70.3589C2381.79 80.1327 2379.59 89.37 2377.49 96.518C2380.55 92.059 2384.51 86.9952 2389.26 82.2973C2395.48 76.1494 2403.13 70.5643 2412.04 67.8325C2420.99 65.0878 2431.11 65.2519 2442.14 70.477C2454.14 76.1608 2461.66 83.7228 2466.14 91.9223C2470.6 100.105 2471.98 108.823 2471.86 116.758C2471.75 123.597 2470.52 129.891 2469.17 134.832C2472.54 130.45 2477.18 125.031 2482.96 119.735C2495.9 107.856 2514.74 96.429 2537.86 99.0298C2565.5 102.14 2582.72 116.482 2593 130.03C2598.13 136.795 2601.53 143.362 2603.65 148.242C2604.04 149.124 2604.38 149.952 2604.68 150.716C2605.05 148.791 2605.55 146.466 2606.18 143.855C2608.02 136.328 2611.06 126.385 2615.87 116.792C2620.68 107.212 2627.31 97.8785 2636.38 91.6958C2645.5 85.4788 2656.99 82.5147 2671.31 85.5522C2685.82 88.6289 2695.06 96.0693 2700.66 105.543C2706.23 114.96 2708.15 126.271 2708.28 137.052C2708.41 147.364 2706.9 157.305 2705.3 164.862C2706.97 162.239 2708.98 159.454 2711.36 156.762C2720.03 146.935 2733.66 138.247 2752.96 143.51C2763.75 146.455 2770.63 152.457 2774.73 159.98C2778.8 167.45 2780.07 176.311 2779.92 184.95C2779.75 194.49 2777.83 203.918 2775.86 211.207C2777.27 209.455 2778.9 207.68 2780.78 206.003C2787.74 199.802 2798.03 194.973 2812.44 197.48C2823.11 199.336 2829.87 204.477 2833.88 211.225C2837.85 217.905 2839.04 226.012 2838.93 233.72C2838.82 241.446 2837.41 248.914 2836.03 254.431C2835.34 257.195 2834.65 259.481 2834.14 261.079C2833.89 261.878 2833.67 262.506 2833.52 262.936C2833.45 263.151 2833.39 263.317 2833.34 263.43C2833.32 263.486 2833.31 263.53 2833.3 263.56C2833.29 263.575 2833.29 263.587 2833.29 263.595C2833.28 263.599 2833.28 263.603 2833.28 263.605C2833.28 263.606 2833.28 263.607 2833.28 263.608C2833.28 263.609 2833.26 263.601 2831.88 263.082L2833.28 263.61L2832.91 264.582H2198V2.19773C2203.33 0.675632 2209.3 -0.140793 2215.97 0.0199958ZM2694.09 220.949C2688.33 215.058 2679.52 209.457 2667.71 211.321C2656.15 213.147 2649.54 218.638 2645.84 223.759C2644 226.303 2642.89 228.733 2642.25 230.535C2641.92 231.436 2641.71 232.184 2641.58 232.714C2641.52 232.98 2641.47 233.191 2641.44 233.34C2641.43 233.415 2641.41 233.475 2641.41 233.518C2641.4 233.539 2641.4 233.557 2641.4 233.57C2641.4 233.576 2641.4 233.582 2641.4 233.586C2641.4 233.589 2641.39 233.591 2641.39 233.592L2641.39 233.595C2641.39 233.596 2641.44 233.604 2642.88 233.832L2641.39 233.597C2641.26 234.415 2641.82 235.184 2642.64 235.314C2643.46 235.444 2644.22 234.888 2644.36 234.072C2644.36 234.071 2644.36 234.071 2644.36 234.07C2644.36 234.066 2644.36 234.058 2644.36 234.046C2644.36 234.023 2644.37 233.983 2644.38 233.929C2644.4 233.821 2644.44 233.652 2644.5 233.432C2644.6 232.991 2644.78 232.343 2645.07 231.548C2645.64 229.957 2646.63 227.789 2648.27 225.516C2651.53 221.003 2657.46 215.979 2668.18 214.285C2678.67 212.629 2686.56 217.543 2691.95 223.046C2694.63 225.796 2696.66 228.661 2698.01 230.842C2698.69 231.931 2699.19 232.844 2699.52 233.481C2699.69 233.799 2699.81 234.047 2699.9 234.213C2699.94 234.296 2699.97 234.36 2699.98 234.4C2699.99 234.42 2700 234.434 2700 234.443C2700.01 234.447 2700.01 234.451 2700.01 234.453L2700.08 234.588C2700.46 235.246 2701.29 235.52 2702 235.199C2702.75 234.856 2703.08 233.967 2702.74 233.212L2701.56 233.749C2702.68 233.238 2702.74 233.213 2702.74 233.211L2702.74 233.209C2702.74 233.208 2702.74 233.206 2702.74 233.204C2702.74 233.199 2702.73 233.193 2702.73 233.186C2702.72 233.171 2702.71 233.151 2702.7 233.124C2702.68 233.072 2702.64 232.997 2702.59 232.902C2702.5 232.71 2702.36 232.435 2702.18 232.088C2701.82 231.396 2701.28 230.419 2700.56 229.261C2699.13 226.95 2696.97 223.897 2694.09 220.949ZM2469.87 147.712C2460.26 136.079 2444.42 125.49 2419.86 129.823C2395.39 134.141 2382.52 148.769 2375.82 162.282C2372.48 169.02 2370.67 175.481 2369.69 180.254C2369.2 182.643 2368.92 184.615 2368.76 185.997C2368.68 186.687 2368.63 187.231 2368.6 187.605C2368.59 187.792 2368.58 187.937 2368.57 188.038C2368.57 188.088 2368.57 188.127 2368.57 188.154C2368.57 188.167 2368.56 188.178 2368.56 188.186V188.199C2368.57 188.2 2368.65 188.204 2370.06 188.27L2368.56 188.201C2368.53 189.028 2369.17 189.73 2369.99 189.768C2370.82 189.806 2371.52 189.167 2371.56 188.34L2371.56 188.336C2371.56 188.332 2371.56 188.326 2371.56 188.316C2371.56 188.296 2371.56 188.265 2371.57 188.223C2371.57 188.139 2371.58 188.01 2371.59 187.84C2371.62 187.5 2371.67 186.993 2371.74 186.34C2371.89 185.034 2372.16 183.148 2372.63 180.855C2373.57 176.264 2375.31 170.064 2378.51 163.615C2384.89 150.752 2397.05 136.894 2420.39 132.777C2443.64 128.674 2458.46 138.617 2467.55 149.624C2472.12 155.15 2475.24 160.947 2477.21 165.372C2478.2 167.581 2478.9 169.441 2479.35 170.743C2479.57 171.393 2479.73 171.904 2479.84 172.249C2479.89 172.421 2479.93 172.551 2479.96 172.637C2479.97 172.68 2479.98 172.712 2479.98 172.732C2479.99 172.742 2479.99 172.749 2479.99 172.753C2479.99 172.755 2479.99 172.757 2479.99 172.757L2481.27 177.464L2482.86 172.848H2482.86C2482.86 172.843 2482.86 172.834 2482.87 172.82C2482.88 172.792 2482.89 172.745 2482.92 172.683C2482.97 172.558 2483.04 172.367 2483.15 172.12C2483.37 171.623 2483.71 170.9 2484.21 170.026C2485.2 168.276 2486.79 165.932 2489.17 163.586C2493.9 158.922 2501.83 154.173 2514.62 154.173C2527.07 154.173 2536.94 163.502 2543.84 173.304C2547.26 178.159 2549.88 183.025 2551.64 186.681C2552.52 188.507 2553.18 190.028 2553.62 191.087C2553.84 191.617 2554.01 192.031 2554.12 192.311C2554.17 192.451 2554.22 192.557 2554.24 192.627C2554.26 192.662 2554.27 192.689 2554.27 192.706C2554.28 192.714 2554.28 192.72 2554.28 192.724L2554.28 192.728L2554.34 192.869C2554.68 193.552 2555.48 193.884 2556.21 193.615C2556.98 193.327 2557.38 192.464 2557.09 191.687L2555.69 192.207C2557.02 191.714 2557.09 191.688 2557.09 191.686L2557.09 191.684C2557.09 191.682 2557.09 191.679 2557.09 191.676C2557.09 191.67 2557.08 191.662 2557.08 191.652C2557.07 191.631 2557.06 191.6 2557.05 191.56C2557.02 191.481 2556.97 191.366 2556.91 191.216C2556.8 190.917 2556.62 190.481 2556.39 189.93C2555.93 188.828 2555.25 187.259 2554.34 185.379C2552.53 181.623 2549.84 176.605 2546.3 171.577C2539.28 161.611 2528.62 151.173 2514.62 151.173C2500.99 151.173 2492.32 156.269 2487.06 161.45C2484.52 163.96 2482.79 166.472 2481.69 168.396C2481.25 167.207 2480.67 165.766 2479.95 164.149C2477.9 159.556 2474.65 153.506 2469.87 147.712Z" fill="#FF80AB"/>
<path d="M2210.96 0.0199958C2186.89 0.600139 2171.46 16.1396 2162.12 31.2475C2157.45 38.8138 2154.26 46.3332 2152.24 51.9546C2151.44 54.178 2150.83 56.1094 2150.37 57.6333C2149.42 55.8975 2148.09 53.591 2146.41 50.9311C2142.68 45.0112 2137.18 37.3048 2130.15 30.2075C2116.13 16.043 2095.67 4.00736 2070.93 14.1958C2058.56 19.2888 2051.32 27.9866 2047.47 38.1216C2043.63 48.2024 2043.17 59.657 2044.2 70.3589C2045.14 80.1326 2047.34 89.37 2049.45 96.518C2046.38 92.059 2042.43 86.9951 2037.68 82.2973C2031.46 76.1495 2023.8 70.5643 2014.9 67.8325C2005.95 65.0878 1995.83 65.252 1984.79 70.477C1972.8 76.1607 1965.27 83.7229 1960.8 91.9223C1956.33 100.105 1954.96 108.823 1955.08 116.758C1955.19 123.597 1956.41 129.891 1957.76 134.832C1954.39 130.45 1949.75 125.031 1943.98 119.735C1931.04 107.856 1912.2 96.4291 1889.08 99.0298C1861.44 102.14 1844.22 116.482 1833.94 130.03C1828.81 136.795 1825.41 143.362 1823.29 148.242C1822.9 149.124 1822.56 149.952 1822.26 150.716C1821.88 148.791 1821.39 146.466 1820.75 143.855C1818.92 136.328 1815.88 126.384 1811.07 116.792C1806.26 107.212 1799.63 97.8785 1790.56 91.6958C1781.44 85.4789 1769.95 82.5147 1755.63 85.5522C1741.12 88.6289 1731.88 96.0694 1726.28 105.543C1720.7 114.96 1718.79 126.271 1718.66 137.052C1718.53 147.364 1720.04 157.305 1721.64 164.862C1719.97 162.239 1717.95 159.454 1715.58 156.762C1706.91 146.935 1693.28 138.247 1673.98 143.51C1663.18 146.455 1656.31 152.457 1652.21 159.98C1648.14 167.45 1646.87 176.311 1647.02 184.95C1647.19 194.49 1649.11 203.918 1651.08 211.207C1649.67 209.455 1648.03 207.68 1646.15 206.003C1639.2 199.802 1628.9 194.973 1614.49 197.48C1603.82 199.336 1597.07 204.478 1593.06 211.225C1589.09 217.905 1587.9 226.012 1588.01 233.72C1588.12 241.446 1589.53 248.914 1590.91 254.431C1591.6 257.194 1592.28 259.481 1592.8 261.079C1593.05 261.878 1593.27 262.506 1593.42 262.936C1593.49 263.151 1593.55 263.317 1593.59 263.43C1593.61 263.486 1593.63 263.53 1593.64 263.56C1593.65 263.575 1593.65 263.587 1593.65 263.595C1593.65 263.599 1593.66 263.603 1593.66 263.605C1593.66 263.606 1593.66 263.607 1593.66 263.608C1593.66 263.609 1593.66 263.607 1595.06 263.082L1593.66 263.61L1594.02 264.582H2228.94V2.19773C2223.6 0.675615 2217.64 -0.140792 2210.96 0.0199958ZM1732.85 220.949C1738.61 215.058 1747.42 209.457 1759.22 211.321C1770.78 213.147 1777.4 218.638 1781.1 223.759C1782.94 226.303 1784.04 228.733 1784.69 230.535C1785.01 231.436 1785.22 232.184 1785.36 232.714C1785.42 232.979 1785.47 233.191 1785.5 233.34C1785.51 233.415 1785.52 233.475 1785.53 233.518C1785.53 233.539 1785.54 233.557 1785.54 233.57C1785.54 233.576 1785.54 233.582 1785.54 233.586C1785.54 233.588 1785.54 233.591 1785.54 233.592L1785.54 233.595C1785.54 233.596 1785.51 233.603 1784.06 233.832L1785.54 233.597C1785.67 234.415 1785.12 235.184 1784.3 235.314C1783.48 235.444 1782.71 234.888 1782.58 234.072L1782.58 234.07C1782.58 234.066 1782.58 234.058 1782.58 234.046C1782.57 234.023 1782.57 233.983 1782.55 233.929C1782.53 233.821 1782.5 233.652 1782.44 233.432C1782.33 232.991 1782.15 232.343 1781.87 231.548C1781.3 229.957 1780.31 227.789 1778.67 225.516C1775.41 221.003 1769.48 215.979 1758.76 214.285C1748.27 212.629 1740.37 217.543 1734.99 223.046C1732.3 225.796 1730.28 228.661 1728.93 230.842C1728.25 231.931 1727.75 232.844 1727.41 233.481C1727.25 233.799 1727.12 234.047 1727.04 234.213C1727 234.296 1726.97 234.36 1726.95 234.4C1726.94 234.42 1726.94 234.434 1726.93 234.443C1726.93 234.447 1726.93 234.451 1726.93 234.453L1726.86 234.588C1726.48 235.246 1725.65 235.52 1724.94 235.199C1724.19 234.856 1723.85 233.967 1724.2 233.212L1725.38 233.749C1724.25 233.236 1724.2 233.213 1724.2 233.211L1724.2 233.209C1724.2 233.208 1724.2 233.206 1724.2 233.204C1724.2 233.199 1724.21 233.193 1724.21 233.186C1724.22 233.171 1724.23 233.15 1724.24 233.124C1724.26 233.072 1724.3 232.997 1724.34 232.902C1724.44 232.71 1724.57 232.434 1724.76 232.088C1725.12 231.396 1725.66 230.419 1726.38 229.261C1727.81 226.95 1729.96 223.896 1732.85 220.949ZM1957.07 147.712C1966.68 136.079 1982.52 125.49 2007.07 129.823C2031.55 134.141 2044.42 148.769 2051.12 162.282C2054.46 169.02 2056.27 175.481 2057.25 180.254C2057.73 182.643 2058.02 184.615 2058.17 185.997C2058.25 186.687 2058.3 187.231 2058.33 187.605C2058.35 187.792 2058.36 187.937 2058.36 188.038C2058.37 188.087 2058.37 188.127 2058.37 188.154C2058.37 188.167 2058.37 188.178 2058.37 188.186V188.199C2058.37 188.2 2058.29 188.204 2056.88 188.27L2058.37 188.201C2058.41 189.028 2057.77 189.73 2056.94 189.768C2056.12 189.806 2055.42 189.167 2055.38 188.34L2055.38 188.336C2055.38 188.332 2055.38 188.325 2055.38 188.316C2055.37 188.296 2055.37 188.265 2055.37 188.223C2055.36 188.139 2055.36 188.01 2055.34 187.84C2055.32 187.5 2055.27 186.992 2055.19 186.34C2055.04 185.034 2054.78 183.148 2054.31 180.855C2053.37 176.264 2051.63 170.064 2048.43 163.615C2042.05 150.752 2029.89 136.894 2006.55 132.777C1983.3 128.674 1968.48 138.617 1959.38 149.624C1954.82 155.15 1951.7 160.947 1949.73 165.372C1948.74 167.581 1948.04 169.441 1947.59 170.743C1947.37 171.393 1947.2 171.904 1947.1 172.249C1947.04 172.42 1947.01 172.551 1946.98 172.637C1946.97 172.68 1946.96 172.712 1946.95 172.732C1946.95 172.742 1946.95 172.749 1946.95 172.753C1946.95 172.755 1946.95 172.757 1946.95 172.757L1945.66 177.464L1944.08 172.848H1944.08C1944.08 172.843 1944.08 172.834 1944.07 172.82C1944.06 172.792 1944.04 172.745 1944.02 172.683C1943.97 172.558 1943.89 172.367 1943.79 172.12C1943.57 171.623 1943.22 170.9 1942.73 170.026C1941.74 168.276 1940.15 165.932 1937.77 163.586C1933.04 158.922 1925.11 154.173 1912.31 154.173C1899.87 154.173 1890 163.502 1883.09 173.304C1879.67 178.159 1877.06 183.025 1875.3 186.681C1874.42 188.507 1873.76 190.028 1873.31 191.087C1873.09 191.617 1872.93 192.031 1872.82 192.311C1872.76 192.451 1872.72 192.557 1872.69 192.627C1872.68 192.662 1872.67 192.689 1872.67 192.706C1872.66 192.714 1872.66 192.72 1872.66 192.724L1872.66 192.728L1872.6 192.869C1872.26 193.552 1871.46 193.884 1870.73 193.615C1869.95 193.327 1869.56 192.464 1869.84 191.687L1871.25 192.207C1869.91 191.713 1869.85 191.688 1869.84 191.686L1869.84 191.684C1869.85 191.682 1869.85 191.679 1869.85 191.676C1869.85 191.67 1869.85 191.662 1869.86 191.652C1869.86 191.631 1869.88 191.599 1869.89 191.56C1869.92 191.481 1869.97 191.365 1870.02 191.216C1870.14 190.917 1870.32 190.481 1870.55 189.93C1871.01 188.828 1871.69 187.259 1872.6 185.379C1874.4 181.623 1877.1 176.605 1880.64 171.577C1887.66 161.611 1898.32 151.173 1912.31 151.173C1925.95 151.173 1934.62 156.269 1939.87 161.45C1942.42 163.96 1944.14 166.472 1945.25 168.396C1945.69 167.207 1946.26 165.766 1946.99 164.149C1949.04 159.556 1952.28 153.506 1957.07 147.712Z" fill="#FF80AB"/>
<path d="M622.964 0.0199958C598.892 0.600143 583.458 16.1396 574.122 31.2475C569.447 38.8139 566.258 46.3332 564.239 51.9546C563.441 54.1781 562.826 56.1093 562.371 57.6333C561.417 55.8975 560.091 53.5911 558.412 50.9311C554.675 45.0112 549.178 37.3049 542.152 30.2075C528.13 16.0429 507.672 4.00724 482.929 14.1958C470.56 19.2888 463.318 27.9865 459.466 38.1216C455.635 48.2025 455.171 59.6569 456.202 70.3589C457.144 80.1327 459.344 89.37 461.45 96.518C458.383 92.059 454.432 86.9952 449.68 82.2973C443.46 76.1494 435.804 70.5643 426.898 67.8325C417.95 65.0878 407.826 65.2519 396.795 70.477C384.796 76.1608 377.273 83.7228 372.798 91.9223C368.333 100.105 366.956 108.823 367.081 116.758C367.189 123.597 368.413 129.891 369.764 134.832C366.393 130.45 361.754 125.031 355.982 119.735C343.037 107.856 324.2 96.429 301.082 99.0298C273.436 102.14 256.219 116.482 245.942 130.03C240.811 136.795 237.407 143.362 235.285 148.242C234.901 149.124 234.56 149.952 234.257 150.716C233.884 148.791 233.391 146.466 232.755 143.855C230.92 136.328 227.881 126.385 223.067 116.792C218.259 107.212 211.628 97.8785 202.559 91.6958C193.438 85.4788 181.946 82.5147 167.626 85.5522C153.122 88.6289 143.881 96.0693 138.275 105.543C132.704 114.96 130.788 126.271 130.656 137.052C130.53 147.364 132.037 157.305 133.636 164.862C131.965 162.239 129.953 159.454 127.578 156.762C118.907 146.935 105.278 138.247 85.9805 143.51C75.1827 146.455 68.306 152.457 64.208 159.98C60.1392 167.45 58.8668 176.311 59.0205 184.95C59.1903 194.49 61.1059 203.918 63.0762 211.207C61.6686 209.455 60.0344 207.68 58.1543 206.003C51.1993 199.802 40.9035 194.973 26.4932 197.48C15.8248 199.336 9.06933 204.477 5.06055 211.225C1.09222 217.905 -0.0995463 226.012 0.0078125 233.72C0.115507 241.446 1.53096 248.914 2.90918 254.431C3.59948 257.195 4.28327 259.481 4.7959 261.079C5.05219 261.878 5.26559 262.506 5.41602 262.936C5.49125 263.151 5.5517 263.317 5.59277 263.43C5.61321 263.486 5.62855 263.53 5.63965 263.56C5.64509 263.575 5.64936 263.587 5.65234 263.595C5.65386 263.599 5.6554 263.603 5.65625 263.605C5.65671 263.606 5.65699 263.607 5.65723 263.608C5.65823 263.608 5.68848 263.598 7.0625 263.082L5.6582 263.61L6.02344 264.582H640.938V2.19773C635.605 0.675633 629.635 -0.140793 622.964 0.0199958ZM144.846 220.949C150.606 215.058 159.421 209.457 171.224 211.321C182.785 213.147 189.397 218.638 193.1 223.759C194.938 226.303 196.043 228.733 196.69 230.535C197.014 231.436 197.225 232.184 197.355 232.714C197.421 232.98 197.467 233.191 197.497 233.34C197.512 233.415 197.523 233.475 197.53 233.518C197.534 233.539 197.537 233.557 197.539 233.57C197.54 233.576 197.541 233.582 197.542 233.586C197.542 233.588 197.543 233.591 197.543 233.592L197.544 233.595C197.542 233.596 197.491 233.605 196.062 233.832L197.544 233.597C197.674 234.415 197.116 235.184 196.298 235.314C195.481 235.444 194.714 234.888 194.582 234.072L194.581 234.07C194.58 234.066 194.579 234.058 194.577 234.046C194.573 234.023 194.566 233.983 194.555 233.929C194.533 233.821 194.497 233.652 194.442 233.432C194.334 232.991 194.153 232.343 193.867 231.548C193.296 229.957 192.311 227.789 190.668 225.516C187.406 221.003 181.482 215.979 170.756 214.285C160.271 212.629 152.373 217.543 146.991 223.046C144.303 225.796 142.279 228.661 140.927 230.842C140.252 231.931 139.747 232.844 139.413 233.481C139.247 233.799 139.123 234.047 139.042 234.213C139.002 234.296 138.972 234.36 138.953 234.4C138.944 234.42 138.937 234.434 138.933 234.443C138.931 234.447 138.929 234.451 138.929 234.453L138.858 234.588C138.476 235.246 137.65 235.52 136.942 235.199C136.188 234.856 135.854 233.967 136.196 233.212L137.38 233.749C136.256 233.239 136.2 233.213 136.197 233.211L136.198 233.209C136.199 233.208 136.199 233.206 136.2 233.204C136.202 233.199 136.206 233.193 136.209 233.186C136.216 233.171 136.225 233.15 136.237 233.124C136.262 233.072 136.297 232.997 136.344 232.902C136.437 232.71 136.574 232.435 136.756 232.088C137.119 231.396 137.658 230.419 138.376 229.261C139.809 226.95 141.963 223.897 144.846 220.949ZM369.07 147.712C378.681 136.079 394.515 125.49 419.073 129.823C443.551 134.141 456.417 148.769 463.117 162.282C466.458 169.02 468.269 175.481 469.246 180.254C469.735 182.643 470.016 184.615 470.175 185.997C470.254 186.687 470.304 187.231 470.333 187.605C470.348 187.792 470.358 187.937 470.364 188.038C470.367 188.088 470.37 188.127 470.371 188.154C470.372 188.167 470.373 188.178 470.373 188.186V188.199C470.369 188.2 470.288 188.204 468.875 188.27L470.373 188.201C470.411 189.028 469.772 189.73 468.944 189.768C468.117 189.806 467.416 189.167 467.377 188.34L467.376 188.336C467.376 188.332 467.376 188.326 467.375 188.316C467.374 188.296 467.373 188.265 467.37 188.223C467.365 188.139 467.356 188.01 467.343 187.84C467.316 187.5 467.27 186.993 467.194 186.34C467.044 185.034 466.776 183.148 466.307 180.855C465.367 176.264 463.627 170.064 460.43 163.615C454.052 150.752 441.887 136.894 418.552 132.777C395.297 128.674 380.476 138.617 371.383 149.624C366.817 155.15 363.702 160.947 361.727 165.372C360.74 167.581 360.041 169.441 359.591 170.743C359.366 171.393 359.203 171.904 359.098 172.249C359.045 172.421 359.006 172.551 358.981 172.637C358.969 172.68 358.96 172.712 358.954 172.732C358.951 172.742 358.949 172.749 358.948 172.753C358.948 172.755 358.947 172.757 358.947 172.757L357.663 177.464L356.082 172.848H356.081C356.079 172.843 356.075 172.834 356.07 172.82C356.06 172.792 356.044 172.745 356.02 172.683C355.971 172.558 355.894 172.367 355.785 172.12C355.567 171.623 355.223 170.9 354.728 170.026C353.736 168.276 352.146 165.932 349.768 163.586C345.037 158.922 337.111 154.173 324.312 154.173C311.871 154.173 301.997 163.502 295.094 173.304C291.674 178.159 289.06 183.025 287.3 186.681C286.421 188.507 285.757 190.028 285.314 191.087C285.093 191.617 284.927 192.031 284.817 192.311C284.763 192.451 284.721 192.557 284.694 192.627C284.681 192.662 284.671 192.689 284.665 192.706C284.662 192.714 284.66 192.72 284.658 192.724L284.657 192.728L284.597 192.869C284.262 193.552 283.458 193.884 282.729 193.615C281.953 193.327 281.555 192.464 281.843 191.687L283.25 192.207C281.918 191.715 281.847 191.688 281.844 191.686L281.845 191.684C281.845 191.682 281.846 191.679 281.847 191.676C281.849 191.67 281.853 191.662 281.856 191.652C281.864 191.631 281.876 191.6 281.891 191.56C281.921 191.481 281.966 191.366 282.024 191.216C282.142 190.917 282.316 190.481 282.546 189.93C283.006 188.828 283.692 187.259 284.597 185.379C286.405 181.623 289.099 176.605 292.641 171.577C299.659 161.611 310.316 151.173 324.312 151.173C337.951 151.173 346.619 156.269 351.873 161.45C354.419 163.96 356.144 166.472 357.249 168.396C357.692 167.207 358.265 165.766 358.986 164.149C361.037 159.556 364.284 153.506 369.07 147.712Z" fill="#FF80AB"/>
</g>
<defs>
<clipPath id="clip0_3544_197">
<rect width="2839" height="265" fill="white"/>
</clipPath>
</defs>
</svg>
