<svg width="1440" height="528" viewBox="0 0 1440 528" fill="none" xmlns="http://www.w3.org/2000/svg">
<g clip-path="url(#clip0_3508_1052)">
<path d="M777.562 527.583H1439.62L1439.62 311C1439.62 311 1440.19 264.895 1393.5 266.02C1346.81 267.145 1333.31 326.208 1333.31 326.208C1333.31 326.208 1301.81 260.395 1254 280.083C1206.19 299.77 1238.25 374.583 1238.25 374.583C1238.25 374.583 1210.69 316.083 1167.94 336.333C1120.99 358.573 1145.44 409.458 1145.44 409.458C1145.44 409.458 1116.75 359.958 1071.75 365.02C1017.45 371.129 1004.25 421.27 1004.25 421.27C1004.25 421.27 994.124 339.708 938.437 351.52C882.02 363.487 909.187 442.645 909.187 442.645C909.187 442.645 893.999 399.333 856.874 409.458C815.225 420.816 835.543 478.625 838.976 487.599C836.631 482.022 825.04 458.622 797.249 463.458C756.187 470.602 777.562 527.583 777.562 527.583Z" fill="#FF80AB"/>
<path d="M1439.62 527.583H777.562C777.562 527.583 756.187 470.602 797.249 463.458C828.749 457.977 839.437 488.77 839.437 488.77C839.437 488.77 811.691 421.78 856.874 409.458C893.999 399.333 909.187 442.645 909.187 442.645C909.187 442.645 882.02 363.487 938.437 351.52C994.124 339.708 1004.25 421.27 1004.25 421.27C1004.25 421.27 1017.45 371.129 1071.75 365.02C1116.75 359.958 1145.44 409.458 1145.44 409.458C1145.44 409.458 1120.99 358.573 1167.94 336.333C1210.69 316.083 1238.25 374.583 1238.25 374.583C1238.25 374.583 1206.19 299.77 1254 280.083C1301.81 260.395 1333.31 326.208 1333.31 326.208C1333.31 326.208 1346.81 267.145 1393.5 266.02C1440.19 264.895 1439.62 311 1439.62 311L1439.62 527.583Z" stroke="black" stroke-width="3"/>
<path d="M1239.38 452.77C1239.38 452.77 1237.12 404.235 1189.31 395.8C1141.5 387.364 1128 436.862 1128 436.862C1128 436.862 1121.25 417.173 1094.81 417.173C1068.38 417.173 1053.75 456.707 1053.75 456.707" stroke="black" stroke-width="3" stroke-linecap="round"/>
<path d="M966.562 498.332C966.562 498.332 963.777 480.823 941.49 477.302C919.203 473.782 908.063 498.332 908.063 498.332" stroke="black" stroke-width="3" stroke-linecap="round"/>
<path d="M662.063 527.583H0.000932723L0.000310397 311C0.000310397 311 -0.561565 264.895 46.1259 266.02C92.8134 267.145 106.313 326.208 106.313 326.208C106.313 326.208 137.813 260.395 185.626 280.083C233.438 299.77 201.376 374.583 201.376 374.583C201.376 374.583 228.938 316.083 271.688 336.333C318.639 358.573 294.188 409.458 294.188 409.458C294.188 409.458 322.876 359.958 367.876 365.02C422.176 371.129 435.376 421.27 435.376 421.27C435.376 421.27 445.501 339.708 501.188 351.52C557.605 363.487 530.438 442.645 530.438 442.645C530.438 442.645 545.626 399.333 582.751 409.458C624.4 420.816 604.082 478.625 600.649 487.599C602.994 482.022 614.585 458.622 642.376 463.458C683.438 470.602 662.063 527.583 662.063 527.583Z" fill="#FF80AB"/>
<path d="M0.000932723 527.583H662.063C662.063 527.583 683.438 470.602 642.376 463.458C610.876 457.977 600.188 488.77 600.188 488.77C600.188 488.77 627.934 421.78 582.751 409.458C545.626 399.333 530.438 442.645 530.438 442.645C530.438 442.645 557.605 363.487 501.188 351.52C445.501 339.708 435.376 421.27 435.376 421.27C435.376 421.27 422.176 371.129 367.876 365.02C322.876 359.958 294.188 409.458 294.188 409.458C294.188 409.458 318.639 358.573 271.688 336.333C228.938 316.083 201.376 374.583 201.376 374.583C201.376 374.583 233.438 299.77 185.626 280.083C137.813 260.395 106.313 326.208 106.313 326.208C106.313 326.208 92.8134 267.145 46.1259 266.02C-0.561565 264.895 0.000310397 311 0.000310397 311L0.000932723 527.583Z" stroke="black" stroke-width="3"/>
<path d="M200.25 452.77C200.25 452.77 202.5 404.235 250.312 395.8C298.125 387.364 311.625 436.862 311.625 436.862C311.625 436.862 318.375 417.173 344.812 417.173C371.25 417.173 385.875 456.707 385.875 456.707" stroke="black" stroke-width="3" stroke-linecap="round"/>
<path d="M473.062 498.332C473.062 498.332 475.848 480.823 498.135 477.302C520.422 473.782 531.562 498.332 531.562 498.332" stroke="black" stroke-width="3" stroke-linecap="round"/>
</g>
<defs>
<clipPath id="clip0_3508_1052">
<rect width="1440" height="528" fill="white"/>
</clipPath>
</defs>
</svg>
