<svg width="42" height="38" viewBox="0 0 42 38" fill="none" xmlns="http://www.w3.org/2000/svg">
<path d="M10.7598 1.18164V1.18066C11.9011 1.60482 12.4336 2.44256 12.8672 3.42969C12.9786 3.68332 13.0757 3.92837 13.1826 4.19043C13.2849 4.44134 13.3974 4.71083 13.5234 4.96094C13.759 5.42816 14.1509 6.05946 14.8877 6.33398L15.3271 6.49805L15.7422 6.28027C15.986 6.1525 16.2351 6.03689 16.4893 5.93457L16.4932 5.93359C17.4165 5.55806 18.5456 5.42274 19.7754 5.44141C20.9764 5.45966 22.2077 5.62283 23.3389 5.80273C23.3425 5.8042 23.3464 5.80585 23.3506 5.80762C23.4052 5.83047 23.4822 5.86584 23.584 5.91504C23.8143 6.02641 24.008 6.12725 24.3008 6.27051C24.551 6.39293 24.8402 6.52961 25.0898 6.62012C25.2068 6.66252 25.3768 6.71745 25.5576 6.74023C25.6462 6.75139 25.8011 6.76353 25.9805 6.72656C26.1669 6.68813 26.4688 6.57514 26.6816 6.26367C27.3 5.35821 27.753 4.22862 28.1455 3.44141C28.574 2.5822 29.0116 1.91792 29.6816 1.45312H29.6826C29.7216 1.42613 29.7797 1.39894 29.8418 1.38574C29.8928 1.37495 29.923 1.37862 29.9316 1.37988C30.4591 1.53266 30.9763 1.9663 31.4775 2.76953C31.9787 3.57264 32.391 4.63032 32.749 5.8125C33.1053 6.9889 33.3889 8.22355 33.6582 9.37402C33.9193 10.4895 34.1786 11.5823 34.4814 12.3604L34.5137 12.4424L34.5586 12.5176C35.0815 13.3936 35.7253 14.1571 36.2939 14.8457C36.8803 15.5558 37.3987 16.1994 37.8018 16.9229L37.8037 16.9258C39.7129 20.326 39.9879 23.7679 39.9688 27.7881C39.9585 29.946 39.8724 31.5424 39.3672 32.8672C38.8918 34.1134 38.0068 35.2047 36.1855 36.2324C35.2597 36.6457 34.0779 36.7531 32.8223 36.8408H32.8203C30.0346 37.0393 27.2054 36.9028 24.292 36.9092H24.291C19.8799 36.9155 15.5058 36.9868 11.1299 36.9092H11.1309C8.0296 36.8522 5.14549 36.5038 3.22754 34.4727C2.00588 33.1787 1.40873 31.1081 1.17578 28.6836C0.945268 26.2842 1.08702 23.7636 1.16406 21.6963C1.35271 16.6382 3.42266 12.2704 7.13867 8.84766L7.4082 8.59961L7.46484 8.2373C7.68969 6.79852 7.88705 5.08335 8.41016 3.60938C8.89291 2.24914 9.54928 1.39068 10.4932 1.09277C10.5821 1.12209 10.6717 1.15006 10.7598 1.18164Z" fill="#F9B3D0" stroke="black" stroke-width="2.1"/>
<path d="M29.342 17.9983C29.9059 17.2843 31.1198 16.3686 32.0551 16.9135C32.2786 17.3924 32.2362 17.1861 32.1403 17.7476C32.4522 18.2002 33.3149 18.5893 33.4431 18.8623C35.0916 22.3674 30.0874 24.0637 28.2526 21.2498C27.4259 19.9818 28.4829 18.824 29.342 17.9983Z" fill="#FF80AB"/>
<path d="M32.0513 20.3269L32.493 20.1322L32.6135 19.8143C32.1618 18.8206 30.307 18.6992 29.5151 19.5007C30.2843 20.4151 30.6206 19.5072 32.0513 20.3269Z" fill="#040304"/>
<path d="M29.3438 17.9983C29.9076 17.2843 31.1215 16.3686 32.0568 16.9135C32.2804 17.3924 32.2379 17.1861 32.142 17.7476C30.5156 17.5487 30.703 18.8225 29.3438 17.9983Z" fill="#040304"/>
<path d="M7.98407 17.7763L7.67848 17.4026L7.71508 17.0646C8.5679 16.3834 10.2765 17.1155 10.6193 18.1887C10.7598 18.3471 11.5314 19.0401 11.5623 19.1019C13.6139 23.2108 6.04331 23.9323 6.53901 19.8235C6.64417 18.9517 7.19056 18.2606 7.98407 17.7763Z" fill="#FF80AB"/>
<path d="M7.98527 17.7763L7.67969 17.4026L7.71628 17.0646C8.5691 16.3834 10.2777 17.1155 10.6205 18.1887C9.52056 18.6554 9.63202 17.6936 7.98527 17.7763Z" fill="#040304"/>
<path d="M8.19093 20.3328L7.74919 20.138L7.6287 19.8202C8.08036 18.8265 9.93522 18.7051 10.7271 19.5065C9.9579 20.4209 9.62154 19.513 8.19093 20.3328Z" fill="#040304"/>
<path d="M19.7256 16.6699C20.3883 16.6882 21.0353 16.7526 21.5665 17.1614C22.0565 18.2237 20.977 18.5676 20.7837 19.8814C20.9358 20.6528 21.968 21.4447 22.7438 21.0219C23.2213 20.762 23.351 20.3289 23.9319 20.1967C24.3199 20.4848 24.1952 20.3719 24.3965 20.8783C24.2261 21.8085 23.4669 21.9126 22.6305 22.0045C21.6258 22.1149 21.1894 21.6827 20.4754 21.0793L20.1236 21.0371C19.5446 21.451 18.5626 22.129 17.8515 22.1402C17.0757 22.1522 16.1261 21.1105 16.0938 20.3479L16.3764 20.155C17.4141 20.0989 16.9154 20.8215 18.0166 21.0894C19.0129 21.0209 19.5067 20.2892 20.1957 19.5588C19.3816 19.0132 18.5267 18.5756 18.6371 17.4967C18.9061 17.0146 19.224 16.925 19.7256 16.6699Z" fill="#040304"/>
<path d="M25.4941 15.1968C26.3425 15.0782 27.1266 15.6692 27.2462 16.5174C27.3657 17.3653 26.7756 18.15 25.9274 18.2705C25.0779 18.3915 24.2913 17.8001 24.1717 16.9506C24.0518 16.1011 24.644 15.3154 25.4941 15.1968Z" fill="#040304"/>
<path d="M13.6518 15.3634C14.1698 15.2054 14.7324 15.3423 15.1198 15.7203C15.5072 16.0984 15.6578 16.6574 15.5125 17.1788C15.3671 17.7001 14.949 18.1008 14.422 18.224C13.6434 18.4062 12.8606 17.9382 12.6528 17.1662C12.445 16.3941 12.8871 15.5966 13.6518 15.3634Z" fill="#040304"/>
</svg>
