<svg width="418" height="354" viewBox="0 0 418 354" fill="none" xmlns="http://www.w3.org/2000/svg">
<path d="M294.68 77.3955C267.478 65.1074 220.406 66.3174 185.12 80.077C149.834 93.8367 185.12 105.743 185.12 105.743L213.085 107.275L247.945 112.255L294.68 101.529C294.68 101.529 321.882 89.6837 294.68 77.3955Z" fill="#040605" stroke="black" stroke-width="1.125"/>
<path d="M337.959 358.943H79C114.008 275.829 132.829 242.986 164.809 203.031H310.761C321.259 261.663 327.17 292.895 337.959 358.943Z" fill="black" stroke="black" stroke-width="1.125"/>
<mask id="path-3-inside-1_3229_10483" fill="white">
<path fill-rule="evenodd" clip-rule="evenodd" d="M320.202 37.5293C332.964 62.793 341.718 109.149 342.045 137.123C339.481 155.815 337.475 164.662 331.923 175.075C326.588 185.559 319.3 196.647 310.099 204.147C310.84 207.619 312.209 213.247 312.605 216.603C302.964 219.031 288.368 223.345 281.562 231.41C279.53 233.817 281.712 237.497 284.312 238.341C294.522 242.353 306.794 237.748 317.034 236.307C319.818 252.642 324.087 270.74 326.301 286.876C317.845 289.293 310.468 290.316 302.871 295.365C297.834 298.718 295.632 304.601 302.039 307.535C308.258 310.387 323.338 308.148 329.88 306.436C332.779 323.415 335.784 343.154 337.798 360.286H1.23438V360.285H79.3818C82.4281 352.935 85.3466 345.534 88.1357 338.082C92.2839 339.626 100.843 342.187 105.376 343.321C120.556 347.006 137.084 353.171 152.766 349.476C159.995 348.239 166.208 339.049 162.909 331.99C153.612 312.088 127.226 301.779 109.003 292.722C112.852 283.859 118.253 273.887 122.771 265.285C125.447 260.194 128.857 253.524 131.828 248.72C134.864 251.04 139.05 255.19 142.03 257.843C146.119 261.41 150.411 264.739 154.884 267.815C164 274.102 174.735 279.729 186.097 277.879C194.973 276.146 200.745 268.342 198.451 259.336C195.555 247.964 187.155 239.351 179.127 231.296C172.305 224.452 165.513 219.214 157.479 213.928C159.524 210.261 162.114 206.788 164.585 203.387C156.55 196.219 146.289 185.579 145.05 174.478L144.638 170.308C144.256 166.186 144.145 162.599 144.044 158.45L144.115 154.262L144.069 145.265L144.351 140.924C144.378 133.729 144.909 124.778 145.396 117.567C146.835 96.2245 149.009 71.8103 153.999 50.7783L154.491 48.7539C154.932 47.334 155.444 45.9435 155.943 44.543C156.762 45.2161 157.587 45.972 158.386 46.6768C167.542 57.0942 177.319 67.0852 184.549 79.1045C187.271 78.4636 190.153 77.8189 192.847 77.1074C195.336 84.2012 199.563 99.332 206.72 102.516C208.487 103.294 210.497 103.312 212.278 102.565C220.358 99.0919 218.137 78.9773 216.833 71.7578C221.443 70.452 224.177 69.9926 228.88 69.5127C228.951 73.6659 229.103 78.0944 229.702 81.7861C230.676 87.7826 234.645 102.879 242.82 102.481C253.57 101.958 255.023 76.0945 256.453 68.9326C257.743 68.9485 260.931 69.0891 262 68.7842C263.806 68.6738 265.037 68.6425 266.843 68.6992C264.59 76.1788 261.361 95.1381 270.837 97.7588C280.384 100.399 286.001 80.8165 287.697 74.8789C290 75.2975 292.453 75.6995 294.73 76.1855C303.258 61.0711 309.941 51.4462 320.202 37.5293Z"/>
</mask>
<path fill-rule="evenodd" clip-rule="evenodd" d="M320.202 37.5293C332.964 62.793 341.718 109.149 342.045 137.123C339.481 155.815 337.475 164.662 331.923 175.075C326.588 185.559 319.3 196.647 310.099 204.147C310.84 207.619 312.209 213.247 312.605 216.603C302.964 219.031 288.368 223.345 281.562 231.41C279.53 233.817 281.712 237.497 284.312 238.341C294.522 242.353 306.794 237.748 317.034 236.307C319.818 252.642 324.087 270.74 326.301 286.876C317.845 289.293 310.468 290.316 302.871 295.365C297.834 298.718 295.632 304.601 302.039 307.535C308.258 310.387 323.338 308.148 329.88 306.436C332.779 323.415 335.784 343.154 337.798 360.286H1.23438V360.285H79.3818C82.4281 352.935 85.3466 345.534 88.1357 338.082C92.2839 339.626 100.843 342.187 105.376 343.321C120.556 347.006 137.084 353.171 152.766 349.476C159.995 348.239 166.208 339.049 162.909 331.99C153.612 312.088 127.226 301.779 109.003 292.722C112.852 283.859 118.253 273.887 122.771 265.285C125.447 260.194 128.857 253.524 131.828 248.72C134.864 251.04 139.05 255.19 142.03 257.843C146.119 261.41 150.411 264.739 154.884 267.815C164 274.102 174.735 279.729 186.097 277.879C194.973 276.146 200.745 268.342 198.451 259.336C195.555 247.964 187.155 239.351 179.127 231.296C172.305 224.452 165.513 219.214 157.479 213.928C159.524 210.261 162.114 206.788 164.585 203.387C156.55 196.219 146.289 185.579 145.05 174.478L144.638 170.308C144.256 166.186 144.145 162.599 144.044 158.45L144.115 154.262L144.069 145.265L144.351 140.924C144.378 133.729 144.909 124.778 145.396 117.567C146.835 96.2245 149.009 71.8103 153.999 50.7783L154.491 48.7539C154.932 47.334 155.444 45.9435 155.943 44.543C156.762 45.2161 157.587 45.972 158.386 46.6768C167.542 57.0942 177.319 67.0852 184.549 79.1045C187.271 78.4636 190.153 77.8189 192.847 77.1074C195.336 84.2012 199.563 99.332 206.72 102.516C208.487 103.294 210.497 103.312 212.278 102.565C220.358 99.0919 218.137 78.9773 216.833 71.7578C221.443 70.452 224.177 69.9926 228.88 69.5127C228.951 73.6659 229.103 78.0944 229.702 81.7861C230.676 87.7826 234.645 102.879 242.82 102.481C253.57 101.958 255.023 76.0945 256.453 68.9326C257.743 68.9485 260.931 69.0891 262 68.7842C263.806 68.6738 265.037 68.6425 266.843 68.6992C264.59 76.1788 261.361 95.1381 270.837 97.7588C280.384 100.399 286.001 80.8165 287.697 74.8789C290 75.2975 292.453 75.6995 294.73 76.1855C303.258 61.0711 309.941 51.4462 320.202 37.5293Z" fill="#FAA640"/>
<path fill-rule="evenodd" clip-rule="evenodd" d="M320.202 37.5293L322.88 36.1766L320.681 31.8242L317.788 35.749L320.202 37.5293ZM342.045 137.123L345.017 137.531L345.047 137.31L345.045 137.088L342.045 137.123ZM331.923 175.075L329.276 173.664L329.262 173.689L329.249 173.715L331.923 175.075ZM310.099 204.147L308.203 201.822L306.782 202.981L307.165 204.774L310.099 204.147ZM312.605 216.603L313.338 219.512L315.894 218.868L315.585 216.251L312.605 216.603ZM281.562 231.41L279.269 229.475L279.269 229.475L281.562 231.41ZM284.312 238.341L285.41 235.549L285.325 235.515L285.238 235.487L284.312 238.341ZM317.034 236.307L319.992 235.803L319.502 232.93L316.616 233.336L317.034 236.307ZM326.301 286.876L327.125 289.76L329.626 289.045L329.273 286.468L326.301 286.876ZM302.871 295.365L301.21 292.867L301.209 292.868L302.871 295.365ZM302.039 307.535L303.29 304.808L303.288 304.808L302.039 307.535ZM329.88 306.436L332.837 305.931L332.286 302.705L329.12 303.533L329.88 306.436ZM337.798 360.286V363.286H341.171L340.777 359.936L337.798 360.286ZM1.23438 360.286H-1.76562V363.286H1.23438V360.286ZM1.23438 360.285V357.285H-1.76562V360.285H1.23438ZM79.3818 360.285V363.285H81.3859L82.1532 361.434L79.3818 360.285ZM88.1357 338.082L89.182 335.27L86.3757 334.226L85.3261 337.03L88.1357 338.082ZM105.376 343.321L104.648 346.232L104.658 346.234L104.668 346.237L105.376 343.321ZM152.766 349.476L152.26 346.519L152.168 346.534L152.078 346.556L152.766 349.476ZM162.909 331.99L160.191 333.26L160.191 333.26L162.909 331.99ZM109.003 292.722L106.251 291.527L105.116 294.14L107.668 295.408L109.003 292.722ZM122.771 265.285L120.116 263.89L120.116 263.89L122.771 265.285ZM131.828 248.72L133.65 246.336L131.019 244.325L129.277 247.142L131.828 248.72ZM142.03 257.843L140.036 260.084L140.047 260.094L140.058 260.103L142.03 257.843ZM154.884 267.815L156.587 265.346L156.584 265.344L154.884 267.815ZM186.097 277.879L186.579 280.84L186.625 280.832L186.671 280.823L186.097 277.879ZM198.451 259.336L195.544 260.076L195.544 260.077L198.451 259.336ZM179.127 231.296L181.252 229.178L181.252 229.178L179.127 231.296ZM157.479 213.928L154.859 212.466L153.5 214.901L155.83 216.434L157.479 213.928ZM164.585 203.387L167.012 205.15L168.607 202.955L166.582 201.148L164.585 203.387ZM145.05 174.478L142.064 174.773L142.066 174.791L142.068 174.81L145.05 174.478ZM144.638 170.308L141.65 170.584L141.651 170.593L141.652 170.603L144.638 170.308ZM144.044 158.45L141.044 158.399L141.043 158.461L141.045 158.523L144.044 158.45ZM144.115 154.262L147.115 154.313L147.115 154.28L147.115 154.246L144.115 154.262ZM144.069 145.265L141.076 145.071L141.069 145.175L141.069 145.28L144.069 145.265ZM144.351 140.924L147.344 141.118L147.35 141.027L147.351 140.935L144.351 140.924ZM145.396 117.567L142.402 117.365L142.402 117.366L145.396 117.567ZM153.999 50.7783L151.084 50.0696L151.082 50.0777L151.08 50.0857L153.999 50.7783ZM154.491 48.7539L151.626 47.865L151.598 47.9543L151.576 48.0452L154.491 48.7539ZM155.943 44.543L157.849 42.2261L154.552 39.5142L153.118 43.5348L155.943 44.543ZM158.386 46.6768L160.639 44.6963L160.514 44.5535L160.371 44.4278L158.386 46.6768ZM184.549 79.1045L181.978 80.6508L183.106 82.5261L185.236 82.0247L184.549 79.1045ZM192.847 77.1074L195.677 76.114L194.76 73.4992L192.081 74.2069L192.847 77.1074ZM206.72 102.516L205.5 105.257L205.511 105.261L206.72 102.516ZM212.278 102.565L213.438 105.332L213.451 105.327L213.463 105.322L212.278 102.565ZM216.833 71.7578L216.015 68.8713L213.397 69.6129L213.881 72.291L216.833 71.7578ZM228.88 69.5127L231.879 69.4614L231.824 66.1967L228.575 66.5282L228.88 69.5127ZM229.702 81.7861L226.741 82.2666L226.741 82.267L229.702 81.7861ZM242.82 102.481L242.966 105.478H242.966L242.82 102.481ZM256.453 68.9326L256.49 65.9328L253.999 65.9022L253.511 68.345L256.453 68.9326ZM262 68.7842L261.817 65.7898L261.491 65.8097L261.177 65.8993L262 68.7842ZM266.843 68.6992L269.715 69.5643L270.842 65.8234L266.937 65.7007L266.843 68.6992ZM270.837 97.7588L270.037 100.65L270.037 100.65L270.837 97.7588ZM287.697 74.8789L288.234 71.9273L285.559 71.4411L284.813 74.055L287.697 74.8789ZM294.73 76.1855L294.104 79.1195L296.26 79.5796L297.343 77.6597L294.73 76.1855ZM320.202 37.5293L317.524 38.8819C323.735 51.1776 329.049 68.7928 332.851 86.9254C336.647 105.033 338.885 123.415 339.045 137.158L342.045 137.123L345.045 137.088C344.879 122.857 342.576 104.074 338.723 85.6943C334.875 67.3394 329.431 49.1447 322.88 36.1766L320.202 37.5293ZM342.045 137.123L339.073 136.715C336.518 155.335 334.567 163.741 329.276 173.664L331.923 175.075L334.57 176.487C340.384 165.583 342.443 156.294 345.017 137.531L342.045 137.123ZM331.923 175.075L329.249 173.715C323.997 184.036 316.937 194.703 308.203 201.822L310.099 204.147L311.994 206.473C321.662 198.592 329.18 187.081 334.597 176.436L331.923 175.075ZM310.099 204.147L307.165 204.774C307.947 208.434 309.252 213.783 309.626 216.954L312.605 216.603L315.585 216.251C315.167 212.71 313.734 206.805 313.032 203.521L310.099 204.147ZM312.605 216.603L311.873 213.693C307.009 214.918 300.776 216.647 294.861 219.126C289.004 221.579 283.13 224.9 279.269 229.475L281.562 231.41L283.854 233.345C286.799 229.855 291.627 226.986 297.18 224.659C302.674 222.357 308.56 220.715 313.338 219.512L312.605 216.603ZM281.562 231.41L279.269 229.475C277.285 231.827 277.529 234.682 278.48 236.727C279.401 238.707 281.193 240.483 283.387 241.194L284.312 238.341L285.238 235.487C285.067 235.432 284.814 235.296 284.544 235.045C284.277 234.796 284.059 234.494 283.921 234.197C283.781 233.898 283.757 233.679 283.764 233.564C283.768 233.481 283.786 233.426 283.854 233.345L281.562 231.41ZM284.312 238.341L283.215 241.133C289.053 243.427 295.302 243.192 301.1 242.337C304.013 241.907 306.913 241.303 309.648 240.734C312.418 240.158 315.006 239.622 317.452 239.277L317.034 236.307L316.616 233.336C313.942 233.712 311.156 234.292 308.426 234.86C305.661 235.434 302.934 236.001 300.224 236.401C294.774 237.205 289.782 237.267 285.41 235.549L284.312 238.341ZM317.034 236.307L314.077 236.811C316.92 253.495 321.113 271.131 323.329 287.284L326.301 286.876L329.273 286.468C327.062 270.35 322.716 251.789 319.992 235.803L317.034 236.307ZM326.301 286.876L325.476 283.992C317.461 286.283 309.32 287.476 301.21 292.867L302.871 295.365L304.532 297.864C311.616 293.155 318.228 292.304 327.125 289.76L326.301 286.876ZM302.871 295.365L301.209 292.868C298.301 294.803 295.772 297.738 295.205 301.11C294.908 302.876 295.168 304.731 296.192 306.422C297.196 308.08 298.794 309.349 300.79 310.263L302.039 307.535L303.288 304.808C302.08 304.254 301.551 303.688 301.324 303.313C301.116 302.97 301.04 302.595 301.122 302.104C301.314 300.963 302.404 299.28 304.533 297.863L302.871 295.365ZM302.039 307.535L300.788 310.262C302.826 311.197 305.354 311.626 307.887 311.8C310.469 311.978 313.296 311.904 316.071 311.688C321.609 311.257 327.191 310.24 330.639 309.338L329.88 306.436L329.12 303.533C326.027 304.343 320.798 305.302 315.605 305.706C313.015 305.908 310.497 305.966 308.298 305.814C306.05 305.66 304.361 305.3 303.29 304.808L302.039 307.535ZM329.88 306.436L326.923 306.941C329.817 323.886 332.812 343.571 334.818 360.636L337.798 360.286L340.777 359.936C338.756 342.736 335.742 322.943 332.837 305.931L329.88 306.436ZM337.798 360.286V357.286H1.23438V360.286V363.286H337.798V360.286ZM1.23438 360.286H4.23438V360.285H1.23438H-1.76562V360.286H1.23438ZM1.23438 360.285V363.285H79.3818V360.285V357.285H1.23438V360.285ZM79.3818 360.285L82.1532 361.434C85.2127 354.052 88.144 346.618 90.9454 339.134L88.1357 338.082L85.3261 337.03C82.5492 344.45 79.6434 351.819 76.6104 359.137L79.3818 360.285ZM88.1357 338.082L87.0895 340.894C91.3668 342.485 100.036 345.077 104.648 346.232L105.376 343.321L106.104 340.411C101.65 339.296 93.201 336.766 89.182 335.27L88.1357 338.082ZM105.376 343.321L104.668 346.237C111.975 348.01 120.265 350.56 128.315 352.112C136.499 353.689 145.027 354.381 153.454 352.396L152.766 349.476L152.078 346.556C144.823 348.265 137.247 347.723 129.451 346.22C121.521 344.692 113.957 342.317 106.084 340.406L105.376 343.321ZM152.766 349.476L153.272 352.433C157.913 351.639 161.948 348.39 164.343 344.484C166.747 340.564 167.823 335.419 165.627 330.72L162.909 331.99L160.191 333.26C161.294 335.62 160.913 338.599 159.228 341.348C157.534 344.111 154.848 346.076 152.26 346.519L152.766 349.476ZM162.909 331.99L165.627 330.721C160.611 319.983 151.1 312.047 140.879 305.736C130.687 299.443 119.257 294.468 110.338 290.035L109.003 292.722L107.668 295.408C116.971 300.032 127.846 304.741 137.727 310.841C147.579 316.925 155.91 324.095 160.191 333.26L162.909 331.99ZM109.003 292.722L111.755 293.917C115.547 285.185 120.875 275.346 125.427 266.68L122.771 265.285L120.116 263.89C115.631 272.428 110.157 282.533 106.251 291.527L109.003 292.722ZM122.771 265.285L125.427 266.681C128.137 261.523 131.48 254.987 134.38 250.298L131.828 248.72L129.277 247.142C126.234 252.062 122.756 258.866 120.116 263.89L122.771 265.285ZM131.828 248.72L130.006 251.103C132.937 253.343 136.824 257.225 140.036 260.084L142.03 257.843L144.025 255.602C141.275 253.155 136.791 248.737 133.65 246.336L131.828 248.72ZM142.03 257.843L140.058 260.103C144.233 263.747 148.616 267.146 153.184 270.287L154.884 267.815L156.584 265.344C152.205 262.331 148.004 259.074 144.003 255.582L142.03 257.843ZM154.884 267.815L153.181 270.285C162.368 276.621 173.971 282.893 186.579 280.84L186.097 277.879L185.615 274.918C175.499 276.565 165.632 271.583 156.587 265.346L154.884 267.815ZM186.097 277.879L186.671 280.823C197.016 278.804 204.132 269.484 201.358 258.595L198.451 259.336L195.544 260.077C197.359 267.199 192.929 273.489 185.522 274.934L186.097 277.879ZM198.451 259.336L201.358 258.595C198.228 246.303 189.185 237.138 181.252 229.178L179.127 231.296L177.002 233.414C185.125 241.564 192.882 249.624 195.544 260.076L198.451 259.336ZM179.127 231.296L181.252 229.178C174.251 222.155 167.288 216.79 159.127 211.421L157.479 213.928L155.83 216.434C163.739 221.637 170.36 226.75 177.002 233.414L179.127 231.296ZM157.479 213.928L160.098 215.389C162.036 211.916 164.499 208.61 167.012 205.15L164.585 203.387L162.158 201.623C159.73 204.966 157.012 208.606 154.859 212.466L157.479 213.928ZM164.585 203.387L166.582 201.148C162.625 197.618 158.217 193.317 154.665 188.602C151.089 183.856 148.566 178.932 148.031 174.145L145.05 174.478L142.068 174.81C142.773 181.125 146 187.072 149.873 192.213C153.77 197.385 158.51 201.988 162.588 205.625L164.585 203.387ZM145.05 174.478L148.035 174.182L147.623 170.013L144.638 170.308L141.652 170.603L142.064 174.773L145.05 174.478ZM144.638 170.308L147.625 170.031C147.254 166.018 147.144 162.518 147.043 158.377L144.044 158.45L141.045 158.523C141.146 162.68 141.259 166.354 141.65 170.584L144.638 170.308ZM144.044 158.45L147.044 158.501L147.115 154.313L144.115 154.262L141.116 154.211L141.044 158.399L144.044 158.45ZM144.115 154.262L147.115 154.246L147.069 145.249L144.069 145.265L141.069 145.28L141.115 154.277L144.115 154.262ZM144.069 145.265L147.063 145.459L147.344 141.118L144.351 140.924L141.357 140.73L141.076 145.071L144.069 145.265ZM144.351 140.924L147.351 140.935C147.378 133.846 147.903 124.979 148.389 117.769L145.396 117.567L142.402 117.366C141.916 124.576 141.379 133.613 141.351 140.912L144.351 140.924ZM145.396 117.567L148.389 117.769C149.828 96.4359 151.99 72.2395 156.918 51.4709L153.999 50.7783L151.08 50.0857C146.027 71.3811 143.843 96.0131 142.402 117.365L145.396 117.567ZM153.999 50.7783L156.914 51.4871L157.406 49.4626L154.491 48.7539L151.576 48.0452L151.084 50.0696L153.999 50.7783ZM154.491 48.7539L157.357 49.6428C157.773 48.3002 158.255 46.992 158.769 45.5511L155.943 44.543L153.118 43.5348C152.633 44.8949 152.09 46.3678 151.626 47.865L154.491 48.7539ZM155.943 44.543L154.038 46.8598C154.802 47.4886 155.545 48.1707 156.4 48.9257L158.386 46.6768L160.371 44.4278C159.63 43.7732 158.721 42.9435 157.849 42.2261L155.943 44.543ZM158.386 46.6768L156.132 48.6573C165.435 59.2416 174.93 68.9337 181.978 80.6508L184.549 79.1045L187.12 77.5582C179.708 65.2367 169.648 54.9468 160.639 44.6963L158.386 46.6768ZM184.549 79.1045L185.236 82.0247C187.913 81.3946 190.867 80.7332 193.613 80.0079L192.847 77.1074L192.081 74.2069C189.439 74.9046 186.63 75.5325 183.861 76.1843L184.549 79.1045ZM192.847 77.1074L190.016 78.1009C191.199 81.4722 192.964 87.2833 195.294 92.5009C196.469 95.1344 197.845 97.7548 199.459 99.9675C201.052 102.153 203.035 104.16 205.5 105.257L206.72 102.516L207.939 99.7746C206.826 99.2794 205.596 98.2011 204.307 96.4325C203.037 94.6912 201.859 92.4886 200.772 90.0548C198.577 85.1376 196.984 79.8365 195.677 76.114L192.847 77.1074ZM206.72 102.516L205.511 105.261C208.031 106.371 210.897 106.397 213.438 105.332L212.278 102.565L211.119 99.7986C210.096 100.227 208.943 100.217 207.929 99.7701L206.72 102.516ZM212.278 102.565L213.463 105.322C216.557 103.992 218.353 101.199 219.4 98.3301C220.456 95.4372 220.919 92.03 221.072 88.7037C221.377 82.0305 220.459 74.9545 219.785 71.2246L216.833 71.7578L213.881 72.291C214.511 75.7805 215.355 82.3716 215.078 88.429C214.939 91.4679 214.523 94.192 213.764 96.2731C212.996 98.3781 212.04 99.4025 211.094 99.8093L212.278 102.565ZM216.833 71.7578L217.651 74.6443C222.064 73.3942 224.622 72.9628 229.184 72.4972L228.88 69.5127L228.575 66.5282C223.732 67.0225 220.823 67.5098 216.015 68.8713L216.833 71.7578ZM228.88 69.5127L225.88 69.564C225.951 73.7117 226.103 78.3373 226.741 82.2666L229.702 81.7861L232.663 81.3056C232.103 77.8515 231.951 73.6202 231.879 69.4614L228.88 69.5127ZM229.702 81.7861L226.741 82.267C227.254 85.4254 228.551 91.0019 230.853 95.8242C232.002 98.2311 233.487 100.632 235.398 102.439C237.346 104.281 239.886 105.628 242.966 105.478L242.82 102.481L242.674 99.485C241.667 99.534 240.645 99.1425 239.519 98.0789C238.357 96.9795 237.255 95.3063 236.268 93.2392C234.298 89.1135 233.124 84.1433 232.663 81.3053L229.702 81.7861ZM242.82 102.481L242.966 105.478C247.025 105.28 249.88 102.661 251.811 99.6427C253.739 96.63 255.068 92.7587 256.039 88.9348C257.02 85.07 257.69 81.0281 258.199 77.5584C258.726 73.9755 259.057 71.212 259.395 69.5203L256.453 68.9326L253.511 68.345C253.134 70.2342 252.747 73.3893 252.263 76.6864C251.762 80.0968 251.128 83.8964 250.224 87.4582C249.309 91.0608 248.17 94.2011 246.757 96.4088C245.348 98.6111 243.99 99.4209 242.674 99.485L242.82 102.481ZM256.453 68.9326L256.416 71.9324C256.936 71.9388 258.219 71.9797 259.312 71.9787C259.886 71.9782 260.494 71.9673 261.052 71.9323C261.55 71.9011 262.224 71.8398 262.823 71.6691L262 68.7842L261.177 65.8993C261.241 65.881 261.116 65.9165 260.676 65.9441C260.294 65.9681 259.824 65.9782 259.307 65.9787C258.216 65.9797 257.259 65.9423 256.49 65.9328L256.453 68.9326ZM262 68.7842L262.183 71.7786C263.915 71.6727 265.052 71.6444 266.749 71.6977L266.843 68.6992L266.937 65.7007C265.022 65.6405 263.697 65.6748 261.817 65.7898L262 68.7842ZM266.843 68.6992L263.97 67.8342C262.786 71.7673 261.34 78.6961 261.442 85.0988C261.493 88.2906 261.93 91.5909 263.152 94.3716C264.409 97.2324 266.585 99.6955 270.037 100.65L270.837 97.7588L271.637 94.8673C270.351 94.5117 269.376 93.6221 268.645 91.9573C267.878 90.2123 267.486 87.8139 267.441 85.0033C267.352 79.4013 268.647 73.1106 269.715 69.5643L266.843 68.6992ZM270.837 97.7588L270.037 100.65C273.608 101.638 276.733 100.448 279.165 98.4505C281.509 96.5251 283.382 93.7359 284.863 90.939C287.84 85.3153 289.742 78.6448 290.582 75.7028L287.697 74.8789L284.813 74.055C283.957 77.0506 282.202 83.1399 279.56 88.1318C278.231 90.6426 276.804 92.6251 275.356 93.8144C273.996 94.9316 272.839 95.1999 271.636 94.8673L270.837 97.7588ZM287.697 74.8789L287.161 77.8305C289.537 78.2624 291.886 78.6461 294.104 79.1195L294.73 76.1855L295.357 73.2516C293.02 72.7529 290.464 72.3326 288.234 71.9273L287.697 74.8789ZM294.73 76.1855L297.343 77.6597C305.788 62.6919 312.394 53.1751 322.617 39.3096L320.202 37.5293L317.788 35.749C307.489 49.7172 300.728 59.4503 292.118 74.7114L294.73 76.1855Z" fill="black" mask="url(#path-3-inside-1_3229_10483)"/>
<path d="M197.297 360.283C204.155 341.449 219.441 297.57 238.216 288.876C244.164 286.126 250.335 285.947 256.466 288.212C267.1 292.142 273.255 301.265 277.732 311.186C282.379 321.48 286.192 332.98 289.068 343.897C290.497 349.325 291.602 354.835 292.944 360.283H251.07H243.928H197.297Z" fill="#F7CB46"/>
<path d="M137.44 157.276C141.074 157.234 159.076 156.722 159.954 160.674C159.67 161.317 158.795 162.726 158.042 162.718C151.223 162.642 144.215 161.618 137.369 161.465C116.13 161.221 93.1358 162.21 72.0535 165.488C69.6134 165.868 64.6715 167.636 64.1328 164.099C64.2683 163.701 64.3976 163.37 64.7032 163.067C69.2076 158.606 127.616 157.192 137.44 157.276Z" fill="#F3F6F5"/>
<path d="M137.96 173.323C142.187 171.879 162.566 166.674 166.049 168.222C166.897 169.164 166.665 168.631 166.801 169.863C166.413 170.746 165.943 171.497 164.961 171.782C161.576 172.764 157.488 173.172 154.003 173.827C148.752 174.867 143.538 176.09 138.371 177.493C120.103 183.463 101.81 189.168 84.4181 197.322C83.1102 197.935 82.3006 198.184 80.962 197.607C80.1876 196.524 80.2837 196.971 80.25 195.775C83.1301 190.122 129.463 176.086 137.96 173.323Z" fill="#F3F6F5"/>
<path d="M137.392 148.278C134.385 146.848 128.168 145.447 124.773 144.545C113.337 141.506 101.88 138.445 90.273 136.131C87.8007 135.639 79.0756 134.671 79.7303 131.1C80.0124 130.861 80.0206 130.826 80.4121 130.651C84.1703 128.977 130.413 141.703 137.674 143.938C142.888 145.431 148.318 146.987 153.47 148.71C154.96 149.208 156.734 149.935 156.54 151.674C155.87 152.502 155.213 152.893 154.14 153.037C152.879 153.207 139.173 149.114 137.392 148.278Z" fill="#F3F6F5"/>
<path d="M251.182 162.692C268.051 160.586 286.42 165.166 283.298 186.613C279.939 209.691 250.961 213.637 231.95 210.244C216.006 207.399 200.111 195.263 203.742 176.992C207.913 157.794 229.136 159.619 244.041 162.781L244.666 163.067L245.233 163.332C246.626 163.567 246.905 163.586 248.313 163.471C249.372 162.603 249.734 162.725 251.182 162.692Z" fill="#F7CB46"/>
<path d="M248.314 163.474C249.373 162.606 249.735 162.728 251.183 162.695C253.745 166.576 250.916 170.079 247.864 172.486C248.441 177.735 248.303 190.276 256.524 190.328C260.211 190.351 258.8 180.925 263.828 183.92C264.577 185.052 264.752 185.956 264.421 187.309C261.754 198.227 251.964 197.668 246.366 189.025C242.95 195.642 239.832 198.61 231.838 194.992C226.763 192.695 222.672 179.489 227.122 177.03C228.003 176.93 228.327 176.802 229.1 177.227C232.051 181.128 228.746 190.96 236.234 191.872C239.632 192.285 242.255 190.007 242.219 186.595C242.169 181.957 241.311 177.72 241.843 173.075C239.746 170.963 237.338 166.961 240 164.376C241.242 164.025 241.775 164.208 242.668 165.176L244.667 163.069L245.234 163.335C246.627 163.57 246.906 163.589 248.314 163.474Z" fill="#040605"/>
<path d="M244.663 163.068L245.229 163.334C246.623 163.569 246.902 163.588 248.309 163.473C247.672 165.359 247.325 167.193 245.672 168.244C243.781 168.172 243.49 166.754 242.664 165.175L244.663 163.068Z" fill="#8D5612"/>
<path d="M264.905 169.414C267.897 171.33 267.204 172.681 264.793 174.625C261.124 173.607 262.847 171.054 264.905 169.414Z" fill="#040605"/>
<path d="M269.13 177.07C272.308 177.472 273.181 179.518 270.975 181.961C268.355 180.978 267.298 179.486 269.13 177.07Z" fill="#040605"/>
<path d="M212.11 183.891C213.262 183.858 213.344 183.823 214.385 184.248C215.19 185.146 214.983 184.637 215.054 185.817C214.569 186.863 214.319 186.898 213.264 187.514C212.271 187.681 212.265 187.662 211.251 187.55C210.36 186.771 210.608 187.247 210.469 186.083C210.889 184.83 211.054 184.784 212.11 183.891Z" fill="#040605"/>
<path d="M215.43 175.201C217.002 175.324 217.819 175.817 218.115 177.389C217.593 178.667 217.807 178.246 216.509 179.156C214.749 179.226 213.903 178.96 213.727 177.116C214.312 175.778 214.129 176.193 215.43 175.201Z" fill="#040605"/>
<path d="M276.749 176.856C277.77 176.546 278.854 177.096 279.207 178.103C279.559 179.109 279.056 180.215 278.065 180.61C277.386 180.881 276.612 180.758 276.051 180.289C275.489 179.819 275.23 179.08 275.376 178.364C275.522 177.647 276.049 177.068 276.749 176.856Z" fill="#040605"/>
<path d="M223.233 167.85C224.08 167.962 224.106 168.071 224.772 168.585C225.572 170.653 224.347 171.29 222.581 171.913C221.497 171.332 220.972 171.084 220.914 169.792C221.49 168.695 222.148 168.474 223.233 167.85Z" fill="#040605"/>
<path d="M198.261 111.238C199.225 111.085 202.814 111.026 203.905 111.02C212.946 110.957 220.504 111.12 228.492 115.995C238.882 122.336 239.115 137.377 232.955 146.716C227.869 154.426 215.066 158.865 206.05 160.545L205.591 160.619C195.744 162.181 184.282 161.492 175.844 155.471C165.314 147.957 164.145 133.791 171.995 123.858C179.118 114.845 187.442 112.652 198.261 111.238Z" fill="#040605"/>
<path d="M207.403 116.14C209.322 115.639 212.539 116.051 214.51 116.275C200.45 125.223 203.259 142.552 215.318 151.682C213.001 152.84 211.368 153.451 208.96 154.345C199.2 156.948 185.542 156.84 177.736 149.617C170.441 142.868 171.097 132.554 177.871 125.693C185.4 118.068 197.131 116.345 207.403 116.14Z" fill="#F3F6F5"/>
<path d="M287.867 107.089C300.143 105.768 321.983 109.499 323.257 125.309C324.822 144.719 303.892 154.363 287.197 155.813C278.97 157.211 264.798 155.368 258.138 150.358C248.775 143.314 249.357 131.686 256.233 123.086C264.108 113.235 275.688 108.557 287.867 107.089Z" fill="#040605"/>
<path d="M287.922 112.601C289.32 111.836 293.737 112.472 295.232 113.186C295.376 114.608 293.152 118.391 292.632 120.012C288.95 131.51 291.867 140.214 301.754 146.58C299.473 147.762 297.697 148.663 295.156 149.188C285.329 151.439 269.516 152.586 261.025 146.152C254.089 140.314 256.478 130.632 261.818 124.791C268.818 117.135 277.696 113.364 287.922 112.601Z" fill="#F3F6F5"/>
<path d="M161.773 63.7305C165.896 64.492 174.935 77.9265 175.351 82.3829C175.491 83.88 169.619 86.689 168.206 87.4148C166.075 88.5423 162.271 90.8863 160.014 90.8413C156.857 89.3018 157.376 80.2189 157.497 77.029C157.675 72.3141 157.139 66.2487 161.773 63.7305Z" fill="#F7CB46"/>
<path d="M315.809 59.2617C320.168 60.8917 320.535 69.648 321.039 73.5539C322.085 81.6412 320.232 83.3596 312.347 81.5732C310.315 81.0034 307.737 80.48 306.241 79.0034C303.768 74.0206 311.214 62.1878 315.809 59.2617Z" fill="#F7CB46"/>
<path d="M346.184 155.22C354.752 155.038 363.461 154.97 372.027 155.232C377.213 155.39 415.147 157.634 417.409 159.873C417.792 160.254 417.777 160.462 417.913 160.961C417.529 162.141 417.799 161.839 416.952 162.583C414.126 162.867 401.578 161.201 397.678 160.857C384.382 159.725 371.051 159.053 357.708 158.842C354.176 158.821 348.807 158.612 345.463 158.894C336.822 159.289 328.64 159.851 320.066 161.136C318.506 161.37 318.201 159.308 318.519 158.141C321.607 155.472 341.828 154.935 346.184 155.22Z" fill="#F3F6F5"/>
<path d="M337.942 176.549C332.676 175.938 324.236 172.794 318.768 171.826C317.45 171.592 315.859 170.316 316.173 168.693C319.072 165.225 336.202 171.372 340.394 172.534C347.637 174.682 389.987 190.653 392.013 194.434C392.341 195.045 392.472 195.509 392.39 196.21C390.055 198.201 382.868 194.03 380.301 192.946C366.915 187.294 352.063 180 337.942 176.549Z" fill="#F3F6F5"/>
<path d="M348.065 138.599C363.302 132.354 379.458 128.179 395.181 123.474C397.403 122.809 400.063 121.685 401.435 124.101C401.37 124.713 401.227 125.654 400.65 125.919C395.104 128.463 385.079 130.898 379.42 132.557C371.147 134.956 362.952 137.616 354.846 140.532C353.426 141.03 348.979 142.506 347.998 143.074C344.035 144.466 332.069 150.042 329.676 150.371C328.573 150.073 328.55 149.994 327.752 149.117C327.105 145.338 344.506 139.737 348.065 138.599Z" fill="#F3F6F5"/>
<path d="M262 68.7801C263.911 63.2295 280.606 23.6169 282.934 22.2844C284.425 22.2859 283.952 22.0994 285.17 22.771C287.054 25.9399 280.239 37.5027 278.575 41.1152C274.389 50.189 270.476 59.3869 266.842 68.6958C265.037 68.6391 263.806 68.6697 262 68.7801Z" fill="#F3F6F5"/>
<path d="M227.241 8.85026C226.997 6.76391 225.549 -0.378852 229.582 0.0157256C231.974 1.67121 231.205 5.86385 231.857 8.14187C232.359 21.349 235.321 34.942 236.175 48.1485C236.235 49.0726 234.329 49.6246 233.501 49.5827C230.819 48.2968 230.813 40.0423 230.464 37.0493L227.241 8.85026Z" fill="#F3F6F5"/>
<path d="M196.753 25.8607C195.717 23.6772 192.329 18.7951 194.485 16.6602C197.25 16.8452 199.578 22.0432 200.7 24.2527C204.947 32.8067 209.1 41.4066 213.158 50.051C214.342 52.5355 217.977 58.259 217.506 60.6203C216.752 61.4943 214.733 62.1782 214.16 61.1621C207.759 49.8175 203.01 37.3121 196.753 25.8607Z" fill="#F3F6F5"/>
<path d="M256.286 4.03199C258.934 3.84492 259.767 4.72455 259.356 7.33275C257.045 22.021 254.975 36.7083 253.119 51.461C253.016 52.2819 252.509 53.0516 252.035 53.7084C249.448 53.7932 248.455 52.862 248.925 50.288C250.234 43.1125 253.137 8.15819 256.286 4.03199Z" fill="#F3F6F5"/>
<path d="M34.3125 341.344C35.8462 378.502 1.99648 341.727 1.99648 341.727L1.99658 345.174C0.720849 310.594 0.953926 291.675 1.99658 258.216C1.43185 241.335 1.37928 232.751 1.99658 219.909L7.74271 193.476L20.7673 176.621L33.1875 197.998C33.6092 199.841 37.7985 207.467 36.5625 223.311C36.5625 223.311 37.7897 249.405 37.0221 272.39C36.2545 295.374 32.7788 304.185 34.3125 341.344Z" fill="black" stroke="black" stroke-width="1.125"/>
<path d="M21.8563 230.963L22.0434 231.352C23.7544 234.97 26.822 251.03 29.4098 252.093C29.9583 252.323 30.5692 252.333 31.103 252.088C32.188 251.582 32.6939 250.309 33.0372 249.241C33.9873 246.292 33.635 242.688 33.637 239.611C33.6405 233.938 35.0463 225.442 36.5675 219.938C39.7763 239.099 37.7467 258.037 36.0411 277.342C35.0256 288.831 36.6529 292.189 32.0242 303.219C30.3999 307.093 28.9574 318.803 27.5674 323.709C25.9444 313.676 25.9498 303.495 24.5693 293.447C24.3633 291.949 23.3397 291.06 21.8264 290.901C18.3057 291.98 17.0495 299.733 16.2673 303.01C14.9589 308.494 13.882 314.055 12.5457 319.544C11.2877 309.848 11.4383 299.033 10.4696 289.21C10.1986 286.46 10.9726 282.591 7.31046 282.325C3.68139 283.393 2.70063 291.453 1.23438 294.745V250.789C3.24321 250.319 3.96626 249.655 4.47328 247.518C5.78239 242.008 6.33959 235.742 6.91057 230.146C8.24436 234.618 11.8872 252.558 14.9505 254.388C15.6588 254.812 15.9337 254.71 16.719 254.612C17.9963 253.846 18.2585 253.36 18.5903 251.893C20.0948 245.234 20.5304 237.557 21.8563 230.963Z" fill="#FAA640"/>
<path d="M1.23438 153.188C13.4986 158.46 20.1385 166.729 24.9364 178.986C27.2991 185.022 31.6267 192.376 31.6267 200.852C29.1711 204.78 28.7253 214.265 28.3066 219.146C26.7009 214.01 23.255 195.562 19.114 193.505C18.4621 193.181 17.779 193.208 17.1165 193.488C16.4014 193.79 15.8182 194.338 15.4726 195.033C14.8559 196.272 15.3365 233.094 15.3203 237.745L15.18 237.408C13.4565 233.186 10.4382 212.163 7.24892 210.693C6.50224 210.349 6.35708 210.458 5.65636 210.764C2.33939 214.344 2.88311 225.448 1.23438 230.809V153.188Z" fill="#FAA640"/>
<path d="M1.23438 334.411C2.79 328.558 3.86969 321.255 5.50352 315.883C5.93283 320.641 6.42701 344.883 9.07809 347.219C9.80391 347.858 10.4697 347.863 11.3826 347.756C13.1612 346.764 13.6958 345.333 14.2315 343.534C15.208 340.253 17.9918 321.597 19.4725 319.675L19.867 319.885C21.3107 325.732 20.9304 334.339 21.8314 340.518C22.263 343.478 21.7446 349.238 26.7954 348.875C27.7135 348.456 28.7224 347.597 28.8754 346.596C30.0341 339.011 30.6155 333.107 33.0927 325.645C34.0669 336.455 33.4513 348.134 33.6531 359.159H1.23438V334.411Z" fill="#FAA640"/>
<path d="M33.75 359.438H1.6875V153C1.6875 153 39.9364 167.625 37.6875 239.062C35.4386 310.5 33.75 359.438 33.75 359.438Z" stroke="black" stroke-width="3.375"/>
</svg>
