<svg width="125" height="147" viewBox="0 0 125 147" fill="none" xmlns="http://www.w3.org/2000/svg">
<path d="M61.5533 0C62.7471 0.0576035 65.3442 0.298938 65.7107 1.30501C70.455 14.3443 68.0883 41.6364 73.4752 53.7292C78.6923 65.4415 118.88 62.1144 124.468 67.5838C125.07 69.3089 125.054 68.4816 124.686 70.1422C120.861 74.375 85.2422 77.0407 78.2911 82.4047C71.3499 87.7619 71.7491 94.9941 70.8503 103.077C69.9892 110.611 69.2026 118.152 68.4935 125.701C68.0099 131.045 67.7049 136.689 66.7604 141.963C66.2827 144.632 65.4773 145.162 63.3519 146.544C61.6357 146.647 61.735 146.602 60.0983 146.004C55.6549 141.848 55.1543 100.833 52.8393 92.1109C48.0195 73.9539 26.0437 77.9633 11.3638 73.2021C7.99199 72.1086 0.805456 72.1027 0 68.4131C3.64094 62.5663 46.627 65.0701 50.7407 54.9408C55.2626 43.8084 55.0898 27.6507 57.0553 15.5509C57.9362 10.1273 57.1923 4.06303 61.5533 0Z" fill="#080607"/>
<path d="M62.0482 4.22656C62.7781 4.56027 63.6829 4.97738 63.7842 5.90301C70.5139 67.4245 59.1839 59.6282 120.076 69.0672C107.79 71.6782 95.633 73.6626 83.4002 76.7474C67.2126 80.8302 68.2326 95.0653 66.7577 108.843C65.5729 119.868 64.4665 130.9 63.4366 141.939L62.2657 142.523C57.7438 140.263 61.4989 86.9501 50.018 80.4479C37.5985 73.4143 19.9589 70.8003 6.70312 69.246C17.9716 66.3996 30.6235 66.4373 42.1223 63.7429C56.6553 60.523 55.7902 51.8875 57.7329 40.192C59.6179 28.8451 59.6328 15.1027 62.0482 4.22656Z" fill="#F7CB46"/>
</svg>
