<svg width="62" height="62" viewBox="0 0 62 62" fill="none" xmlns="http://www.w3.org/2000/svg">
<rect x="1.5" y="1.5" width="59" height="59" rx="18.75" fill="#F7CB46"/>
<rect x="1.5" y="1.5" width="59" height="59" rx="18.75" stroke="#F1F3F2" stroke-width="3"/>
<mask id="path-2-outside-1_3313_5089" maskUnits="userSpaceOnUse" x="16" y="9" width="27" height="44" fill="black">
<rect fill="white" x="16" y="9" width="27" height="44"/>
<path d="M24.7772 35.4896C24.7772 27.7124 31.3016 28.13 33.0763 23.9022C33.9636 21.8143 32.3455 19.6743 30.1533 19.6743C27.1782 19.6743 26.2908 22.4407 23.1069 22.4407C20.7059 22.4407 18.9312 20.8748 18.9312 18.6304C18.9312 15.2899 23.942 12.4713 29.9967 12.4713C36.208 12.4713 40.4881 16.5948 40.4881 22.4407C40.4881 30.3222 32.6065 29.5393 32.6065 34.0281C32.6065 35.4374 33.3894 36.3769 33.3894 37.734C33.3894 40.2394 31.3016 41.4921 29.5792 41.4921C26.1864 41.4921 24.7772 38.4647 24.7772 35.4896ZM33.2329 45.5634C33.5982 47.599 32.4499 50.0522 29.8401 50.0522C29.4226 50.0522 29.005 49.9478 28.5353 49.8434C26.0299 49.2171 25.4035 45.9809 26.6562 44.2063C27.3347 43.2146 28.4831 42.7448 29.6836 42.7448C31.2494 42.7448 32.8675 43.6321 33.2329 45.5634Z"/>
</mask>
<path d="M24.7772 35.4896C24.7772 27.7124 31.3016 28.13 33.0763 23.9022C33.9636 21.8143 32.3455 19.6743 30.1533 19.6743C27.1782 19.6743 26.2908 22.4407 23.1069 22.4407C20.7059 22.4407 18.9312 20.8748 18.9312 18.6304C18.9312 15.2899 23.942 12.4713 29.9967 12.4713C36.208 12.4713 40.4881 16.5948 40.4881 22.4407C40.4881 30.3222 32.6065 29.5393 32.6065 34.0281C32.6065 35.4374 33.3894 36.3769 33.3894 37.734C33.3894 40.2394 31.3016 41.4921 29.5792 41.4921C26.1864 41.4921 24.7772 38.4647 24.7772 35.4896ZM33.2329 45.5634C33.5982 47.599 32.4499 50.0522 29.8401 50.0522C29.4226 50.0522 29.005 49.9478 28.5353 49.8434C26.0299 49.2171 25.4035 45.9809 26.6562 44.2063C27.3347 43.2146 28.4831 42.7448 29.6836 42.7448C31.2494 42.7448 32.8675 43.6321 33.2329 45.5634Z" fill="#FF80AB"/>
<path d="M33.0763 23.9022L30.7754 22.9243L30.7711 22.9346L33.0763 23.9022ZM33.2329 45.5634L35.6935 45.1217L35.6915 45.1102L35.6893 45.0986L33.2329 45.5634ZM28.5352 49.8434L27.9289 52.2688L27.9608 52.2767L27.9929 52.2839L28.5352 49.8434ZM26.6562 44.2063L28.6986 45.648L28.7092 45.6331L28.7195 45.618L26.6562 44.2063ZM24.7772 35.4896H27.2772C27.2772 33.9134 27.6024 32.9209 27.9957 32.2316C28.3997 31.5236 28.9767 30.956 29.7657 30.3615C30.1696 30.0572 30.59 29.7736 31.0757 29.4435C31.54 29.128 32.0682 28.7671 32.5757 28.3682C33.6064 27.5581 34.7078 26.4747 35.3814 24.8697L33.0763 23.9022L30.7711 22.9346C30.5575 23.4436 30.1778 23.8933 29.486 24.4371C29.1323 24.7151 28.7389 24.9863 28.2653 25.3081C27.8132 25.6154 27.2793 25.9745 26.7567 26.3683C25.6928 27.17 24.5278 28.2205 23.653 29.7536C22.7675 31.3054 22.2772 33.1772 22.2772 35.4896H24.7772ZM33.0763 23.9022L35.3771 24.88C37.0469 20.951 33.9232 17.1743 30.1533 17.1743V19.6743V22.1743C30.4186 22.1743 30.6223 22.3 30.7342 22.4568C30.7881 22.5325 30.8134 22.6055 30.8211 22.6678C30.828 22.7233 30.826 22.8054 30.7754 22.9243L33.0763 23.9022ZM30.1533 19.6743V17.1743C27.7848 17.1743 26.22 18.3502 25.2784 19.0069C24.3066 19.6845 23.8541 19.9407 23.1069 19.9407V22.4407V24.9407C25.5436 24.9407 27.1268 23.8136 28.1384 23.1081C29.1803 22.3815 29.5467 22.1743 30.1533 22.1743V19.6743ZM23.1069 22.4407V19.9407C22.4483 19.9407 22.0247 19.73 21.7947 19.5222C21.5829 19.3309 21.4312 19.0556 21.4312 18.6304H18.9312H16.4312C16.4312 22.4881 19.5699 24.9407 23.1069 24.9407V22.4407ZM18.9312 18.6304H21.4312C21.4312 18.2958 21.7293 17.4207 23.4124 16.4809C24.9927 15.5983 27.3262 14.9713 29.9967 14.9713V12.4713V9.97129C26.6126 9.97129 23.4133 10.7535 20.9746 12.1154C18.6385 13.42 16.4312 15.6245 16.4312 18.6304H18.9312ZM29.9967 12.4713V14.9713C32.5418 14.9713 34.5207 15.8082 35.8459 17.0726C37.1632 18.3294 37.9881 20.1518 37.9881 22.4407H40.4881H42.9881C42.9881 18.8836 41.6729 15.7213 39.2974 13.4549C36.9297 11.1961 33.663 9.97129 29.9967 9.97129V12.4713ZM40.4881 22.4407H37.9881C37.9881 23.9586 37.6197 24.8953 37.1783 25.5554C36.706 26.2618 36.035 26.8269 35.1339 27.4446C34.3857 27.9574 33.0583 28.751 32.1437 29.5939C31.0554 30.5969 30.1065 32.0118 30.1065 34.0281H32.6065H35.1065C35.1065 33.8 35.1428 33.6294 35.5323 33.2705C36.0955 32.7514 36.7385 32.4065 37.9607 31.5688C39.03 30.8359 40.3293 29.8384 41.3348 28.3346C42.3712 26.7845 42.9881 24.8636 42.9881 22.4407H40.4881ZM32.6065 34.0281H30.1065C30.1065 35.1935 30.4408 36.141 30.6289 36.6992C30.8399 37.3251 30.8895 37.5252 30.8895 37.734H33.3895H35.8895C35.8895 36.5857 35.5475 35.6375 35.367 35.1021C35.1637 34.4989 35.1065 34.272 35.1065 34.0281H32.6065ZM33.3895 37.734H30.8895C30.8895 38.2192 30.7161 38.4736 30.5116 38.6473C30.2496 38.8699 29.8788 38.9921 29.5792 38.9921V41.4921V43.9921C32.2846 43.9921 35.8895 41.9868 35.8895 37.734H33.3895ZM29.5792 41.4921V38.9921C28.753 38.9921 28.303 38.6802 27.9656 38.1897C27.5559 37.5941 27.2772 36.6336 27.2772 35.4896H24.7772H22.2772C22.2772 37.3208 22.703 39.3615 23.8461 41.0234C25.0616 42.7904 27.0126 43.9921 29.5792 43.9921V41.4921ZM33.2329 45.5634L30.7722 46.005C30.8518 46.4485 30.7493 46.9133 30.56 47.2026C30.4758 47.3314 30.3874 47.4076 30.304 47.4542C30.2267 47.4974 30.0884 47.5522 29.8401 47.5522V50.0522V52.5522C32.0388 52.5522 33.743 51.4704 34.7443 49.9397C35.6903 48.4935 35.9793 46.7138 35.6935 45.1217L33.2329 45.5634ZM29.8401 50.0522V47.5522C29.7653 47.5522 29.674 47.5355 29.0776 47.4029L28.5352 49.8434L27.9929 52.2839C28.336 52.3601 29.0798 52.5522 29.8401 52.5522V50.0522ZM28.5352 49.8434L29.1416 47.4181C28.9347 47.3663 28.7158 47.2133 28.5924 46.7761C28.4515 46.277 28.572 45.8274 28.6986 45.648L26.6562 44.2063L24.6138 42.7646C23.4878 44.3598 23.2951 46.4156 23.7805 48.1348C24.2834 49.916 25.6304 51.6941 27.9289 52.2688L28.5352 49.8434ZM26.6562 44.2063L28.7195 45.618C28.8265 45.4615 29.102 45.2448 29.6836 45.2448V42.7448V40.2448C27.8641 40.2448 25.843 40.9676 24.5929 42.7946L26.6562 44.2063ZM29.6836 42.7448V45.2448C30.0139 45.2448 30.2838 45.3412 30.4514 45.4614C30.5825 45.5554 30.7148 45.7025 30.7764 46.0281L33.2329 45.5634L35.6893 45.0986C35.0468 41.7029 32.1365 40.2448 29.6836 40.2448V42.7448Z" fill="black" mask="url(#path-2-outside-1_3313_5089)"/>
</svg>
