<svg width="1440" height="184" viewBox="0 0 1440 184" fill="none" xmlns="http://www.w3.org/2000/svg">
<path d="M84.497 122.49C30.3231 118.784 -6.75 19.5815 -6.75 19.5815V1.125H1447.5C1447.5 1.125 1498.97 128.687 1447.5 172.826C1380.86 229.971 1344.68 7.10011 1263.86 42.5122C1218.23 62.5056 1236.75 135.193 1187.45 143.184C1132.91 152.021 1132.98 68.7557 1080.23 52.5794C1010.99 31.3477 971.745 107.398 900.017 96.763C848.678 89.1507 828.273 26.1172 779.115 42.5122C734.19 57.4955 760.07 131.639 714.101 143.184C653.013 158.526 675.851 26.2566 613.159 19.5815C553.856 13.2671 548.866 112.068 489.406 107.389C435.709 103.164 438.097 24.6062 384.472 19.5815C329.717 14.4509 316.44 102.26 262.999 89.4923C224.13 80.2063 228.856 26.2409 189.431 19.5815C132.319 9.93431 142.31 126.446 84.497 122.49Z" fill="#F7CB46" stroke="#040605" stroke-width="3"/>
</svg>
