<svg width="641" height="417" viewBox="0 0 641 417" fill="none" xmlns="http://www.w3.org/2000/svg">
<path d="M577.553 270C578.747 270.058 581.344 270.299 581.711 271.305C586.455 284.344 584.088 311.636 589.475 323.729C594.692 335.442 634.88 332.114 640.468 337.584C641.07 339.309 641.054 338.482 640.686 340.142C636.861 344.375 601.242 347.041 594.291 352.405C587.35 357.762 587.749 364.994 586.85 373.077C585.989 380.611 585.203 388.152 584.494 395.701C584.01 401.045 583.705 406.689 582.76 411.963C582.283 414.632 581.477 415.162 579.352 416.544C577.636 416.647 577.735 416.602 576.098 416.004C571.655 411.848 571.154 370.833 568.839 362.111C564.019 343.954 542.044 347.963 527.364 343.202C523.992 342.109 516.805 342.103 516 338.413C519.641 332.566 562.627 335.07 566.741 324.941C571.263 313.808 571.09 297.651 573.055 285.551C573.936 280.127 573.192 274.063 577.553 270Z" fill="#080607"/>
<path d="M578.048 274.227C578.778 274.56 579.683 274.977 579.784 275.903C586.514 337.425 575.184 329.628 636.076 339.067C623.79 341.678 611.633 343.663 599.4 346.747C583.213 350.83 584.233 365.065 582.758 378.843C581.573 389.868 580.467 400.9 579.437 411.939L578.266 412.523C573.744 410.263 577.499 356.95 566.018 350.448C553.598 343.414 535.959 340.8 522.703 339.246C533.972 336.4 546.623 336.437 558.122 333.743C572.655 330.523 571.79 321.888 573.733 310.192C575.618 298.845 575.633 285.103 578.048 274.227Z" fill="#F7CB46"/>
<path d="M61.5533 0C62.7471 0.0576035 65.3442 0.298938 65.7107 1.30501C70.455 14.3443 68.0883 41.6364 73.4752 53.7292C78.6923 65.4415 118.88 62.1144 124.468 67.5838C125.07 69.3089 125.054 68.4816 124.686 70.1422C120.861 74.375 85.2422 77.0407 78.2911 82.4047C71.3499 87.7619 71.7491 94.9941 70.8503 103.077C69.9892 110.611 69.2026 118.152 68.4935 125.701C68.0099 131.045 67.7049 136.689 66.7604 141.963C66.2827 144.632 65.4773 145.162 63.3519 146.544C61.6357 146.647 61.735 146.602 60.0983 146.004C55.6549 141.848 55.1543 100.833 52.8393 92.1109C48.0195 73.9539 26.0437 77.9633 11.3638 73.2021C7.99199 72.1086 0.805456 72.1027 0 68.4131C3.64094 62.5663 46.627 65.0701 50.7407 54.9408C55.2626 43.8084 55.0898 27.6507 57.0553 15.5509C57.9362 10.1273 57.1923 4.06303 61.5533 0Z" fill="#080607"/>
<path d="M62.0482 4.22656C62.7781 4.56027 63.6829 4.97738 63.7842 5.90301C70.5139 67.4245 59.1839 59.6282 120.076 69.0672C107.79 71.6782 95.633 73.6626 83.4002 76.7474C67.2126 80.8302 68.2326 95.0653 66.7577 108.843C65.5729 119.868 64.4665 130.9 63.4366 141.939L62.2657 142.523C57.7438 140.263 61.4989 86.9501 50.018 80.4479C37.5985 73.4143 19.9589 70.8003 6.70312 69.246C17.9716 66.3996 30.6235 66.4373 42.1223 63.7429C56.6553 60.523 55.7902 51.8875 57.7329 40.192C59.6179 28.8451 59.6328 15.1027 62.0482 4.22656Z" fill="#F7CB46"/>
</svg>
