<svg width="1440" height="865" viewBox="0 0 1440 865" fill="none" xmlns="http://www.w3.org/2000/svg">
<g clip-path="url(#clip0_3710_1625)">
<path d="M1405.21 674.297C1401.21 685.613 1398.83 701.238 1397.88 717.094C1396.93 732.934 1397.41 748.867 1399.09 760.754L1399.09 760.756C1405.7 807.951 1430.5 850.643 1468.14 879.733L1476.85 843.805C1445.29 819.825 1427.85 779.867 1423.23 741.621L1423.22 741.567L1423.22 741.512L1423.13 739.844C1419.92 670.27 1453.4 607.78 1519.7 581.861C1517.64 580.297 1515.68 578.978 1513.83 577.746C1511.33 576.087 1508.95 574.545 1506.82 572.802C1502.84 569.535 1499.76 565.572 1497.69 558.643C1449.46 587.195 1422.42 620.441 1405.23 674.25L1405.22 674.273L1405.21 674.297Z" fill="#FF80AB" stroke="black" stroke-width="3.31024"/>
<path d="M1429.93 674.276C1428.08 683.194 1426.24 691.772 1424.9 699.434C1423.55 707.141 1422.75 713.791 1422.95 718.83L1422.96 719.033L1422.91 719.232C1419.26 736.898 1423.53 762.034 1433.66 785.981C1443.41 809.037 1458.46 830.663 1476.62 843.221C1477.01 840.505 1477.21 837.093 1477.28 833.222C1477.39 828.131 1477.29 822.378 1477.2 816.581C1477.11 810.801 1477.04 804.978 1477.2 799.81C1477.35 795.116 1477.7 790.848 1478.45 787.599C1475.89 784.776 1473.5 781.803 1471.29 778.695L1471.29 778.696C1453.25 753.547 1449.68 725.444 1454.43 695.741L1454.44 695.717L1454.44 695.694C1462.68 652.314 1488.32 623.234 1529.27 608.538C1528.07 601.669 1526.98 593.968 1524.73 587.864C1523.91 585.633 1522.96 584.247 1522 583.403C1521.07 582.583 1520.04 582.195 1518.86 582.109C1516.33 581.923 1513.21 583.1 1509.4 584.749C1470.76 601.478 1442.84 634.417 1429.93 674.276Z" fill="#C1BAFB" stroke="black" stroke-width="3.31024"/>
<path d="M1429.93 674.276C1428.08 683.194 1426.24 691.772 1424.9 699.434C1423.55 707.141 1422.75 713.791 1422.95 718.83L1422.96 719.033L1422.91 719.232C1419.26 736.898 1423.53 762.034 1433.66 785.981C1443.41 809.037 1458.46 830.663 1476.62 843.221C1477.01 840.505 1477.21 837.093 1477.28 833.222C1477.39 828.131 1477.29 822.378 1477.2 816.581C1477.11 810.801 1477.04 804.978 1477.2 799.81C1477.35 795.116 1477.7 790.848 1478.45 787.599C1475.89 784.776 1473.5 781.803 1471.29 778.695L1471.29 778.696C1453.25 753.547 1449.68 725.444 1454.43 695.741L1454.44 695.717L1454.44 695.694C1462.68 652.314 1488.32 623.234 1529.27 608.538C1528.07 601.669 1526.98 593.968 1524.73 587.864C1523.91 585.633 1522.96 584.247 1522 583.403C1521.07 582.583 1520.04 582.195 1518.86 582.109C1516.33 581.923 1513.21 583.1 1509.4 584.749C1470.76 601.478 1442.84 634.417 1429.93 674.276Z" fill="#E8BBF5" stroke="black" stroke-width="3.31024"/>
<path d="M1125.17 685.869C1126.11 685.914 1128.14 686.103 1128.43 686.891C1132.14 697.101 1130.29 718.472 1134.5 727.941C1138.59 737.112 1170.04 734.507 1174.41 738.789C1174.88 740.14 1174.87 739.493 1174.58 740.793C1171.59 744.107 1143.71 746.195 1138.27 750.395C1132.84 754.59 1133.15 760.253 1132.45 766.582C1131.77 772.481 1131.16 778.386 1130.6 784.297C1130.23 788.482 1129.99 792.901 1129.25 797.031C1128.87 799.121 1128.24 799.536 1126.58 800.618C1125.24 800.698 1125.31 800.663 1124.03 800.195C1120.56 796.94 1120.16 764.825 1118.35 757.995C1114.58 743.778 1097.38 746.917 1085.89 743.189C1083.25 742.333 1077.63 742.328 1077 739.439C1079.85 734.861 1113.49 736.821 1116.71 728.89C1120.25 720.173 1120.11 707.521 1121.65 698.046C1122.34 693.799 1121.76 689.051 1125.17 685.869Z" fill="#080607"/>
<path d="M1125.56 689.178C1126.14 689.439 1126.84 689.766 1126.92 690.49C1132.19 738.664 1123.32 732.559 1170.98 739.95C1161.36 741.995 1151.85 743.548 1142.27 745.964C1129.61 749.161 1130.4 760.307 1129.25 771.096C1128.32 779.728 1127.46 788.367 1126.65 797.011L1125.73 797.468C1122.2 795.699 1125.13 753.953 1116.15 748.862C1106.43 743.354 1092.62 741.307 1082.25 740.09C1091.07 737.861 1100.97 737.891 1109.97 735.781C1121.34 733.26 1120.67 726.498 1122.19 717.34C1123.66 708.455 1123.67 697.694 1125.56 689.178Z" fill="#F7CB46"/>
<path d="M191.292 61.679C195.803 61.3801 199.624 62.8935 203.179 65.2923C206.914 67.8124 210.223 71.2073 213.729 74.4522L214.461 75.1308L215.298 74.5852C216.576 73.7521 217.877 72.9557 219.202 72.199L219.203 72.1997C221.04 71.1663 223.921 69.7369 226.811 68.7848C228.256 68.3089 229.666 67.9646 230.927 67.8376C232.044 67.7251 232.962 67.7912 233.663 68.0214L233.951 68.1306C236.063 69.0448 237.249 70.5105 237.861 72.3186C238.492 74.181 238.528 76.4612 238.171 78.934C237.455 83.8947 235.246 89.1273 233.996 92.3314L233.672 93.1641L234.341 93.7556C236.853 95.9758 241.467 100.827 244.616 106.138C246.191 108.794 247.354 111.489 247.747 113.974C248.136 116.434 247.765 118.613 246.374 120.411L246.373 120.411C245.575 121.442 244.268 122.101 242.441 122.442C240.614 122.784 238.42 122.778 236.053 122.608C233.684 122.439 231.257 122.116 228.916 121.857C226.621 121.603 224.385 121.407 222.56 121.54L221.949 121.584L221.6 122.09L220.283 123.995L220.233 124.068L220.193 124.147C218.788 126.933 216.039 132.531 212.599 136.738C210.873 138.848 209.068 140.489 207.28 141.292C205.574 142.058 203.889 142.07 202.133 140.919C199.357 139.101 197.442 135.261 196.034 130.688C194.64 126.157 193.856 121.324 193.073 117.707L192.884 116.834L192 116.71C188.512 116.218 181.946 115.518 176.697 113.443C174.075 112.406 171.947 111.086 170.69 109.424C169.491 107.839 168.996 105.832 169.838 103.106C170.787 100.034 173.867 97.2164 177.809 94.6814C181.706 92.176 186.103 90.15 189.379 88.4852L190.321 88.0072L190.029 86.9914C188.688 82.3103 187.417 77.6666 187.328 73.2609C187.243 69.0609 188.236 65.1421 191.292 61.679Z" fill="#E8BBF5" stroke="black" stroke-width="2.56041"/>
<path d="M68.6312 111.859C61.3126 106.881 50.6006 102.238 39.4351 98.5731C28.2834 94.9127 16.7984 92.2662 7.9921 91.2311L7.99079 91.2315C-26.842 87.1026 -61.8764 96.7208 -89.6916 117.982L-66.1345 130.709C-42.95 112.644 -11.0394 107.696 17.214 111.586L17.2629 111.593L17.3114 111.603L18.5239 111.858C68.8928 122.651 107.356 158.302 113.621 210.556C114.963 209.484 116.153 208.441 117.277 207.44C118.932 205.967 120.497 204.54 122.16 203.335C125.227 201.113 128.616 199.651 133.824 199.421C122.476 159.736 103.808 134.235 68.6696 111.884L68.6508 111.872L68.6312 111.859Z" fill="#FF80AB" stroke="black" stroke-width="3"/>
<path d="M64.0057 129.585C57.9693 126.582 52.1858 123.65 46.9597 121.252C41.696 118.837 37.1085 117.017 33.4923 116.219L33.3127 116.178L33.1483 116.097C21.2562 110.182 2.51257 108.502 -16.5177 111.246C-34.6697 113.863 -52.7718 120.463 -65.1282 130.895C-63.3378 131.621 -61.094 132.345 -58.5367 133.074C-54.9159 134.105 -50.7824 135.115 -46.6121 136.145C-42.4573 137.172 -38.267 138.217 -34.59 139.31C-31.319 140.283 -28.3577 141.321 -26.1582 142.458C-24.0215 141.352 -21.8313 140.353 -19.594 139.468L-18.524 139.055C2.96941 130.834 23.8425 133.587 44.2631 142.611L44.2828 142.62L44.302 142.629C73.8356 156.713 89.8806 180.569 92.7509 212.659C97.8504 213.094 103.437 213.733 108.132 213.278C109.856 213.111 110.979 212.705 111.715 212.211C112.423 211.735 112.861 211.12 113.128 210.341C113.713 208.635 113.473 206.251 113.008 203.196C108.323 172.447 90.0515 146.304 64.0057 129.585Z" fill="#C1BAFB" stroke="black" stroke-width="3"/>
<path d="M64.0057 129.585C57.9693 126.582 52.1858 123.65 46.9597 121.252C41.696 118.837 37.1085 117.017 33.4923 116.219L33.3127 116.178L33.1483 116.097C21.2562 110.182 2.51257 108.502 -16.5177 111.246C-34.6697 113.863 -52.7718 120.463 -65.1282 130.895C-63.3378 131.621 -61.094 132.345 -58.5367 133.074C-54.9159 134.105 -50.7824 135.115 -46.6121 136.145C-42.4573 137.172 -38.267 138.217 -34.59 139.31C-31.319 140.283 -28.3577 141.321 -26.1582 142.458C-24.0215 141.352 -21.8313 140.353 -19.594 139.468L-18.524 139.055C2.96941 130.834 23.8425 133.587 44.2631 142.611L44.2828 142.62L44.302 142.629C73.8356 156.713 89.8806 180.569 92.7509 212.659C97.8504 213.094 103.437 213.733 108.132 213.278C109.856 213.111 110.979 212.705 111.715 212.211C112.423 211.735 112.861 211.12 113.128 210.341C113.713 208.635 113.473 206.251 113.008 203.196C108.323 172.447 90.0515 146.304 64.0057 129.585Z" fill="#E8BBF5" stroke="black" stroke-width="3"/>
<path d="M143.562 193.596C141.86 192.673 140.422 192.256 139.166 192.165C137.763 192.064 136.48 192.362 135.191 192.968C133.879 193.585 132.574 194.515 131.141 195.671C130.428 196.246 129.702 196.862 128.933 197.513C128.169 198.159 127.367 198.837 126.524 199.514L126.523 199.513C124.05 201.5 121.8 203.602 119.302 205.739C116.851 207.836 114.257 209.878 111.314 211.516L111.003 211.688L110.648 211.704C108.424 211.797 105.344 211.618 101.991 211.399C98.6013 211.178 94.8792 210.912 91.2611 210.811C87.6359 210.71 84.1905 210.777 81.3612 211.202C78.6267 211.612 76.7711 212.315 75.7889 213.239C75.1241 214.997 75.4279 217.085 76.6234 219.563C77.8699 222.147 79.9657 224.904 82.38 227.702C84.8282 230.539 87.3794 233.175 89.7156 235.801C91.8113 238.157 93.7178 240.488 94.7001 242.566L94.8835 242.978C97.0648 248.188 96.6853 254.585 96.0886 260.808C95.4919 267.03 94.6716 273.147 95.413 278.612C96.0136 279.28 96.7752 280.006 97.4995 280.722C99.1067 281.198 100.935 280.783 103.124 279.504C105.445 278.148 107.897 275.979 110.494 273.51C113.041 271.088 115.737 268.367 118.393 266.131C121.038 263.903 123.848 261.974 126.723 261.243L126.723 261.242C131.595 260.004 136.231 259.845 140.694 259.891C145.208 259.938 149.43 260.187 153.776 259.834C157.341 259.543 159.694 258.921 161.168 258.134C162.581 257.379 163.107 256.525 163.253 255.652C163.416 254.675 163.153 253.377 162.361 251.713C161.58 250.073 160.366 248.247 158.875 246.283C157.389 244.326 155.669 242.285 153.9 240.208C152.14 238.141 150.328 236.034 148.702 233.99C147.078 231.947 145.6 229.917 144.512 227.988C143.439 226.083 142.661 224.131 142.615 222.272L142.616 222.254L142.615 222.236C142.612 217.479 143.065 212.372 143.394 207.389C143.708 202.643 143.913 197.975 143.562 193.596Z" fill="#F6C041" stroke="black" stroke-width="3"/>
<path d="M1378.59 284.341C1385.91 289.319 1396.62 293.961 1407.78 297.626C1418.94 301.286 1430.42 303.933 1439.23 304.968L1439.23 304.968C1474.06 309.097 1509.1 299.478 1536.91 278.217L1513.35 265.49C1490.17 283.555 1458.26 288.503 1430 284.613L1429.96 284.606L1429.91 284.596L1428.69 284.341C1378.33 273.548 1339.86 237.897 1333.6 185.643C1332.26 186.715 1331.07 187.758 1329.94 188.759C1328.29 190.232 1326.72 191.659 1325.06 192.864C1321.99 195.086 1318.6 196.548 1313.39 196.778C1324.74 236.463 1343.41 261.964 1378.55 284.315L1378.57 284.328L1378.59 284.341Z" fill="#FF80AB" stroke="black" stroke-width="3"/>
<path d="M1383.21 266.616C1389.25 269.619 1395.03 272.551 1400.26 274.949C1405.52 277.364 1410.11 279.184 1413.73 279.983L1413.91 280.023L1414.07 280.105C1425.96 286.019 1444.71 287.699 1463.74 284.955C1481.89 282.338 1499.99 275.738 1512.35 265.306C1510.56 264.58 1508.31 263.856 1505.76 263.128C1502.13 262.096 1498 261.086 1493.83 260.056C1489.68 259.029 1485.49 257.984 1481.81 256.891C1478.54 255.918 1475.58 254.88 1473.38 253.743C1471.24 254.849 1469.05 255.849 1466.81 256.734L1465.74 257.146C1444.25 265.367 1423.38 262.614 1402.96 253.59L1402.94 253.582L1402.92 253.572C1373.38 239.488 1357.34 215.632 1354.47 183.542C1349.37 183.107 1343.78 182.468 1339.09 182.923C1337.36 183.09 1336.24 183.496 1335.5 183.99C1334.8 184.466 1334.36 185.081 1334.09 185.861C1333.51 187.566 1333.75 189.951 1334.21 193.005C1338.9 223.754 1357.17 249.897 1383.21 266.616Z" fill="#C1BAFB" stroke="black" stroke-width="3"/>
<path d="M1383.21 266.614C1389.25 269.617 1395.03 272.549 1400.26 274.947C1405.52 277.363 1410.11 279.182 1413.73 279.981L1413.91 280.021L1414.07 280.103C1425.96 286.017 1444.71 287.697 1463.74 284.953C1481.89 282.336 1499.99 275.736 1512.35 265.304C1510.56 264.578 1508.31 263.854 1505.76 263.126C1502.13 262.094 1498 261.084 1493.83 260.054C1489.68 259.027 1485.49 257.982 1481.81 256.889C1478.54 255.916 1475.58 254.879 1473.38 253.741C1471.24 254.847 1469.05 255.847 1466.81 256.732L1465.74 257.144C1444.25 265.365 1423.38 262.613 1402.96 253.588L1402.94 253.58L1402.92 253.57C1373.38 239.486 1357.34 215.631 1354.47 183.54C1349.37 183.105 1343.78 182.466 1339.09 182.921C1337.36 183.088 1336.24 183.494 1335.5 183.988C1334.8 184.464 1334.36 185.079 1334.09 185.859C1333.51 187.564 1333.75 189.949 1334.21 193.003C1338.9 223.752 1357.17 249.895 1383.21 266.614Z" fill="#E8BBF5" stroke="black" stroke-width="3"/>
<path d="M1303.66 202.605C1305.37 203.529 1306.8 203.945 1308.06 204.036C1309.46 204.137 1310.75 203.84 1312.04 203.233C1313.35 202.616 1314.65 201.687 1316.09 200.531C1316.8 199.955 1317.52 199.339 1318.29 198.689C1319.06 198.042 1319.86 197.364 1320.7 196.687L1320.7 196.688C1323.18 194.701 1325.43 192.599 1327.92 190.462C1330.38 188.366 1332.97 186.323 1335.91 184.685L1336.22 184.513L1336.58 184.498C1338.8 184.404 1341.88 184.584 1345.24 184.802C1348.63 185.023 1352.35 185.289 1355.97 185.39C1359.59 185.491 1363.04 185.424 1365.87 185C1368.6 184.59 1370.46 183.886 1371.44 182.962C1372.1 181.204 1371.8 179.116 1370.6 176.638C1369.36 174.054 1367.26 171.297 1364.85 168.499C1362.4 165.662 1359.85 163.027 1357.51 160.4C1355.42 158.044 1353.51 155.713 1352.53 153.635L1352.34 153.223C1350.16 148.013 1350.54 141.616 1351.14 135.393C1351.73 129.171 1352.55 123.054 1351.81 117.589C1351.21 116.921 1350.45 116.195 1349.73 115.48C1348.12 115.003 1346.29 115.418 1344.1 116.697C1341.78 118.053 1339.33 120.222 1336.73 122.692C1334.19 125.113 1331.49 127.834 1328.83 130.071C1326.19 132.298 1323.38 134.228 1320.5 134.958L1320.5 134.959C1315.63 136.197 1311 136.356 1306.53 136.31C1302.02 136.263 1297.8 136.014 1293.45 136.367C1289.89 136.658 1287.53 137.28 1286.06 138.067C1284.65 138.822 1284.12 139.677 1283.97 140.549C1283.81 141.526 1284.07 142.824 1284.87 144.488C1285.65 146.129 1286.86 147.954 1288.35 149.918C1289.84 151.875 1291.56 153.916 1293.33 155.994C1295.09 158.06 1296.9 160.167 1298.52 162.212C1300.15 164.254 1301.63 166.284 1302.71 168.213C1303.79 170.118 1304.57 172.07 1304.61 173.929L1304.61 173.948L1304.61 173.965C1304.61 178.722 1304.16 183.829 1303.83 188.812C1303.52 193.558 1303.31 198.226 1303.66 202.605Z" fill="#F6C041" stroke="black" stroke-width="3"/>
<path d="M33.0127 588.098C36.3431 578.96 38.3985 566.307 39.2919 553.445C40.1843 540.597 39.909 527.665 38.6392 518.013L38.6394 518.012C33.6453 479.758 13.9096 445.003 -16.3051 421.123L-23.5769 449.901C1.87215 469.654 15.7265 502.24 19.191 533.328L19.1973 533.377L19.1996 533.426C21.7698 590.457 -5.85258 641.587 -60.2443 662.383C-58.6655 663.591 -57.1657 664.624 -55.7366 665.593C-53.7226 666.958 -51.7919 668.233 -50.0704 669.672C-46.8713 672.344 -44.402 675.57 -42.7649 681.125C-3.49832 658.349 18.6563 631.603 32.9972 588.141L33.0051 588.119L33.0127 588.098Z" fill="#FF80AB" stroke="black" stroke-width="3"/>
<path d="M12.9293 587.936C14.4985 580.709 16.0617 573.766 17.2063 567.56C18.3585 561.313 19.0612 555.933 18.9374 551.857L18.9314 551.673L18.9703 551.493C22.068 537.219 18.8016 516.809 10.7601 497.301C3.05484 478.61 -8.91568 461.04 -23.4466 450.707C-23.759 452.856 -23.9354 455.528 -24.0251 458.552C-24.1476 462.682 -24.1101 467.351 -24.0836 472.06C-24.0572 476.754 -24.0418 481.487 -24.2147 485.686C-24.37 489.459 -24.6811 492.904 -25.3066 495.543C-23.5411 497.531 -21.8761 499.605 -20.3217 501.762L-19.5956 502.786C-5.10177 523.386 -2.41615 546.276 -6.51285 570.387L-6.52006 570.429L-6.86434 572.089C-14.2163 606.343 -35.1245 629.235 -67.9604 640.703C-67.0446 646.266 -66.219 652.45 -64.4544 657.37C-63.8081 659.172 -63.064 660.279 -62.3173 660.95C-61.5949 661.598 -60.7926 661.909 -59.864 661.986C-57.8519 662.152 -55.347 661.239 -52.232 659.925C-20.7575 646.656 2.14999 620.162 12.9293 587.936Z" fill="#C1BAFB" stroke="black" stroke-width="3"/>
<path d="M12.9293 587.936C14.4985 580.709 16.0617 573.766 17.2063 567.56C18.3585 561.313 19.0612 555.933 18.9374 551.857L18.9314 551.673L18.9703 551.493C22.068 537.219 18.8016 516.809 10.7601 497.301C3.05484 478.61 -8.91568 461.04 -23.4466 450.707C-23.759 452.856 -23.9354 455.528 -24.0251 458.552C-24.1476 462.682 -24.1101 467.351 -24.0836 472.06C-24.0572 476.754 -24.0418 481.487 -24.2147 485.686C-24.37 489.459 -24.6811 492.904 -25.3066 495.543C-23.5411 497.531 -21.8761 499.605 -20.3217 501.762L-19.5956 502.786C-5.10177 523.386 -2.41615 546.276 -6.51285 570.387L-6.52006 570.429L-6.86434 572.089C-14.2163 606.343 -35.1245 629.235 -67.9604 640.703C-67.0446 646.266 -66.219 652.45 -64.4544 657.37C-63.8081 659.172 -63.064 660.279 -62.3173 660.95C-61.5949 661.598 -60.7926 661.909 -59.864 661.986C-57.8519 662.152 -55.347 661.239 -52.232 659.925C-20.7575 646.656 2.14999 620.162 12.9293 587.936Z" fill="#E8BBF5" stroke="black" stroke-width="3"/>
</g>
<defs>
<clipPath id="clip0_3710_1625">
<rect width="1440" height="865" fill="white"/>
</clipPath>
</defs>
</svg>
