<svg width="1444" height="669" viewBox="0 0 1444 669" fill="none" xmlns="http://www.w3.org/2000/svg">
<g filter="url(#filter0_g_3510_171)">
<circle cx="1366.38" cy="175.615" r="8.65382" fill="#F1F3F2"/>
</g>
<g filter="url(#filter1_g_3510_171)">
<circle cx="1088.31" cy="428.306" r="8.65382" fill="#F1F3F2"/>
</g>
<g filter="url(#filter2_g_3510_171)">
<circle cx="991.962" cy="464.652" r="6.92306" fill="#F1F3F2"/>
</g>
<g filter="url(#filter3_g_3510_171)">
<circle cx="657.919" cy="331.151" r="5.19229" fill="#F1F3F2"/>
</g>
<g filter="url(#filter4_g_3510_171)">
<circle cx="1394.08" cy="302.536" r="5.19229" fill="#F1F3F2"/>
</g>
<g filter="url(#filter5_g_3510_171)">
<circle cx="1041" cy="512.534" r="5.19229" fill="#F1F3F2"/>
</g>
<g filter="url(#filter6_g_3510_171)">
<circle cx="892.149" cy="536.765" r="5.19229" fill="#F1F3F2"/>
</g>
<g filter="url(#filter7_g_3510_171)">
<circle cx="40.6142" cy="324.46" r="5.19229" fill="#F1F3F2"/>
</g>
<g filter="url(#filter8_g_3510_171)">
<circle cx="370.61" cy="375.229" r="5.19229" fill="#F1F3F2"/>
</g>
<g filter="url(#filter9_g_3510_171)">
<circle cx="950.997" cy="308.073" r="5.19229" fill="#F1F3F2"/>
</g>
<g filter="url(#filter10_g_3510_171)">
<circle cx="204.459" cy="252.921" r="8.65382" fill="#F1F3F2"/>
</g>
<g filter="url(#filter11_g_3510_171)">
<circle cx="195.806" cy="425.421" r="6.92306" fill="#F1F3F2"/>
</g>
<g filter="url(#filter12_g_3510_171)">
<circle cx="409.841" cy="485.999" r="5.19229" fill="#F1F3F2"/>
</g>
<g filter="url(#filter13_g_3510_171)">
<circle cx="1383.69" cy="436.255" r="5.19229" fill="#F1F3F2"/>
</g>
<g filter="url(#filter14_g_3510_171)">
<circle cx="614.071" cy="82.1532" r="5.19229" fill="#F1F3F2"/>
</g>
<g filter="url(#filter15_g_3510_171)">
<circle cx="1381.96" cy="80.4231" r="6.92306" fill="#F1F3F2"/>
</g>
<g filter="url(#filter16_g_3510_171)">
<circle cx="1258.5" cy="166.96" r="6.92306" fill="#F1F3F2"/>
</g>
<g filter="url(#filter17_g_3510_171)">
<circle cx="308.88" cy="130.038" r="6.92306" fill="#F1F3F2"/>
</g>
<g filter="url(#filter18_g_3510_171)">
<circle cx="345.226" cy="164.076" r="4.03845" fill="#F1F3F2"/>
</g>
<g filter="url(#filter19_g_3510_171)">
<circle cx="264.456" cy="204.46" r="4.03845" fill="#F1F3F2"/>
</g>
<g filter="url(#filter20_g_3510_171)">
<circle cx="232.152" cy="209.076" r="4.03845" fill="#F1F3F2"/>
</g>
<g filter="url(#filter21_g_3510_171)">
<circle cx="494.074" cy="39.4603" r="4.03845" fill="#F1F3F2"/>
</g>
<g filter="url(#filter22_g_3510_171)">
<circle cx="399.456" cy="243.691" r="4.03845" fill="#F1F3F2"/>
</g>
<g filter="url(#filter23_g_3510_171)">
<circle cx="177.921" cy="83.306" r="4.03845" fill="#F1F3F2"/>
</g>
<g filter="url(#filter24_g_3510_171)">
<circle cx="120.226" cy="64.8451" r="4.03845" fill="#F1F3F2"/>
</g>
<g filter="url(#filter25_g_3510_171)">
<circle cx="340.613" cy="5.99939" r="4.03845" fill="#F1F3F2"/>
</g>
<g filter="url(#filter26_g_3510_171)">
<circle cx="5.99939" cy="204.46" r="4.03845" fill="#F1F3F2"/>
</g>
<g filter="url(#filter27_g_3510_171)">
<circle cx="5.99939" cy="330.23" r="4.03845" fill="#F1F3F2"/>
</g>
<g filter="url(#filter28_g_3510_171)">
<circle cx="419.074" cy="353.306" r="4.03845" fill="#F1F3F2"/>
</g>
<g filter="url(#filter29_g_3510_171)">
<circle cx="717.917" cy="542.535" r="4.03845" fill="#F1F3F2"/>
</g>
<g filter="url(#filter30_g_3510_171)">
<circle cx="1196.77" cy="155.999" r="4.03845" fill="#F1F3F2"/>
</g>
<g filter="url(#filter31_g_3510_171)">
<circle cx="1110.23" cy="53.306" r="4.03845" fill="#F1F3F2"/>
</g>
<g filter="url(#filter32_g_3510_171)">
<circle cx="1176" cy="69.4603" r="4.03845" fill="#F1F3F2"/>
</g>
<g filter="url(#filter33_g_3510_171)">
<circle cx="1396.38" cy="162.921" r="4.03845" fill="#F1F3F2"/>
</g>
<g filter="url(#filter34_g_3510_171)">
<circle cx="1305.23" cy="18.6908" r="4.03845" fill="#F1F3F2"/>
</g>
<g filter="url(#filter35_g_3510_171)">
<circle cx="1437.92" cy="110.999" r="4.03845" fill="#F1F3F2"/>
</g>
<g filter="url(#filter36_g_3510_171)">
<circle cx="1176" cy="495.228" r="4.03845" fill="#F1F3F2"/>
</g>
<g filter="url(#filter37_g_3510_171)">
<circle cx="863.304" cy="417.921" r="4.03845" fill="#F1F3F2"/>
</g>
<g filter="url(#filter38_g_3510_171)">
<circle cx="813.687" cy="375.23" r="4.03845" fill="#F1F3F2"/>
</g>
<g filter="url(#filter39_g_3510_171)">
<circle cx="573.687" cy="465.228" r="4.03845" fill="#F1F3F2"/>
</g>
<g filter="url(#filter40_g_3510_171)">
<circle cx="656.765" cy="662.535" r="4.03845" fill="#F1F3F2"/>
</g>
<g filter="url(#filter41_g_3510_171)">
<circle cx="709.843" cy="321.919" r="4.03845" fill="#F1F3F2"/>
</g>
<g filter="url(#filter42_g_3510_171)">
<circle cx="600.226" cy="134.076" r="4.03845" fill="#F1F3F2"/>
</g>
<g filter="url(#filter43_g_3510_171)">
<circle cx="766.378" cy="26.7689" r="4.03845" fill="#F1F3F2"/>
</g>
<g filter="url(#filter44_g_3510_171)">
<circle cx="139.267" cy="116.191" r="6.92306" fill="#F1F3F2"/>
</g>
<path d="M595.033 474.315C595.159 474.839 595.291 475.374 595.433 475.917C596.99 481.876 599.65 489.226 604.094 493.669C608.537 498.112 615.887 500.773 621.846 502.33C622.389 502.472 622.923 502.603 623.446 502.729C622.923 502.854 622.389 502.986 621.846 503.128C615.887 504.685 608.537 507.346 604.094 511.789C599.65 516.232 596.99 523.582 595.433 529.541C595.291 530.084 595.159 530.619 595.033 531.142C594.908 530.619 594.777 530.084 594.635 529.541C593.078 523.582 590.417 516.232 585.974 511.789C581.53 507.346 574.181 504.685 568.222 503.128C567.678 502.986 567.143 502.854 566.62 502.729C567.143 502.603 567.679 502.472 568.222 502.33C574.181 500.773 581.53 498.112 585.974 493.669C590.417 489.226 593.078 481.876 594.635 475.917C594.777 475.374 594.908 474.839 595.033 474.315Z" fill="#F7CB46" stroke="black" stroke-width="3.46153"/>
<path d="M1154.65 58.9307C1154.78 59.454 1154.91 59.989 1155.05 60.5322C1156.61 66.4911 1159.27 73.8408 1163.71 78.2842C1168.15 82.7276 1175.5 85.3884 1181.46 86.9453C1182.01 87.0871 1182.54 87.2184 1183.06 87.3438C1182.54 87.4691 1182.01 87.6013 1181.46 87.7432C1175.5 89.3001 1168.15 91.9609 1163.71 96.4043C1159.27 100.848 1156.61 108.197 1155.05 114.156C1154.91 114.699 1154.78 115.234 1154.65 115.757C1154.53 115.234 1154.39 114.699 1154.25 114.156C1152.7 108.197 1150.03 100.848 1145.59 96.4043C1141.15 91.961 1133.8 89.3001 1127.84 87.7432C1127.3 87.6012 1126.76 87.4692 1126.24 87.3438C1126.76 87.2184 1127.3 87.0872 1127.84 86.9453C1133.8 85.3884 1141.15 82.7276 1145.59 78.2842C1150.03 73.8408 1152.7 66.4911 1154.25 60.5322C1154.39 59.9891 1154.52 59.4539 1154.65 58.9307Z" fill="#F7CB46" stroke="black" stroke-width="3.46153"/>
<path d="M1210.46 394.544C1210.58 395.067 1210.72 395.602 1210.86 396.146C1212.42 402.104 1215.08 409.454 1219.52 413.897C1223.96 418.341 1231.31 421.002 1237.27 422.559C1237.81 422.7 1238.35 422.832 1238.87 422.957C1238.35 423.082 1237.81 423.215 1237.27 423.356C1231.31 424.913 1223.96 427.574 1219.52 432.018C1215.08 436.461 1212.42 443.811 1210.86 449.77C1210.72 450.312 1210.58 450.847 1210.46 451.37C1210.33 450.847 1210.2 450.312 1210.06 449.77C1208.5 443.811 1205.84 436.461 1201.4 432.018C1196.96 427.574 1189.61 424.913 1183.65 423.356C1183.1 423.215 1182.57 423.082 1182.05 422.957C1182.57 422.832 1183.1 422.701 1183.65 422.559C1189.61 421.002 1196.96 418.341 1201.4 413.897C1205.84 409.454 1208.5 402.104 1210.06 396.146C1210.2 395.602 1210.33 395.067 1210.46 394.544Z" fill="#F7CB46" stroke="black" stroke-width="3.46153"/>
<path d="M226.432 280.138C231.763 281.201 235.721 284.139 239.09 288.01C242.628 292.075 245.397 297.013 248.442 301.843L249.079 302.852L250.214 302.487C251.959 301.927 253.72 301.417 255.494 300.959L255.495 300.96C257.951 300.344 261.742 299.598 265.395 299.404C267.221 299.307 268.966 299.351 270.47 299.599C271.991 299.849 273.138 300.288 273.887 300.88C276.048 302.591 276.96 304.645 277.101 306.91C277.246 309.245 276.571 311.877 275.38 314.611C272.99 320.095 268.785 325.427 266.327 328.726L265.681 329.593L266.279 330.495C268.493 333.834 272.317 340.857 274.299 347.949C275.29 351.496 275.789 354.957 275.464 357.937C275.142 360.884 274.029 363.272 271.852 364.906C270.601 365.845 268.875 366.196 266.646 366.019C264.419 365.841 261.874 365.149 259.182 364.215C256.487 363.28 253.774 362.152 251.141 361.123C248.558 360.114 246.028 359.191 243.87 358.774L243.151 358.636L242.59 359.106L240.464 360.889L240.383 360.957L240.312 361.035C237.806 363.803 232.857 369.389 227.543 373.158C224.879 375.048 222.268 376.373 219.939 376.739C217.854 377.067 216.002 376.636 214.398 375.039L214.081 374.704C211.436 371.749 210.423 366.737 210.229 361.036C210.037 355.387 210.647 349.581 210.877 345.172L210.934 344.097L209.943 343.676C206.053 342.021 198.657 339.165 193.222 335.139C190.505 333.126 188.454 330.944 187.521 328.643C186.631 326.451 186.687 323.994 188.519 321.124C190.584 317.887 195.041 315.605 200.413 313.917C205.721 312.249 211.46 311.29 215.782 310.396L217.026 310.139L217.009 308.868C216.926 303.061 216.912 297.322 218.193 292.227C219.415 287.37 221.797 283.17 226.432 280.138Z" fill="#FEABC8" stroke="black" stroke-width="3.07691"/>
<path d="M1166.02 223.229C1170.17 226.711 1172.21 231.175 1173.28 236.178C1174.4 241.433 1174.43 247.085 1174.75 252.773L1174.82 253.963L1175.99 254.189C1177.8 254.534 1179.59 254.93 1181.37 255.38C1183.82 256.016 1187.5 257.177 1190.79 258.753C1192.44 259.542 1193.94 260.416 1195.14 261.352C1196.35 262.299 1197.14 263.232 1197.51 264.108C1198.57 266.641 1198.37 268.878 1197.39 270.932C1196.38 273.049 1194.51 275.033 1192.14 276.858C1187.38 280.518 1181.1 283.176 1177.35 284.889L1176.36 285.337L1176.45 286.409C1176.77 290.394 1176.7 298.377 1174.99 305.539C1174.14 309.121 1172.89 312.393 1171.16 314.849C1169.44 317.278 1167.31 318.838 1164.6 319.227L1164.6 319.227C1163.05 319.45 1161.37 318.932 1159.51 317.711C1157.64 316.49 1155.75 314.667 1153.85 312.56C1151.94 310.452 1150.11 308.165 1148.31 306.003C1146.53 303.883 1144.77 301.864 1143.08 300.466L1142.51 299.997L1141.79 300.141L1139.06 300.685L1138.96 300.705L1138.86 300.741C1135.32 301.967 1128.26 304.491 1121.78 305.249C1118.53 305.629 1115.6 305.54 1113.38 304.747C1111.26 303.99 1109.8 302.604 1109.24 300.164C1108.36 296.308 1109.91 291.431 1112.51 286.343C1115.09 281.302 1118.44 276.507 1120.79 272.755L1121.36 271.844L1120.7 271.001C1118.09 267.689 1113 261.648 1110.2 255.52C1108.8 252.457 1108.06 249.564 1108.36 247.1C1108.65 244.752 1109.89 242.623 1112.89 240.985L1112.89 240.986C1116.27 239.139 1121.29 239.273 1126.81 240.365C1132.27 241.444 1137.77 243.35 1141.99 244.636L1143.2 245.007L1143.8 243.888C1146.55 238.762 1149.33 233.726 1152.93 229.875C1156.36 226.204 1160.49 223.667 1166.02 223.229Z" fill="#56D5F3" stroke="black" stroke-width="3.07691"/>
<defs>
<filter id="filter0_g_3510_171" x="1355.77" y="164.999" width="21.2317" height="21.2317" filterUnits="userSpaceOnUse" color-interpolation-filters="sRGB">
<feFlood flood-opacity="0" result="BackgroundImageFix"/>
<feBlend mode="normal" in="SourceGraphic" in2="BackgroundImageFix" result="shape"/>
<feTurbulence type="fractalNoise" baseFrequency="0.99900001287460327 0.99900001287460327" numOctaves="3" seed="1338" />
<feDisplacementMap in="shape" scale="3.9230663776397705" xChannelSelector="R" yChannelSelector="G" result="displacedImage" width="100%" height="100%" />
<feMerge result="effect1_texture_3510_171">
<feMergeNode in="displacedImage"/>
</feMerge>
</filter>
<filter id="filter1_g_3510_171" x="1077.69" y="417.691" width="21.2317" height="21.2317" filterUnits="userSpaceOnUse" color-interpolation-filters="sRGB">
<feFlood flood-opacity="0" result="BackgroundImageFix"/>
<feBlend mode="normal" in="SourceGraphic" in2="BackgroundImageFix" result="shape"/>
<feTurbulence type="fractalNoise" baseFrequency="0.99900001287460327 0.99900001287460327" numOctaves="3" seed="1338" />
<feDisplacementMap in="shape" scale="3.9230663776397705" xChannelSelector="R" yChannelSelector="G" result="displacedImage" width="100%" height="100%" />
<feMerge result="effect1_texture_3510_171">
<feMergeNode in="displacedImage"/>
</feMerge>
</filter>
<filter id="filter2_g_3510_171" x="983.078" y="455.767" width="17.7707" height="17.7688" filterUnits="userSpaceOnUse" color-interpolation-filters="sRGB">
<feFlood flood-opacity="0" result="BackgroundImageFix"/>
<feBlend mode="normal" in="SourceGraphic" in2="BackgroundImageFix" result="shape"/>
<feTurbulence type="fractalNoise" baseFrequency="0.99900001287460327 0.99900001287460327" numOctaves="3" seed="1338" />
<feDisplacementMap in="shape" scale="3.9230663776397705" xChannelSelector="R" yChannelSelector="G" result="displacedImage" width="100%" height="100%" />
<feMerge result="effect1_texture_3510_171">
<feMergeNode in="displacedImage"/>
</feMerge>
</filter>
<filter id="filter3_g_3510_171" x="650.765" y="323.997" width="14.3059" height="14.3078" filterUnits="userSpaceOnUse" color-interpolation-filters="sRGB">
<feFlood flood-opacity="0" result="BackgroundImageFix"/>
<feBlend mode="normal" in="SourceGraphic" in2="BackgroundImageFix" result="shape"/>
<feTurbulence type="fractalNoise" baseFrequency="0.99900001287460327 0.99900001287460327" numOctaves="3" seed="1338" />
<feDisplacementMap in="shape" scale="3.9230663776397705" xChannelSelector="R" yChannelSelector="G" result="displacedImage" width="100%" height="100%" />
<feMerge result="effect1_texture_3510_171">
<feMergeNode in="displacedImage"/>
</feMerge>
</filter>
<filter id="filter4_g_3510_171" x="1386.92" y="295.382" width="14.3059" height="14.3078" filterUnits="userSpaceOnUse" color-interpolation-filters="sRGB">
<feFlood flood-opacity="0" result="BackgroundImageFix"/>
<feBlend mode="normal" in="SourceGraphic" in2="BackgroundImageFix" result="shape"/>
<feTurbulence type="fractalNoise" baseFrequency="0.99900001287460327 0.99900001287460327" numOctaves="3" seed="1338" />
<feDisplacementMap in="shape" scale="3.9230663776397705" xChannelSelector="R" yChannelSelector="G" result="displacedImage" width="100%" height="100%" />
<feMerge result="effect1_texture_3510_171">
<feMergeNode in="displacedImage"/>
</feMerge>
</filter>
<filter id="filter5_g_3510_171" x="1033.84" y="505.38" width="14.3059" height="14.3078" filterUnits="userSpaceOnUse" color-interpolation-filters="sRGB">
<feFlood flood-opacity="0" result="BackgroundImageFix"/>
<feBlend mode="normal" in="SourceGraphic" in2="BackgroundImageFix" result="shape"/>
<feTurbulence type="fractalNoise" baseFrequency="0.99900001287460327 0.99900001287460327" numOctaves="3" seed="1338" />
<feDisplacementMap in="shape" scale="3.9230663776397705" xChannelSelector="R" yChannelSelector="G" result="displacedImage" width="100%" height="100%" />
<feMerge result="effect1_texture_3510_171">
<feMergeNode in="displacedImage"/>
</feMerge>
</filter>
<filter id="filter6_g_3510_171" x="884.995" y="529.611" width="14.3059" height="14.3078" filterUnits="userSpaceOnUse" color-interpolation-filters="sRGB">
<feFlood flood-opacity="0" result="BackgroundImageFix"/>
<feBlend mode="normal" in="SourceGraphic" in2="BackgroundImageFix" result="shape"/>
<feTurbulence type="fractalNoise" baseFrequency="0.99900001287460327 0.99900001287460327" numOctaves="3" seed="1338" />
<feDisplacementMap in="shape" scale="3.9230663776397705" xChannelSelector="R" yChannelSelector="G" result="displacedImage" width="100%" height="100%" />
<feMerge result="effect1_texture_3510_171">
<feMergeNode in="displacedImage"/>
</feMerge>
</filter>
<filter id="filter7_g_3510_171" x="33.4603" y="317.306" width="14.3059" height="14.3078" filterUnits="userSpaceOnUse" color-interpolation-filters="sRGB">
<feFlood flood-opacity="0" result="BackgroundImageFix"/>
<feBlend mode="normal" in="SourceGraphic" in2="BackgroundImageFix" result="shape"/>
<feTurbulence type="fractalNoise" baseFrequency="0.99900001287460327 0.99900001287460327" numOctaves="3" seed="1338" />
<feDisplacementMap in="shape" scale="3.9230663776397705" xChannelSelector="R" yChannelSelector="G" result="displacedImage" width="100%" height="100%" />
<feMerge result="effect1_texture_3510_171">
<feMergeNode in="displacedImage"/>
</feMerge>
</filter>
<filter id="filter8_g_3510_171" x="363.456" y="368.076" width="14.3059" height="14.3078" filterUnits="userSpaceOnUse" color-interpolation-filters="sRGB">
<feFlood flood-opacity="0" result="BackgroundImageFix"/>
<feBlend mode="normal" in="SourceGraphic" in2="BackgroundImageFix" result="shape"/>
<feTurbulence type="fractalNoise" baseFrequency="0.99900001287460327 0.99900001287460327" numOctaves="3" seed="1338" />
<feDisplacementMap in="shape" scale="3.9230663776397705" xChannelSelector="R" yChannelSelector="G" result="displacedImage" width="100%" height="100%" />
<feMerge result="effect1_texture_3510_171">
<feMergeNode in="displacedImage"/>
</feMerge>
</filter>
<filter id="filter9_g_3510_171" x="943.843" y="300.919" width="14.3059" height="14.3078" filterUnits="userSpaceOnUse" color-interpolation-filters="sRGB">
<feFlood flood-opacity="0" result="BackgroundImageFix"/>
<feBlend mode="normal" in="SourceGraphic" in2="BackgroundImageFix" result="shape"/>
<feTurbulence type="fractalNoise" baseFrequency="0.99900001287460327 0.99900001287460327" numOctaves="3" seed="1338" />
<feDisplacementMap in="shape" scale="3.9230663776397705" xChannelSelector="R" yChannelSelector="G" result="displacedImage" width="100%" height="100%" />
<feMerge result="effect1_texture_3510_171">
<feMergeNode in="displacedImage"/>
</feMerge>
</filter>
<filter id="filter10_g_3510_171" x="193.843" y="242.306" width="21.2317" height="21.2317" filterUnits="userSpaceOnUse" color-interpolation-filters="sRGB">
<feFlood flood-opacity="0" result="BackgroundImageFix"/>
<feBlend mode="normal" in="SourceGraphic" in2="BackgroundImageFix" result="shape"/>
<feTurbulence type="fractalNoise" baseFrequency="0.99900001287460327 0.99900001287460327" numOctaves="3" seed="1338" />
<feDisplacementMap in="shape" scale="3.9230663776397705" xChannelSelector="R" yChannelSelector="G" result="displacedImage" width="100%" height="100%" />
<feMerge result="effect1_texture_3510_171">
<feMergeNode in="displacedImage"/>
</feMerge>
</filter>
<filter id="filter11_g_3510_171" x="186.921" y="416.537" width="17.7707" height="17.7688" filterUnits="userSpaceOnUse" color-interpolation-filters="sRGB">
<feFlood flood-opacity="0" result="BackgroundImageFix"/>
<feBlend mode="normal" in="SourceGraphic" in2="BackgroundImageFix" result="shape"/>
<feTurbulence type="fractalNoise" baseFrequency="0.99900001287460327 0.99900001287460327" numOctaves="3" seed="1338" />
<feDisplacementMap in="shape" scale="3.9230663776397705" xChannelSelector="R" yChannelSelector="G" result="displacedImage" width="100%" height="100%" />
<feMerge result="effect1_texture_3510_171">
<feMergeNode in="displacedImage"/>
</feMerge>
</filter>
<filter id="filter12_g_3510_171" x="402.687" y="478.845" width="14.3059" height="14.3078" filterUnits="userSpaceOnUse" color-interpolation-filters="sRGB">
<feFlood flood-opacity="0" result="BackgroundImageFix"/>
<feBlend mode="normal" in="SourceGraphic" in2="BackgroundImageFix" result="shape"/>
<feTurbulence type="fractalNoise" baseFrequency="0.99900001287460327 0.99900001287460327" numOctaves="3" seed="1338" />
<feDisplacementMap in="shape" scale="3.9230663776397705" xChannelSelector="R" yChannelSelector="G" result="displacedImage" width="100%" height="100%" />
<feMerge result="effect1_texture_3510_171">
<feMergeNode in="displacedImage"/>
</feMerge>
</filter>
<filter id="filter13_g_3510_171" x="1376.53" y="429.101" width="14.3059" height="14.3078" filterUnits="userSpaceOnUse" color-interpolation-filters="sRGB">
<feFlood flood-opacity="0" result="BackgroundImageFix"/>
<feBlend mode="normal" in="SourceGraphic" in2="BackgroundImageFix" result="shape"/>
<feTurbulence type="fractalNoise" baseFrequency="0.99900001287460327 0.99900001287460327" numOctaves="3" seed="1338" />
<feDisplacementMap in="shape" scale="3.9230663776397705" xChannelSelector="R" yChannelSelector="G" result="displacedImage" width="100%" height="100%" />
<feMerge result="effect1_texture_3510_171">
<feMergeNode in="displacedImage"/>
</feMerge>
</filter>
<filter id="filter14_g_3510_171" x="606.917" y="74.9994" width="14.3059" height="14.3078" filterUnits="userSpaceOnUse" color-interpolation-filters="sRGB">
<feFlood flood-opacity="0" result="BackgroundImageFix"/>
<feBlend mode="normal" in="SourceGraphic" in2="BackgroundImageFix" result="shape"/>
<feTurbulence type="fractalNoise" baseFrequency="0.99900001287460327 0.99900001287460327" numOctaves="3" seed="1338" />
<feDisplacementMap in="shape" scale="3.9230663776397705" xChannelSelector="R" yChannelSelector="G" result="displacedImage" width="100%" height="100%" />
<feMerge result="effect1_texture_3510_171">
<feMergeNode in="displacedImage"/>
</feMerge>
</filter>
<filter id="filter15_g_3510_171" x="1373.07" y="71.5385" width="17.7707" height="17.7688" filterUnits="userSpaceOnUse" color-interpolation-filters="sRGB">
<feFlood flood-opacity="0" result="BackgroundImageFix"/>
<feBlend mode="normal" in="SourceGraphic" in2="BackgroundImageFix" result="shape"/>
<feTurbulence type="fractalNoise" baseFrequency="0.99900001287460327 0.99900001287460327" numOctaves="3" seed="1338" />
<feDisplacementMap in="shape" scale="3.9230663776397705" xChannelSelector="R" yChannelSelector="G" result="displacedImage" width="100%" height="100%" />
<feMerge result="effect1_texture_3510_171">
<feMergeNode in="displacedImage"/>
</feMerge>
</filter>
<filter id="filter16_g_3510_171" x="1249.61" y="158.076" width="17.7707" height="17.7688" filterUnits="userSpaceOnUse" color-interpolation-filters="sRGB">
<feFlood flood-opacity="0" result="BackgroundImageFix"/>
<feBlend mode="normal" in="SourceGraphic" in2="BackgroundImageFix" result="shape"/>
<feTurbulence type="fractalNoise" baseFrequency="0.99900001287460327 0.99900001287460327" numOctaves="3" seed="1338" />
<feDisplacementMap in="shape" scale="3.9230663776397705" xChannelSelector="R" yChannelSelector="G" result="displacedImage" width="100%" height="100%" />
<feMerge result="effect1_texture_3510_171">
<feMergeNode in="displacedImage"/>
</feMerge>
</filter>
<filter id="filter17_g_3510_171" x="299.995" y="121.154" width="17.7707" height="17.7688" filterUnits="userSpaceOnUse" color-interpolation-filters="sRGB">
<feFlood flood-opacity="0" result="BackgroundImageFix"/>
<feBlend mode="normal" in="SourceGraphic" in2="BackgroundImageFix" result="shape"/>
<feTurbulence type="fractalNoise" baseFrequency="0.99900001287460327 0.99900001287460327" numOctaves="3" seed="1338" />
<feDisplacementMap in="shape" scale="3.9230663776397705" xChannelSelector="R" yChannelSelector="G" result="displacedImage" width="100%" height="100%" />
<feMerge result="effect1_texture_3510_171">
<feMergeNode in="displacedImage"/>
</feMerge>
</filter>
<filter id="filter18_g_3510_171" x="339.226" y="158.076" width="12.0012" height="11.9992" filterUnits="userSpaceOnUse" color-interpolation-filters="sRGB">
<feFlood flood-opacity="0" result="BackgroundImageFix"/>
<feBlend mode="normal" in="SourceGraphic" in2="BackgroundImageFix" result="shape"/>
<feTurbulence type="fractalNoise" baseFrequency="0.99900001287460327 0.99900001287460327" numOctaves="3" seed="1338" />
<feDisplacementMap in="shape" scale="3.9230663776397705" xChannelSelector="R" yChannelSelector="G" result="displacedImage" width="100%" height="100%" />
<feMerge result="effect1_texture_3510_171">
<feMergeNode in="displacedImage"/>
</feMerge>
</filter>
<filter id="filter19_g_3510_171" x="258.456" y="198.46" width="12.0012" height="11.9992" filterUnits="userSpaceOnUse" color-interpolation-filters="sRGB">
<feFlood flood-opacity="0" result="BackgroundImageFix"/>
<feBlend mode="normal" in="SourceGraphic" in2="BackgroundImageFix" result="shape"/>
<feTurbulence type="fractalNoise" baseFrequency="0.99900001287460327 0.99900001287460327" numOctaves="3" seed="1338" />
<feDisplacementMap in="shape" scale="3.9230663776397705" xChannelSelector="R" yChannelSelector="G" result="displacedImage" width="100%" height="100%" />
<feMerge result="effect1_texture_3510_171">
<feMergeNode in="displacedImage"/>
</feMerge>
</filter>
<filter id="filter20_g_3510_171" x="226.152" y="203.076" width="12.0012" height="11.9992" filterUnits="userSpaceOnUse" color-interpolation-filters="sRGB">
<feFlood flood-opacity="0" result="BackgroundImageFix"/>
<feBlend mode="normal" in="SourceGraphic" in2="BackgroundImageFix" result="shape"/>
<feTurbulence type="fractalNoise" baseFrequency="0.99900001287460327 0.99900001287460327" numOctaves="3" seed="1338" />
<feDisplacementMap in="shape" scale="3.9230663776397705" xChannelSelector="R" yChannelSelector="G" result="displacedImage" width="100%" height="100%" />
<feMerge result="effect1_texture_3510_171">
<feMergeNode in="displacedImage"/>
</feMerge>
</filter>
<filter id="filter21_g_3510_171" x="488.074" y="33.4603" width="12.0012" height="11.9992" filterUnits="userSpaceOnUse" color-interpolation-filters="sRGB">
<feFlood flood-opacity="0" result="BackgroundImageFix"/>
<feBlend mode="normal" in="SourceGraphic" in2="BackgroundImageFix" result="shape"/>
<feTurbulence type="fractalNoise" baseFrequency="0.99900001287460327 0.99900001287460327" numOctaves="3" seed="1338" />
<feDisplacementMap in="shape" scale="3.9230663776397705" xChannelSelector="R" yChannelSelector="G" result="displacedImage" width="100%" height="100%" />
<feMerge result="effect1_texture_3510_171">
<feMergeNode in="displacedImage"/>
</feMerge>
</filter>
<filter id="filter22_g_3510_171" x="393.456" y="237.691" width="12.0012" height="11.9992" filterUnits="userSpaceOnUse" color-interpolation-filters="sRGB">
<feFlood flood-opacity="0" result="BackgroundImageFix"/>
<feBlend mode="normal" in="SourceGraphic" in2="BackgroundImageFix" result="shape"/>
<feTurbulence type="fractalNoise" baseFrequency="0.99900001287460327 0.99900001287460327" numOctaves="3" seed="1338" />
<feDisplacementMap in="shape" scale="3.9230663776397705" xChannelSelector="R" yChannelSelector="G" result="displacedImage" width="100%" height="100%" />
<feMerge result="effect1_texture_3510_171">
<feMergeNode in="displacedImage"/>
</feMerge>
</filter>
<filter id="filter23_g_3510_171" x="171.921" y="77.306" width="12.0012" height="11.9992" filterUnits="userSpaceOnUse" color-interpolation-filters="sRGB">
<feFlood flood-opacity="0" result="BackgroundImageFix"/>
<feBlend mode="normal" in="SourceGraphic" in2="BackgroundImageFix" result="shape"/>
<feTurbulence type="fractalNoise" baseFrequency="0.99900001287460327 0.99900001287460327" numOctaves="3" seed="1338" />
<feDisplacementMap in="shape" scale="3.9230663776397705" xChannelSelector="R" yChannelSelector="G" result="displacedImage" width="100%" height="100%" />
<feMerge result="effect1_texture_3510_171">
<feMergeNode in="displacedImage"/>
</feMerge>
</filter>
<filter id="filter24_g_3510_171" x="114.226" y="58.8451" width="12.0012" height="11.9992" filterUnits="userSpaceOnUse" color-interpolation-filters="sRGB">
<feFlood flood-opacity="0" result="BackgroundImageFix"/>
<feBlend mode="normal" in="SourceGraphic" in2="BackgroundImageFix" result="shape"/>
<feTurbulence type="fractalNoise" baseFrequency="0.99900001287460327 0.99900001287460327" numOctaves="3" seed="1338" />
<feDisplacementMap in="shape" scale="3.9230663776397705" xChannelSelector="R" yChannelSelector="G" result="displacedImage" width="100%" height="100%" />
<feMerge result="effect1_texture_3510_171">
<feMergeNode in="displacedImage"/>
</feMerge>
</filter>
<filter id="filter25_g_3510_171" x="334.613" y="-0.000595689" width="12.0012" height="11.9992" filterUnits="userSpaceOnUse" color-interpolation-filters="sRGB">
<feFlood flood-opacity="0" result="BackgroundImageFix"/>
<feBlend mode="normal" in="SourceGraphic" in2="BackgroundImageFix" result="shape"/>
<feTurbulence type="fractalNoise" baseFrequency="0.99900001287460327 0.99900001287460327" numOctaves="3" seed="1338" />
<feDisplacementMap in="shape" scale="3.9230663776397705" xChannelSelector="R" yChannelSelector="G" result="displacedImage" width="100%" height="100%" />
<feMerge result="effect1_texture_3510_171">
<feMergeNode in="displacedImage"/>
</feMerge>
</filter>
<filter id="filter26_g_3510_171" x="-0.000595689" y="198.46" width="12.0012" height="11.9992" filterUnits="userSpaceOnUse" color-interpolation-filters="sRGB">
<feFlood flood-opacity="0" result="BackgroundImageFix"/>
<feBlend mode="normal" in="SourceGraphic" in2="BackgroundImageFix" result="shape"/>
<feTurbulence type="fractalNoise" baseFrequency="0.99900001287460327 0.99900001287460327" numOctaves="3" seed="1338" />
<feDisplacementMap in="shape" scale="3.9230663776397705" xChannelSelector="R" yChannelSelector="G" result="displacedImage" width="100%" height="100%" />
<feMerge result="effect1_texture_3510_171">
<feMergeNode in="displacedImage"/>
</feMerge>
</filter>
<filter id="filter27_g_3510_171" x="-0.000595689" y="324.23" width="12.0012" height="11.9992" filterUnits="userSpaceOnUse" color-interpolation-filters="sRGB">
<feFlood flood-opacity="0" result="BackgroundImageFix"/>
<feBlend mode="normal" in="SourceGraphic" in2="BackgroundImageFix" result="shape"/>
<feTurbulence type="fractalNoise" baseFrequency="0.99900001287460327 0.99900001287460327" numOctaves="3" seed="1338" />
<feDisplacementMap in="shape" scale="3.9230663776397705" xChannelSelector="R" yChannelSelector="G" result="displacedImage" width="100%" height="100%" />
<feMerge result="effect1_texture_3510_171">
<feMergeNode in="displacedImage"/>
</feMerge>
</filter>
<filter id="filter28_g_3510_171" x="413.074" y="347.306" width="12.0012" height="11.9992" filterUnits="userSpaceOnUse" color-interpolation-filters="sRGB">
<feFlood flood-opacity="0" result="BackgroundImageFix"/>
<feBlend mode="normal" in="SourceGraphic" in2="BackgroundImageFix" result="shape"/>
<feTurbulence type="fractalNoise" baseFrequency="0.99900001287460327 0.99900001287460327" numOctaves="3" seed="1338" />
<feDisplacementMap in="shape" scale="3.9230663776397705" xChannelSelector="R" yChannelSelector="G" result="displacedImage" width="100%" height="100%" />
<feMerge result="effect1_texture_3510_171">
<feMergeNode in="displacedImage"/>
</feMerge>
</filter>
<filter id="filter29_g_3510_171" x="711.917" y="536.535" width="12.0012" height="11.9992" filterUnits="userSpaceOnUse" color-interpolation-filters="sRGB">
<feFlood flood-opacity="0" result="BackgroundImageFix"/>
<feBlend mode="normal" in="SourceGraphic" in2="BackgroundImageFix" result="shape"/>
<feTurbulence type="fractalNoise" baseFrequency="0.99900001287460327 0.99900001287460327" numOctaves="3" seed="1338" />
<feDisplacementMap in="shape" scale="3.9230663776397705" xChannelSelector="R" yChannelSelector="G" result="displacedImage" width="100%" height="100%" />
<feMerge result="effect1_texture_3510_171">
<feMergeNode in="displacedImage"/>
</feMerge>
</filter>
<filter id="filter30_g_3510_171" x="1190.77" y="149.999" width="12.0012" height="11.9992" filterUnits="userSpaceOnUse" color-interpolation-filters="sRGB">
<feFlood flood-opacity="0" result="BackgroundImageFix"/>
<feBlend mode="normal" in="SourceGraphic" in2="BackgroundImageFix" result="shape"/>
<feTurbulence type="fractalNoise" baseFrequency="0.99900001287460327 0.99900001287460327" numOctaves="3" seed="1338" />
<feDisplacementMap in="shape" scale="3.9230663776397705" xChannelSelector="R" yChannelSelector="G" result="displacedImage" width="100%" height="100%" />
<feMerge result="effect1_texture_3510_171">
<feMergeNode in="displacedImage"/>
</feMerge>
</filter>
<filter id="filter31_g_3510_171" x="1104.23" y="47.306" width="12.0012" height="11.9992" filterUnits="userSpaceOnUse" color-interpolation-filters="sRGB">
<feFlood flood-opacity="0" result="BackgroundImageFix"/>
<feBlend mode="normal" in="SourceGraphic" in2="BackgroundImageFix" result="shape"/>
<feTurbulence type="fractalNoise" baseFrequency="0.99900001287460327 0.99900001287460327" numOctaves="3" seed="1338" />
<feDisplacementMap in="shape" scale="3.9230663776397705" xChannelSelector="R" yChannelSelector="G" result="displacedImage" width="100%" height="100%" />
<feMerge result="effect1_texture_3510_171">
<feMergeNode in="displacedImage"/>
</feMerge>
</filter>
<filter id="filter32_g_3510_171" x="1170" y="63.4603" width="12.0012" height="11.9992" filterUnits="userSpaceOnUse" color-interpolation-filters="sRGB">
<feFlood flood-opacity="0" result="BackgroundImageFix"/>
<feBlend mode="normal" in="SourceGraphic" in2="BackgroundImageFix" result="shape"/>
<feTurbulence type="fractalNoise" baseFrequency="0.99900001287460327 0.99900001287460327" numOctaves="3" seed="1338" />
<feDisplacementMap in="shape" scale="3.9230663776397705" xChannelSelector="R" yChannelSelector="G" result="displacedImage" width="100%" height="100%" />
<feMerge result="effect1_texture_3510_171">
<feMergeNode in="displacedImage"/>
</feMerge>
</filter>
<filter id="filter33_g_3510_171" x="1390.38" y="156.921" width="12.0012" height="11.9992" filterUnits="userSpaceOnUse" color-interpolation-filters="sRGB">
<feFlood flood-opacity="0" result="BackgroundImageFix"/>
<feBlend mode="normal" in="SourceGraphic" in2="BackgroundImageFix" result="shape"/>
<feTurbulence type="fractalNoise" baseFrequency="0.99900001287460327 0.99900001287460327" numOctaves="3" seed="1338" />
<feDisplacementMap in="shape" scale="3.9230663776397705" xChannelSelector="R" yChannelSelector="G" result="displacedImage" width="100%" height="100%" />
<feMerge result="effect1_texture_3510_171">
<feMergeNode in="displacedImage"/>
</feMerge>
</filter>
<filter id="filter34_g_3510_171" x="1299.23" y="12.6908" width="12.0012" height="11.9992" filterUnits="userSpaceOnUse" color-interpolation-filters="sRGB">
<feFlood flood-opacity="0" result="BackgroundImageFix"/>
<feBlend mode="normal" in="SourceGraphic" in2="BackgroundImageFix" result="shape"/>
<feTurbulence type="fractalNoise" baseFrequency="0.99900001287460327 0.99900001287460327" numOctaves="3" seed="1338" />
<feDisplacementMap in="shape" scale="3.9230663776397705" xChannelSelector="R" yChannelSelector="G" result="displacedImage" width="100%" height="100%" />
<feMerge result="effect1_texture_3510_171">
<feMergeNode in="displacedImage"/>
</feMerge>
</filter>
<filter id="filter35_g_3510_171" x="1431.92" y="104.999" width="12.0012" height="11.9992" filterUnits="userSpaceOnUse" color-interpolation-filters="sRGB">
<feFlood flood-opacity="0" result="BackgroundImageFix"/>
<feBlend mode="normal" in="SourceGraphic" in2="BackgroundImageFix" result="shape"/>
<feTurbulence type="fractalNoise" baseFrequency="0.99900001287460327 0.99900001287460327" numOctaves="3" seed="1338" />
<feDisplacementMap in="shape" scale="3.9230663776397705" xChannelSelector="R" yChannelSelector="G" result="displacedImage" width="100%" height="100%" />
<feMerge result="effect1_texture_3510_171">
<feMergeNode in="displacedImage"/>
</feMerge>
</filter>
<filter id="filter36_g_3510_171" x="1170" y="489.228" width="12.0012" height="11.9992" filterUnits="userSpaceOnUse" color-interpolation-filters="sRGB">
<feFlood flood-opacity="0" result="BackgroundImageFix"/>
<feBlend mode="normal" in="SourceGraphic" in2="BackgroundImageFix" result="shape"/>
<feTurbulence type="fractalNoise" baseFrequency="0.99900001287460327 0.99900001287460327" numOctaves="3" seed="1338" />
<feDisplacementMap in="shape" scale="3.9230663776397705" xChannelSelector="R" yChannelSelector="G" result="displacedImage" width="100%" height="100%" />
<feMerge result="effect1_texture_3510_171">
<feMergeNode in="displacedImage"/>
</feMerge>
</filter>
<filter id="filter37_g_3510_171" x="857.304" y="411.921" width="12.0012" height="11.9992" filterUnits="userSpaceOnUse" color-interpolation-filters="sRGB">
<feFlood flood-opacity="0" result="BackgroundImageFix"/>
<feBlend mode="normal" in="SourceGraphic" in2="BackgroundImageFix" result="shape"/>
<feTurbulence type="fractalNoise" baseFrequency="0.99900001287460327 0.99900001287460327" numOctaves="3" seed="1338" />
<feDisplacementMap in="shape" scale="3.9230663776397705" xChannelSelector="R" yChannelSelector="G" result="displacedImage" width="100%" height="100%" />
<feMerge result="effect1_texture_3510_171">
<feMergeNode in="displacedImage"/>
</feMerge>
</filter>
<filter id="filter38_g_3510_171" x="807.687" y="369.23" width="12.0012" height="11.9992" filterUnits="userSpaceOnUse" color-interpolation-filters="sRGB">
<feFlood flood-opacity="0" result="BackgroundImageFix"/>
<feBlend mode="normal" in="SourceGraphic" in2="BackgroundImageFix" result="shape"/>
<feTurbulence type="fractalNoise" baseFrequency="0.99900001287460327 0.99900001287460327" numOctaves="3" seed="1338" />
<feDisplacementMap in="shape" scale="3.9230663776397705" xChannelSelector="R" yChannelSelector="G" result="displacedImage" width="100%" height="100%" />
<feMerge result="effect1_texture_3510_171">
<feMergeNode in="displacedImage"/>
</feMerge>
</filter>
<filter id="filter39_g_3510_171" x="567.687" y="459.228" width="12.0012" height="11.9992" filterUnits="userSpaceOnUse" color-interpolation-filters="sRGB">
<feFlood flood-opacity="0" result="BackgroundImageFix"/>
<feBlend mode="normal" in="SourceGraphic" in2="BackgroundImageFix" result="shape"/>
<feTurbulence type="fractalNoise" baseFrequency="0.99900001287460327 0.99900001287460327" numOctaves="3" seed="1338" />
<feDisplacementMap in="shape" scale="3.9230663776397705" xChannelSelector="R" yChannelSelector="G" result="displacedImage" width="100%" height="100%" />
<feMerge result="effect1_texture_3510_171">
<feMergeNode in="displacedImage"/>
</feMerge>
</filter>
<filter id="filter40_g_3510_171" x="650.765" y="656.535" width="12.0012" height="11.9992" filterUnits="userSpaceOnUse" color-interpolation-filters="sRGB">
<feFlood flood-opacity="0" result="BackgroundImageFix"/>
<feBlend mode="normal" in="SourceGraphic" in2="BackgroundImageFix" result="shape"/>
<feTurbulence type="fractalNoise" baseFrequency="0.99900001287460327 0.99900001287460327" numOctaves="3" seed="1338" />
<feDisplacementMap in="shape" scale="3.9230663776397705" xChannelSelector="R" yChannelSelector="G" result="displacedImage" width="100%" height="100%" />
<feMerge result="effect1_texture_3510_171">
<feMergeNode in="displacedImage"/>
</feMerge>
</filter>
<filter id="filter41_g_3510_171" x="703.843" y="315.919" width="12.0012" height="11.9992" filterUnits="userSpaceOnUse" color-interpolation-filters="sRGB">
<feFlood flood-opacity="0" result="BackgroundImageFix"/>
<feBlend mode="normal" in="SourceGraphic" in2="BackgroundImageFix" result="shape"/>
<feTurbulence type="fractalNoise" baseFrequency="0.99900001287460327 0.99900001287460327" numOctaves="3" seed="1338" />
<feDisplacementMap in="shape" scale="3.9230663776397705" xChannelSelector="R" yChannelSelector="G" result="displacedImage" width="100%" height="100%" />
<feMerge result="effect1_texture_3510_171">
<feMergeNode in="displacedImage"/>
</feMerge>
</filter>
<filter id="filter42_g_3510_171" x="594.226" y="128.076" width="12.0012" height="11.9992" filterUnits="userSpaceOnUse" color-interpolation-filters="sRGB">
<feFlood flood-opacity="0" result="BackgroundImageFix"/>
<feBlend mode="normal" in="SourceGraphic" in2="BackgroundImageFix" result="shape"/>
<feTurbulence type="fractalNoise" baseFrequency="0.99900001287460327 0.99900001287460327" numOctaves="3" seed="1338" />
<feDisplacementMap in="shape" scale="3.9230663776397705" xChannelSelector="R" yChannelSelector="G" result="displacedImage" width="100%" height="100%" />
<feMerge result="effect1_texture_3510_171">
<feMergeNode in="displacedImage"/>
</feMerge>
</filter>
<filter id="filter43_g_3510_171" x="760.378" y="20.7689" width="12.0012" height="11.9992" filterUnits="userSpaceOnUse" color-interpolation-filters="sRGB">
<feFlood flood-opacity="0" result="BackgroundImageFix"/>
<feBlend mode="normal" in="SourceGraphic" in2="BackgroundImageFix" result="shape"/>
<feTurbulence type="fractalNoise" baseFrequency="0.99900001287460327 0.99900001287460327" numOctaves="3" seed="1338" />
<feDisplacementMap in="shape" scale="3.9230663776397705" xChannelSelector="R" yChannelSelector="G" result="displacedImage" width="100%" height="100%" />
<feMerge result="effect1_texture_3510_171">
<feMergeNode in="displacedImage"/>
</feMerge>
</filter>
<filter id="filter44_g_3510_171" x="130.382" y="107.306" width="17.7707" height="17.7688" filterUnits="userSpaceOnUse" color-interpolation-filters="sRGB">
<feFlood flood-opacity="0" result="BackgroundImageFix"/>
<feBlend mode="normal" in="SourceGraphic" in2="BackgroundImageFix" result="shape"/>
<feTurbulence type="fractalNoise" baseFrequency="0.99900001287460327 0.99900001287460327" numOctaves="3" seed="1338" />
<feDisplacementMap in="shape" scale="3.9230663776397705" xChannelSelector="R" yChannelSelector="G" result="displacedImage" width="100%" height="100%" />
<feMerge result="effect1_texture_3510_171">
<feMergeNode in="displacedImage"/>
</feMerge>
</filter>
</defs>
</svg>
