<svg width="324" height="257" viewBox="0 0 324 257" fill="none" xmlns="http://www.w3.org/2000/svg">
<path d="M135.411 65.1383C142.73 60.1979 153.443 55.5913 164.609 51.9543C175.761 48.3218 187.246 45.6949 196.052 44.6677L196.053 44.6681C230.882 40.5712 265.909 50.1127 293.72 71.2033L270.17 83.8289C246.983 65.9007 215.071 60.9925 186.82 64.8525L186.771 64.8593L186.722 64.8691L185.51 65.1209C135.144 75.8308 96.6796 111.208 90.4142 163.068C89.0732 162.005 87.8841 160.97 86.7604 159.977C85.106 158.515 83.5401 157.099 81.8763 155.902C78.8101 153.698 75.4229 152.247 70.2229 152.017C81.5709 112.645 100.238 87.3417 135.373 65.1638L135.392 65.1509L135.411 65.1383Z" fill="#FF80AB" stroke="black" stroke-width="3"/>
<path d="M140.036 82.7274C146.073 79.747 151.857 76.8366 157.083 74.4567C162.347 72.0599 166.935 70.2544 170.552 69.4615L170.731 69.4222L170.896 69.3409C182.789 63.4713 201.533 61.8046 220.563 64.5274C238.709 67.1238 256.803 73.6688 269.156 84.0131C267.367 84.7328 265.125 85.4504 262.57 86.1723C258.95 87.1957 254.817 88.1982 250.646 89.2205C246.491 90.2391 242.301 91.2769 238.624 92.3616C235.353 93.3266 232.392 94.3566 230.193 95.485C227.717 94.2134 225.168 93.0847 222.558 92.108L222.557 92.1085C201.063 83.9502 180.191 86.6826 159.772 95.6372L159.733 95.6545L158.34 96.3255C129.697 110.381 114.111 133.807 111.285 165.151C106.358 165.568 100.975 166.174 96.3809 165.807L95.9011 165.765C94.1768 165.6 93.0559 165.196 92.322 164.707C91.6159 164.236 91.1804 163.629 90.9141 162.859C90.3306 161.171 90.5689 158.808 91.0344 155.775C95.7184 125.263 113.99 99.3194 140.036 82.7274Z" fill="#FEABC8" stroke="black" stroke-width="3"/>
<path d="M140.036 82.7274C146.073 79.747 151.857 76.8366 157.083 74.4567C162.347 72.0599 166.935 70.2544 170.552 69.4615L170.731 69.4222L170.896 69.3409C182.789 63.4713 201.533 61.8046 220.563 64.5274C238.709 67.1238 256.803 73.6688 269.156 84.0131C267.367 84.7328 265.125 85.4504 262.57 86.1723C258.95 87.1957 254.817 88.1982 250.646 89.2205C246.491 90.2391 242.301 91.2769 238.624 92.3616C235.353 93.3266 232.392 94.3566 230.193 95.485C227.717 94.2134 225.168 93.0847 222.558 92.108L222.557 92.1085C201.063 83.9502 180.191 86.6826 159.772 95.6372L159.733 95.6545L158.34 96.3255C129.697 110.381 114.111 133.807 111.285 165.151C106.358 165.568 100.975 166.174 96.3809 165.807L95.9011 165.765C94.1768 165.6 93.0559 165.196 92.322 164.707C91.6159 164.236 91.1804 163.629 90.9141 162.859C90.3306 161.171 90.5689 158.808 91.0344 155.775C95.7184 125.263 113.99 99.3194 140.036 82.7274Z" fill="#FEABC8" stroke="black" stroke-width="3"/>
<path d="M60.4847 146.247C62.1872 145.33 63.6257 144.917 64.8827 144.827C66.2858 144.726 67.5681 145.022 68.8559 145.623C70.1672 146.235 71.4715 147.157 72.9038 148.304C73.6171 148.875 74.343 149.486 75.112 150.131C75.8761 150.773 76.6788 151.445 77.5215 152.117C79.9949 154.088 82.244 156.174 84.7424 158.295C87.1936 160.376 89.7895 162.402 92.733 164.028L93.0447 164.201L93.4015 164.216C95.6251 164.308 98.7052 164.131 102.058 163.914C105.447 163.695 109.17 163.43 112.788 163.33C116.413 163.23 119.858 163.297 122.687 163.718C125.42 164.125 127.272 164.822 128.252 165.735C128.913 167.473 128.611 169.54 127.416 171.999C126.17 174.563 124.074 177.298 121.66 180.075C119.212 182.891 116.66 185.506 114.324 188.113C112.089 190.606 110.069 193.072 109.156 195.236C106.974 200.408 107.354 206.758 107.951 212.933C108.548 219.109 109.367 225.178 108.626 230.599C108.026 231.262 107.265 231.982 106.541 232.691C104.932 233.165 103.104 232.754 100.916 231.485C98.5959 230.14 96.1442 227.988 93.5471 225.537C91.0007 223.134 88.3049 220.434 85.6489 218.214C83.0024 216.003 80.1911 214.087 77.3143 213.362C72.4423 212.133 67.8063 211.975 63.3442 212.021C58.8298 212.067 54.609 212.314 50.2625 211.964C46.6974 211.675 44.3444 211.058 42.8721 210.277C41.4607 209.529 40.9391 208.684 40.7942 207.824C40.6315 206.858 40.8924 205.573 41.685 203.922C42.4662 202.294 43.679 200.482 45.1701 198.533C46.6563 196.59 48.377 194.566 50.1465 192.504C51.9061 190.453 53.7175 188.362 55.3436 186.333C56.9678 184.306 58.4462 182.292 59.5333 180.378C60.6068 178.487 61.3843 176.549 61.4307 174.702L61.4311 174.683L61.432 174.665C61.4343 169.944 60.9813 164.876 60.6522 159.931C60.3389 155.223 60.1334 150.592 60.4847 146.247Z" fill="#F7CB46" stroke="black" stroke-width="3"/>
</svg>
