<svg width="324" height="257" viewBox="0 0 324 257" fill="none" xmlns="http://www.w3.org/2000/svg">
<path d="M188.448 65.1387C181.129 60.1983 170.416 55.5917 159.25 51.9547C148.099 48.3222 136.614 45.6953 127.807 44.6681L127.806 44.6685C92.9778 40.5715 57.9502 50.113 30.1397 71.2037L53.6893 83.8292C76.8767 65.9011 108.788 60.9929 137.04 64.8529L137.089 64.8597L137.137 64.8695L138.349 65.1213C188.715 75.8312 227.18 111.209 233.445 163.068C234.786 162.005 235.975 160.97 237.099 159.977C238.753 158.516 240.319 157.099 241.983 155.903C245.049 153.698 248.436 152.248 253.636 152.018C242.288 112.646 223.622 87.3421 188.487 65.1642L188.467 65.1512L188.448 65.1387Z" fill="#FF80AB" stroke="black" stroke-width="3"/>
<path d="M183.827 82.7298C177.79 79.7493 172.006 76.8389 166.78 74.4591C161.516 72.0622 156.928 70.2567 153.311 69.4639L153.132 69.4245L152.968 69.3433C141.074 63.4736 122.33 61.8069 103.301 64.5297C85.1548 67.1261 67.0605 73.6711 54.7068 84.0154C56.4965 84.7351 58.7385 85.4528 61.2928 86.1747C64.9137 87.198 69.0467 88.2005 73.217 89.2229C77.3719 90.2414 81.5619 91.2792 85.2389 92.3639C88.5102 93.3289 91.4713 94.359 93.6704 95.4874C96.1466 94.2158 98.6957 93.087 101.305 92.1104L101.306 92.1108C122.8 83.9526 143.672 86.6849 164.091 95.6395L164.13 95.6568L165.523 96.3279C194.166 110.384 209.752 133.809 212.578 165.153C217.506 165.57 222.888 166.176 227.482 165.809L227.962 165.767C229.687 165.602 230.807 165.198 231.541 164.709C232.247 164.238 232.683 163.631 232.949 162.861C233.533 161.173 233.294 158.81 232.829 155.778C228.145 125.266 209.874 99.3217 183.827 82.7298Z" fill="#FEABC8" stroke="black" stroke-width="3"/>
<path d="M183.827 82.7298C177.79 79.7493 172.006 76.8389 166.78 74.4591C161.516 72.0622 156.928 70.2567 153.311 69.4639L153.132 69.4245L152.968 69.3433C141.074 63.4736 122.33 61.8069 103.301 64.5297C85.1548 67.1261 67.0605 73.6711 54.7068 84.0154C56.4965 84.7351 58.7385 85.4528 61.2928 86.1747C64.9137 87.198 69.0467 88.2005 73.217 89.2229C77.3719 90.2414 81.5619 91.2792 85.2389 92.3639C88.5102 93.3289 91.4713 94.359 93.6704 95.4874C96.1466 94.2158 98.6957 93.087 101.305 92.1104L101.306 92.1108C122.8 83.9526 143.672 86.6849 164.091 95.6395L164.13 95.6568L165.523 96.3279C194.166 110.384 209.752 133.809 212.578 165.153C217.506 165.57 222.888 166.176 227.482 165.809L227.962 165.767C229.687 165.602 230.807 165.198 231.541 164.709C232.247 164.238 232.683 163.631 232.949 162.861C233.533 161.173 233.294 158.81 232.829 155.778C228.145 125.266 209.874 99.3217 183.827 82.7298Z" fill="#FEABC8" stroke="black" stroke-width="3"/>
<path d="M263.375 146.251C261.672 145.335 260.234 144.921 258.977 144.831C257.574 144.731 256.291 145.026 255.003 145.627C253.692 146.239 252.388 147.161 250.956 148.308C250.242 148.879 249.516 149.49 248.747 150.136C247.983 150.777 247.181 151.449 246.338 152.121C243.865 154.092 241.615 156.178 239.117 158.299C236.666 160.38 234.07 162.406 231.126 164.032L230.815 164.205L230.458 164.22C228.234 164.313 225.154 164.135 221.802 163.918C218.412 163.699 214.69 163.435 211.072 163.335C207.446 163.234 204.001 163.302 201.172 163.723C198.44 164.129 196.588 164.826 195.608 165.739C194.947 167.477 195.248 169.545 196.443 172.003C197.689 174.567 199.785 177.302 202.199 180.079C204.648 182.895 207.2 185.511 209.536 188.117C211.771 190.61 213.79 193.076 214.703 195.24C216.885 200.412 216.505 206.762 215.909 212.938C215.312 219.113 214.492 225.182 215.233 230.604C215.834 231.266 216.595 231.986 217.318 232.695C218.927 233.169 220.755 232.758 222.944 231.489C225.263 230.144 227.715 227.992 230.312 225.542C232.859 223.139 235.554 220.438 238.211 218.219C240.857 216.007 243.668 214.092 246.545 213.366C251.417 212.138 256.053 211.979 260.515 212.025C265.03 212.071 269.25 212.319 273.597 211.968C277.162 211.68 279.515 211.062 280.987 210.281C282.399 209.533 282.92 208.688 283.065 207.829C283.228 206.863 282.967 205.577 282.174 203.926C281.393 202.298 280.18 200.486 278.689 198.537C277.203 196.594 275.482 194.57 273.713 192.508C271.953 190.458 270.142 188.367 268.516 186.337C266.892 184.311 265.413 182.296 264.326 180.382C263.253 178.492 262.475 176.554 262.429 174.706L262.428 174.687L262.427 174.669C262.425 169.949 262.878 164.88 263.207 159.936C263.521 155.227 263.726 150.596 263.375 146.251Z" fill="#F6C041" stroke="black" stroke-width="3"/>
<path d="M263.699 146.38C261.996 145.464 260.558 145.05 259.301 144.96C257.898 144.86 256.615 145.155 255.328 145.756C254.016 146.368 252.712 147.29 251.28 148.437C250.567 149.008 249.841 149.619 249.072 150.264C248.307 150.906 247.505 151.578 246.662 152.25C244.189 154.221 241.94 156.307 239.441 158.428C236.99 160.509 234.394 162.535 231.451 164.161L231.139 164.334L230.782 164.349C228.559 164.442 225.478 164.264 222.126 164.047C218.736 163.828 215.014 163.564 211.396 163.464C207.771 163.363 204.325 163.431 201.496 163.852C198.764 164.258 196.912 164.955 195.932 165.868C195.271 167.606 195.572 169.674 196.767 172.132C198.014 174.696 200.109 177.431 202.524 180.208C204.972 183.024 207.524 185.64 209.86 188.246C212.095 190.739 214.114 193.205 215.028 195.369C217.21 200.541 216.83 206.891 216.233 213.067C215.636 219.242 214.816 225.311 215.558 230.732C216.158 231.395 216.919 232.115 217.642 232.824C219.251 233.298 221.079 232.887 223.268 231.618C225.588 230.273 228.039 228.121 230.636 225.67C233.183 223.268 235.879 220.567 238.535 218.347C241.181 216.136 243.993 214.221 246.869 213.495C251.741 212.267 256.377 212.108 260.839 212.154C265.354 212.2 269.575 212.448 273.921 212.097C277.486 211.809 279.839 211.191 281.311 210.41C282.723 209.662 283.244 208.817 283.389 207.957C283.552 206.992 283.291 205.706 282.499 204.055C281.717 202.427 280.505 200.615 279.014 198.666C277.527 196.723 275.807 194.699 274.037 192.637C272.278 190.587 270.466 188.495 268.84 186.466C267.216 184.439 265.737 182.425 264.65 180.511C263.577 178.621 262.799 176.683 262.753 174.835L262.752 174.816L262.752 174.798C262.749 170.078 263.202 165.009 263.531 160.065C263.845 155.356 264.05 150.725 263.699 146.38Z" fill="#F7CB46" stroke="black" stroke-width="3"/>
</svg>
