<svg width="301" height="443" viewBox="0 0 301 443" fill="none" xmlns="http://www.w3.org/2000/svg">
<g clip-path="url(#clip0_3683_1464)">
<rect width="300.828" height="443" rx="29.8767" fill="#FCFCFD"/>
<path d="M37.1445 30.5H263.27C271.761 30.5 278.645 37.3836 278.645 45.875V221H21.7695V45.875C21.7695 37.3836 28.6532 30.5 37.1445 30.5Z" fill="#F7CB46" stroke="black" stroke-width="3"/>
<circle cx="257.645" cy="93.125" r="4.125" fill="#F1F3F2" stroke="black" stroke-width="3"/>
<path d="M26.0469 141.234C29.7847 139.275 35.2459 139.155 39.3037 140.6C42.928 141.891 45.4319 145.755 47.0518 150.711C48.5461 155.283 49.1605 160.406 49.3223 164.199L49.3486 164.939C49.403 166.842 49.3161 168.847 49.2021 170.939C49.0892 173.013 48.9493 175.186 48.9121 177.339C48.8378 181.64 49.1626 186.094 51.0322 190.119C52.3147 192.879 54.5125 195.134 57.5791 196.131C59.5256 196.764 61.586 196.67 63.4609 195.587V195.586C65.7278 194.275 67.2975 191.945 68.4434 189.315C69.598 186.665 70.402 183.525 71.0264 180.353C71.6515 177.176 72.1124 173.882 72.5518 170.935C72.997 167.948 73.4149 165.36 73.9521 163.463C75.1799 159.127 77.2817 154.643 80.8779 152.555L81.2305 152.36C83.3807 151.236 86.3181 150.994 88.6973 151.674L89.165 151.822C92.9809 153.156 95.2388 156.154 96.5068 160.307C97.7892 164.506 97.9993 169.725 97.7666 175.127C97.5334 180.539 96.8742 185.896 96.4912 190.51C96.3023 192.785 96.1809 194.884 96.2324 196.648C96.2792 198.248 96.4691 199.786 97.0303 200.948L97.1475 201.176C97.4721 201.765 97.9514 202.429 98.5361 202.993C99.1024 203.54 99.8939 204.114 100.854 204.302V204.303C103.11 204.745 104.879 203.411 106.177 201.875C107.494 200.316 108.686 198.136 109.819 195.951C110.985 193.705 112.11 191.41 113.353 189.381C114.603 187.339 115.859 185.762 117.183 184.874C119.125 183.571 121.028 183.376 123.425 183.827L123.911 183.926C126.856 184.565 128.768 186.087 130.061 188.16C131.388 190.289 132.101 193.065 132.44 196.211C132.779 199.346 132.735 202.715 132.644 205.969C132.554 209.17 132.413 212.328 132.593 214.854V214.855C132.916 219.359 133.794 223.675 135.839 227.737C128.902 227.894 122.318 228.78 115.538 230.8L114.832 231.015L113.616 231.362L113.552 231.381L113.488 231.405C102.077 235.819 92.0603 240.716 85.1875 251.64C79.8443 248.686 72.435 247.166 66.7207 247.253C65.4608 247.272 63.563 246.863 61.0684 246.029C58.6117 245.208 55.7164 244.025 52.5176 242.607C46.102 239.764 38.6464 236.063 31.1992 232.57C23.8012 229.1 16.4325 225.846 10.3584 223.996C7.3263 223.073 4.53077 222.472 2.16895 222.398C0.872842 222.358 -0.386144 222.475 -1.50488 222.845L-3.38184 201.474C-3.13466 201.577 -2.85665 201.7 -2.54492 201.842C-1.15801 202.474 0.751533 203.413 2.83398 204.007C4.93604 204.607 7.35781 204.903 9.82715 204.17C12.3248 203.428 14.6806 201.69 16.7334 198.575L16.8721 198.364L16.9346 198.12C17.5791 195.587 17.8598 194.181 17.9453 192.727C18.0062 191.69 17.9646 190.609 17.918 189.089L17.874 187.408C17.7744 182.654 17.4451 175.435 17.4668 168.274C17.4886 161.068 17.8718 154.217 19.1084 150.205C20.2946 146.356 22.5968 143.044 26.0469 141.235V141.234Z" fill="#FAA640" stroke="black" stroke-width="3"/>
<path d="M199.297 136.734C203.035 134.775 208.496 134.655 212.554 136.1C216.178 137.391 218.682 141.255 220.302 146.211C221.796 150.783 222.411 155.906 222.572 159.699L222.599 160.439C222.653 162.342 222.566 164.347 222.452 166.439C222.339 168.513 222.199 170.686 222.162 172.839C222.088 177.14 222.412 181.595 224.281 185.619H224.282C225.565 188.379 227.762 190.634 230.829 191.631C232.776 192.264 234.836 192.17 236.711 191.087V191.086C238.978 189.775 240.548 187.445 241.693 184.815C242.848 182.165 243.652 179.025 244.276 175.853C244.902 172.676 245.362 169.382 245.802 166.435C246.247 163.448 246.665 160.86 247.202 158.963C248.43 154.627 250.532 150.143 254.128 148.055L254.48 147.86C256.631 146.736 259.568 146.494 261.947 147.174L262.415 147.322C266.231 148.656 268.489 151.654 269.757 155.807C271.039 160.006 271.249 165.225 271.017 170.627C270.783 176.039 270.124 181.396 269.741 186.01C269.552 188.285 269.431 190.384 269.482 192.148C269.529 193.748 269.719 195.286 270.28 196.448L270.397 196.676C270.722 197.265 271.201 197.929 271.786 198.493C272.352 199.04 273.144 199.614 274.104 199.802V199.803C276.36 200.245 278.129 198.911 279.427 197.375C280.744 195.816 281.936 193.636 283.069 191.451C284.235 189.205 285.36 186.91 286.603 184.881C287.853 182.839 289.109 181.262 290.433 180.374C292.505 178.985 294.532 178.855 297.161 179.426C300.224 180.091 301.883 181.339 302.818 182.812C303.788 184.337 304.13 186.335 304.084 188.772C304.037 191.215 303.611 193.87 303.213 196.66C302.824 199.387 302.462 202.244 302.648 204.856V204.857C302.708 205.685 302.304 206.899 301.394 208.545C300.509 210.144 299.327 211.847 298.137 213.65C296.983 215.398 295.814 217.251 295.131 218.987C294.739 219.982 294.453 221.083 294.501 222.173C294.316 222.185 294.141 222.199 293.979 222.215C293.355 222.277 292.795 222.38 292.329 222.576C291.815 222.792 291.348 223.153 291.081 223.729C290.86 224.205 290.859 224.692 290.854 224.843C290.843 225.19 290.841 225.164 290.758 225.254C290.554 225.474 289.913 225.945 288.069 226.518L286.866 226.862L286.801 226.881L286.737 226.905C284.227 227.876 281.771 227.627 279.277 226.748C276.729 225.85 274.307 224.361 271.821 222.95C269.462 221.611 266.905 220.251 264.431 220.126C263.128 220.06 261.836 220.332 260.617 221.09C259.703 221.658 258.884 222.467 258.143 223.514C257.474 223.424 256.805 223.537 256.179 223.795C255.18 224.206 254.264 224.982 253.445 225.846C251.8 227.581 250.097 230.17 248.46 232.707C246.782 235.308 245.151 237.894 243.57 239.852C242.783 240.827 242.057 241.583 241.398 242.087C240.727 242.601 240.262 242.748 239.971 242.753C227.943 242.936 218.641 247.155 210.279 255.042C197.402 236.269 173.195 226.077 151.85 222.082C151.63 217.779 151.215 213.258 151.152 208.611C151.085 203.594 151.454 198.788 152.91 194.744C154.011 191.687 155.92 189.333 158.801 188.043C160.844 187.127 163.065 187.151 165.237 187.987C167.426 188.83 168.616 190.407 169.528 192.493C169.994 193.558 170.368 194.71 170.771 195.952C171.165 197.167 171.588 198.47 172.134 199.706C173.284 202.312 175.192 205.266 178.471 206.423C180.539 207.153 183.171 207.299 185.363 206.1C188.242 204.525 189.525 201.573 190.184 198.983C191.192 195.021 191.277 190.809 191.211 186.813L191.124 182.908C191.024 178.154 190.695 170.935 190.717 163.774C190.739 156.568 191.122 149.717 192.358 145.705C193.545 141.856 195.847 138.544 199.297 136.735V136.734Z" fill="#FAA640" stroke="black" stroke-width="3"/>
<circle cx="54.582" cy="52.0625" r="4.6875" fill="#F1F3F2" stroke="black" stroke-width="3"/>
<circle cx="259.895" cy="129.125" r="4.125" fill="#F1F3F2" stroke="black" stroke-width="3"/>
<circle cx="95.6445" cy="93.125" r="4.125" fill="#F1F3F2" stroke="black" stroke-width="3"/>
<circle cx="43.8945" cy="123.5" r="4.125" fill="#F1F3F2" stroke="black" stroke-width="3"/>
<circle cx="212.645" cy="52.625" r="4.125" fill="#F1F3F2" stroke="black" stroke-width="3"/>
<circle cx="141.77" cy="189.875" r="4.125" fill="#F1F3F2" stroke="black" stroke-width="3"/>
<path d="M132.726 70.0205C151.656 68.3553 170.666 81.2915 182.945 95.3262L183.344 95.7803L183.945 95.833C195.35 96.8217 202.884 98.1705 213.366 102.982C228.297 109.836 236.91 122.414 238.021 135.105C239.128 147.738 232.828 160.74 217.372 168.623C213.516 170.59 209.105 172.686 204.901 173.976L204.063 174.223C168.871 184.153 133.522 175.949 101.29 159.405H101.289L92.123 154.583L91.0723 154.03L90.293 154.926C86.0935 159.754 81.4296 165.436 76.2363 170.422C71.0413 175.409 65.4626 179.548 59.5322 181.362C57.9989 181.831 55.8194 181.673 53.9727 180.883C52.1083 180.085 51.0093 178.853 50.8828 177.491C50.8147 176.756 51.0675 175.587 51.7031 174.035C52.3187 172.533 53.2154 170.855 54.2217 169.18C56.2302 165.836 58.5934 162.639 59.7822 161.097L59.7832 161.098C67.0955 151.69 69.1586 143.622 67.6123 135.643C66.1912 128.31 61.7443 121.248 56.1797 113.491L55.0527 111.931C53.6605 110.014 51.8105 107.38 50.7373 104.716C49.6439 102.001 49.5482 99.7614 50.8428 98.1631C51.1281 97.811 51.805 97.2877 52.6562 96.8545C53.5368 96.4065 54.2454 96.2374 54.5547 96.2578C60.8649 96.6772 66.9057 100.725 72.7822 105.948C75.6984 108.54 78.502 111.353 81.2393 114.058C83.957 116.743 86.6194 119.333 89.1875 121.394L89.1934 121.398L89.7373 121.829L90.3926 122.35L91.1787 122.065C101.088 118.491 118.415 109.856 128.267 105.339L128.984 105.01L129.119 104.232C130.967 93.5901 129.112 86.6277 126.282 76.8721C125.836 75.332 125.797 74.2362 125.955 73.458C126.106 72.7151 126.453 72.1809 126.965 71.752C128.098 70.8036 130.081 70.32 132.726 70.0205Z" fill="#56D5F3" stroke="black" stroke-width="3"/>
<path d="M201.957 114.875C209.57 114.875 215.645 120.804 215.645 128C215.645 135.196 209.57 141.125 201.957 141.125C194.344 141.125 188.27 135.196 188.27 128C188.27 120.804 194.344 114.875 201.957 114.875Z" fill="#F1F3F2" stroke="black" stroke-width="3"/>
<circle cx="201.395" cy="128" r="5.625" fill="black"/>
<path d="M225.02 145.625C224.191 145.625 223.52 146.297 223.52 147.125C223.52 147.953 224.191 148.625 225.02 148.625L225.02 147.125L225.02 145.625ZM236.27 147.125L236.27 145.625L225.02 145.625L225.02 147.125L225.02 148.625L236.27 148.625L236.27 147.125Z" fill="black"/>
<path d="M159.034 119C159.034 119 136.184 119.073 138.569 127.389C140.568 134.36 156.243 132.982 156.243 132.982C156.243 132.982 139.775 134.582 138.569 142.304C137.108 151.654 160.895 151.625 160.895 151.625" stroke="#040605" stroke-width="3" stroke-linecap="round"/>
<path d="M12.332 213.062L-0.0429688 226.562L65.7695 312.625L303.707 225.375L306.207 205.5L298.895 195.438L293.582 193.375L284.582 196.188L275.582 204.625L263.207 215.875L253.082 218.125L244.645 212.5L236.77 202.938L228.332 196.188L219.895 193.375L213.707 196.188L198.52 210.812L191.207 215.875L183.895 217.562L174.895 213.625L164.77 205.75L154.082 201.812L143.395 203.5L129.895 213.625L122.02 217L114.145 216.438L108.52 211.938L102.895 201.812L96.1445 192.812L91.082 190L84.8945 191.125L79.2695 197.312L71.3945 211.938L65.7695 215.875H59.0195L52.832 210.812L47.7695 205.188L39.8945 201.812L28.6445 204.062L12.332 213.062Z" fill="#FCFCFD" stroke="#FCFCFD" stroke-width="1.125"/>
<path d="M-2.04297 224.438C-2.04297 224.438 22.0966 200.975 37.2415 200.975C54.207 200.975 51.442 215.613 62.694 215.211C77.2106 214.692 75.807 188.231 90.3127 189.017C104.052 189.762 101.94 211.446 115.224 215.211C130.402 219.512 137.428 200.216 153.132 200.975C167.059 201.648 172.225 215.371 186.166 215.211C203.399 215.012 207.634 189.34 224.615 192.434C237.796 194.835 238.31 211.266 251.151 215.211C270.871 221.268 283.957 179.375 302.957 196.875C308.544 202.021 306.957 218.375 306.957 218.375" stroke="black" stroke-width="3"/>
<mask id="path-20-outside-1_3683_1464" maskUnits="userSpaceOnUse" x="79.707" y="285.375" width="142" height="43" fill="black">
<rect fill="white" x="79.707" y="285.375" width="142" height="43"/>
<path d="M90.2678 301.415C90.1112 303.451 90.6332 305.957 91.103 306.583C92.669 306.896 94.496 307.157 96.2708 307.157C99.6116 307.157 102.691 306.113 103.109 301.885C103.527 297.605 100.134 295.464 96.062 295.464C91.9904 295.464 90.4766 297.187 90.2678 301.415ZM84.0038 301.885C84.0038 299.223 83.1686 296.456 83.5862 293.951C84.2648 290.14 88.2842 288.261 95.6966 288.261C105.197 288.261 110.417 292.28 110.417 299.849C110.417 306.896 106.137 313.526 99.6638 313.526C95.801 313.526 92.8256 312.429 91.9382 312.429C91.3118 312.429 90.9986 312.743 90.9986 314.152C90.9986 317.858 94.8092 321.303 94.8092 323.861C94.8092 324.905 94.2872 325.375 93.1388 325.375H85.2566C82.9598 325.375 83.012 321.147 83.012 319.842C83.012 313.787 84.0038 307.888 84.0038 301.885ZM121.933 311.699C120.941 315.822 121.202 319.268 127.153 319.998C131.329 320.52 134.827 318.276 134.096 314.57C133.522 311.594 131.016 310.655 128.145 310.655C126.057 310.655 123.812 311.124 121.933 311.699ZM116.087 312.743C116.243 307.784 115.46 303.399 114.991 298.44C114.573 293.69 115.617 288.313 120.889 288.313C123.343 288.313 125.692 290.192 125.692 292.75C125.692 297.709 121.933 298.962 122.403 303.451C122.507 304.599 123.29 304.913 124.439 304.913C125.953 304.913 128.093 304.338 130.076 304.338C136.862 304.338 140.934 309.506 140.934 315.144C140.934 320.416 136.706 325.375 132.269 325.375H118.801C112.903 325.375 115.982 315.353 116.087 312.743ZM141.978 292.75C142.552 290.401 145.11 288.365 147.72 288.365C149.965 288.365 152.157 289.044 153.097 292.646C154.193 296.769 150.904 301.363 151.061 305.696C151.374 313.473 156.646 325.375 150.173 325.375H145.267C138.742 325.375 144.745 313.734 144.797 305.33C144.849 300.162 140.777 297.866 141.978 292.75ZM166.833 311.49C165.789 315.614 166.103 319.059 172.21 319.79C176.543 320.312 180.144 318.067 179.414 314.361C178.787 311.385 176.229 310.446 173.254 310.446C171.114 310.446 168.765 310.916 166.833 311.49ZM160.152 312.586C161.822 305.696 156.289 298.701 161.196 292.228C163.597 289.044 168.608 288.261 172.784 288.261C175.446 288.261 177.795 288.574 178.944 288.783C182.232 289.357 186.774 290.714 186.461 294.681C186.2 297.761 183.851 299.379 181.241 299.379C179.831 299.379 178.37 298.91 177.117 298.022C175.76 297.03 174.35 295.308 173.463 294.838C172.941 294.577 172.419 294.473 171.949 294.473C168.243 294.473 164.902 300.841 167.669 304.965C168.138 305.643 168.713 305.904 169.443 305.904C170.801 305.904 172.68 305.017 175.081 305.017C182.128 305.017 186.878 309.297 186.878 314.935C186.878 320.207 182.337 325.375 177.743 325.375H165.006C158.899 325.375 159.525 315.092 160.152 312.586ZM200.934 309.611C209.39 308.306 210.486 305.069 210.382 301.467C210.33 298.44 207.981 296.561 205.527 296.561C204.066 296.561 202.5 297.187 201.351 298.649C198.585 302.042 199.942 305.696 200.934 309.611ZM201.873 288.835C202.813 288.522 203.961 288.313 205.214 288.313C208.19 288.313 211.739 289.409 213.775 291.967C215.237 293.846 216.228 296.404 216.959 300.476C218.525 309.141 220.248 325.375 215.028 325.375H210.173C203.753 325.375 212.992 315.092 208.607 313.056C208.033 312.795 206.885 312.586 205.736 312.586C203.909 312.586 202.03 313.108 202.343 314.622C203.544 320.886 203.335 325.375 199.002 325.375H193.521C189.293 325.375 192.269 320.834 193.991 313.526C195.348 307.679 189.659 293.324 201.873 288.835Z"/>
</mask>
<path d="M90.2678 301.415C90.1112 303.451 90.6332 305.957 91.103 306.583C92.669 306.896 94.496 307.157 96.2708 307.157C99.6116 307.157 102.691 306.113 103.109 301.885C103.527 297.605 100.134 295.464 96.062 295.464C91.9904 295.464 90.4766 297.187 90.2678 301.415ZM84.0038 301.885C84.0038 299.223 83.1686 296.456 83.5862 293.951C84.2648 290.14 88.2842 288.261 95.6966 288.261C105.197 288.261 110.417 292.28 110.417 299.849C110.417 306.896 106.137 313.526 99.6638 313.526C95.801 313.526 92.8256 312.429 91.9382 312.429C91.3118 312.429 90.9986 312.743 90.9986 314.152C90.9986 317.858 94.8092 321.303 94.8092 323.861C94.8092 324.905 94.2872 325.375 93.1388 325.375H85.2566C82.9598 325.375 83.012 321.147 83.012 319.842C83.012 313.787 84.0038 307.888 84.0038 301.885ZM121.933 311.699C120.941 315.822 121.202 319.268 127.153 319.998C131.329 320.52 134.827 318.276 134.096 314.57C133.522 311.594 131.016 310.655 128.145 310.655C126.057 310.655 123.812 311.124 121.933 311.699ZM116.087 312.743C116.243 307.784 115.46 303.399 114.991 298.44C114.573 293.69 115.617 288.313 120.889 288.313C123.343 288.313 125.692 290.192 125.692 292.75C125.692 297.709 121.933 298.962 122.403 303.451C122.507 304.599 123.29 304.913 124.439 304.913C125.953 304.913 128.093 304.338 130.076 304.338C136.862 304.338 140.934 309.506 140.934 315.144C140.934 320.416 136.706 325.375 132.269 325.375H118.801C112.903 325.375 115.982 315.353 116.087 312.743ZM141.978 292.75C142.552 290.401 145.11 288.365 147.72 288.365C149.965 288.365 152.157 289.044 153.097 292.646C154.193 296.769 150.904 301.363 151.061 305.696C151.374 313.473 156.646 325.375 150.173 325.375H145.267C138.742 325.375 144.745 313.734 144.797 305.33C144.849 300.162 140.777 297.866 141.978 292.75ZM166.833 311.49C165.789 315.614 166.103 319.059 172.21 319.79C176.543 320.312 180.144 318.067 179.414 314.361C178.787 311.385 176.229 310.446 173.254 310.446C171.114 310.446 168.765 310.916 166.833 311.49ZM160.152 312.586C161.822 305.696 156.289 298.701 161.196 292.228C163.597 289.044 168.608 288.261 172.784 288.261C175.446 288.261 177.795 288.574 178.944 288.783C182.232 289.357 186.774 290.714 186.461 294.681C186.2 297.761 183.851 299.379 181.241 299.379C179.831 299.379 178.37 298.91 177.117 298.022C175.76 297.03 174.35 295.308 173.463 294.838C172.941 294.577 172.419 294.473 171.949 294.473C168.243 294.473 164.902 300.841 167.669 304.965C168.138 305.643 168.713 305.904 169.443 305.904C170.801 305.904 172.68 305.017 175.081 305.017C182.128 305.017 186.878 309.297 186.878 314.935C186.878 320.207 182.337 325.375 177.743 325.375H165.006C158.899 325.375 159.525 315.092 160.152 312.586ZM200.934 309.611C209.39 308.306 210.486 305.069 210.382 301.467C210.33 298.44 207.981 296.561 205.527 296.561C204.066 296.561 202.5 297.187 201.351 298.649C198.585 302.042 199.942 305.696 200.934 309.611ZM201.873 288.835C202.813 288.522 203.961 288.313 205.214 288.313C208.19 288.313 211.739 289.409 213.775 291.967C215.237 293.846 216.228 296.404 216.959 300.476C218.525 309.141 220.248 325.375 215.028 325.375H210.173C203.753 325.375 212.992 315.092 208.607 313.056C208.033 312.795 206.885 312.586 205.736 312.586C203.909 312.586 202.03 313.108 202.343 314.622C203.544 320.886 203.335 325.375 199.002 325.375H193.521C189.293 325.375 192.269 320.834 193.991 313.526C195.348 307.679 189.659 293.324 201.873 288.835Z" fill="#FEABC8"/>
<path d="M90.2678 301.415L92.7605 301.607L92.7631 301.573L92.7648 301.539L90.2678 301.415ZM91.103 306.583L89.103 308.083L89.6761 308.847L90.6127 309.034L91.103 306.583ZM103.109 301.885L105.597 302.131L105.597 302.128L103.109 301.885ZM83.5862 293.951L81.125 293.512L81.1225 293.526L81.1202 293.54L83.5862 293.951ZM90.2678 301.415L87.7752 301.223C87.6771 302.499 87.792 303.851 87.9887 304.963C88.0883 305.526 88.2165 306.072 88.3694 306.554C88.4992 306.963 88.7213 307.574 89.103 308.083L91.103 306.583L93.103 305.083C93.2499 305.279 93.2305 305.342 93.1353 305.042C93.063 304.814 92.9825 304.489 92.9123 304.092C92.7698 303.286 92.702 302.367 92.7605 301.607L90.2678 301.415ZM91.103 306.583L90.6127 309.034C92.2673 309.365 94.2708 309.657 96.2708 309.657V307.157V304.657C94.7213 304.657 93.0708 304.427 91.5933 304.132L91.103 306.583ZM96.2708 307.157V309.657C98.1344 309.657 100.302 309.379 102.129 308.215C104.1 306.96 105.323 304.904 105.597 302.131L103.109 301.885L100.621 301.639C100.477 303.094 99.9516 303.674 99.4432 303.998C98.7904 304.414 97.748 304.657 96.2708 304.657V307.157ZM103.109 301.885L105.597 302.128C105.883 299.198 104.836 296.761 102.854 295.136C100.976 293.596 98.4882 292.964 96.062 292.964V295.464V297.964C97.7074 297.964 98.952 298.403 99.6838 299.003C100.312 299.518 100.753 300.292 100.621 301.642L103.109 301.885ZM96.062 295.464V292.964C93.7369 292.964 91.5079 293.448 89.906 295.13C88.3603 296.753 87.8841 298.999 87.7709 301.292L90.2678 301.415L92.7648 301.539C92.8604 299.603 93.2455 298.874 93.5267 298.578C93.7519 298.342 94.3156 297.964 96.062 297.964V295.464ZM84.0038 301.885H86.5038C86.5038 300.362 86.2631 298.778 86.1215 297.568C85.9669 296.248 85.9063 295.237 86.0522 294.362L83.5862 293.951L81.1202 293.54C80.8485 295.17 80.9967 296.795 81.1554 298.15C81.327 299.615 81.5038 300.745 81.5038 301.885H84.0038ZM83.5862 293.951L86.0475 294.389C86.2215 293.412 86.7699 292.601 88.1783 291.94C89.7109 291.221 92.1424 290.761 95.6966 290.761V288.261V285.761C91.8384 285.761 88.5541 286.24 86.0542 287.414C83.4301 288.645 81.6296 290.679 81.125 293.512L83.5862 293.951ZM95.6966 288.261V290.761C100.148 290.761 103.194 291.71 105.079 293.185C106.863 294.582 107.917 296.692 107.917 299.849H110.417H112.917C112.917 295.437 111.361 291.753 108.16 289.248C105.06 286.821 100.746 285.761 95.6966 285.761V288.261ZM110.417 299.849H107.917C107.917 302.897 106.985 305.78 105.458 307.842C103.953 309.875 101.957 311.026 99.6638 311.026V313.526V316.026C103.843 316.026 107.224 313.861 109.477 310.818C111.709 307.803 112.917 303.849 112.917 299.849H110.417ZM99.6638 313.526V311.026C97.9648 311.026 96.4367 310.784 95.187 310.528C94.5418 310.396 94.0307 310.274 93.517 310.16C93.1347 310.075 92.4904 309.929 91.9382 309.929V312.429V314.929C91.8297 314.929 91.8901 314.921 92.436 315.042C92.8505 315.133 93.4911 315.285 94.1835 315.427C95.6091 315.719 97.5001 316.026 99.6638 316.026V313.526ZM91.9382 312.429V309.929C91.5961 309.929 91.0776 309.968 90.5251 310.21C89.92 310.475 89.4375 310.911 89.1044 311.452C88.5498 312.353 88.4986 313.417 88.4986 314.152H90.9986H93.4986C93.4986 313.879 93.5148 313.749 93.5212 313.712C93.529 313.667 93.5096 313.834 93.3627 314.072C93.1861 314.359 92.8994 314.629 92.5292 314.791C92.2116 314.93 91.9671 314.929 91.9382 314.929V312.429ZM90.9986 314.152H88.4986C88.4986 316.769 89.8245 319.109 90.7408 320.691C91.2572 321.582 91.6587 322.243 91.9621 322.872C92.2711 323.513 92.3092 323.795 92.3092 323.861H94.8092H97.3092C97.3092 322.649 96.871 321.541 96.4655 320.7C96.0545 319.848 95.5033 318.937 95.0671 318.184C94.078 316.477 93.4986 315.241 93.4986 314.152H90.9986ZM94.8092 323.861H92.3092C92.3092 323.997 92.2796 323.561 92.7274 323.156C93.12 322.801 93.4447 322.875 93.1388 322.875V325.375V327.875C93.9813 327.875 95.1413 327.715 96.082 326.863C97.0779 325.962 97.3092 324.769 97.3092 323.861H94.8092ZM93.1388 325.375V322.875H85.2566V325.375V327.875H93.1388V325.375ZM85.2566 325.375V322.875C85.5927 322.875 85.8549 323.086 85.9243 323.177C85.934 323.19 85.904 323.153 85.8559 323.034C85.8089 322.917 85.7588 322.757 85.7123 322.55C85.5097 321.648 85.512 320.551 85.512 319.842H83.012H80.512C80.512 320.438 80.4882 322.107 80.8338 323.646C81.0051 324.408 81.3159 325.38 81.9496 326.211C82.6552 327.135 83.7721 327.875 85.2566 327.875V325.375ZM83.012 319.842H85.512C85.512 316.935 85.75 314.049 85.9993 311.051C86.2458 308.086 86.5038 305.008 86.5038 301.885H84.0038H81.5038C81.5038 304.765 81.2659 307.637 81.0165 310.637C80.7699 313.603 80.512 316.694 80.512 319.842H83.012ZM121.933 311.699L121.203 309.308L119.837 309.725L119.503 311.114L121.933 311.699ZM127.153 319.998L127.463 317.518L127.458 317.517L127.153 319.998ZM134.096 314.57L131.641 315.043L131.643 315.053L134.096 314.57ZM116.087 312.743L118.585 312.843L118.585 312.832L118.586 312.822L116.087 312.743ZM114.991 298.44L112.5 298.659L112.501 298.667L112.502 298.676L114.991 298.44ZM122.403 303.451L124.893 303.225L124.891 303.208L124.889 303.191L122.403 303.451ZM141.978 292.75L139.55 292.156L139.547 292.168L139.544 292.179L141.978 292.75ZM153.097 292.646L150.678 293.277L150.681 293.288L153.097 292.646ZM151.061 305.696L148.562 305.786L148.563 305.796L151.061 305.696ZM144.797 305.33L142.297 305.305L142.297 305.315L144.797 305.33ZM121.933 311.699L119.503 311.114C118.995 313.224 118.598 315.871 119.674 318.178C120.874 320.749 123.443 322.061 126.849 322.48L127.153 319.998L127.458 317.517C124.913 317.205 124.376 316.429 124.205 316.064C123.912 315.435 123.88 314.297 124.364 312.283L121.933 311.699ZM127.153 319.998L126.843 322.479C129.407 322.8 132.009 322.307 133.945 320.884C135.997 319.376 137.109 316.93 136.549 314.086L134.096 314.57L131.643 315.053C131.813 315.915 131.542 316.445 130.984 316.855C130.31 317.351 129.075 317.719 127.463 317.518L127.153 319.998ZM134.096 314.57L136.551 314.096C136.127 311.9 134.919 310.3 133.226 309.328C131.641 308.418 129.805 308.155 128.145 308.155V310.655V313.155C129.356 313.155 130.208 313.361 130.737 313.664C131.159 313.906 131.491 314.264 131.641 315.043L134.096 314.57ZM128.145 310.655V308.155C125.722 308.155 123.217 308.692 121.203 309.308L121.933 311.699L122.664 314.089C124.408 313.556 126.392 313.155 128.145 313.155V310.655ZM116.087 312.743L118.586 312.822C118.749 307.653 117.926 302.914 117.48 298.204L114.991 298.44L112.502 298.676C112.995 303.883 113.738 307.914 113.588 312.664L116.087 312.743ZM114.991 298.44L117.481 298.221C117.288 296.027 117.473 293.991 118.088 292.617C118.38 291.966 118.731 291.545 119.111 291.281C119.475 291.028 120.017 290.813 120.889 290.813V288.313V285.813C119.126 285.813 117.56 286.27 116.259 287.174C114.973 288.067 114.101 289.287 113.525 290.573C112.404 293.075 112.276 296.103 112.5 298.659L114.991 298.44ZM120.889 288.313V290.813C122.263 290.813 123.192 291.856 123.192 292.75H125.692H128.192C128.192 288.529 124.423 285.813 120.889 285.813V288.313ZM125.692 292.75H123.192C123.192 294.49 122.592 295.524 121.718 297.007C120.815 298.537 119.59 300.594 119.917 303.711L122.403 303.451L124.889 303.191C124.746 301.819 125.165 301.005 126.025 299.546C126.912 298.041 128.192 295.969 128.192 292.75H125.692ZM122.403 303.451L119.913 303.677C120.021 304.862 120.557 306.01 121.697 306.728C122.658 307.333 123.725 307.413 124.439 307.413V304.913V302.413C124.256 302.413 124.166 302.399 124.141 302.394C124.118 302.39 124.215 302.405 124.361 302.497C124.526 302.601 124.683 302.758 124.789 302.95C124.887 303.126 124.895 303.244 124.893 303.225L122.403 303.451ZM124.439 304.913V307.413C125.425 307.413 126.56 307.23 127.447 307.099C128.433 306.953 129.293 306.838 130.076 306.838V304.338V301.838C128.876 301.838 127.675 302.011 126.716 302.152C125.659 302.308 124.967 302.413 124.439 302.413V304.913ZM130.076 304.338V306.838C135.325 306.838 138.434 310.725 138.434 315.144H140.934H143.434C143.434 308.287 138.4 301.838 130.076 301.838V304.338ZM140.934 315.144H138.434C138.434 317.13 137.626 319.126 136.359 320.619C135.074 322.133 133.551 322.875 132.269 322.875V325.375V327.875C135.424 327.875 138.233 326.138 140.171 323.854C142.128 321.549 143.434 318.43 143.434 315.144H140.934ZM132.269 325.375V322.875H118.801V325.375V327.875H132.269V325.375ZM118.801 325.375V322.875C118.425 322.875 118.278 322.798 118.243 322.778C118.213 322.76 118.15 322.718 118.065 322.564C117.845 322.165 117.672 321.367 117.693 320.078C117.712 318.853 117.897 317.505 118.105 316.217C118.289 315.084 118.551 313.695 118.585 312.843L116.087 312.743L113.589 312.643C113.571 313.095 113.409 313.938 113.169 315.419C112.955 316.743 112.719 318.39 112.693 319.997C112.668 321.54 112.824 323.411 113.683 324.973C114.137 325.799 114.801 326.56 115.73 327.1C116.656 327.639 117.703 327.875 118.801 327.875V325.375ZM141.978 292.75L144.407 293.344C144.535 292.818 144.938 292.178 145.615 291.654C146.286 291.135 147.053 290.865 147.72 290.865V288.365V285.865C145.777 285.865 143.96 286.613 142.556 287.699C141.159 288.78 139.995 290.333 139.55 292.156L141.978 292.75ZM147.72 288.365V290.865C148.627 290.865 149.168 291.01 149.528 291.246C149.831 291.445 150.322 291.915 150.678 293.277L153.097 292.646L155.516 292.015C154.931 289.774 153.856 288.104 152.268 287.064C150.735 286.059 149.058 285.865 147.72 285.865V288.365ZM153.097 292.646L150.681 293.288C151.024 294.58 150.719 296.113 150.038 298.37C149.436 300.363 148.465 303.096 148.562 305.786L151.061 305.696L153.559 305.605C153.5 303.962 154.095 302.233 154.824 299.815C155.474 297.661 156.266 294.835 155.513 292.003L153.097 292.646ZM151.061 305.696L148.563 305.796C148.65 307.955 149.075 310.327 149.512 312.537C149.965 314.825 150.425 316.916 150.686 318.796C150.957 320.75 150.926 321.967 150.714 322.606C150.632 322.853 150.573 322.855 150.625 322.817C150.675 322.781 150.597 322.875 150.173 322.875V325.375V327.875C151.368 327.875 152.541 327.597 153.54 326.88C154.542 326.161 155.13 325.172 155.459 324.182C156.069 322.346 155.915 320.101 155.638 318.108C155.351 316.04 154.839 313.698 154.417 311.567C153.98 309.357 153.629 307.325 153.559 305.595L151.061 305.696ZM150.173 325.375V322.875H145.267V325.375V327.875H150.173V325.375ZM145.267 325.375V322.875C144.817 322.875 144.759 322.777 144.841 322.837C144.936 322.905 144.898 322.948 144.835 322.73C144.658 322.121 144.68 320.927 145.028 318.934C145.368 316.986 145.88 314.936 146.379 312.512C146.854 310.208 147.282 307.705 147.297 305.346L144.797 305.33L142.297 305.315C142.285 307.158 141.944 309.261 141.482 311.503C141.045 313.626 140.454 316.062 140.103 318.074C139.759 320.042 139.5 322.283 140.032 324.12C140.322 325.124 140.886 326.142 141.9 326.88C142.903 327.609 144.086 327.875 145.267 327.875V325.375ZM144.797 305.33L147.297 305.355C147.33 302.095 146.018 299.682 145.225 297.97C144.421 296.234 144.01 295.032 144.412 293.321L141.978 292.75L139.544 292.179C138.745 295.584 139.77 298.088 140.688 300.071C141.618 302.078 142.316 303.397 142.297 305.305L144.797 305.33ZM166.833 311.49L166.121 309.093L164.759 309.498L164.41 310.876L166.833 311.49ZM172.21 319.79L172.509 317.308L172.507 317.307L172.21 319.79ZM179.414 314.361L181.866 313.877L181.863 313.861L181.86 313.846L179.414 314.361ZM160.152 312.586L162.577 313.192L162.579 313.184L162.581 313.175L160.152 312.586ZM161.196 292.228L163.188 293.738L163.192 293.733L161.196 292.228ZM178.944 288.783L178.497 291.242L178.505 291.244L178.514 291.246L178.944 288.783ZM186.461 294.681L188.952 294.893L188.952 294.885L188.953 294.878L186.461 294.681ZM177.117 298.022L175.642 300.041L175.657 300.052L175.672 300.062L177.117 298.022ZM173.463 294.838L174.633 292.629L174.607 292.615L174.581 292.602L173.463 294.838ZM167.669 304.965L165.593 306.358L165.603 306.373L165.613 306.388L167.669 304.965ZM166.833 311.49L164.41 310.876C163.871 313.003 163.462 315.673 164.59 318.002C165.832 320.567 168.457 321.858 171.913 322.272L172.21 319.79L172.507 317.307C169.856 316.99 169.27 316.194 169.09 315.822C168.796 315.215 168.751 314.1 169.257 312.103L166.833 311.49ZM172.21 319.79L171.911 322.272C174.532 322.587 177.181 322.103 179.158 320.699C181.256 319.21 182.435 316.76 181.866 313.877L179.414 314.361L176.961 314.844C177.123 315.668 176.867 316.194 176.263 316.622C175.538 317.137 174.221 317.514 172.509 317.308L172.21 319.79ZM179.414 314.361L181.86 313.846C181.397 311.645 180.148 310.06 178.431 309.103C176.821 308.207 174.957 307.946 173.254 307.946V310.446V312.946C174.526 312.946 175.429 313.155 175.998 313.472C176.46 313.729 176.804 314.101 176.967 314.876L179.414 314.361ZM173.254 310.446V307.946C170.792 307.946 168.19 308.478 166.121 309.093L166.833 311.49L167.546 313.886C169.339 313.353 171.436 312.946 173.254 312.946V310.446ZM160.152 312.586L162.581 313.175C163.097 311.05 163.038 308.991 162.812 307.11C162.599 305.336 162.174 303.348 161.927 301.846C161.393 298.589 161.383 296.119 163.188 293.738L161.196 292.228L159.204 290.718C156.102 294.81 156.405 299.074 156.993 302.655C157.308 304.572 157.646 306.029 157.847 307.706C158.036 309.278 158.042 310.677 157.722 311.997L160.152 312.586ZM161.196 292.228L163.192 293.733C163.944 292.736 165.225 291.965 167.012 291.454C168.784 290.947 170.828 290.761 172.784 290.761V288.261V285.761C170.564 285.761 168.015 285.966 165.637 286.647C163.274 287.323 160.849 288.536 159.2 290.723L161.196 292.228ZM172.784 288.261V290.761C175.271 290.761 177.469 291.056 178.497 291.242L178.944 288.783L179.391 286.323C178.122 286.092 175.622 285.761 172.784 285.761V288.261ZM178.944 288.783L178.514 291.246C180.09 291.521 181.668 291.943 182.764 292.602C183.755 293.198 184.027 293.747 183.968 294.485L186.461 294.681L188.953 294.878C189.208 291.649 187.365 289.535 185.342 288.318C183.423 287.163 181.086 286.619 179.374 286.32L178.944 288.783ZM186.461 294.681L183.97 294.47C183.893 295.378 183.538 295.925 183.13 296.266C182.691 296.632 182.04 296.879 181.241 296.879V299.379V301.879C183.051 301.879 184.88 301.317 186.333 300.105C187.817 298.867 188.768 297.065 188.952 294.893L186.461 294.681ZM181.241 299.379V296.879C180.376 296.879 179.415 296.587 178.562 295.982L177.117 298.022L175.672 300.062C177.324 301.233 179.286 301.879 181.241 301.879V299.379ZM177.117 298.022L178.592 296.004C178.084 295.633 177.53 295.095 176.853 294.439C176.543 294.138 176.196 293.804 175.862 293.512C175.55 293.239 175.119 292.886 174.633 292.629L173.463 294.838L172.293 297.047C172.25 297.025 172.328 297.063 172.572 297.277C172.794 297.471 173.051 297.717 173.374 298.03C173.963 298.601 174.792 299.42 175.642 300.041L177.117 298.022ZM173.463 294.838L174.581 292.602C173.696 292.16 172.79 291.973 171.949 291.973V294.473V296.973C172.048 296.973 172.185 296.994 172.345 297.074L173.463 294.838ZM171.949 294.473V291.973C168.673 291.973 166.241 294.627 165.103 297.143C163.908 299.788 163.592 303.376 165.593 306.358L167.669 304.965L169.745 303.572C168.979 302.43 168.95 300.772 169.66 299.202C170.428 297.503 171.519 296.973 171.949 296.973V294.473ZM167.669 304.965L165.613 306.388C166.04 307.004 166.597 307.546 167.32 307.915C168.04 308.283 168.774 308.404 169.443 308.404V305.904V303.404C169.409 303.404 169.414 303.401 169.447 303.408C169.483 303.416 169.536 303.432 169.596 303.463C169.656 303.494 169.701 303.528 169.727 303.552C169.752 303.574 169.749 303.577 169.724 303.542L167.669 304.965ZM169.443 305.904V308.404C170.498 308.404 171.707 308.068 172.445 307.894C173.342 307.682 174.181 307.517 175.081 307.517V305.017V302.517C173.58 302.517 172.278 302.796 171.296 303.028C170.156 303.297 169.746 303.404 169.443 303.404V305.904ZM175.081 305.017V307.517C181.12 307.517 184.378 311.024 184.378 314.935H186.878H189.378C189.378 307.571 183.136 302.517 175.081 302.517V305.017ZM186.878 314.935H184.378C184.378 316.876 183.526 318.918 182.153 320.484C180.762 322.072 179.112 322.875 177.743 322.875V325.375V327.875C180.968 327.875 183.886 326.094 185.914 323.78C187.96 321.444 189.378 318.266 189.378 314.935H186.878ZM177.743 325.375V322.875H165.006V325.375V327.875H177.743V325.375ZM165.006 325.375V322.875C164.304 322.875 163.901 322.631 163.547 322.182C163.112 321.63 162.741 320.716 162.513 319.469C162.053 316.96 162.344 314.123 162.577 313.192L160.152 312.586L157.726 311.98C157.333 313.554 156.998 317.112 157.595 320.371C157.895 322.008 158.474 323.822 159.619 325.276C160.846 326.833 162.655 327.875 165.006 327.875V325.375ZM200.934 309.611L198.51 310.225L199.069 312.428L201.315 312.081L200.934 309.611ZM210.382 301.467L207.882 301.51L207.883 301.525L207.883 301.54L210.382 301.467ZM201.351 298.649L203.289 300.228L203.303 300.211L203.317 300.193L201.351 298.649ZM201.873 288.835L201.083 286.463L201.047 286.475L201.011 286.488L201.873 288.835ZM213.775 291.967L215.748 290.432L215.74 290.421L215.731 290.41L213.775 291.967ZM216.959 300.476L214.499 300.917L214.499 300.92L216.959 300.476ZM208.607 313.056L209.66 310.788L209.651 310.784L209.642 310.78L208.607 313.056ZM202.343 314.622L204.799 314.151L204.795 314.133L204.791 314.115L202.343 314.622ZM193.991 313.526L196.425 314.099L196.427 314.091L193.991 313.526ZM200.934 309.611L201.315 312.081C205.747 311.397 208.813 310.138 210.702 308.099C212.68 305.965 212.941 303.448 212.881 301.395L210.382 301.467L207.883 301.54C207.928 303.089 207.693 303.99 207.034 304.701C206.287 305.508 204.577 306.519 200.553 307.14L200.934 309.611ZM210.382 301.467L212.882 301.424C212.804 296.935 209.245 294.061 205.527 294.061V296.561V299.061C206.717 299.061 207.855 299.945 207.882 301.51L210.382 301.467ZM205.527 296.561V294.061C203.339 294.061 201.033 295.008 199.386 297.104L201.351 298.649L203.317 300.193C203.967 299.366 204.792 299.061 205.527 299.061V296.561ZM201.351 298.649L199.414 297.069C197.552 299.353 197.089 301.777 197.238 304.094C197.375 306.223 198.065 308.465 198.51 310.225L200.934 309.611L203.357 308.997C202.811 306.841 202.326 305.298 202.228 303.773C202.142 302.437 202.385 301.337 203.289 300.228L201.351 298.649ZM201.873 288.835L202.664 291.207C203.35 290.978 204.232 290.813 205.214 290.813V288.313V285.813C203.691 285.813 202.276 286.066 201.083 286.463L201.873 288.835ZM205.214 288.313V290.813C207.729 290.813 210.418 291.763 211.819 293.524L213.775 291.967L215.731 290.41C213.061 287.055 208.65 285.813 205.214 285.813V288.313ZM213.775 291.967L211.802 293.502C212.906 294.922 213.8 297.023 214.499 300.917L216.959 300.476L219.42 300.034C218.657 295.785 217.567 292.771 215.748 290.432L213.775 291.967ZM216.959 300.476L214.499 300.92C215.27 305.184 216.063 311.239 216.038 316.162C216.026 318.658 215.801 320.641 215.378 321.918C215.169 322.553 214.969 322.828 214.884 322.915C214.853 322.946 214.863 322.928 214.916 322.904C214.941 322.893 214.967 322.885 214.991 322.88C215.014 322.875 215.028 322.875 215.028 322.875V325.375V327.875C218.032 327.875 219.487 325.42 220.126 323.488C220.799 321.451 221.025 318.834 221.038 316.187C221.065 310.827 220.215 304.432 219.419 300.031L216.959 300.476ZM215.028 325.375V322.875H210.173V325.375V327.875H215.028V325.375ZM210.173 325.375V322.875C209.655 322.875 209.728 322.764 209.967 322.948C210.281 323.189 210.325 323.493 210.323 323.474C210.314 323.39 210.319 323.125 210.445 322.589C210.566 322.077 210.756 321.485 210.994 320.783C211.423 319.52 212.092 317.717 212.281 316.136C212.38 315.311 212.388 314.29 212.009 313.287C211.595 312.19 210.793 311.314 209.66 310.788L208.607 313.056L207.554 315.323C207.565 315.328 207.515 315.306 207.45 315.236C207.384 315.165 207.347 315.094 207.331 315.052C207.312 315.001 207.367 315.117 207.317 315.543C207.207 316.462 206.79 317.613 206.26 319.175C206.018 319.886 205.76 320.675 205.579 321.439C205.404 322.18 205.254 323.087 205.35 323.999C205.454 324.976 205.863 326.099 206.917 326.91C207.898 327.665 209.086 327.875 210.173 327.875V325.375ZM208.607 313.056L209.642 310.78C208.615 310.313 207.068 310.086 205.736 310.086V312.586V315.086C206.167 315.086 206.602 315.126 206.971 315.188C207.154 315.219 207.305 315.253 207.42 315.284C207.543 315.318 207.587 315.338 207.573 315.332L208.607 313.056ZM205.736 312.586V310.086C204.668 310.086 203.301 310.227 202.146 310.787C201.547 311.078 200.843 311.56 200.354 312.357C199.828 313.214 199.701 314.19 199.895 315.128L202.343 314.622L204.791 314.115C204.806 314.185 204.821 314.316 204.794 314.487C204.767 314.662 204.703 314.829 204.615 314.973C204.447 315.246 204.269 315.314 204.328 315.285C204.381 315.26 204.533 315.203 204.809 315.156C205.075 315.111 205.392 315.086 205.736 315.086V312.586ZM202.343 314.622L199.888 315.092C200.485 318.209 200.626 320.436 200.313 321.78C200.17 322.395 199.98 322.604 199.902 322.671C199.846 322.719 199.642 322.875 199.002 322.875V325.375V327.875C200.529 327.875 201.976 327.47 203.141 326.48C204.282 325.51 204.882 324.205 205.183 322.914C205.757 320.449 205.402 317.298 204.799 314.151L202.343 314.622ZM199.002 325.375V322.875H193.521V325.375V327.875H199.002V325.375ZM193.521 325.375V322.875C192.821 322.875 193.413 322.699 193.773 323.372C193.948 323.698 193.758 323.719 193.971 322.705C194.155 321.829 194.509 320.72 194.982 319.207C195.439 317.749 195.972 316.021 196.425 314.099L193.991 313.526L191.558 312.952C191.15 314.684 190.664 316.265 190.211 317.713C189.774 319.107 189.325 320.504 189.078 321.677C188.861 322.711 188.613 324.325 189.364 325.73C190.302 327.483 192.107 327.875 193.521 327.875V325.375ZM193.991 313.526L196.427 314.091C196.867 312.194 196.717 309.796 196.572 307.663C196.416 305.365 196.23 303.061 196.357 300.812C196.482 298.576 196.91 296.618 197.84 295.023C198.734 293.489 200.192 292.116 202.736 291.182L201.873 288.835L201.011 286.488C197.447 287.798 195.037 289.903 193.52 292.506C192.038 295.048 191.513 297.886 191.365 300.531C191.217 303.162 191.436 305.824 191.583 308.002C191.742 310.345 191.794 311.934 191.556 312.96L193.991 313.526Z" fill="black" mask="url(#path-20-outside-1_3683_1464)"/>
<path d="M117.992 339.312V356.375H115.766V339.312H117.992ZM123.477 339.312V341.164H110.293V339.312H123.477ZM131.82 354.207V347.68C131.82 347.18 131.719 346.746 131.516 346.379C131.32 346.004 131.023 345.715 130.625 345.512C130.227 345.309 129.734 345.207 129.148 345.207C128.602 345.207 128.121 345.301 127.707 345.488C127.301 345.676 126.98 345.922 126.746 346.227C126.52 346.531 126.406 346.859 126.406 347.211H124.238C124.238 346.758 124.355 346.309 124.59 345.863C124.824 345.418 125.16 345.016 125.598 344.656C126.043 344.289 126.574 344 127.191 343.789C127.816 343.57 128.512 343.461 129.277 343.461C130.199 343.461 131.012 343.617 131.715 343.93C132.426 344.242 132.98 344.715 133.379 345.348C133.785 345.973 133.988 346.758 133.988 347.703V353.609C133.988 354.031 134.023 354.48 134.094 354.957C134.172 355.434 134.285 355.844 134.434 356.188V356.375H132.172C132.062 356.125 131.977 355.793 131.914 355.379C131.852 354.957 131.82 354.566 131.82 354.207ZM132.195 348.688L132.219 350.211H130.027C129.41 350.211 128.859 350.262 128.375 350.363C127.891 350.457 127.484 350.602 127.156 350.797C126.828 350.992 126.578 351.238 126.406 351.535C126.234 351.824 126.148 352.164 126.148 352.555C126.148 352.953 126.238 353.316 126.418 353.645C126.598 353.973 126.867 354.234 127.227 354.43C127.594 354.617 128.043 354.711 128.574 354.711C129.238 354.711 129.824 354.57 130.332 354.289C130.84 354.008 131.242 353.664 131.539 353.258C131.844 352.852 132.008 352.457 132.031 352.074L132.957 353.117C132.902 353.445 132.754 353.809 132.512 354.207C132.27 354.605 131.945 354.988 131.539 355.355C131.141 355.715 130.664 356.016 130.109 356.258C129.562 356.492 128.945 356.609 128.258 356.609C127.398 356.609 126.645 356.441 125.996 356.105C125.355 355.77 124.855 355.32 124.496 354.758C124.145 354.188 123.969 353.551 123.969 352.848C123.969 352.168 124.102 351.57 124.367 351.055C124.633 350.531 125.016 350.098 125.516 349.754C126.016 349.402 126.617 349.137 127.32 348.957C128.023 348.777 128.809 348.688 129.676 348.688H132.195ZM144.688 353.492L149 343.695H151.086L145.438 356.375H143.938L138.312 343.695H140.398L144.688 353.492ZM139.766 343.695V356.375H137.598V343.695H139.766ZM149.539 356.375V343.695H151.719V356.375H149.539ZM162.688 354.207V347.68C162.688 347.18 162.586 346.746 162.383 346.379C162.188 346.004 161.891 345.715 161.492 345.512C161.094 345.309 160.602 345.207 160.016 345.207C159.469 345.207 158.988 345.301 158.574 345.488C158.168 345.676 157.848 345.922 157.613 346.227C157.387 346.531 157.273 346.859 157.273 347.211H155.105C155.105 346.758 155.223 346.309 155.457 345.863C155.691 345.418 156.027 345.016 156.465 344.656C156.91 344.289 157.441 344 158.059 343.789C158.684 343.57 159.379 343.461 160.145 343.461C161.066 343.461 161.879 343.617 162.582 343.93C163.293 344.242 163.848 344.715 164.246 345.348C164.652 345.973 164.855 346.758 164.855 347.703V353.609C164.855 354.031 164.891 354.48 164.961 354.957C165.039 355.434 165.152 355.844 165.301 356.188V356.375H163.039C162.93 356.125 162.844 355.793 162.781 355.379C162.719 354.957 162.688 354.566 162.688 354.207ZM163.062 348.688L163.086 350.211H160.895C160.277 350.211 159.727 350.262 159.242 350.363C158.758 350.457 158.352 350.602 158.023 350.797C157.695 350.992 157.445 351.238 157.273 351.535C157.102 351.824 157.016 352.164 157.016 352.555C157.016 352.953 157.105 353.316 157.285 353.645C157.465 353.973 157.734 354.234 158.094 354.43C158.461 354.617 158.91 354.711 159.441 354.711C160.105 354.711 160.691 354.57 161.199 354.289C161.707 354.008 162.109 353.664 162.406 353.258C162.711 352.852 162.875 352.457 162.898 352.074L163.824 353.117C163.77 353.445 163.621 353.809 163.379 354.207C163.137 354.605 162.812 354.988 162.406 355.355C162.008 355.715 161.531 356.016 160.977 356.258C160.43 356.492 159.812 356.609 159.125 356.609C158.266 356.609 157.512 356.441 156.863 356.105C156.223 355.77 155.723 355.32 155.363 354.758C155.012 354.188 154.836 353.551 154.836 352.848C154.836 352.168 154.969 351.57 155.234 351.055C155.5 350.531 155.883 350.098 156.383 349.754C156.883 349.402 157.484 349.137 158.188 348.957C158.891 348.777 159.676 348.688 160.543 348.688H163.062ZM170.434 346.133V361.25H168.254V343.695H170.246L170.434 346.133ZM178.977 349.93V350.176C178.977 351.098 178.867 351.953 178.648 352.742C178.43 353.523 178.109 354.203 177.688 354.781C177.273 355.359 176.762 355.809 176.152 356.129C175.543 356.449 174.844 356.609 174.055 356.609C173.25 356.609 172.539 356.477 171.922 356.211C171.305 355.945 170.781 355.559 170.352 355.051C169.922 354.543 169.578 353.934 169.32 353.223C169.07 352.512 168.898 351.711 168.805 350.82V349.508C168.898 348.57 169.074 347.73 169.332 346.988C169.59 346.246 169.93 345.613 170.352 345.09C170.781 344.559 171.301 344.156 171.91 343.883C172.52 343.602 173.223 343.461 174.02 343.461C174.816 343.461 175.523 343.617 176.141 343.93C176.758 344.234 177.277 344.672 177.699 345.242C178.121 345.812 178.438 346.496 178.648 347.293C178.867 348.082 178.977 348.961 178.977 349.93ZM176.797 350.176V349.93C176.797 349.297 176.73 348.703 176.598 348.148C176.465 347.586 176.258 347.094 175.977 346.672C175.703 346.242 175.352 345.906 174.922 345.664C174.492 345.414 173.98 345.289 173.387 345.289C172.84 345.289 172.363 345.383 171.957 345.57C171.559 345.758 171.219 346.012 170.938 346.332C170.656 346.645 170.426 347.004 170.246 347.41C170.074 347.809 169.945 348.223 169.859 348.652V351.688C170.016 352.234 170.234 352.75 170.516 353.234C170.797 353.711 171.172 354.098 171.641 354.395C172.109 354.684 172.699 354.828 173.41 354.828C173.996 354.828 174.5 354.707 174.922 354.465C175.352 354.215 175.703 353.875 175.977 353.445C176.258 353.016 176.465 352.523 176.598 351.969C176.73 351.406 176.797 350.809 176.797 350.176ZM189.219 354.207V347.68C189.219 347.18 189.117 346.746 188.914 346.379C188.719 346.004 188.422 345.715 188.023 345.512C187.625 345.309 187.133 345.207 186.547 345.207C186 345.207 185.52 345.301 185.105 345.488C184.699 345.676 184.379 345.922 184.145 346.227C183.918 346.531 183.805 346.859 183.805 347.211H181.637C181.637 346.758 181.754 346.309 181.988 345.863C182.223 345.418 182.559 345.016 182.996 344.656C183.441 344.289 183.973 344 184.59 343.789C185.215 343.57 185.91 343.461 186.676 343.461C187.598 343.461 188.41 343.617 189.113 343.93C189.824 344.242 190.379 344.715 190.777 345.348C191.184 345.973 191.387 346.758 191.387 347.703V353.609C191.387 354.031 191.422 354.48 191.492 354.957C191.57 355.434 191.684 355.844 191.832 356.188V356.375H189.57C189.461 356.125 189.375 355.793 189.312 355.379C189.25 354.957 189.219 354.566 189.219 354.207ZM189.594 348.688L189.617 350.211H187.426C186.809 350.211 186.258 350.262 185.773 350.363C185.289 350.457 184.883 350.602 184.555 350.797C184.227 350.992 183.977 351.238 183.805 351.535C183.633 351.824 183.547 352.164 183.547 352.555C183.547 352.953 183.637 353.316 183.816 353.645C183.996 353.973 184.266 354.234 184.625 354.43C184.992 354.617 185.441 354.711 185.973 354.711C186.637 354.711 187.223 354.57 187.73 354.289C188.238 354.008 188.641 353.664 188.938 353.258C189.242 352.852 189.406 352.457 189.43 352.074L190.355 353.117C190.301 353.445 190.152 353.809 189.91 354.207C189.668 354.605 189.344 354.988 188.938 355.355C188.539 355.715 188.062 356.016 187.508 356.258C186.961 356.492 186.344 356.609 185.656 356.609C184.797 356.609 184.043 356.441 183.395 356.105C182.754 355.77 182.254 355.32 181.895 354.758C181.543 354.188 181.367 353.551 181.367 352.848C181.367 352.168 181.5 351.57 181.766 351.055C182.031 350.531 182.414 350.098 182.914 349.754C183.414 349.402 184.016 349.137 184.719 348.957C185.422 348.777 186.207 348.688 187.074 348.688H189.594Z" fill="black"/>
</g>
<rect x="1.56722" y="1.56722" width="297.693" height="439.866" rx="28.3095" stroke="black" stroke-width="3.13443"/>
<defs>
<clipPath id="clip0_3683_1464">
<rect width="300.828" height="443" rx="29.8767" fill="white"/>
</clipPath>
</defs>
</svg>
